<?xml version="1.0" encoding="UTF-8" standalone="no"?>
<!DOCTYPE svg PUBLIC "-//W3C//DTD SVG 1.1//EN"
 "http://www.w3.org/Graphics/SVG/1.1/DTD/svg11.dtd">
<!-- Generated by graphviz version 2.26.3 (20100126.1600)
 -->
<!-- Title: Chinese Whispers module suggestions Pages: 1 -->
<svg width="3286pt" height="520pt"
 viewBox="0.00 0.00 3286.00 520.00" xmlns="http://www.w3.org/2000/svg" xmlns:xlink="http://www.w3.org/1999/xlink">
<g id="graph1" class="graph" transform="scale(1 1) rotate(0) translate(4 516)">
<title>Chinese Whispers module suggestions</title>
<polygon fill="white" stroke="white" points="-4,5 -4,-516 3283,-516 3283,5 -4,5"/>
<g id="graph2" class="cluster"><title>cluster_1</title>
<polygon fill="lavender" stroke="black" points="1188,-266 1188,-418 2724,-418 2724,-266 1188,-266"/>
</g>
<g id="graph3" class="cluster"><title>cluster_2</title>
<polygon fill="lavender" stroke="black" points="744,-8 744,-418 1180,-418 1180,-8 744,-8"/>
</g>
<g id="graph4" class="cluster"><title>cluster_3</title>
<polygon fill="lavender" stroke="black" points="8,-94 8,-504 736,-504 736,-94 8,-94"/>
</g>
<g id="graph5" class="cluster"><title>cluster_4</title>
<polygon fill="lavender" stroke="black" points="2732,-266 2732,-418 3104,-418 3104,-266 2732,-266"/>
</g>
<g id="graph6" class="cluster"><title>cluster_5</title>
<polygon fill="lavender" stroke="black" points="1975,-94 1975,-246 2285,-246 2285,-94 1975,-94"/>
</g>
<g id="graph7" class="cluster"><title>cluster_6</title>
<polygon fill="lavender" stroke="black" points="3112,-180 3112,-332 3270,-332 3270,-180 3112,-180"/>
</g>
<g id="graph8" class="cluster"><title>cluster_7</title>
<polygon fill="lavender" stroke="black" points="1750,-438 1750,-504 1920,-504 1920,-438 1750,-438"/>
</g>
<g id="graph9" class="cluster"><title>cluster_8</title>
<polygon fill="lavender" stroke="black" points="2431,-438 2431,-504 2539,-504 2539,-438 2431,-438"/>
</g>
<g id="graph10" class="cluster"><title>cluster_9</title>
<polygon fill="lavender" stroke="black" points="2706,-94 2706,-160 2844,-160 2844,-94 2706,-94"/>
</g>
<g id="graph11" class="cluster"><title>cluster_10</title>
<polygon fill="lavender" stroke="black" points="2798,-438 2798,-504 3018,-504 3018,-438 2798,-438"/>
</g>
<!-- 17 -->
<g id="node2" class="node"><title>17</title>
<polygon fill="crimson" stroke="black" points="1922,-410 1828,-410 1828,-360 1922,-360 1922,-410"/>
<text text-anchor="middle" x="1875" y="-390.4" font-family="Times Roman,serif" font-size="14.00">Input</text>
<text text-anchor="middle" x="1875" y="-372.4" font-family="Times Roman,serif" font-size="14.00">input</text>
</g>
<!-- 18 -->
<g id="node3" class="node"><title>18</title>
<polygon fill="crimson" stroke="black" points="2532,-324 2426,-324 2426,-274 2532,-274 2532,-324"/>
<text text-anchor="middle" x="2479" y="-304.4" font-family="Times Roman,serif" font-size="14.00">Input</text>
<text text-anchor="middle" x="2479" y="-286.4" font-family="Times Roman,serif" font-size="14.00">update</text>
</g>
<!-- 17&#45;&gt;18 -->
<g id="edge88" class="edge"><title>17&#45;&gt;18</title>
<path fill="none" stroke="black" stroke-width="3.83321" d="M1922.42,-382.736C2036.74,-376.898 2324.91,-359.813 2417,-332 2420.6,-330.914 2424.23,-329.611 2427.83,-328.159"/>
<polygon fill="black" stroke="black" points="2429.51,-331.244 2437.26,-324.016 2426.69,-324.835 2429.51,-331.244"/>
</g>
<!-- 31 -->
<g id="node4" class="node"><title>31</title>
<polygon fill="crimson" stroke="black" points="2716,-324 2550,-324 2550,-274 2716,-274 2716,-324"/>
<text text-anchor="middle" x="2633" y="-304.4" font-family="Times Roman,serif" font-size="14.00">ProgramState</text>
<text text-anchor="middle" x="2633" y="-286.4" font-family="Times Roman,serif" font-size="14.00">extractLevelRef</text>
</g>
<!-- 17&#45;&gt;31 -->
<g id="edge90" class="edge"><title>17&#45;&gt;31</title>
<path fill="none" stroke="black" stroke-width="1.69315" d="M1922.12,-382.874C2053.59,-376.686 2422.5,-357.493 2541,-332 2547.26,-330.653 2553.67,-328.987 2560.06,-327.124"/>
<polygon fill="black" stroke="black" points="2561.52,-330.337 2570.04,-324.052 2559.46,-323.647 2561.52,-330.337"/>
</g>
<!-- 32 -->
<g id="node5" class="node"><title>32</title>
<polygon fill="crimson" stroke="black" points="2408,-324 2242,-324 2242,-274 2408,-274 2408,-324"/>
<text text-anchor="middle" x="2325" y="-304.4" font-family="Times Roman,serif" font-size="14.00">ProgramState</text>
<text text-anchor="middle" x="2325" y="-286.4" font-family="Times Roman,serif" font-size="14.00">extractModeRef</text>
</g>
<!-- 17&#45;&gt;32 -->
<g id="edge92" class="edge"><title>17&#45;&gt;32</title>
<path fill="none" stroke="black" stroke-width="2.09861" d="M1922.21,-381.006C1991.24,-374.493 2123.45,-359.469 2233,-332 2238.69,-330.572 2244.53,-328.928 2250.36,-327.151"/>
<polygon fill="black" stroke="black" points="2251.68,-330.406 2260.15,-324.052 2249.56,-323.733 2251.68,-330.406"/>
</g>
<!-- 33 -->
<g id="node6" class="node"><title>33</title>
<polygon fill="crimson" stroke="black" points="1350,-324 1196,-324 1196,-274 1350,-274 1350,-324"/>
<text text-anchor="middle" x="1273" y="-304.4" font-family="Times Roman,serif" font-size="14.00">ProgramState</text>
<text text-anchor="middle" x="1273" y="-286.4" font-family="Times Roman,serif" font-size="14.00">extractRXRef</text>
</g>
<!-- 17&#45;&gt;33 -->
<g id="edge94" class="edge"><title>17&#45;&gt;33</title>
<path fill="none" stroke="black" stroke-width="1.69315" d="M1827.62,-381.74C1717.59,-373.91 1447.47,-353.123 1359,-332 1353.42,-330.668 1347.71,-329.061 1342.03,-327.282"/>
<polygon fill="black" stroke="black" points="1343.1,-323.949 1332.5,-324.145 1340.91,-330.598 1343.1,-323.949"/>
</g>
<!-- 34 -->
<g id="node7" class="node"><title>34</title>
<polygon fill="crimson" stroke="black" points="1522,-324 1368,-324 1368,-274 1522,-274 1522,-324"/>
<text text-anchor="middle" x="1445" y="-304.4" font-family="Times Roman,serif" font-size="14.00">ProgramState</text>
<text text-anchor="middle" x="1445" y="-286.4" font-family="Times Roman,serif" font-size="14.00">extractRYRef</text>
</g>
<!-- 17&#45;&gt;34 -->
<g id="edge96" class="edge"><title>17&#45;&gt;34</title>
<path fill="none" stroke="black" stroke-width="1.69315" d="M1827.89,-380.955C1761.01,-374.492 1635.1,-359.652 1531,-332 1525.78,-330.614 1520.45,-329.021 1515.11,-327.297"/>
<polygon fill="black" stroke="black" points="1516.14,-323.949 1505.55,-324.073 1513.9,-330.583 1516.14,-323.949"/>
</g>
<!-- 35 -->
<g id="node8" class="node"><title>35</title>
<polygon fill="crimson" stroke="black" points="1694,-324 1540,-324 1540,-274 1694,-274 1694,-324"/>
<text text-anchor="middle" x="1617" y="-304.4" font-family="Times Roman,serif" font-size="14.00">ProgramState</text>
<text text-anchor="middle" x="1617" y="-286.4" font-family="Times Roman,serif" font-size="14.00">extractRZRef</text>
</g>
<!-- 17&#45;&gt;35 -->
<g id="edge98" class="edge"><title>17&#45;&gt;35</title>
<path fill="none" stroke="black" stroke-width="1.69315" d="M1827.63,-371.342C1792.93,-361.108 1744.79,-346.438 1703,-332 1699,-330.619 1694.92,-329.172 1690.8,-327.686"/>
<polygon fill="black" stroke="black" points="1691.76,-324.31 1681.16,-324.164 1689.35,-330.885 1691.76,-324.31"/>
</g>
<!-- 36 -->
<g id="node9" class="node"><title>36</title>
<polygon fill="crimson" stroke="black" points="1866,-324 1712,-324 1712,-274 1866,-274 1866,-324"/>
<text text-anchor="middle" x="1789" y="-304.4" font-family="Times Roman,serif" font-size="14.00">ProgramState</text>
<text text-anchor="middle" x="1789" y="-286.4" font-family="Times Roman,serif" font-size="14.00">extractTXRef</text>
</g>
<!-- 17&#45;&gt;36 -->
<g id="edge100" class="edge"><title>17&#45;&gt;36</title>
<path fill="none" stroke="black" stroke-width="1.69315" d="M1849.66,-359.662C1840.83,-350.827 1830.79,-340.787 1821.45,-331.454"/>
<polygon fill="black" stroke="black" points="1823.7,-328.753 1814.16,-324.157 1818.75,-333.703 1823.7,-328.753"/>
</g>
<!-- 37 -->
<g id="node10" class="node"><title>37</title>
<polygon fill="crimson" stroke="black" points="2038,-324 1884,-324 1884,-274 2038,-274 2038,-324"/>
<text text-anchor="middle" x="1961" y="-304.4" font-family="Times Roman,serif" font-size="14.00">ProgramState</text>
<text text-anchor="middle" x="1961" y="-286.4" font-family="Times Roman,serif" font-size="14.00">extractTYRef</text>
</g>
<!-- 17&#45;&gt;37 -->
<g id="edge102" class="edge"><title>17&#45;&gt;37</title>
<path fill="none" stroke="black" stroke-width="1.69315" d="M1900.34,-359.662C1909.17,-350.827 1919.21,-340.787 1928.55,-331.454"/>
<polygon fill="black" stroke="black" points="1931.25,-333.703 1935.84,-324.157 1926.3,-328.753 1931.25,-333.703"/>
</g>
<!-- 39 -->
<g id="node11" class="node"><title>39</title>
<polygon fill="crimson" stroke="black" points="2224,-324 2056,-324 2056,-274 2224,-274 2224,-324"/>
<text text-anchor="middle" x="2140" y="-304.4" font-family="Times Roman,serif" font-size="14.00">ProgramState</text>
<text text-anchor="middle" x="2140" y="-286.4" font-family="Times Roman,serif" font-size="14.00">extractZoomRef</text>
</g>
<!-- 17&#45;&gt;39 -->
<g id="edge104" class="edge"><title>17&#45;&gt;39</title>
<path fill="none" stroke="black" stroke-width="1.69315" d="M1922.26,-371.022C1956.91,-360.632 2005.03,-345.906 2047,-332 2051.54,-330.496 2056.19,-328.928 2060.88,-327.328"/>
<polygon fill="black" stroke="black" points="2062.22,-330.57 2070.54,-324.008 2059.94,-323.95 2062.22,-330.57"/>
</g>
<!-- 38 -->
<g id="node35" class="node"><title>38</title>
<polygon fill="crimson" stroke="black" points="3096,-324 2918,-324 2918,-274 3096,-274 3096,-324"/>
<text text-anchor="middle" x="3007" y="-304.4" font-family="Times Roman,serif" font-size="14.00">ProgramState</text>
<text text-anchor="middle" x="3007" y="-286.4" font-family="Times Roman,serif" font-size="14.00">extractUpdateRef</text>
</g>
<!-- 18&#45;&gt;38 -->
<g id="edge106" class="edge"><title>18&#45;&gt;38</title>
<path fill="none" stroke="black" d="M2508.45,-324.096C2520.52,-332.816 2535.14,-341.526 2550,-346 2587.24,-357.209 2861.94,-353.99 2900,-346 2917.51,-342.323 2935.66,-335.602 2951.92,-328.37"/>
<polygon fill="black" stroke="black" points="2953.64,-331.432 2961.26,-324.072 2950.71,-325.073 2953.64,-331.432"/>
</g>
<!-- 4 -->
<g id="node13" class="node"><title>4</title>
<polygon fill="crimson" stroke="black" points="1164,-324 1030,-324 1030,-274 1164,-274 1164,-324"/>
<text text-anchor="middle" x="1097" y="-304.4" font-family="Times Roman,serif" font-size="14.00">DNA</text>
<text text-anchor="middle" x="1097" y="-286.4" font-family="Times Roman,serif" font-size="14.00">renderDNA</text>
</g>
<!-- 11 -->
<g id="node15" class="node"><title>11</title>
<polygon fill="crimson" stroke="black" points="1172,-238 1022,-238 1022,-188 1172,-188 1172,-238"/>
<text text-anchor="middle" x="1097" y="-218.4" font-family="Times Roman,serif" font-size="14.00">DoubleHelix</text>
<text text-anchor="middle" x="1097" y="-200.4" font-family="Times Roman,serif" font-size="14.00">renderDHelix</text>
</g>
<!-- 4&#45;&gt;11 -->
<g id="edge24" class="edge"><title>4&#45;&gt;11</title>
<path fill="none" stroke="black" stroke-width="1.69315" d="M1097,-273.662C1097,-265.702 1097,-256.763 1097,-248.245"/>
<polygon fill="black" stroke="black" points="1100.5,-248.157 1097,-238.157 1093.5,-248.157 1100.5,-248.157"/>
</g>
<!-- 24 -->
<g id="node18" class="node"><title>24</title>
<polygon fill="crimson" stroke="black" points="886,-238 792,-238 792,-188 886,-188 886,-238"/>
<text text-anchor="middle" x="839" y="-218.4" font-family="Times Roman,serif" font-size="14.00">Math</text>
<text text-anchor="middle" x="839" y="-200.4" font-family="Times Roman,serif" font-size="14.00">phi</text>
</g>
<!-- 4&#45;&gt;24 -->
<g id="edge28" class="edge"><title>4&#45;&gt;24</title>
<path fill="none" stroke="black" d="M1043.65,-273.844C1036.15,-270.898 1028.46,-268.173 1021,-266 966.563,-250.138 948.361,-265.174 895,-246 892.119,-244.965 889.22,-243.779 886.339,-242.485"/>
<polygon fill="black" stroke="black" points="887.765,-239.286 877.244,-238.041 884.692,-245.575 887.765,-239.286"/>
</g>
<!-- 25 -->
<g id="node19" class="node"><title>25</title>
<polygon fill="crimson" stroke="black" points="1004,-238 904,-238 904,-188 1004,-188 1004,-238"/>
<text text-anchor="middle" x="954" y="-218.4" font-family="Times Roman,serif" font-size="14.00">Misc</text>
<text text-anchor="middle" x="954" y="-200.4" font-family="Times Roman,serif" font-size="14.00">colour</text>
</g>
<!-- 4&#45;&gt;25 -->
<g id="edge30" class="edge"><title>4&#45;&gt;25</title>
<path fill="none" stroke="black" stroke-width="1.69315" d="M1055.25,-273.894C1039.53,-264.44 1021.48,-253.582 1005.01,-243.676"/>
<polygon fill="black" stroke="black" points="1006.42,-240.44 996.045,-238.286 1002.81,-246.439 1006.42,-240.44"/>
</g>
<!-- 27 -->
<g id="node21" class="node"><title>27</title>
<polygon fill="crimson" stroke="black" points="846,-66 752,-66 752,-16 846,-16 846,-66"/>
<text text-anchor="middle" x="799" y="-46.4" font-family="Times Roman,serif" font-size="14.00">Misc</text>
<text text-anchor="middle" x="799" y="-28.4" font-family="Times Roman,serif" font-size="14.00">vec3f</text>
</g>
<!-- 4&#45;&gt;27 -->
<g id="edge32" class="edge"><title>4&#45;&gt;27</title>
<path fill="none" stroke="black" stroke-width="2.38629" d="M1045.45,-273.971C1037.42,-270.846 1029.09,-268.038 1021,-266 995.266,-259.518 800.962,-265.535 783,-246 740.679,-199.974 763.758,-120.968 782.556,-75.6552"/>
<polygon fill="black" stroke="black" points="785.865,-76.8206 786.598,-66.2511 779.434,-74.0567 785.865,-76.8206"/>
</g>
<!-- 23 -->
<g id="node48" class="node"><title>23</title>
<polygon fill="crimson" stroke="black" points="2818,-152 2714,-152 2714,-102 2818,-102 2818,-152"/>
<text text-anchor="middle" x="2766" y="-132.4" font-family="Times Roman,serif" font-size="14.00">Math</text>
<text text-anchor="middle" x="2766" y="-114.4" font-family="Times Roman,serif" font-size="14.00">fromTo</text>
</g>
<!-- 4&#45;&gt;23 -->
<g id="edge26" class="edge"><title>4&#45;&gt;23</title>
<path fill="none" stroke="black" d="M1154.69,-273.973C1164.32,-270.714 1174.32,-267.864 1184,-266 1425.16,-219.54 2045.52,-278.152 2289,-246 2440.7,-225.968 2613.86,-175.632 2704.03,-147.26"/>
<polygon fill="black" stroke="black" points="2705.33,-150.518 2713.81,-144.165 2703.22,-143.844 2705.33,-150.518"/>
</g>
<!-- 7 -->
<g id="node14" class="node"><title>7</title>
<polygon fill="crimson" stroke="black" points="1172,-410 1064,-410 1064,-360 1172,-360 1172,-410"/>
<text text-anchor="middle" x="1118" y="-390.4" font-family="Times Roman,serif" font-size="14.00">Display</text>
<text text-anchor="middle" x="1118" y="-372.4" font-family="Times Roman,serif" font-size="14.00">display</text>
</g>
<!-- 7&#45;&gt;32 -->
<g id="edge54" class="edge"><title>7&#45;&gt;32</title>
<path fill="none" stroke="black" d="M1172.33,-362.814C1176.24,-361.716 1180.15,-360.757 1184,-360 1412.8,-314.955 2003.81,-375.02 2233,-332 2239.72,-330.738 2246.61,-329.055 2253.44,-327.115"/>
<polygon fill="black" stroke="black" points="2254.83,-330.353 2263.39,-324.109 2252.8,-323.652 2254.83,-330.353"/>
</g>
<!-- 7&#45;&gt;33 -->
<g id="edge56" class="edge"><title>7&#45;&gt;33</title>
<path fill="none" stroke="black" d="M1163.25,-359.894C1180.68,-350.222 1200.76,-339.081 1218.94,-328.993"/>
<polygon fill="black" stroke="black" points="1220.65,-332.049 1227.69,-324.137 1217.25,-325.928 1220.65,-332.049"/>
</g>
<!-- 7&#45;&gt;34 -->
<g id="edge58" class="edge"><title>7&#45;&gt;34</title>
<path fill="none" stroke="black" d="M1172.1,-363.509C1176.1,-362.229 1180.09,-361.041 1184,-360 1260.11,-339.722 1282.93,-352.442 1359,-332 1364.21,-330.599 1369.55,-328.994 1374.88,-327.263"/>
<polygon fill="black" stroke="black" points="1376.09,-330.547 1384.44,-324.028 1373.85,-323.916 1376.09,-330.547"/>
</g>
<!-- 7&#45;&gt;35 -->
<g id="edge60" class="edge"><title>7&#45;&gt;35</title>
<path fill="none" stroke="black" d="M1172.01,-363.16C1176.03,-361.962 1180.06,-360.888 1184,-360 1334.95,-326.038 1380.12,-366.287 1531,-332 1536.69,-330.706 1542.51,-329.11 1548.31,-327.324"/>
<polygon fill="black" stroke="black" points="1549.58,-330.588 1558.01,-324.159 1547.41,-323.934 1549.58,-330.588"/>
</g>
<!-- 7&#45;&gt;36 -->
<g id="edge62" class="edge"><title>7&#45;&gt;36</title>
<path fill="none" stroke="black" d="M1172.35,-362.934C1176.26,-361.808 1180.16,-360.81 1184,-360 1410.02,-312.299 1477.08,-380.188 1703,-332 1709.06,-330.708 1715.25,-329.053 1721.39,-327.172"/>
<polygon fill="black" stroke="black" points="1722.56,-330.473 1730.99,-324.053 1720.4,-323.815 1722.56,-330.473"/>
</g>
<!-- 7&#45;&gt;37 -->
<g id="edge64" class="edge"><title>7&#45;&gt;37</title>
<path fill="none" stroke="black" d="M1172.34,-362.875C1176.25,-361.763 1180.16,-360.784 1184,-360 1485.16,-298.547 1573.98,-394.102 1875,-332 1881.17,-330.728 1887.47,-329.066 1893.73,-327.165"/>
<polygon fill="black" stroke="black" points="1895.05,-330.415 1903.48,-324.002 1892.89,-323.756 1895.05,-330.415"/>
</g>
<!-- 7&#45;&gt;39 -->
<g id="edge66" class="edge"><title>7&#45;&gt;39</title>
<path fill="none" stroke="black" d="M1172.33,-362.839C1176.24,-361.735 1180.16,-360.768 1184,-360 1560.32,-284.79 1669.91,-403.234 2047,-332 2053.79,-330.718 2060.74,-329.021 2067.64,-327.073"/>
<polygon fill="black" stroke="black" points="2069.12,-330.283 2077.69,-324.056 2067.11,-323.579 2069.12,-330.283"/>
</g>
<!-- 7&#45;&gt;4 -->
<g id="edge46" class="edge"><title>7&#45;&gt;4</title>
<path fill="none" stroke="black" d="M1111.81,-359.662C1109.85,-351.614 1107.64,-342.567 1105.54,-333.964"/>
<polygon fill="black" stroke="black" points="1108.92,-333.041 1103.14,-324.157 1102.12,-334.701 1108.92,-333.041"/>
</g>
<!-- 26 -->
<g id="node20" class="node"><title>26</title>
<polygon fill="crimson" stroke="black" points="1012,-324 884,-324 884,-274 1012,-274 1012,-324"/>
<text text-anchor="middle" x="948" y="-304.4" font-family="Times Roman,serif" font-size="14.00">Misc</text>
<text text-anchor="middle" x="948" y="-286.4" font-family="Times Roman,serif" font-size="14.00">evenScale</text>
</g>
<!-- 7&#45;&gt;26 -->
<g id="edge48" class="edge"><title>7&#45;&gt;26</title>
<path fill="none" stroke="black" d="M1068.37,-359.894C1049.08,-350.134 1026.83,-338.878 1006.75,-328.719"/>
<polygon fill="black" stroke="black" points="1008.19,-325.528 997.69,-324.137 1005.03,-331.774 1008.19,-325.528"/>
</g>
<!-- 7&#45;&gt;27 -->
<g id="edge50" class="edge"><title>7&#45;&gt;27</title>
<path fill="none" stroke="black" stroke-width="2.94591" d="M1063.83,-379.751C1013.19,-373.346 936.387,-359.731 875,-332 816.186,-305.431 787.139,-303.583 758,-246 742.749,-215.861 747.08,-125.964 758,-94 760.353,-87.1128 764.005,-80.4265 768.18,-74.2542"/>
<polygon fill="black" stroke="black" points="771.01,-76.3124 774.124,-66.1855 765.375,-72.1603 771.01,-76.3124"/>
</g>
<!-- 29 -->
<g id="node34" class="node"><title>29</title>
<polygon fill="crimson" stroke="black" points="2900,-324 2740,-324 2740,-274 2900,-274 2900,-324"/>
<text text-anchor="middle" x="2820" y="-304.4" font-family="Times Roman,serif" font-size="14.00">ProgramState</text>
<text text-anchor="middle" x="2820" y="-286.4" font-family="Times Roman,serif" font-size="14.00">extractDNARef</text>
</g>
<!-- 7&#45;&gt;29 -->
<g id="edge52" class="edge"><title>7&#45;&gt;29</title>
<path fill="none" stroke="black" d="M1172.32,-362.776C1176.23,-361.687 1180.15,-360.741 1184,-360 1520.98,-295.153 2390.45,-393.865 2728,-332 2735,-330.717 2742.17,-328.969 2749.28,-326.942"/>
<polygon fill="black" stroke="black" points="2750.35,-330.276 2758.9,-324.024 2748.32,-323.577 2750.35,-330.276"/>
</g>
<!-- 16 -->
<g id="node16" class="node"><title>16</title>
<polygon fill="crimson" stroke="black" points="1067,-152 929,-152 929,-102 1067,-102 1067,-152"/>
<text text-anchor="middle" x="998" y="-132.4" font-family="Times Roman,serif" font-size="14.00">Helix</text>
<text text-anchor="middle" x="998" y="-114.4" font-family="Times Roman,serif" font-size="14.00">renderHelix</text>
</g>
<!-- 11&#45;&gt;16 -->
<g id="edge70" class="edge"><title>11&#45;&gt;16</title>
<path fill="none" stroke="chartreuse" stroke-width="1.69315" d="M1068.1,-187.894C1057.72,-178.878 1045.87,-168.584 1034.9,-159.058"/>
<polygon fill="chartreuse" stroke="chartreuse" points="1036.95,-156.202 1027.11,-152.286 1032.36,-161.486 1036.95,-156.202"/>
</g>
<!-- 22 -->
<g id="node17" class="node"><title>22</title>
<polygon fill="crimson" stroke="black" points="1165,-66 987,-66 987,-16 1165,-16 1165,-66"/>
<text text-anchor="middle" x="1076" y="-46.4" font-family="Times Roman,serif" font-size="14.00">Math</text>
<text text-anchor="middle" x="1076" y="-28.4" font-family="Times Roman,serif" font-size="14.00">distanceBetween</text>
</g>
<!-- 16&#45;&gt;22 -->
<g id="edge82" class="edge"><title>16&#45;&gt;22</title>
<path fill="none" stroke="black" stroke-width="1.69315" d="M1020.98,-101.662C1028.91,-92.9142 1037.92,-82.9857 1046.31,-73.7312"/>
<polygon fill="black" stroke="black" points="1049.06,-75.9152 1053.18,-66.1566 1043.87,-71.2124 1049.06,-75.9152"/>
</g>
<!-- 16&#45;&gt;27 -->
<g id="edge84" class="edge"><title>16&#45;&gt;27</title>
<path fill="none" stroke="black" stroke-width="2.09861" d="M939.906,-101.894C913.341,-90.4136 881.983,-76.8619 855.601,-65.4608"/>
<polygon fill="black" stroke="black" points="856.693,-62.1197 846.125,-61.3655 853.916,-68.5454 856.693,-62.1197"/>
</g>
<!-- 28 -->
<g id="node22" class="node"><title>28</title>
<polygon fill="crimson" stroke="black" points="969,-66 871,-66 871,-16 969,-16 969,-66"/>
<text text-anchor="middle" x="920" y="-46.4" font-family="Times Roman,serif" font-size="14.00">Misc</text>
<text text-anchor="middle" x="920" y="-28.4" font-family="Times Roman,serif" font-size="14.00">ver3d</text>
</g>
<!-- 16&#45;&gt;28 -->
<g id="edge86" class="edge"><title>16&#45;&gt;28</title>
<path fill="none" stroke="black" d="M975.019,-101.662C967.085,-92.9142 958.08,-82.9857 949.686,-73.7312"/>
<polygon fill="black" stroke="black" points="952.127,-71.2124 942.816,-66.1566 946.942,-75.9152 952.127,-71.2124"/>
</g>
<!-- 1 -->
<g id="node24" class="node"><title>1</title>
<polygon fill="crimson" stroke="black" points="530,-152 402,-152 398,-148 398,-102 526,-102 530,-106 530,-152"/>
<polyline fill="none" stroke="black" points="526,-148 398,-148 "/>
<polyline fill="none" stroke="black" points="526,-148 526,-102 "/>
<polyline fill="none" stroke="black" points="526,-148 530,-152 "/>
<text text-anchor="middle" x="464" y="-132.4" font-family="Times Roman,serif" font-size="14.00">DNA</text>
<text text-anchor="middle" x="464" y="-114.4" font-family="Times Roman,serif" font-size="14.00">Data: DNA</text>
</g>
<!-- 2 -->
<g id="node25" class="node"><title>2</title>
<polygon fill="crimson" stroke="black" points="562,-324 446,-324 446,-274 562,-274 562,-324"/>
<text text-anchor="middle" x="504" y="-304.4" font-family="Times Roman,serif" font-size="14.00">DNA</text>
<text text-anchor="middle" x="504" y="-286.4" font-family="Times Roman,serif" font-size="14.00">genDNA</text>
</g>
<!-- 2&#45;&gt;1 -->
<g id="edge12" class="edge"><title>2&#45;&gt;1</title>
<path fill="none" stroke="black" stroke-width="1.69315" d="M504.974,-273.795C505.208,-249.293 503.663,-211.3 494,-180 492.055,-173.702 489.279,-167.328 486.191,-161.288"/>
<polygon fill="black" stroke="black" points="489.042,-159.209 481.156,-152.133 482.908,-162.582 489.042,-159.209"/>
</g>
<!-- 2&#45;&gt;2 -->
<g id="edge14" class="edge"><title>2&#45;&gt;2</title>
<path fill="none" stroke="black" d="M562.312,-314.179C572.726,-312.206 580,-307.146 580,-299 580,-293.781 577.015,-289.829 572.131,-287.144"/>
<polygon fill="black" stroke="black" points="572.906,-283.711 562.312,-283.821 570.662,-290.342 572.906,-283.711"/>
</g>
<!-- 3 -->
<g id="node26" class="node"><title>3</title>
<polygon fill="crimson" stroke="black" points="485,-238 365,-238 365,-188 485,-188 485,-238"/>
<text text-anchor="middle" x="425" y="-218.4" font-family="Times Roman,serif" font-size="14.00">DNA</text>
<text text-anchor="middle" x="425" y="-200.4" font-family="Times Roman,serif" font-size="14.00">newDNA</text>
</g>
<!-- 2&#45;&gt;3 -->
<g id="edge16" class="edge"><title>2&#45;&gt;3</title>
<path fill="none" stroke="black" d="M480.725,-273.662C472.689,-264.914 463.568,-254.986 455.067,-245.731"/>
<polygon fill="black" stroke="black" points="457.452,-243.153 448.109,-238.157 452.296,-247.889 457.452,-243.153"/>
</g>
<!-- 15 -->
<g id="node39" class="node"><title>15</title>
<polygon fill="crimson" stroke="black" points="2277,-238 2155,-238 2155,-188 2277,-188 2277,-238"/>
<text text-anchor="middle" x="2216" y="-218.4" font-family="Times Roman,serif" font-size="14.00">Helix</text>
<text text-anchor="middle" x="2216" y="-200.4" font-family="Times Roman,serif" font-size="14.00">newHelix</text>
</g>
<!-- 2&#45;&gt;15 -->
<g id="edge20" class="edge"><title>2&#45;&gt;15</title>
<path fill="none" stroke="black" d="M562.456,-288.757C610.08,-280.912 679.157,-270.668 740,-266 895.78,-254.047 1993.78,-281.22 2146,-246 2150.74,-244.903 2155.54,-243.456 2160.29,-241.78"/>
<polygon fill="black" stroke="black" points="2161.86,-244.925 2169.93,-238.056 2159.34,-238.395 2161.86,-244.925"/>
</g>
<!-- 10 -->
<g id="node41" class="node"><title>10</title>
<polygon fill="crimson" stroke="black" points="3262,-324 3120,-324 3120,-274 3262,-274 3262,-324"/>
<text text-anchor="middle" x="3191" y="-304.4" font-family="Times Roman,serif" font-size="14.00">DoubleHelix</text>
<text text-anchor="middle" x="3191" y="-286.4" font-family="Times Roman,serif" font-size="14.00">genDHelix</text>
</g>
<!-- 2&#45;&gt;10 -->
<g id="edge18" class="edge"><title>2&#45;&gt;10</title>
<path fill="none" stroke="black" d="M562.459,-313.454C611.814,-324.873 684.542,-339.873 749,-346 813.985,-352.177 3035.53,-361.273 3099,-346 3113.88,-342.42 3129.06,-336.006 3142.68,-329.045"/>
<polygon fill="black" stroke="black" points="3144.66,-331.956 3151.85,-324.167 3141.37,-325.777 3144.66,-331.956"/>
</g>
<!-- 3&#45;&gt;1 -->
<g id="edge22" class="edge"><title>3&#45;&gt;1</title>
<path fill="none" stroke="black" d="M436.49,-187.662C440.219,-179.439 444.422,-170.173 448.398,-161.404"/>
<polygon fill="black" stroke="black" points="451.649,-162.709 452.592,-152.157 445.274,-159.818 451.649,-162.709"/>
</g>
<!-- 5 -->
<g id="node27" class="node"><title>5</title>
<polygon fill="crimson" stroke="black" points="384,-410 238,-410 238,-360 384,-360 384,-410"/>
<text text-anchor="middle" x="311" y="-390.4" font-family="Times Roman,serif" font-size="14.00">DNA</text>
<text text-anchor="middle" x="311" y="-372.4" font-family="Times Roman,serif" font-size="14.00">updateModel</text>
</g>
<!-- 5&#45;&gt;2 -->
<g id="edge34" class="edge"><title>5&#45;&gt;2</title>
<path fill="none" stroke="black" d="M367.342,-359.894C389.541,-350.003 415.189,-338.574 438.229,-328.307"/>
<polygon fill="black" stroke="black" points="439.878,-331.404 447.588,-324.137 437.029,-325.01 439.878,-331.404"/>
</g>
<!-- 5&#45;&gt;3 -->
<g id="edge36" class="edge"><title>5&#45;&gt;3</title>
<path fill="none" stroke="black" d="M327.577,-359.99C347.417,-330.055 380.72,-279.808 402.777,-246.529"/>
<polygon fill="black" stroke="black" points="405.796,-248.309 408.403,-238.04 399.961,-244.442 405.796,-248.309"/>
</g>
<!-- 8 -->
<g id="node28" class="node"><title>8</title>
<polygon fill="crimson" stroke="black" points="728,-410 566,-410 566,-360 728,-360 728,-410"/>
<text text-anchor="middle" x="647" y="-390.4" font-family="Times Roman,serif" font-size="14.00">Display</text>
<text text-anchor="middle" x="647" y="-372.4" font-family="Times Roman,serif" font-size="14.00">handleReshape</text>
</g>
<!-- 19 -->
<g id="node29" class="node"><title>19</title>
<polygon fill="crimson" stroke="black" points="643,-496 551,-496 551,-446 643,-446 643,-496"/>
<text text-anchor="middle" x="597" y="-476.4" font-family="Times Roman,serif" font-size="14.00">Main</text>
<text text-anchor="middle" x="597" y="-458.4" font-family="Times Roman,serif" font-size="14.00">init</text>
</g>
<!-- 19&#45;&gt;17 -->
<g id="edge118" class="edge"><title>19&#45;&gt;17</title>
<path fill="none" stroke="black" d="M643.24,-467.888C839.278,-454.696 1601.6,-403.398 1817.64,-388.86"/>
<polygon fill="black" stroke="black" points="1818.07,-392.339 1827.81,-388.175 1817.6,-385.355 1818.07,-392.339"/>
</g>
<!-- 19&#45;&gt;7 -->
<g id="edge114" class="edge"><title>19&#45;&gt;7</title>
<path fill="none" stroke="black" d="M643.235,-463.368C736.481,-447.976 947.246,-413.186 1053.78,-395.6"/>
<polygon fill="black" stroke="black" points="1054.46,-399.035 1063.76,-393.954 1053.32,-392.129 1054.46,-399.035"/>
</g>
<!-- 19&#45;&gt;2 -->
<g id="edge108" class="edge"><title>19&#45;&gt;2</title>
<path fill="none" stroke="black" d="M575.544,-445.949C568.983,-437.457 562.147,-427.666 557,-418 544.184,-393.932 547.968,-384.964 537,-360 533.087,-351.095 528.358,-341.736 523.717,-333.096"/>
<polygon fill="black" stroke="black" points="526.638,-331.143 518.759,-324.059 520.501,-334.51 526.638,-331.143"/>
</g>
<!-- 19&#45;&gt;3 -->
<g id="edge110" class="edge"><title>19&#45;&gt;3</title>
<path fill="none" stroke="black" d="M550.884,-470.197C421.473,-467.471 62.0618,-456.473 27,-418 -76.1085,-304.859 214.989,-244.471 354.775,-222.631"/>
<polygon fill="black" stroke="black" points="355.624,-226.042 364.977,-221.064 354.561,-219.123 355.624,-226.042"/>
</g>
<!-- 19&#45;&gt;8 -->
<g id="edge116" class="edge"><title>19&#45;&gt;8</title>
<path fill="none" stroke="black" d="M611.731,-445.662C616.614,-437.264 622.129,-427.778 627.323,-418.845"/>
<polygon fill="black" stroke="black" points="630.374,-420.561 632.374,-410.157 624.322,-417.042 630.374,-420.561"/>
</g>
<!-- 21 -->
<g id="node30" class="node"><title>21</title>
<polygon fill="crimson" stroke="black" points="528,-410 402,-410 402,-360 528,-360 528,-410"/>
<text text-anchor="middle" x="465" y="-390.4" font-family="Times Roman,serif" font-size="14.00">Main</text>
<text text-anchor="middle" x="465" y="-372.4" font-family="Times Roman,serif" font-size="14.00">parseArgs</text>
</g>
<!-- 19&#45;&gt;21 -->
<g id="edge120" class="edge"><title>19&#45;&gt;21</title>
<path fill="none" stroke="black" d="M558.465,-445.894C544.089,-436.528 527.596,-425.783 512.507,-415.951"/>
<polygon fill="black" stroke="black" points="514.1,-412.812 503.811,-410.286 510.279,-418.677 514.1,-412.812"/>
</g>
<!-- 40 -->
<g id="node31" class="node"><title>40</title>
<polygon fill="crimson" stroke="black" points="220,-410 36,-410 36,-360 220,-360 220,-410"/>
<text text-anchor="middle" x="128" y="-390.4" font-family="Times Roman,serif" font-size="14.00">ProgramState</text>
<text text-anchor="middle" x="128" y="-372.4" font-family="Times Roman,serif" font-size="14.00">newProgramState</text>
</g>
<!-- 19&#45;&gt;40 -->
<g id="edge122" class="edge"><title>19&#45;&gt;40</title>
<path fill="none" stroke="black" d="M550.917,-466.944C480.758,-460.19 343.242,-444.679 229,-418 222.543,-416.492 215.908,-414.757 209.272,-412.888"/>
<polygon fill="black" stroke="black" points="210.15,-409.499 199.57,-410.066 208.194,-416.22 210.15,-409.499"/>
</g>
<!-- 6 -->
<g id="node33" class="node"><title>6</title>
<polygon fill="crimson" stroke="black" points="2854,-410 2740,-410 2740,-360 2854,-360 2854,-410"/>
<text text-anchor="middle" x="2797" y="-390.4" font-family="Times Roman,serif" font-size="14.00">Display</text>
<text text-anchor="middle" x="2797" y="-372.4" font-family="Times Roman,serif" font-size="14.00">animate</text>
</g>
<!-- 19&#45;&gt;6 -->
<g id="edge112" class="edge"><title>19&#45;&gt;6</title>
<path fill="none" stroke="black" d="M643.24,-469.533C798.78,-464.629 1317.32,-448.521 1746,-438 1855.1,-435.322 2621.82,-443.224 2728,-418 2732.68,-416.888 2737.42,-415.431 2742.1,-413.747"/>
<polygon fill="black" stroke="black" points="2743.58,-416.928 2751.6,-410.013 2741.02,-410.412 2743.58,-416.928"/>
</g>
<!-- 21&#45;&gt;2 -->
<g id="edge124" class="edge"><title>21&#45;&gt;2</title>
<path fill="none" stroke="black" d="M476.49,-359.662C480.219,-351.439 484.422,-342.173 488.398,-333.404"/>
<polygon fill="black" stroke="black" points="491.649,-334.709 492.592,-324.157 485.274,-331.818 491.649,-334.709"/>
</g>
<!-- 21&#45;&gt;3 -->
<g id="edge126" class="edge"><title>21&#45;&gt;3</title>
<path fill="none" stroke="black" d="M449.244,-359.977C444.547,-351.408 439.888,-341.564 437,-332 428.738,-304.641 425.892,-272.304 425.025,-248.249"/>
<polygon fill="black" stroke="black" points="428.522,-248.062 424.76,-238.157 421.524,-248.246 428.522,-248.062"/>
</g>
<!-- 6&#45;&gt;31 -->
<g id="edge42" class="edge"><title>6&#45;&gt;31</title>
<path fill="none" stroke="black" d="M2749.12,-359.894C2730.6,-350.178 2709.24,-338.979 2689.93,-328.856"/>
<polygon fill="black" stroke="black" points="2691.42,-325.682 2680.94,-324.137 2688.17,-331.881 2691.42,-325.682"/>
</g>
<!-- 6&#45;&gt;5 -->
<g id="edge38" class="edge"><title>6&#45;&gt;5</title>
<path fill="none" stroke="black" d="M2760.53,-410.058C2747.94,-417.328 2733.38,-424.3 2719,-428 2687.84,-436.021 433.4,-435.045 402,-428 388.957,-425.074 375.583,-420.056 363.241,-414.459"/>
<polygon fill="black" stroke="black" points="364.561,-411.212 354.026,-410.091 361.563,-417.537 364.561,-411.212"/>
</g>
<!-- 6&#45;&gt;29 -->
<g id="edge40" class="edge"><title>6&#45;&gt;29</title>
<path fill="none" stroke="black" d="M2803.78,-359.662C2805.93,-351.614 2808.35,-342.567 2810.65,-333.964"/>
<polygon fill="black" stroke="black" points="2814.07,-334.721 2813.27,-324.157 2807.31,-332.913 2814.07,-334.721"/>
</g>
<!-- 6&#45;&gt;38 -->
<g id="edge44" class="edge"><title>6&#45;&gt;38</title>
<path fill="none" stroke="black" stroke-width="1.69315" d="M2854.11,-361.614C2879.53,-351.202 2909.72,-338.839 2936.53,-327.859"/>
<polygon fill="black" stroke="black" points="2937.93,-331.067 2945.86,-324.039 2935.28,-324.59 2937.93,-331.067"/>
</g>
<!-- 12 -->
<g id="node37" class="node"><title>12</title>
<polygon fill="crimson" stroke="black" points="2277,-152 2145,-152 2141,-148 2141,-102 2273,-102 2277,-106 2277,-152"/>
<polyline fill="none" stroke="black" points="2273,-148 2141,-148 "/>
<polyline fill="none" stroke="black" points="2273,-148 2273,-102 "/>
<polyline fill="none" stroke="black" points="2273,-148 2277,-152 "/>
<text text-anchor="middle" x="2209" y="-132.4" font-family="Times Roman,serif" font-size="14.00">Helix</text>
<text text-anchor="middle" x="2209" y="-114.4" font-family="Times Roman,serif" font-size="14.00">Data: Helix</text>
</g>
<!-- 13 -->
<g id="node38" class="node"><title>13</title>
<polygon fill="crimson" stroke="black" points="2137,-238 1983,-238 1983,-188 2137,-188 2137,-238"/>
<text text-anchor="middle" x="2060" y="-218.4" font-family="Times Roman,serif" font-size="14.00">Helix</text>
<text text-anchor="middle" x="2060" y="-200.4" font-family="Times Roman,serif" font-size="14.00">extractHeight</text>
</g>
<!-- 13&#45;&gt;12 -->
<g id="edge72" class="edge"><title>13&#45;&gt;12</title>
<path fill="none" stroke="black" d="M2103.5,-187.894C2120.1,-178.31 2139.21,-167.283 2156.56,-157.269"/>
<polygon fill="black" stroke="black" points="2158.54,-160.167 2165.45,-152.137 2155.04,-154.105 2158.54,-160.167"/>
</g>
<!-- 15&#45;&gt;12 -->
<g id="edge80" class="edge"><title>15&#45;&gt;12</title>
<path fill="none" stroke="black" d="M2213.94,-187.662C2213.29,-179.702 2212.56,-170.763 2211.87,-162.245"/>
<polygon fill="black" stroke="black" points="2215.35,-161.84 2211.05,-152.157 2208.37,-162.408 2215.35,-161.84"/>
</g>
<!-- 14 -->
<g id="node42" class="node"><title>14</title>
<polygon fill="crimson" stroke="black" points="3238,-238 3120,-238 3120,-188 3238,-188 3238,-238"/>
<text text-anchor="middle" x="3179" y="-218.4" font-family="Times Roman,serif" font-size="14.00">Helix</text>
<text text-anchor="middle" x="3179" y="-200.4" font-family="Times Roman,serif" font-size="14.00">genHelix</text>
</g>
<!-- 10&#45;&gt;14 -->
<g id="edge68" class="edge"><title>10&#45;&gt;14</title>
<path fill="none" stroke="chartreuse" d="M3187.46,-273.662C3186.35,-265.702 3185.11,-256.763 3183.92,-248.245"/>
<polygon fill="chartreuse" stroke="chartreuse" points="3187.36,-247.577 3182.51,-238.157 3180.43,-248.544 3187.36,-247.577"/>
</g>
<!-- 14&#45;&gt;24 -->
<g id="edge78" class="edge"><title>14&#45;&gt;24</title>
<path fill="none" stroke="black" d="M3119.88,-217.045C2982.18,-226.239 2629.34,-248.49 2334,-256 2294.29,-257.01 942.038,-267.443 904,-256 894.768,-253.223 885.64,-248.661 877.273,-243.522"/>
<polygon fill="black" stroke="black" points="879.14,-240.561 868.857,-238.009 875.304,-246.417 879.14,-240.561"/>
</g>
<!-- 14&#45;&gt;12 -->
<g id="edge74" class="edge"><title>14&#45;&gt;12</title>
<path fill="none" stroke="black" d="M3119.78,-207.75C2952.47,-192.916 2476.14,-150.685 2287.41,-133.951"/>
<polygon fill="black" stroke="black" points="2287.55,-130.451 2277.28,-133.054 2286.94,-137.424 2287.55,-130.451"/>
</g>
<!-- 14&#45;&gt;23 -->
<g id="edge76" class="edge"><title>14&#45;&gt;23</title>
<path fill="none" stroke="black" d="M3119.83,-200.678C3042.29,-184.533 2906.93,-156.346 2828.01,-139.913"/>
<polygon fill="black" stroke="black" points="2828.71,-136.483 2818.2,-137.871 2827.28,-143.336 2828.71,-136.483"/>
</g>
<!-- 9 -->
<g id="node44" class="node"><title>9</title>
<polygon fill="crimson" stroke="black" points="1912,-496 1758,-496 1758,-446 1912,-446 1912,-496"/>
<text text-anchor="middle" x="1835" y="-476.4" font-family="Times Roman,serif" font-size="14.00">DoubleHelix</text>
<text text-anchor="middle" x="1835" y="-458.4" font-family="Times Roman,serif" font-size="14.00">extractHeight</text>
</g>
<!-- 20 -->
<g id="node46" class="node"><title>20</title>
<polygon fill="gold" stroke="black" points="2531,-496 2439,-496 2439,-446 2531,-446 2531,-496"/>
<text text-anchor="middle" x="2485" y="-476.4" font-family="Times Roman,serif" font-size="14.00">Main</text>
<text text-anchor="middle" x="2485" y="-458.4" font-family="Times Roman,serif" font-size="14.00">main</text>
</g>
<!-- 23&#45;&gt;23 -->
<g id="edge128" class="edge"><title>23&#45;&gt;23</title>
<path fill="none" stroke="black" d="M2818.2,-142.46C2828.59,-140.72 2836,-135.566 2836,-127 2836,-121.512 2832.96,-117.425 2828.04,-114.739"/>
<polygon fill="black" stroke="black" points="2828.79,-111.303 2818.2,-111.54 2826.63,-117.96 2828.79,-111.303"/>
</g>
<!-- 30 -->
<g id="node50" class="node"><title>30</title>
<polygon fill="crimson" stroke="black" points="3010,-496 2806,-496 2806,-446 3010,-446 3010,-496"/>
<text text-anchor="middle" x="2908" y="-476.4" font-family="Times Roman,serif" font-size="14.00">ProgramState</text>
<text text-anchor="middle" x="2908" y="-458.4" font-family="Times Roman,serif" font-size="14.00">extractInteractiveRef</text>
</g>
</g>
</svg>
