<?xml version="1.0" encoding="UTF-8" standalone="no"?>
<!DOCTYPE svg PUBLIC "-//W3C//DTD SVG 1.1//EN"
 "http://www.w3.org/Graphics/SVG/1.1/DTD/svg11.dtd">
<!-- Generated by graphviz version 2.26.3 (20100126.1600)
 -->
<!-- Title: Levels within software Pages: 1 -->
<svg width="2600pt" height="632pt"
 viewBox="0.00 0.00 2600.00 632.00" xmlns="http://www.w3.org/2000/svg" xmlns:xlink="http://www.w3.org/1999/xlink">
<g id="graph1" class="graph" transform="scale(1 1) rotate(0) translate(4 628)">
<title>Levels within software</title>
<polygon fill="white" stroke="white" points="-4,5 -4,-628 2597,-628 2597,5 -4,5"/>
<g id="graph2" class="cluster"><title>cluster_&#45;1</title>
<polygon fill="lavender" stroke="black" points="8,-8 8,-616 2408,-616 2408,-8 8,-8"/>
<text text-anchor="middle" x="1208" y="-599.4" font-family="Times Roman,serif" font-size="14.00">Inaccessible entities</text>
</g>
<g id="graph3" class="cluster"><title>cluster_0</title>
<polygon fill="lavender" stroke="black" points="2416,-524 2416,-616 2584,-616 2584,-524 2416,-524"/>
<text text-anchor="middle" x="2500" y="-599.4" font-family="Times Roman,serif" font-size="14.00">Exported root entities</text>
</g>
<!-- 1 -->
<g id="node2" class="node"><title>1</title>
<polygon fill="crimson" stroke="black" points="299,-152 171,-152 167,-148 167,-102 295,-102 299,-106 299,-152"/>
<polyline fill="none" stroke="black" points="295,-148 167,-148 "/>
<polyline fill="none" stroke="black" points="295,-148 295,-102 "/>
<polyline fill="none" stroke="black" points="295,-148 299,-152 "/>
<text text-anchor="middle" x="233" y="-132.4" font-family="Times Roman,serif" font-size="14.00">DNA</text>
<text text-anchor="middle" x="233" y="-114.4" font-family="Times Roman,serif" font-size="14.00">Data: DNA</text>
</g>
<!-- 2 -->
<g id="node3" class="node"><title>2</title>
<polygon fill="crimson" stroke="black" points="312,-324 196,-324 196,-274 312,-274 312,-324"/>
<text text-anchor="middle" x="254" y="-304.4" font-family="Times Roman,serif" font-size="14.00">DNA</text>
<text text-anchor="middle" x="254" y="-286.4" font-family="Times Roman,serif" font-size="14.00">genDNA</text>
</g>
<!-- 2&#45;&gt;1 -->
<g id="edge4" class="edge"><title>2&#45;&gt;1</title>
<path fill="none" stroke="black" stroke-width="1.69315" d="M252.369,-273.801C250.758,-251.256 247.959,-217.338 244,-188 242.864,-179.584 241.384,-170.561 239.878,-162.103"/>
<polygon fill="black" stroke="black" points="243.299,-161.352 238.052,-152.147 236.414,-162.615 243.299,-161.352"/>
</g>
<!-- 2&#45;&gt;2 -->
<g id="edge6" class="edge"><title>2&#45;&gt;2</title>
<path fill="none" stroke="black" d="M312.312,-314.179C322.726,-312.206 330,-307.146 330,-299 330,-293.781 327.015,-289.829 322.131,-287.144"/>
<polygon fill="black" stroke="black" points="322.906,-283.711 312.312,-283.821 320.662,-290.342 322.906,-283.711"/>
</g>
<!-- 3 -->
<g id="node4" class="node"><title>3</title>
<polygon fill="crimson" stroke="black" points="235,-238 115,-238 115,-188 235,-188 235,-238"/>
<text text-anchor="middle" x="175" y="-218.4" font-family="Times Roman,serif" font-size="14.00">DNA</text>
<text text-anchor="middle" x="175" y="-200.4" font-family="Times Roman,serif" font-size="14.00">newDNA</text>
</g>
<!-- 2&#45;&gt;3 -->
<g id="edge8" class="edge"><title>2&#45;&gt;3</title>
<path fill="none" stroke="black" d="M230.725,-273.662C222.689,-264.914 213.568,-254.986 205.067,-245.731"/>
<polygon fill="black" stroke="black" points="207.452,-243.153 198.109,-238.157 202.296,-247.889 207.452,-243.153"/>
</g>
<!-- 10 -->
<g id="node11" class="node"><title>10</title>
<polygon fill="crimson" stroke="black" points="1506,-238 1364,-238 1364,-188 1506,-188 1506,-238"/>
<text text-anchor="middle" x="1435" y="-218.4" font-family="Times Roman,serif" font-size="14.00">DoubleHelix</text>
<text text-anchor="middle" x="1435" y="-200.4" font-family="Times Roman,serif" font-size="14.00">genDHelix</text>
</g>
<!-- 2&#45;&gt;10 -->
<g id="edge10" class="edge"><title>2&#45;&gt;10</title>
<path fill="none" stroke="black" d="M312.222,-290.973C353.201,-285.55 409.373,-278.573 459,-274 790.184,-243.483 1186.03,-223.951 1353.64,-216.462"/>
<polygon fill="black" stroke="black" points="1354.03,-219.948 1363.86,-216.007 1353.72,-212.955 1354.03,-219.948"/>
</g>
<!-- 15 -->
<g id="node16" class="node"><title>15</title>
<polygon fill="crimson" stroke="black" points="397,-238 275,-238 275,-188 397,-188 397,-238"/>
<text text-anchor="middle" x="336" y="-218.4" font-family="Times Roman,serif" font-size="14.00">Helix</text>
<text text-anchor="middle" x="336" y="-200.4" font-family="Times Roman,serif" font-size="14.00">newHelix</text>
</g>
<!-- 2&#45;&gt;15 -->
<g id="edge12" class="edge"><title>2&#45;&gt;15</title>
<path fill="none" stroke="black" d="M278.159,-273.662C286.584,-264.827 296.157,-254.787 305.056,-245.454"/>
<polygon fill="black" stroke="black" points="307.646,-247.809 312.013,-238.157 302.58,-242.979 307.646,-247.809"/>
</g>
<!-- 3&#45;&gt;1 -->
<g id="edge14" class="edge"><title>3&#45;&gt;1</title>
<path fill="none" stroke="black" d="M192.088,-187.662C197.811,-179.177 204.283,-169.58 210.363,-160.566"/>
<polygon fill="black" stroke="black" points="213.344,-162.404 216.034,-152.157 207.541,-158.49 213.344,-162.404"/>
</g>
<!-- 4 -->
<g id="node5" class="node"><title>4</title>
<polygon fill="crimson" stroke="black" points="2400,-410 2266,-410 2266,-360 2400,-360 2400,-410"/>
<text text-anchor="middle" x="2333" y="-390.4" font-family="Times Roman,serif" font-size="14.00">DNA</text>
<text text-anchor="middle" x="2333" y="-372.4" font-family="Times Roman,serif" font-size="14.00">renderDNA</text>
</g>
<!-- 11 -->
<g id="node12" class="node"><title>11</title>
<polygon fill="crimson" stroke="black" points="2242,-324 2092,-324 2092,-274 2242,-274 2242,-324"/>
<text text-anchor="middle" x="2167" y="-304.4" font-family="Times Roman,serif" font-size="14.00">DoubleHelix</text>
<text text-anchor="middle" x="2167" y="-286.4" font-family="Times Roman,serif" font-size="14.00">renderDHelix</text>
</g>
<!-- 4&#45;&gt;11 -->
<g id="edge16" class="edge"><title>4&#45;&gt;11</title>
<path fill="none" stroke="black" stroke-width="1.69315" d="M2284.54,-359.894C2265.79,-350.178 2244.17,-338.979 2224.63,-328.856"/>
<polygon fill="black" stroke="black" points="2226.01,-325.63 2215.52,-324.137 2222.79,-331.845 2226.01,-325.63"/>
</g>
<!-- 23 -->
<g id="node23" class="node"><title>23</title>
<polygon fill="crimson" stroke="black" points="2163,-66 2059,-66 2059,-16 2163,-16 2163,-66"/>
<text text-anchor="middle" x="2111" y="-46.4" font-family="Times Roman,serif" font-size="14.00">Math</text>
<text text-anchor="middle" x="2111" y="-28.4" font-family="Times Roman,serif" font-size="14.00">fromTo</text>
</g>
<!-- 4&#45;&gt;23 -->
<g id="edge18" class="edge"><title>4&#45;&gt;23</title>
<path fill="none" stroke="black" d="M2311.55,-359.864C2303.79,-349.42 2295.77,-336.767 2291,-324 2256.25,-230.989 2326.41,-180.802 2266,-102 2243.84,-73.0884 2205.96,-57.8597 2173.19,-49.8486"/>
<polygon fill="black" stroke="black" points="2173.74,-46.3834 2163.21,-47.5869 2172.19,-53.2104 2173.74,-46.3834"/>
</g>
<!-- 24 -->
<g id="node24" class="node"><title>24</title>
<polygon fill="crimson" stroke="black" points="1702,-66 1608,-66 1608,-16 1702,-16 1702,-66"/>
<text text-anchor="middle" x="1655" y="-46.4" font-family="Times Roman,serif" font-size="14.00">Math</text>
<text text-anchor="middle" x="1655" y="-28.4" font-family="Times Roman,serif" font-size="14.00">phi</text>
</g>
<!-- 4&#45;&gt;24 -->
<g id="edge20" class="edge"><title>4&#45;&gt;24</title>
<path fill="none" stroke="black" d="M2302.65,-359.912C2292.49,-349.838 2282.19,-337.427 2276,-324 2265.61,-301.456 2268.64,-119.463 2251,-102 2231.98,-83.175 1858.33,-55.1924 1712.55,-44.9438"/>
<polygon fill="black" stroke="black" points="1712.68,-41.4442 1702.46,-44.237 1712.19,-48.4271 1712.68,-41.4442"/>
</g>
<!-- 25 -->
<g id="node25" class="node"><title>25</title>
<polygon fill="crimson" stroke="black" points="2400,-324 2300,-324 2300,-274 2400,-274 2400,-324"/>
<text text-anchor="middle" x="2350" y="-304.4" font-family="Times Roman,serif" font-size="14.00">Misc</text>
<text text-anchor="middle" x="2350" y="-286.4" font-family="Times Roman,serif" font-size="14.00">colour</text>
</g>
<!-- 4&#45;&gt;25 -->
<g id="edge22" class="edge"><title>4&#45;&gt;25</title>
<path fill="none" stroke="black" stroke-width="1.69315" d="M2338.01,-359.662C2339.58,-351.702 2341.35,-342.763 2343.03,-334.245"/>
<polygon fill="black" stroke="black" points="2346.52,-334.646 2345.03,-324.157 2339.65,-333.288 2346.52,-334.646"/>
</g>
<!-- 27 -->
<g id="node27" class="node"><title>27</title>
<polygon fill="crimson" stroke="black" points="1930,-152 1836,-152 1836,-102 1930,-102 1930,-152"/>
<text text-anchor="middle" x="1883" y="-132.4" font-family="Times Roman,serif" font-size="14.00">Misc</text>
<text text-anchor="middle" x="1883" y="-114.4" font-family="Times Roman,serif" font-size="14.00">vec3f</text>
</g>
<!-- 4&#45;&gt;27 -->
<g id="edge24" class="edge"><title>4&#45;&gt;27</title>
<path fill="none" stroke="black" stroke-width="2.38629" d="M2265.99,-362.498C2262.96,-361.626 2259.95,-360.788 2257,-360 2180.7,-339.629 2138.22,-380.458 2083,-324 2040.03,-280.063 2098.96,-233.82 2058,-188 2023.19,-149.056 1994.12,-168.818 1939.86,-151.891"/>
<polygon fill="black" stroke="black" points="1940.78,-148.506 1930.18,-148.566 1938.5,-155.126 1940.78,-148.506"/>
</g>
<!-- 5 -->
<g id="node6" class="node"><title>5</title>
<polygon fill="crimson" stroke="black" points="346,-410 200,-410 200,-360 346,-360 346,-410"/>
<text text-anchor="middle" x="273" y="-390.4" font-family="Times Roman,serif" font-size="14.00">DNA</text>
<text text-anchor="middle" x="273" y="-372.4" font-family="Times Roman,serif" font-size="14.00">updateModel</text>
</g>
<!-- 5&#45;&gt;2 -->
<g id="edge26" class="edge"><title>5&#45;&gt;2</title>
<path fill="none" stroke="black" d="M267.402,-359.662C265.624,-351.614 263.625,-342.567 261.725,-333.964"/>
<polygon fill="black" stroke="black" points="265.133,-333.166 259.558,-324.157 258.298,-334.676 265.133,-333.166"/>
</g>
<!-- 5&#45;&gt;3 -->
<g id="edge28" class="edge"><title>5&#45;&gt;3</title>
<path fill="none" stroke="black" d="M222.833,-359.854C209.029,-350.487 195.525,-338.524 187,-324 173.641,-301.241 171.098,-271.294 171.644,-248.242"/>
<polygon fill="black" stroke="black" points="175.143,-248.33 172.085,-238.187 168.15,-248.024 175.143,-248.33"/>
</g>
<!-- 6 -->
<g id="node7" class="node"><title>6</title>
<polygon fill="crimson" stroke="black" points="473,-496 359,-496 359,-446 473,-446 473,-496"/>
<text text-anchor="middle" x="416" y="-476.4" font-family="Times Roman,serif" font-size="14.00">Display</text>
<text text-anchor="middle" x="416" y="-458.4" font-family="Times Roman,serif" font-size="14.00">animate</text>
</g>
<!-- 6&#45;&gt;5 -->
<g id="edge30" class="edge"><title>6&#45;&gt;5</title>
<path fill="none" stroke="black" d="M374.254,-445.894C358.534,-436.44 340.479,-425.582 324.008,-415.676"/>
<polygon fill="black" stroke="black" points="325.419,-412.44 315.045,-410.286 321.811,-418.439 325.419,-412.44"/>
</g>
<!-- 29 -->
<g id="node29" class="node"><title>29</title>
<polygon fill="crimson" stroke="black" points="852,-410 692,-410 692,-360 852,-360 852,-410"/>
<text text-anchor="middle" x="772" y="-390.4" font-family="Times Roman,serif" font-size="14.00">ProgramState</text>
<text text-anchor="middle" x="772" y="-372.4" font-family="Times Roman,serif" font-size="14.00">extractDNARef</text>
</g>
<!-- 6&#45;&gt;29 -->
<g id="edge32" class="edge"><title>6&#45;&gt;29</title>
<path fill="none" stroke="black" d="M473.023,-448.662C476.042,-447.711 479.047,-446.816 482,-446 566.4,-422.673 592.704,-429.74 681.588,-410.214"/>
<polygon fill="black" stroke="black" points="682.571,-413.581 691.559,-407.971 681.035,-406.752 682.571,-413.581"/>
</g>
<!-- 31 -->
<g id="node31" class="node"><title>31</title>
<polygon fill="crimson" stroke="black" points="550,-410 384,-410 384,-360 550,-360 550,-410"/>
<text text-anchor="middle" x="467" y="-390.4" font-family="Times Roman,serif" font-size="14.00">ProgramState</text>
<text text-anchor="middle" x="467" y="-372.4" font-family="Times Roman,serif" font-size="14.00">extractLevelRef</text>
</g>
<!-- 6&#45;&gt;31 -->
<g id="edge34" class="edge"><title>6&#45;&gt;31</title>
<path fill="none" stroke="black" d="M431.026,-445.662C436.006,-437.264 441.632,-427.778 446.929,-418.845"/>
<polygon fill="black" stroke="black" points="449.991,-420.543 452.082,-410.157 443.97,-416.973 449.991,-420.543"/>
</g>
<!-- 38 -->
<g id="node38" class="node"><title>38</title>
<polygon fill="crimson" stroke="black" points="646,-324 468,-324 468,-274 646,-274 646,-324"/>
<text text-anchor="middle" x="557" y="-304.4" font-family="Times Roman,serif" font-size="14.00">ProgramState</text>
<text text-anchor="middle" x="557" y="-286.4" font-family="Times Roman,serif" font-size="14.00">extractUpdateRef</text>
</g>
<!-- 6&#45;&gt;38 -->
<g id="edge36" class="edge"><title>6&#45;&gt;38</title>
<path fill="none" stroke="black" stroke-width="1.69315" d="M393.896,-445.785C375.851,-421.998 356.163,-386.181 375,-360 385.765,-345.039 421.206,-331.618 457.99,-321.2"/>
<polygon fill="black" stroke="black" points="459.155,-324.509 467.867,-318.48 457.296,-317.761 459.155,-324.509"/>
</g>
<!-- 7 -->
<g id="node8" class="node"><title>7</title>
<polygon fill="crimson" stroke="black" points="1524,-496 1416,-496 1416,-446 1524,-446 1524,-496"/>
<text text-anchor="middle" x="1470" y="-476.4" font-family="Times Roman,serif" font-size="14.00">Display</text>
<text text-anchor="middle" x="1470" y="-458.4" font-family="Times Roman,serif" font-size="14.00">display</text>
</g>
<!-- 7&#45;&gt;4 -->
<g id="edge38" class="edge"><title>7&#45;&gt;4</title>
<path fill="none" stroke="black" d="M1524.29,-448.193C1527.21,-447.364 1530.13,-446.624 1533,-446 1844.62,-378.367 1938.33,-467.011 2255.76,-409.995"/>
<polygon fill="black" stroke="black" points="2256.49,-413.419 2265.7,-408.176 2255.23,-406.534 2256.49,-413.419"/>
</g>
<!-- 26 -->
<g id="node26" class="node"><title>26</title>
<polygon fill="crimson" stroke="black" points="2248,-410 2120,-410 2120,-360 2248,-360 2248,-410"/>
<text text-anchor="middle" x="2184" y="-390.4" font-family="Times Roman,serif" font-size="14.00">Misc</text>
<text text-anchor="middle" x="2184" y="-372.4" font-family="Times Roman,serif" font-size="14.00">evenScale</text>
</g>
<!-- 7&#45;&gt;26 -->
<g id="edge40" class="edge"><title>7&#45;&gt;26</title>
<path fill="none" stroke="black" d="M1524.3,-448.239C1527.22,-447.398 1530.13,-446.643 1533,-446 1782,-390.251 1855.25,-457.303 2106,-410 2107.26,-409.763 2108.52,-409.511 2109.79,-409.247"/>
<polygon fill="black" stroke="black" points="2110.66,-412.639 2119.62,-406.988 2109.09,-405.817 2110.66,-412.639"/>
</g>
<!-- 7&#45;&gt;27 -->
<g id="edge42" class="edge"><title>7&#45;&gt;27</title>
<path fill="none" stroke="black" stroke-width="2.94591" d="M1524.3,-448.245C1527.22,-447.403 1530.13,-446.645 1533,-446 1593.62,-432.375 2048.51,-455.324 2091,-410 2106.2,-393.789 2098.92,-380.763 2091,-360 2088.65,-353.851 1970.18,-222.955 1913.11,-160.11"/>
<polygon fill="black" stroke="black" points="1915.45,-157.484 1906.14,-152.435 1910.27,-162.19 1915.45,-157.484"/>
</g>
<!-- 7&#45;&gt;29 -->
<g id="edge44" class="edge"><title>7&#45;&gt;29</title>
<path fill="none" stroke="black" d="M1415.92,-464.09C1373.75,-458.809 1313.7,-451.522 1261,-446 1086.68,-427.734 1038.29,-441.746 862.224,-410.087"/>
<polygon fill="black" stroke="black" points="862.84,-406.641 852.375,-408.292 861.585,-413.528 862.84,-406.641"/>
</g>
<!-- 32 -->
<g id="node32" class="node"><title>32</title>
<polygon fill="crimson" stroke="black" points="1738,-410 1572,-410 1572,-360 1738,-360 1738,-410"/>
<text text-anchor="middle" x="1655" y="-390.4" font-family="Times Roman,serif" font-size="14.00">ProgramState</text>
<text text-anchor="middle" x="1655" y="-372.4" font-family="Times Roman,serif" font-size="14.00">extractModeRef</text>
</g>
<!-- 7&#45;&gt;32 -->
<g id="edge46" class="edge"><title>7&#45;&gt;32</title>
<path fill="none" stroke="black" d="M1524.01,-445.894C1545.19,-436.047 1569.65,-424.675 1591.66,-414.444"/>
<polygon fill="black" stroke="black" points="1593.33,-417.526 1600.93,-410.137 1590.38,-411.179 1593.33,-417.526"/>
</g>
<!-- 33 -->
<g id="node33" class="node"><title>33</title>
<polygon fill="crimson" stroke="black" points="1910,-410 1756,-410 1756,-360 1910,-360 1910,-410"/>
<text text-anchor="middle" x="1833" y="-390.4" font-family="Times Roman,serif" font-size="14.00">ProgramState</text>
<text text-anchor="middle" x="1833" y="-372.4" font-family="Times Roman,serif" font-size="14.00">extractRXRef</text>
</g>
<!-- 7&#45;&gt;33 -->
<g id="edge48" class="edge"><title>7&#45;&gt;33</title>
<path fill="none" stroke="black" d="M1524.05,-448.713C1527.06,-447.736 1530.05,-446.823 1533,-446 1622.81,-420.93 1651.11,-430.78 1745.76,-410.15"/>
<polygon fill="black" stroke="black" points="1746.76,-413.514 1755.76,-407.914 1745.23,-406.682 1746.76,-413.514"/>
</g>
<!-- 34 -->
<g id="node34" class="node"><title>34</title>
<polygon fill="crimson" stroke="black" points="2082,-410 1928,-410 1928,-360 2082,-360 2082,-410"/>
<text text-anchor="middle" x="2005" y="-390.4" font-family="Times Roman,serif" font-size="14.00">ProgramState</text>
<text text-anchor="middle" x="2005" y="-372.4" font-family="Times Roman,serif" font-size="14.00">extractRYRef</text>
</g>
<!-- 7&#45;&gt;34 -->
<g id="edge50" class="edge"><title>7&#45;&gt;34</title>
<path fill="none" stroke="black" d="M1524.33,-448.345C1527.24,-447.477 1530.14,-446.686 1533,-446 1697.36,-406.583 1747.82,-440.835 1917.78,-410.055"/>
<polygon fill="black" stroke="black" points="1918.62,-413.458 1927.81,-408.188 1917.34,-406.576 1918.62,-413.458"/>
</g>
<!-- 35 -->
<g id="node35" class="node"><title>35</title>
<polygon fill="crimson" stroke="black" points="1024,-410 870,-410 870,-360 1024,-360 1024,-410"/>
<text text-anchor="middle" x="947" y="-390.4" font-family="Times Roman,serif" font-size="14.00">ProgramState</text>
<text text-anchor="middle" x="947" y="-372.4" font-family="Times Roman,serif" font-size="14.00">extractRZRef</text>
</g>
<!-- 7&#45;&gt;35 -->
<g id="edge52" class="edge"><title>7&#45;&gt;35</title>
<path fill="none" stroke="black" d="M1415.98,-464.45C1319.68,-452.614 1120.99,-427.442 1034.01,-410.046"/>
<polygon fill="black" stroke="black" points="1034.72,-406.619 1024.22,-408.018 1033.3,-413.473 1034.72,-406.619"/>
</g>
<!-- 36 -->
<g id="node36" class="node"><title>36</title>
<polygon fill="crimson" stroke="black" points="1196,-410 1042,-410 1042,-360 1196,-360 1196,-410"/>
<text text-anchor="middle" x="1119" y="-390.4" font-family="Times Roman,serif" font-size="14.00">ProgramState</text>
<text text-anchor="middle" x="1119" y="-372.4" font-family="Times Roman,serif" font-size="14.00">extractTXRef</text>
</g>
<!-- 7&#45;&gt;36 -->
<g id="edge54" class="edge"><title>7&#45;&gt;36</title>
<path fill="none" stroke="black" d="M1415.98,-459.505C1364.48,-448.334 1284.54,-430.446 1206.32,-410.292"/>
<polygon fill="black" stroke="black" points="1206.86,-406.815 1196.3,-407.694 1205.1,-413.591 1206.86,-406.815"/>
</g>
<!-- 37 -->
<g id="node37" class="node"><title>37</title>
<polygon fill="crimson" stroke="black" points="1368,-410 1214,-410 1214,-360 1368,-360 1368,-410"/>
<text text-anchor="middle" x="1291" y="-390.4" font-family="Times Roman,serif" font-size="14.00">ProgramState</text>
<text text-anchor="middle" x="1291" y="-372.4" font-family="Times Roman,serif" font-size="14.00">extractTYRef</text>
</g>
<!-- 7&#45;&gt;37 -->
<g id="edge56" class="edge"><title>7&#45;&gt;37</title>
<path fill="none" stroke="black" d="M1417.74,-445.894C1397.34,-436.091 1373.79,-424.777 1352.57,-414.581"/>
<polygon fill="black" stroke="black" points="1353.85,-411.313 1343.32,-410.137 1350.82,-417.623 1353.85,-411.313"/>
</g>
<!-- 39 -->
<g id="node39" class="node"><title>39</title>
<polygon fill="crimson" stroke="black" points="1554,-410 1386,-410 1386,-360 1554,-360 1554,-410"/>
<text text-anchor="middle" x="1470" y="-390.4" font-family="Times Roman,serif" font-size="14.00">ProgramState</text>
<text text-anchor="middle" x="1470" y="-372.4" font-family="Times Roman,serif" font-size="14.00">extractZoomRef</text>
</g>
<!-- 7&#45;&gt;39 -->
<g id="edge58" class="edge"><title>7&#45;&gt;39</title>
<path fill="none" stroke="black" d="M1470,-445.662C1470,-437.702 1470,-428.763 1470,-420.245"/>
<polygon fill="black" stroke="black" points="1473.5,-420.157 1470,-410.157 1466.5,-420.157 1473.5,-420.157"/>
</g>
<!-- 8 -->
<g id="node9" class="node"><title>8</title>
<polygon fill="crimson" stroke="black" points="653,-496 491,-496 491,-446 653,-446 653,-496"/>
<text text-anchor="middle" x="572" y="-476.4" font-family="Times Roman,serif" font-size="14.00">Display</text>
<text text-anchor="middle" x="572" y="-458.4" font-family="Times Roman,serif" font-size="14.00">handleReshape</text>
</g>
<!-- 9 -->
<g id="node10" class="node"><title>9</title>
<polygon fill="crimson" stroke="black" points="1620,-582 1466,-582 1466,-532 1620,-532 1620,-582"/>
<text text-anchor="middle" x="1543" y="-562.4" font-family="Times Roman,serif" font-size="14.00">DoubleHelix</text>
<text text-anchor="middle" x="1543" y="-544.4" font-family="Times Roman,serif" font-size="14.00">extractHeight</text>
</g>
<!-- 14 -->
<g id="node15" class="node"><title>14</title>
<polygon fill="crimson" stroke="black" points="1544,-152 1426,-152 1426,-102 1544,-102 1544,-152"/>
<text text-anchor="middle" x="1485" y="-132.4" font-family="Times Roman,serif" font-size="14.00">Helix</text>
<text text-anchor="middle" x="1485" y="-114.4" font-family="Times Roman,serif" font-size="14.00">genHelix</text>
</g>
<!-- 10&#45;&gt;14 -->
<g id="edge60" class="edge"><title>10&#45;&gt;14</title>
<path fill="none" stroke="chartreuse" d="M1449.73,-187.662C1454.61,-179.264 1460.13,-169.778 1465.32,-160.845"/>
<polygon fill="chartreuse" stroke="chartreuse" points="1468.37,-162.561 1470.37,-152.157 1462.32,-159.042 1468.37,-162.561"/>
</g>
<!-- 16 -->
<g id="node17" class="node"><title>16</title>
<polygon fill="crimson" stroke="black" points="2233,-238 2095,-238 2095,-188 2233,-188 2233,-238"/>
<text text-anchor="middle" x="2164" y="-218.4" font-family="Times Roman,serif" font-size="14.00">Helix</text>
<text text-anchor="middle" x="2164" y="-200.4" font-family="Times Roman,serif" font-size="14.00">renderHelix</text>
</g>
<!-- 11&#45;&gt;16 -->
<g id="edge62" class="edge"><title>11&#45;&gt;16</title>
<path fill="none" stroke="chartreuse" stroke-width="1.69315" d="M2166.12,-273.662C2165.84,-265.702 2165.53,-256.763 2165.23,-248.245"/>
<polygon fill="chartreuse" stroke="chartreuse" points="2168.72,-248.028 2164.88,-238.157 2161.73,-248.273 2168.72,-248.028"/>
</g>
<!-- 12 -->
<g id="node13" class="node"><title>12</title>
<polygon fill="crimson" stroke="black" points="1106,-66 974,-66 970,-62 970,-16 1102,-16 1106,-20 1106,-66"/>
<polyline fill="none" stroke="black" points="1102,-62 970,-62 "/>
<polyline fill="none" stroke="black" points="1102,-62 1102,-16 "/>
<polyline fill="none" stroke="black" points="1102,-62 1106,-66 "/>
<text text-anchor="middle" x="1038" y="-46.4" font-family="Times Roman,serif" font-size="14.00">Helix</text>
<text text-anchor="middle" x="1038" y="-28.4" font-family="Times Roman,serif" font-size="14.00">Data: Helix</text>
</g>
<!-- 13 -->
<g id="node14" class="node"><title>13</title>
<polygon fill="crimson" stroke="black" points="1115,-152 961,-152 961,-102 1115,-102 1115,-152"/>
<text text-anchor="middle" x="1038" y="-132.4" font-family="Times Roman,serif" font-size="14.00">Helix</text>
<text text-anchor="middle" x="1038" y="-114.4" font-family="Times Roman,serif" font-size="14.00">extractHeight</text>
</g>
<!-- 13&#45;&gt;12 -->
<g id="edge64" class="edge"><title>13&#45;&gt;12</title>
<path fill="none" stroke="black" d="M1038,-101.662C1038,-93.7016 1038,-84.7633 1038,-76.2449"/>
<polygon fill="black" stroke="black" points="1041.5,-76.1566 1038,-66.1566 1034.5,-76.1566 1041.5,-76.1566"/>
</g>
<!-- 14&#45;&gt;12 -->
<g id="edge66" class="edge"><title>14&#45;&gt;12</title>
<path fill="none" stroke="black" d="M1425.64,-115.58C1345.95,-100.248 1204.2,-72.9768 1115.98,-56.0027"/>
<polygon fill="black" stroke="black" points="1116.5,-52.5397 1106.02,-54.0873 1115.18,-59.4136 1116.5,-52.5397"/>
</g>
<!-- 14&#45;&gt;23 -->
<g id="edge68" class="edge"><title>14&#45;&gt;23</title>
<path fill="none" stroke="black" d="M1544.17,-118.871C1662.63,-102.597 1927.89,-66.1561 2048.8,-49.5451"/>
<polygon fill="black" stroke="black" points="2049.57,-52.9727 2059,-48.1442 2048.61,-46.0378 2049.57,-52.9727"/>
</g>
<!-- 14&#45;&gt;24 -->
<g id="edge70" class="edge"><title>14&#45;&gt;24</title>
<path fill="none" stroke="black" d="M1534.63,-101.894C1554.78,-91.7018 1578.15,-79.8772 1598.91,-69.3741"/>
<polygon fill="black" stroke="black" points="1600.6,-72.445 1607.94,-64.8077 1597.44,-66.1987 1600.6,-72.445"/>
</g>
<!-- 15&#45;&gt;12 -->
<g id="edge72" class="edge"><title>15&#45;&gt;12</title>
<path fill="none" stroke="black" d="M397.07,-198.037C524.605,-166.789 819.056,-94.6445 960.028,-60.1044"/>
<polygon fill="black" stroke="black" points="961.028,-63.4628 969.908,-57.6836 959.362,-56.6639 961.028,-63.4628"/>
</g>
<!-- 22 -->
<g id="node22" class="node"><title>22</title>
<polygon fill="crimson" stroke="black" points="2126,-152 1948,-152 1948,-102 2126,-102 2126,-152"/>
<text text-anchor="middle" x="2037" y="-132.4" font-family="Times Roman,serif" font-size="14.00">Math</text>
<text text-anchor="middle" x="2037" y="-114.4" font-family="Times Roman,serif" font-size="14.00">distanceBetween</text>
</g>
<!-- 16&#45;&gt;22 -->
<g id="edge74" class="edge"><title>16&#45;&gt;22</title>
<path fill="none" stroke="black" stroke-width="1.69315" d="M2126.92,-187.894C2113.09,-178.528 2097.23,-167.783 2082.71,-157.951"/>
<polygon fill="black" stroke="black" points="2084.58,-154.995 2074.34,-152.286 2080.66,-160.791 2084.58,-154.995"/>
</g>
<!-- 16&#45;&gt;27 -->
<g id="edge76" class="edge"><title>16&#45;&gt;27</title>
<path fill="none" stroke="black" stroke-width="2.09861" d="M2094.58,-192.63C2088.98,-191.043 2083.4,-189.483 2078,-188 2019.47,-171.917 2001.02,-172.931 1939.9,-152.092"/>
<polygon fill="black" stroke="black" points="1940.73,-148.676 1930.13,-148.704 1938.43,-155.289 1940.73,-148.676"/>
</g>
<!-- 28 -->
<g id="node28" class="node"><title>28</title>
<polygon fill="crimson" stroke="black" points="2242,-152 2144,-152 2144,-102 2242,-102 2242,-152"/>
<text text-anchor="middle" x="2193" y="-132.4" font-family="Times Roman,serif" font-size="14.00">Misc</text>
<text text-anchor="middle" x="2193" y="-114.4" font-family="Times Roman,serif" font-size="14.00">ver3d</text>
</g>
<!-- 16&#45;&gt;28 -->
<g id="edge78" class="edge"><title>16&#45;&gt;28</title>
<path fill="none" stroke="black" d="M2172.54,-187.662C2175.29,-179.527 2178.38,-170.37 2181.3,-161.684"/>
<polygon fill="black" stroke="black" points="2184.64,-162.751 2184.52,-152.157 2178.01,-160.514 2184.64,-162.751"/>
</g>
<!-- 17 -->
<g id="node18" class="node"><title>17</title>
<polygon fill="crimson" stroke="black" points="1252,-496 1158,-496 1158,-446 1252,-446 1252,-496"/>
<text text-anchor="middle" x="1205" y="-476.4" font-family="Times Roman,serif" font-size="14.00">Input</text>
<text text-anchor="middle" x="1205" y="-458.4" font-family="Times Roman,serif" font-size="14.00">input</text>
</g>
<!-- 18 -->
<g id="node19" class="node"><title>18</title>
<polygon fill="crimson" stroke="black" points="674,-410 568,-410 568,-360 674,-360 674,-410"/>
<text text-anchor="middle" x="621" y="-390.4" font-family="Times Roman,serif" font-size="14.00">Input</text>
<text text-anchor="middle" x="621" y="-372.4" font-family="Times Roman,serif" font-size="14.00">update</text>
</g>
<!-- 17&#45;&gt;18 -->
<g id="edge80" class="edge"><title>17&#45;&gt;18</title>
<path fill="none" stroke="black" stroke-width="3.83321" d="M1157.8,-469.686C1066.98,-466.258 861.879,-454.152 683.925,-409.945"/>
<polygon fill="black" stroke="black" points="684.683,-406.527 674.131,-407.472 682.97,-413.314 684.683,-406.527"/>
</g>
<!-- 17&#45;&gt;31 -->
<g id="edge82" class="edge"><title>17&#45;&gt;31</title>
<path fill="none" stroke="black" stroke-width="1.69315" d="M1157.61,-469.302C1051.84,-464.918 788.537,-450.703 560.256,-410.094"/>
<polygon fill="black" stroke="black" points="560.561,-406.593 550.099,-408.266 559.32,-413.482 560.561,-406.593"/>
</g>
<!-- 17&#45;&gt;32 -->
<g id="edge84" class="edge"><title>17&#45;&gt;32</title>
<path fill="none" stroke="black" stroke-width="2.09861" d="M1252.19,-464.443C1319.06,-454.826 1445.34,-435.468 1562.03,-410.134"/>
<polygon fill="black" stroke="black" points="1562.83,-413.542 1571.84,-407.983 1561.33,-406.704 1562.83,-413.542"/>
</g>
<!-- 17&#45;&gt;33 -->
<g id="edge86" class="edge"><title>17&#45;&gt;33</title>
<path fill="none" stroke="black" stroke-width="1.69315" d="M1252.32,-464.905C1293.24,-459.691 1353.99,-452.086 1407,-446 1554.72,-429.04 1596.13,-438.879 1745.79,-410.094"/>
<polygon fill="black" stroke="black" points="1746.66,-413.49 1755.8,-408.141 1745.32,-406.62 1746.66,-413.49"/>
</g>
<!-- 17&#45;&gt;34 -->
<g id="edge88" class="edge"><title>17&#45;&gt;34</title>
<path fill="none" stroke="black" stroke-width="1.69315" d="M1252.27,-464.432C1293.15,-458.922 1353.89,-451.15 1407,-446 1630.73,-424.306 1692.62,-449.311 1917.68,-410.066"/>
<polygon fill="black" stroke="black" points="1918.59,-413.46 1927.83,-408.273 1917.37,-406.567 1918.59,-413.46"/>
</g>
<!-- 17&#45;&gt;35 -->
<g id="edge90" class="edge"><title>17&#45;&gt;35</title>
<path fill="none" stroke="black" stroke-width="1.69315" d="M1157.98,-455.326C1122.79,-443.595 1073.69,-427.231 1031.72,-413.239"/>
<polygon fill="black" stroke="black" points="1032.64,-409.858 1022.05,-410.016 1030.43,-416.499 1032.64,-409.858"/>
</g>
<!-- 17&#45;&gt;36 -->
<g id="edge92" class="edge"><title>17&#45;&gt;36</title>
<path fill="none" stroke="black" stroke-width="1.69315" d="M1179.66,-445.662C1170.83,-436.827 1160.79,-426.787 1151.45,-417.454"/>
<polygon fill="black" stroke="black" points="1153.7,-414.753 1144.16,-410.157 1148.75,-419.703 1153.7,-414.753"/>
</g>
<!-- 17&#45;&gt;37 -->
<g id="edge94" class="edge"><title>17&#45;&gt;37</title>
<path fill="none" stroke="black" stroke-width="1.69315" d="M1230.34,-445.662C1239.17,-436.827 1249.21,-426.787 1258.55,-417.454"/>
<polygon fill="black" stroke="black" points="1261.25,-419.703 1265.84,-410.157 1256.3,-414.753 1261.25,-419.703"/>
</g>
<!-- 17&#45;&gt;39 -->
<g id="edge96" class="edge"><title>17&#45;&gt;39</title>
<path fill="none" stroke="black" stroke-width="1.69315" d="M1252.07,-455.724C1288.3,-443.967 1339.38,-427.39 1382.98,-413.24"/>
<polygon fill="black" stroke="black" points="1384.31,-416.49 1392.74,-410.074 1382.15,-409.832 1384.31,-416.49"/>
</g>
<!-- 18&#45;&gt;38 -->
<g id="edge98" class="edge"><title>18&#45;&gt;38</title>
<path fill="none" stroke="black" d="M602.144,-359.662C595.764,-351.089 588.54,-341.382 581.772,-332.287"/>
<polygon fill="black" stroke="black" points="584.499,-330.089 575.721,-324.157 578.884,-334.268 584.499,-330.089"/>
</g>
<!-- 19 -->
<g id="node20" class="node"><title>19</title>
<polygon fill="crimson" stroke="black" points="540,-582 448,-582 448,-532 540,-532 540,-582"/>
<text text-anchor="middle" x="494" y="-562.4" font-family="Times Roman,serif" font-size="14.00">Main</text>
<text text-anchor="middle" x="494" y="-544.4" font-family="Times Roman,serif" font-size="14.00">init</text>
</g>
<!-- 19&#45;&gt;2 -->
<g id="edge100" class="edge"><title>19&#45;&gt;2</title>
<path fill="none" stroke="black" d="M447.797,-541.603C370.158,-514.663 219.213,-457.336 191,-410 179.623,-390.911 182.331,-380.461 191,-360 195.548,-349.266 203.011,-339.496 211.239,-331.074"/>
<polygon fill="black" stroke="black" points="213.8,-333.468 218.613,-324.029 208.965,-328.406 213.8,-333.468"/>
</g>
<!-- 19&#45;&gt;3 -->
<g id="edge102" class="edge"><title>19&#45;&gt;3</title>
<path fill="none" stroke="black" d="M447.753,-538.519C432.451,-533.058 415.194,-527.589 399,-524 230.173,-486.587 98.3408,-567.521 27,-410 -2.56757,-344.715 69.9529,-280.506 123.604,-243.927"/>
<polygon fill="black" stroke="black" points="125.661,-246.761 132.034,-238.297 121.774,-240.94 125.661,-246.761"/>
</g>
<!-- 19&#45;&gt;6 -->
<g id="edge104" class="edge"><title>19&#45;&gt;6</title>
<path fill="none" stroke="black" d="M471.019,-531.662C463.085,-522.914 454.08,-512.986 445.686,-503.731"/>
<polygon fill="black" stroke="black" points="448.127,-501.212 438.816,-496.157 442.942,-505.915 448.127,-501.212"/>
</g>
<!-- 19&#45;&gt;7 -->
<g id="edge106" class="edge"><title>19&#45;&gt;7</title>
<path fill="none" stroke="black" d="M540.312,-553.96C659.79,-545.978 988.175,-523.155 1261,-496 1309.71,-491.152 1364.67,-484.532 1406,-479.322"/>
<polygon fill="black" stroke="black" points="1406.45,-482.793 1415.93,-478.064 1405.57,-475.849 1406.45,-482.793"/>
</g>
<!-- 19&#45;&gt;8 -->
<g id="edge108" class="edge"><title>19&#45;&gt;8</title>
<path fill="none" stroke="black" d="M516.981,-531.662C524.915,-522.914 533.92,-512.986 542.314,-503.731"/>
<polygon fill="black" stroke="black" points="545.058,-505.915 549.184,-496.157 539.873,-501.212 545.058,-505.915"/>
</g>
<!-- 19&#45;&gt;17 -->
<g id="edge110" class="edge"><title>19&#45;&gt;17</title>
<path fill="none" stroke="black" d="M540.103,-551.424C665.015,-536.315 1009.79,-494.612 1147.29,-477.98"/>
<polygon fill="black" stroke="black" points="1148.1,-481.408 1157.61,-476.732 1147.26,-474.458 1148.1,-481.408"/>
</g>
<!-- 21 -->
<g id="node21" class="node"><title>21</title>
<polygon fill="crimson" stroke="black" points="162,-410 36,-410 36,-360 162,-360 162,-410"/>
<text text-anchor="middle" x="99" y="-390.4" font-family="Times Roman,serif" font-size="14.00">Main</text>
<text text-anchor="middle" x="99" y="-372.4" font-family="Times Roman,serif" font-size="14.00">parseArgs</text>
</g>
<!-- 19&#45;&gt;21 -->
<g id="edge112" class="edge"><title>19&#45;&gt;21</title>
<path fill="none" stroke="black" d="M447.703,-538.74C432.398,-533.293 415.151,-527.775 399,-524 301.732,-501.265 261.438,-547.751 176,-496 147.006,-478.438 126.206,-445.324 113.591,-419.817"/>
<polygon fill="black" stroke="black" points="116.603,-417.999 109.157,-410.462 110.277,-420.997 116.603,-417.999"/>
</g>
<!-- 40 -->
<g id="node40" class="node"><title>40</title>
<polygon fill="crimson" stroke="black" points="1726,-496 1542,-496 1542,-446 1726,-446 1726,-496"/>
<text text-anchor="middle" x="1634" y="-476.4" font-family="Times Roman,serif" font-size="14.00">ProgramState</text>
<text text-anchor="middle" x="1634" y="-458.4" font-family="Times Roman,serif" font-size="14.00">newProgramState</text>
</g>
<!-- 19&#45;&gt;40 -->
<g id="edge114" class="edge"><title>19&#45;&gt;40</title>
<path fill="none" stroke="black" d="M540.279,-555.417C712.641,-549.348 1317.95,-526.442 1532.05,-495.983"/>
<polygon fill="black" stroke="black" points="1532.56,-499.446 1541.94,-494.527 1531.54,-492.52 1532.56,-499.446"/>
</g>
<!-- 21&#45;&gt;2 -->
<g id="edge116" class="edge"><title>21&#45;&gt;2</title>
<path fill="none" stroke="black" d="M144.249,-359.894C161.681,-350.222 181.761,-339.081 199.942,-328.993"/>
<polygon fill="black" stroke="black" points="201.649,-332.049 208.695,-324.137 198.252,-325.928 201.649,-332.049"/>
</g>
<!-- 21&#45;&gt;3 -->
<g id="edge118" class="edge"><title>21&#45;&gt;3</title>
<path fill="none" stroke="black" d="M110.051,-359.99C123.166,-330.31 145.103,-280.662 159.808,-247.382"/>
<polygon fill="black" stroke="black" points="163.095,-248.602 163.936,-238.04 156.693,-245.773 163.095,-248.602"/>
</g>
<!-- 23&#45;&gt;23 -->
<g id="edge120" class="edge"><title>23&#45;&gt;23</title>
<path fill="none" stroke="black" d="M2163.2,-56.4597C2173.59,-54.7196 2181,-49.5664 2181,-41 2181,-35.5121 2177.96,-31.4251 2173.04,-28.7387"/>
<polygon fill="black" stroke="black" points="2173.79,-25.3029 2163.2,-25.5403 2171.63,-31.9601 2173.79,-25.3029"/>
</g>
<!-- 30 -->
<g id="node30" class="node"><title>30</title>
<polygon fill="crimson" stroke="black" points="390,-582 186,-582 186,-532 390,-532 390,-582"/>
<text text-anchor="middle" x="288" y="-562.4" font-family="Times Roman,serif" font-size="14.00">ProgramState</text>
<text text-anchor="middle" x="288" y="-544.4" font-family="Times Roman,serif" font-size="14.00">extractInteractiveRef</text>
</g>
<!-- 20 -->
<g id="node42" class="node"><title>20</title>
<polygon fill="gold" stroke="black" points="2546,-582 2454,-582 2454,-532 2546,-532 2546,-582"/>
<text text-anchor="middle" x="2500" y="-562.4" font-family="Times Roman,serif" font-size="14.00">Main</text>
<text text-anchor="middle" x="2500" y="-544.4" font-family="Times Roman,serif" font-size="14.00">main</text>
</g>
</g>
</svg>
