<?xml version="1.0" encoding="UTF-8" standalone="no"?>
<!DOCTYPE svg PUBLIC "-//W3C//DTD SVG 1.1//EN"
 "http://www.w3.org/Graphics/SVG/1.1/DTD/svg11.dtd">
<!-- Generated by graphviz version 2.26.3 (20100126.1600)
 -->
<!-- Title: Levels within software Pages: 1 -->
<svg width="2456pt" height="632pt"
 viewBox="0.00 0.00 2456.00 632.00" xmlns="http://www.w3.org/2000/svg" xmlns:xlink="http://www.w3.org/1999/xlink">
<g id="graph1" class="graph" transform="scale(1 1) rotate(0) translate(4 628)">
<title>Levels within software</title>
<polygon fill="white" stroke="white" points="-4,5 -4,-628 2453,-628 2453,5 -4,5"/>
<g id="graph2" class="cluster"><title>cluster_&#45;1</title>
<polygon fill="lavender" stroke="black" points="8,-8 8,-616 2264,-616 2264,-8 8,-8"/>
<text text-anchor="middle" x="1136" y="-599.4" font-family="Times Roman,serif" font-size="14.00">Inaccessible entities</text>
</g>
<g id="graph3" class="cluster"><title>cluster_0</title>
<polygon fill="lavender" stroke="black" points="2272,-524 2272,-616 2440,-616 2440,-524 2272,-524"/>
<text text-anchor="middle" x="2356" y="-599.4" font-family="Times Roman,serif" font-size="14.00">Exported root entities</text>
</g>
<!-- 1 -->
<g id="node2" class="node"><title>1</title>
<polygon fill="crimson" stroke="black" points="476,-152 348,-152 344,-148 344,-102 472,-102 476,-106 476,-152"/>
<polyline fill="none" stroke="black" points="472,-148 344,-148 "/>
<polyline fill="none" stroke="black" points="472,-148 472,-102 "/>
<polyline fill="none" stroke="black" points="472,-148 476,-152 "/>
<text text-anchor="middle" x="410" y="-132.4" font-family="Times Roman,serif" font-size="14.00">DNA</text>
<text text-anchor="middle" x="410" y="-114.4" font-family="Times Roman,serif" font-size="14.00">Data: DNA</text>
</g>
<!-- 2 -->
<g id="node3" class="node"><title>2</title>
<polygon fill="crimson" stroke="black" points="135,-324 19,-324 19,-274 135,-274 135,-324"/>
<text text-anchor="middle" x="77" y="-304.4" font-family="Times Roman,serif" font-size="14.00">DNA</text>
<text text-anchor="middle" x="77" y="-286.4" font-family="Times Roman,serif" font-size="14.00">genDNA</text>
</g>
<!-- 2&#45;&gt;1 -->
<g id="edge4" class="edge"><title>2&#45;&gt;1</title>
<path fill="none" stroke="black" stroke-width="1.69315" d="M135.052,-282.698C145.67,-279.766 156.66,-276.765 167,-274 229.065,-257.402 258.741,-280.411 307,-238 324.978,-222.2 312.349,-206.926 327,-188 335.632,-176.849 346.823,-166.779 358.175,-158.183"/>
<polygon fill="black" stroke="black" points="360.397,-160.895 366.437,-152.19 356.287,-155.229 360.397,-160.895"/>
</g>
<!-- 2&#45;&gt;2 -->
<g id="edge6" class="edge"><title>2&#45;&gt;2</title>
<path fill="none" stroke="black" d="M135.312,-314.179C145.726,-312.206 153,-307.146 153,-299 153,-293.781 150.015,-289.829 145.131,-287.144"/>
<polygon fill="black" stroke="black" points="145.906,-283.711 135.312,-283.821 143.662,-290.342 145.906,-283.711"/>
</g>
<!-- 3 -->
<g id="node4" class="node"><title>3</title>
<polygon fill="crimson" stroke="black" points="456,-238 336,-238 336,-188 456,-188 456,-238"/>
<text text-anchor="middle" x="396" y="-218.4" font-family="Times Roman,serif" font-size="14.00">DNA</text>
<text text-anchor="middle" x="396" y="-200.4" font-family="Times Roman,serif" font-size="14.00">newDNA</text>
</g>
<!-- 2&#45;&gt;3 -->
<g id="edge8" class="edge"><title>2&#45;&gt;3</title>
<path fill="none" stroke="black" d="M135.483,-282.365C145.956,-279.497 156.786,-276.604 167,-274 235.531,-256.532 253.973,-257.341 322,-238 323.427,-237.594 324.866,-237.178 326.316,-236.752"/>
<polygon fill="black" stroke="black" points="327.423,-240.074 335.978,-233.824 325.393,-233.374 327.423,-240.074"/>
</g>
<!-- 10 -->
<g id="node11" class="node"><title>10</title>
<polygon fill="crimson" stroke="black" points="298,-238 156,-238 156,-188 298,-188 298,-238"/>
<text text-anchor="middle" x="227" y="-218.4" font-family="Times Roman,serif" font-size="14.00">DoubleHelix</text>
<text text-anchor="middle" x="227" y="-200.4" font-family="Times Roman,serif" font-size="14.00">genDHelix</text>
</g>
<!-- 2&#45;&gt;10 -->
<g id="edge10" class="edge"><title>2&#45;&gt;10</title>
<path fill="none" stroke="black" d="M120.789,-273.894C137.505,-264.31 156.739,-253.283 174.206,-243.269"/>
<polygon fill="black" stroke="black" points="176.222,-246.147 183.156,-238.137 172.74,-240.075 176.222,-246.147"/>
</g>
<!-- 15 -->
<g id="node16" class="node"><title>15</title>
<polygon fill="crimson" stroke="black" points="138,-238 16,-238 16,-188 138,-188 138,-238"/>
<text text-anchor="middle" x="77" y="-218.4" font-family="Times Roman,serif" font-size="14.00">Helix</text>
<text text-anchor="middle" x="77" y="-200.4" font-family="Times Roman,serif" font-size="14.00">newHelix</text>
</g>
<!-- 2&#45;&gt;15 -->
<g id="edge12" class="edge"><title>2&#45;&gt;15</title>
<path fill="none" stroke="black" d="M77,-273.662C77,-265.702 77,-256.763 77,-248.245"/>
<polygon fill="black" stroke="black" points="80.5001,-248.157 77,-238.157 73.5001,-248.157 80.5001,-248.157"/>
</g>
<!-- 3&#45;&gt;1 -->
<g id="edge14" class="edge"><title>3&#45;&gt;1</title>
<path fill="none" stroke="black" d="M400.125,-187.662C401.421,-179.702 402.876,-170.763 404.262,-162.245"/>
<polygon fill="black" stroke="black" points="407.752,-162.589 405.905,-152.157 400.843,-161.464 407.752,-162.589"/>
</g>
<!-- 4 -->
<g id="node5" class="node"><title>4</title>
<polygon fill="crimson" stroke="black" points="532,-410 398,-410 398,-360 532,-360 532,-410"/>
<text text-anchor="middle" x="465" y="-390.4" font-family="Times Roman,serif" font-size="14.00">DNA</text>
<text text-anchor="middle" x="465" y="-372.4" font-family="Times Roman,serif" font-size="14.00">renderDNA</text>
</g>
<!-- 11 -->
<g id="node12" class="node"><title>11</title>
<polygon fill="crimson" stroke="black" points="643,-324 493,-324 493,-274 643,-274 643,-324"/>
<text text-anchor="middle" x="568" y="-304.4" font-family="Times Roman,serif" font-size="14.00">DoubleHelix</text>
<text text-anchor="middle" x="568" y="-286.4" font-family="Times Roman,serif" font-size="14.00">renderDHelix</text>
</g>
<!-- 4&#45;&gt;11 -->
<g id="edge16" class="edge"><title>4&#45;&gt;11</title>
<path fill="none" stroke="black" stroke-width="1.69315" d="M495.069,-359.894C505.972,-350.79 518.435,-340.384 529.937,-330.78"/>
<polygon fill="black" stroke="black" points="532.283,-333.382 537.716,-324.286 527.796,-328.009 532.283,-333.382"/>
</g>
<!-- 22 -->
<g id="node22" class="node"><title>22</title>
<polygon fill="crimson" stroke="black" points="827,-66 723,-66 723,-16 827,-16 827,-66"/>
<text text-anchor="middle" x="775" y="-46.4" font-family="Times Roman,serif" font-size="14.00">Math</text>
<text text-anchor="middle" x="775" y="-28.4" font-family="Times Roman,serif" font-size="14.00">fromTo</text>
</g>
<!-- 4&#45;&gt;22 -->
<g id="edge18" class="edge"><title>4&#45;&gt;22</title>
<path fill="none" stroke="black" d="M532.201,-361.715C534.487,-361.109 536.758,-360.535 539,-360 648.622,-333.855 701.412,-393.662 790,-324 808.814,-309.205 796.949,-294.063 810,-274 851.303,-210.507 900.45,-222.158 929,-152 937.376,-131.417 941.489,-120.381 929,-102 908.494,-71.8219 870.488,-56.5735 837.364,-48.8689"/>
<polygon fill="black" stroke="black" points="837.777,-45.3781 827.266,-46.7118 836.314,-52.2237 837.777,-45.3781"/>
</g>
<!-- 23 -->
<g id="node23" class="node"><title>23</title>
<polygon fill="crimson" stroke="black" points="428,-66 334,-66 334,-16 428,-16 428,-66"/>
<text text-anchor="middle" x="381" y="-46.4" font-family="Times Roman,serif" font-size="14.00">Math</text>
<text text-anchor="middle" x="381" y="-28.4" font-family="Times Roman,serif" font-size="14.00">phi</text>
</g>
<!-- 4&#45;&gt;23 -->
<g id="edge20" class="edge"><title>4&#45;&gt;23</title>
<path fill="none" stroke="black" d="M468.372,-359.824C476.874,-294.672 497.638,-124.064 485,-102 474.405,-83.5029 455.782,-70.0692 437.195,-60.5975"/>
<polygon fill="black" stroke="black" points="438.641,-57.4095 428.109,-56.2612 435.626,-63.727 438.641,-57.4095"/>
</g>
<!-- 24 -->
<g id="node24" class="node"><title>24</title>
<polygon fill="crimson" stroke="black" points="781,-324 681,-324 681,-274 781,-274 781,-324"/>
<text text-anchor="middle" x="731" y="-304.4" font-family="Times Roman,serif" font-size="14.00">Misc</text>
<text text-anchor="middle" x="731" y="-286.4" font-family="Times Roman,serif" font-size="14.00">colour</text>
</g>
<!-- 4&#45;&gt;24 -->
<g id="edge22" class="edge"><title>4&#45;&gt;24</title>
<path fill="none" stroke="black" stroke-width="1.69315" d="M532.167,-364.212C536.847,-362.781 541.493,-361.366 546,-360 599.696,-343.726 613.934,-342.223 667,-324 668.41,-323.516 669.835,-323.019 671.271,-322.513"/>
<polygon fill="black" stroke="black" points="672.626,-325.744 680.837,-319.05 670.243,-319.162 672.626,-325.744"/>
</g>
<!-- 26 -->
<g id="node26" class="node"><title>26</title>
<polygon fill="crimson" stroke="black" points="920,-152 826,-152 826,-102 920,-102 920,-152"/>
<text text-anchor="middle" x="873" y="-132.4" font-family="Times Roman,serif" font-size="14.00">Misc</text>
<text text-anchor="middle" x="873" y="-114.4" font-family="Times Roman,serif" font-size="14.00">vec3f</text>
</g>
<!-- 4&#45;&gt;26 -->
<g id="edge24" class="edge"><title>4&#45;&gt;26</title>
<path fill="none" stroke="black" stroke-width="2.38629" d="M532.337,-362.196C534.584,-361.452 536.81,-360.719 539,-360 589.081,-343.564 613.41,-359.904 652,-324 669.523,-307.697 657.327,-292.909 672,-274 711.177,-223.513 772.125,-182.319 816.641,-156.519"/>
<polygon fill="black" stroke="black" points="818.646,-159.405 825.595,-151.408 815.176,-153.326 818.646,-159.405"/>
</g>
<!-- 5 -->
<g id="node6" class="node"><title>5</title>
<polygon fill="crimson" stroke="black" points="202,-410 56,-410 56,-360 202,-360 202,-410"/>
<text text-anchor="middle" x="129" y="-390.4" font-family="Times Roman,serif" font-size="14.00">DNA</text>
<text text-anchor="middle" x="129" y="-372.4" font-family="Times Roman,serif" font-size="14.00">updateModel</text>
</g>
<!-- 5&#45;&gt;2 -->
<g id="edge26" class="edge"><title>5&#45;&gt;2</title>
<path fill="none" stroke="black" d="M113.68,-359.662C108.602,-351.264 102.866,-341.778 97.4643,-332.845"/>
<polygon fill="black" stroke="black" points="100.38,-330.903 92.211,-324.157 94.3901,-334.525 100.38,-330.903"/>
</g>
<!-- 5&#45;&gt;3 -->
<g id="edge28" class="edge"><title>5&#45;&gt;3</title>
<path fill="none" stroke="black" d="M167.824,-359.99C215.677,-329.163 296.967,-276.796 348.497,-243.601"/>
<polygon fill="black" stroke="black" points="350.618,-246.398 357.129,-238.04 346.827,-240.514 350.618,-246.398"/>
</g>
<!-- 6 -->
<g id="node7" class="node"><title>6</title>
<polygon fill="crimson" stroke="black" points="608,-496 494,-496 494,-446 608,-446 608,-496"/>
<text text-anchor="middle" x="551" y="-476.4" font-family="Times Roman,serif" font-size="14.00">Display</text>
<text text-anchor="middle" x="551" y="-458.4" font-family="Times Roman,serif" font-size="14.00">animate</text>
</g>
<!-- 6&#45;&gt;5 -->
<g id="edge30" class="edge"><title>6&#45;&gt;5</title>
<path fill="none" stroke="black" d="M493.721,-462.843C427.851,-452.991 316.382,-434.873 211.957,-410.124"/>
<polygon fill="black" stroke="black" points="212.74,-406.712 202.199,-407.786 211.109,-413.519 212.74,-406.712"/>
</g>
<!-- 28 -->
<g id="node28" class="node"><title>28</title>
<polygon fill="crimson" stroke="black" points="380,-410 220,-410 220,-360 380,-360 380,-410"/>
<text text-anchor="middle" x="300" y="-390.4" font-family="Times Roman,serif" font-size="14.00">ProgramState</text>
<text text-anchor="middle" x="300" y="-372.4" font-family="Times Roman,serif" font-size="14.00">extractDNARef</text>
</g>
<!-- 6&#45;&gt;28 -->
<g id="edge32" class="edge"><title>6&#45;&gt;28</title>
<path fill="none" stroke="black" d="M493.73,-451.378C460.924,-440.137 419.181,-425.835 382.85,-413.387"/>
<polygon fill="black" stroke="black" points="383.845,-410.028 373.25,-410.098 381.576,-416.65 383.845,-410.028"/>
</g>
<!-- 29 -->
<g id="node29" class="node"><title>29</title>
<polygon fill="crimson" stroke="black" points="736,-410 570,-410 570,-360 736,-360 736,-410"/>
<text text-anchor="middle" x="653" y="-390.4" font-family="Times Roman,serif" font-size="14.00">ProgramState</text>
<text text-anchor="middle" x="653" y="-372.4" font-family="Times Roman,serif" font-size="14.00">extractLevelRef</text>
</g>
<!-- 6&#45;&gt;29 -->
<g id="edge34" class="edge"><title>6&#45;&gt;29</title>
<path fill="none" stroke="black" d="M580.777,-445.894C591.574,-436.79 603.917,-426.384 615.307,-416.78"/>
<polygon fill="black" stroke="black" points="617.62,-419.408 623.01,-410.286 613.108,-414.056 617.62,-419.408"/>
</g>
<!-- 36 -->
<g id="node36" class="node"><title>36</title>
<polygon fill="crimson" stroke="black" points="997,-324 819,-324 819,-274 997,-274 997,-324"/>
<text text-anchor="middle" x="908" y="-304.4" font-family="Times Roman,serif" font-size="14.00">ProgramState</text>
<text text-anchor="middle" x="908" y="-286.4" font-family="Times Roman,serif" font-size="14.00">extractUpdateRef</text>
</g>
<!-- 6&#45;&gt;36 -->
<g id="edge36" class="edge"><title>6&#45;&gt;36</title>
<path fill="none" stroke="black" stroke-width="1.69315" d="M545.27,-445.842C541.166,-420.708 539.605,-382.642 561,-360 598.643,-320.162 751.201,-334.475 805,-324 806.27,-323.753 807.548,-323.5 808.832,-323.243"/>
<polygon fill="black" stroke="black" points="809.701,-326.637 818.785,-321.184 808.283,-319.782 809.701,-326.637"/>
</g>
<!-- 7 -->
<g id="node8" class="node"><title>7</title>
<polygon fill="crimson" stroke="black" points="1077,-496 969,-496 969,-446 1077,-446 1077,-496"/>
<text text-anchor="middle" x="1023" y="-476.4" font-family="Times Roman,serif" font-size="14.00">Display</text>
<text text-anchor="middle" x="1023" y="-458.4" font-family="Times Roman,serif" font-size="14.00">display</text>
</g>
<!-- 7&#45;&gt;4 -->
<g id="edge38" class="edge"><title>7&#45;&gt;4</title>
<path fill="none" stroke="black" d="M968.945,-466.049C882.326,-457.627 707.298,-438.594 561,-410 554.844,-408.797 548.496,-407.43 542.136,-405.97"/>
<polygon fill="black" stroke="black" points="542.694,-402.506 532.157,-403.61 541.083,-409.318 542.694,-402.506"/>
</g>
<!-- 25 -->
<g id="node25" class="node"><title>25</title>
<polygon fill="crimson" stroke="black" points="902,-410 774,-410 774,-360 902,-360 902,-410"/>
<text text-anchor="middle" x="838" y="-390.4" font-family="Times Roman,serif" font-size="14.00">Misc</text>
<text text-anchor="middle" x="838" y="-372.4" font-family="Times Roman,serif" font-size="14.00">evenScale</text>
</g>
<!-- 7&#45;&gt;25 -->
<g id="edge40" class="edge"><title>7&#45;&gt;25</title>
<path fill="none" stroke="black" d="M968.993,-445.894C947.809,-436.047 923.348,-424.675 901.339,-414.444"/>
<polygon fill="black" stroke="black" points="902.618,-411.179 892.074,-410.137 899.667,-417.526 902.618,-411.179"/>
</g>
<!-- 7&#45;&gt;26 -->
<g id="edge42" class="edge"><title>7&#45;&gt;26</title>
<path fill="none" stroke="black" stroke-width="2.94591" d="M968.778,-465.965C900.74,-458.395 789.916,-441.494 765,-410 751.212,-392.572 750.494,-376.834 765,-360 835.697,-277.959 935.303,-406.041 1006,-324 1052.76,-269.735 974.954,-198.482 920.013,-158.231"/>
<polygon fill="black" stroke="black" points="921.913,-155.286 911.752,-152.284 917.823,-160.967 921.913,-155.286"/>
</g>
<!-- 7&#45;&gt;28 -->
<g id="edge44" class="edge"><title>7&#45;&gt;28</title>
<path fill="none" stroke="black" d="M968.69,-469.03C860.191,-464.392 608.979,-450.13 390.432,-410.132"/>
<polygon fill="black" stroke="black" points="390.849,-406.65 380.379,-408.27 389.574,-413.533 390.849,-406.65"/>
</g>
<!-- 30 -->
<g id="node30" class="node"><title>30</title>
<polygon fill="crimson" stroke="black" points="1616,-410 1450,-410 1450,-360 1616,-360 1616,-410"/>
<text text-anchor="middle" x="1533" y="-390.4" font-family="Times Roman,serif" font-size="14.00">ProgramState</text>
<text text-anchor="middle" x="1533" y="-372.4" font-family="Times Roman,serif" font-size="14.00">extractModeRef</text>
</g>
<!-- 7&#45;&gt;30 -->
<g id="edge46" class="edge"><title>7&#45;&gt;30</title>
<path fill="none" stroke="black" d="M1077.33,-448.373C1080.24,-447.497 1083.14,-446.698 1086,-446 1236.9,-409.165 1283.18,-437.668 1439.9,-410.049"/>
<polygon fill="black" stroke="black" points="1440.68,-413.466 1449.9,-408.239 1439.43,-406.578 1440.68,-413.466"/>
</g>
<!-- 31 -->
<g id="node31" class="node"><title>31</title>
<polygon fill="crimson" stroke="black" points="1788,-410 1634,-410 1634,-360 1788,-360 1788,-410"/>
<text text-anchor="middle" x="1711" y="-390.4" font-family="Times Roman,serif" font-size="14.00">ProgramState</text>
<text text-anchor="middle" x="1711" y="-372.4" font-family="Times Roman,serif" font-size="14.00">extractRXRef</text>
</g>
<!-- 7&#45;&gt;31 -->
<g id="edge48" class="edge"><title>7&#45;&gt;31</title>
<path fill="none" stroke="black" d="M1077.31,-448.252C1080.22,-447.409 1083.13,-446.648 1086,-446 1316.98,-393.807 1386.67,-450.17 1623.87,-410.012"/>
<polygon fill="black" stroke="black" points="1624.58,-413.442 1633.83,-408.286 1623.38,-406.545 1624.58,-413.442"/>
</g>
<!-- 32 -->
<g id="node32" class="node"><title>32</title>
<polygon fill="crimson" stroke="black" points="1960,-410 1806,-410 1806,-360 1960,-360 1960,-410"/>
<text text-anchor="middle" x="1883" y="-390.4" font-family="Times Roman,serif" font-size="14.00">ProgramState</text>
<text text-anchor="middle" x="1883" y="-372.4" font-family="Times Roman,serif" font-size="14.00">extractRYRef</text>
</g>
<!-- 7&#45;&gt;32 -->
<g id="edge50" class="edge"><title>7&#45;&gt;32</title>
<path fill="none" stroke="black" d="M1077.29,-448.196C1080.21,-447.367 1083.13,-446.625 1086,-446 1391.85,-379.472 1483.03,-460.733 1795.58,-410.045"/>
<polygon fill="black" stroke="black" points="1796.55,-413.433 1805.84,-408.347 1795.4,-406.527 1796.55,-413.433"/>
</g>
<!-- 33 -->
<g id="node33" class="node"><title>33</title>
<polygon fill="crimson" stroke="black" points="2132,-410 1978,-410 1978,-360 2132,-360 2132,-410"/>
<text text-anchor="middle" x="2055" y="-390.4" font-family="Times Roman,serif" font-size="14.00">ProgramState</text>
<text text-anchor="middle" x="2055" y="-372.4" font-family="Times Roman,serif" font-size="14.00">extractRZRef</text>
</g>
<!-- 7&#45;&gt;33 -->
<g id="edge52" class="edge"><title>7&#45;&gt;33</title>
<path fill="none" stroke="black" d="M1077.29,-448.161C1080.21,-447.341 1083.12,-446.611 1086,-446 1466.92,-365.106 1579.44,-471.436 1967.75,-410.009"/>
<polygon fill="black" stroke="black" points="1968.53,-413.428 1977.85,-408.383 1967.42,-406.517 1968.53,-413.428"/>
</g>
<!-- 34 -->
<g id="node34" class="node"><title>34</title>
<polygon fill="crimson" stroke="black" points="1074,-410 920,-410 920,-360 1074,-360 1074,-410"/>
<text text-anchor="middle" x="997" y="-390.4" font-family="Times Roman,serif" font-size="14.00">ProgramState</text>
<text text-anchor="middle" x="997" y="-372.4" font-family="Times Roman,serif" font-size="14.00">extractTXRef</text>
</g>
<!-- 7&#45;&gt;34 -->
<g id="edge54" class="edge"><title>7&#45;&gt;34</title>
<path fill="none" stroke="black" d="M1015.34,-445.662C1012.91,-437.614 1010.17,-428.567 1007.57,-419.964"/>
<polygon fill="black" stroke="black" points="1010.85,-418.716 1004.61,-410.157 1004.15,-420.742 1010.85,-418.716"/>
</g>
<!-- 35 -->
<g id="node35" class="node"><title>35</title>
<polygon fill="crimson" stroke="black" points="1246,-410 1092,-410 1092,-360 1246,-360 1246,-410"/>
<text text-anchor="middle" x="1169" y="-390.4" font-family="Times Roman,serif" font-size="14.00">ProgramState</text>
<text text-anchor="middle" x="1169" y="-372.4" font-family="Times Roman,serif" font-size="14.00">extractTYRef</text>
</g>
<!-- 7&#45;&gt;35 -->
<g id="edge56" class="edge"><title>7&#45;&gt;35</title>
<path fill="none" stroke="black" d="M1065.62,-445.894C1081.89,-436.31 1100.61,-425.283 1117.61,-415.269"/>
<polygon fill="black" stroke="black" points="1119.49,-418.228 1126.33,-410.137 1115.93,-412.197 1119.49,-418.228"/>
</g>
<!-- 37 -->
<g id="node37" class="node"><title>37</title>
<polygon fill="crimson" stroke="black" points="1432,-410 1264,-410 1264,-360 1432,-360 1432,-410"/>
<text text-anchor="middle" x="1348" y="-390.4" font-family="Times Roman,serif" font-size="14.00">ProgramState</text>
<text text-anchor="middle" x="1348" y="-372.4" font-family="Times Roman,serif" font-size="14.00">extractZoomRef</text>
</g>
<!-- 7&#45;&gt;37 -->
<g id="edge58" class="edge"><title>7&#45;&gt;37</title>
<path fill="none" stroke="black" d="M1077.09,-448.867C1080.09,-447.85 1083.07,-446.886 1086,-446 1156.49,-424.671 1178.54,-427.673 1253.93,-410.181"/>
<polygon fill="black" stroke="black" points="1254.98,-413.529 1263.9,-407.82 1253.36,-406.717 1254.98,-413.529"/>
</g>
<!-- 8 -->
<g id="node9" class="node"><title>8</title>
<polygon fill="crimson" stroke="black" points="1257,-496 1095,-496 1095,-446 1257,-446 1257,-496"/>
<text text-anchor="middle" x="1176" y="-476.4" font-family="Times Roman,serif" font-size="14.00">Display</text>
<text text-anchor="middle" x="1176" y="-458.4" font-family="Times Roman,serif" font-size="14.00">handleReshape</text>
</g>
<!-- 9 -->
<g id="node10" class="node"><title>9</title>
<polygon fill="crimson" stroke="black" points="1748,-582 1594,-582 1594,-532 1748,-532 1748,-582"/>
<text text-anchor="middle" x="1671" y="-562.4" font-family="Times Roman,serif" font-size="14.00">DoubleHelix</text>
<text text-anchor="middle" x="1671" y="-544.4" font-family="Times Roman,serif" font-size="14.00">extractHeight</text>
</g>
<!-- 14 -->
<g id="node15" class="node"><title>14</title>
<polygon fill="crimson" stroke="black" points="326,-152 208,-152 208,-102 326,-102 326,-152"/>
<text text-anchor="middle" x="267" y="-132.4" font-family="Times Roman,serif" font-size="14.00">Helix</text>
<text text-anchor="middle" x="267" y="-114.4" font-family="Times Roman,serif" font-size="14.00">genHelix</text>
</g>
<!-- 10&#45;&gt;14 -->
<g id="edge60" class="edge"><title>10&#45;&gt;14</title>
<path fill="none" stroke="chartreuse" d="M238.785,-187.662C242.61,-179.439 246.92,-170.173 250.998,-161.404"/>
<polygon fill="chartreuse" stroke="chartreuse" points="254.255,-162.7 255.299,-152.157 247.908,-159.748 254.255,-162.7"/>
</g>
<!-- 16 -->
<g id="node17" class="node"><title>16</title>
<polygon fill="crimson" stroke="black" points="640,-238 502,-238 502,-188 640,-188 640,-238"/>
<text text-anchor="middle" x="571" y="-218.4" font-family="Times Roman,serif" font-size="14.00">Helix</text>
<text text-anchor="middle" x="571" y="-200.4" font-family="Times Roman,serif" font-size="14.00">renderHelix</text>
</g>
<!-- 11&#45;&gt;16 -->
<g id="edge62" class="edge"><title>11&#45;&gt;16</title>
<path fill="none" stroke="chartreuse" stroke-width="1.69315" d="M568.884,-273.662C569.162,-265.702 569.473,-256.763 569.771,-248.245"/>
<polygon fill="chartreuse" stroke="chartreuse" points="573.272,-248.273 570.122,-238.157 566.276,-248.028 573.272,-248.273"/>
</g>
<!-- 12 -->
<g id="node13" class="node"><title>12</title>
<polygon fill="crimson" stroke="black" points="181,-66 49,-66 45,-62 45,-16 177,-16 181,-20 181,-66"/>
<polyline fill="none" stroke="black" points="177,-62 45,-62 "/>
<polyline fill="none" stroke="black" points="177,-62 177,-16 "/>
<polyline fill="none" stroke="black" points="177,-62 181,-66 "/>
<text text-anchor="middle" x="113" y="-46.4" font-family="Times Roman,serif" font-size="14.00">Helix</text>
<text text-anchor="middle" x="113" y="-28.4" font-family="Times Roman,serif" font-size="14.00">Data: Helix</text>
</g>
<!-- 13 -->
<g id="node14" class="node"><title>13</title>
<polygon fill="crimson" stroke="black" points="190,-152 36,-152 36,-102 190,-102 190,-152"/>
<text text-anchor="middle" x="113" y="-132.4" font-family="Times Roman,serif" font-size="14.00">Helix</text>
<text text-anchor="middle" x="113" y="-114.4" font-family="Times Roman,serif" font-size="14.00">extractHeight</text>
</g>
<!-- 13&#45;&gt;12 -->
<g id="edge64" class="edge"><title>13&#45;&gt;12</title>
<path fill="none" stroke="black" d="M113,-101.662C113,-93.7016 113,-84.7633 113,-76.2449"/>
<polygon fill="black" stroke="black" points="116.5,-76.1566 113,-66.1566 109.5,-76.1566 116.5,-76.1566"/>
</g>
<!-- 14&#45;&gt;12 -->
<g id="edge66" class="edge"><title>14&#45;&gt;12</title>
<path fill="none" stroke="black" d="M222.043,-101.894C204.881,-92.3103 185.135,-81.2833 167.202,-71.2688"/>
<polygon fill="black" stroke="black" points="168.45,-67.9571 158.013,-66.1371 165.037,-74.0687 168.45,-67.9571"/>
</g>
<!-- 14&#45;&gt;22 -->
<g id="edge68" class="edge"><title>14&#45;&gt;22</title>
<path fill="none" stroke="black" d="M326.103,-104.422C329.094,-103.547 332.071,-102.732 335,-102 467.284,-68.9213 626.731,-52.437 712.716,-45.4039"/>
<polygon fill="black" stroke="black" points="713.143,-48.881 722.831,-44.5926 712.583,-41.9034 713.143,-48.881"/>
</g>
<!-- 14&#45;&gt;23 -->
<g id="edge70" class="edge"><title>14&#45;&gt;23</title>
<path fill="none" stroke="black" d="M300.28,-101.894C312.464,-92.7027 326.408,-82.1838 339.239,-72.5037"/>
<polygon fill="black" stroke="black" points="341.606,-75.1026 347.481,-66.286 337.39,-69.5144 341.606,-75.1026"/>
</g>
<!-- 15&#45;&gt;12 -->
<g id="edge72" class="edge"><title>15&#45;&gt;12</title>
<path fill="none" stroke="black" d="M49.8563,-187.91C40.7688,-177.75 31.7475,-165.281 27,-152 19.5199,-131.075 16.7989,-121.742 27,-102 33.0265,-90.3368 42.426,-80.421 52.8357,-72.1888"/>
<polygon fill="black" stroke="black" points="54.9698,-74.964 60.9538,-66.2208 50.8236,-69.324 54.9698,-74.964"/>
</g>
<!-- 21 -->
<g id="node21" class="node"><title>21</title>
<polygon fill="crimson" stroke="black" points="808,-152 630,-152 630,-102 808,-102 808,-152"/>
<text text-anchor="middle" x="719" y="-132.4" font-family="Times Roman,serif" font-size="14.00">Math</text>
<text text-anchor="middle" x="719" y="-114.4" font-family="Times Roman,serif" font-size="14.00">distanceBetween</text>
</g>
<!-- 16&#45;&gt;21 -->
<g id="edge74" class="edge"><title>16&#45;&gt;21</title>
<path fill="none" stroke="black" stroke-width="1.69315" d="M614.206,-187.894C630.698,-178.31 649.675,-167.283 666.91,-157.269"/>
<polygon fill="black" stroke="black" points="668.853,-160.188 675.741,-152.137 665.336,-154.135 668.853,-160.188"/>
</g>
<!-- 16&#45;&gt;26 -->
<g id="edge76" class="edge"><title>16&#45;&gt;26</title>
<path fill="none" stroke="black" stroke-width="2.09861" d="M640.367,-192.438C645.983,-190.894 651.579,-189.396 657,-188 724.552,-170.599 745.993,-174.57 816.152,-152.017"/>
<polygon fill="black" stroke="black" points="817.496,-155.26 825.905,-148.815 815.312,-148.609 817.496,-155.26"/>
</g>
<!-- 27 -->
<g id="node27" class="node"><title>27</title>
<polygon fill="crimson" stroke="black" points="612,-152 514,-152 514,-102 612,-102 612,-152"/>
<text text-anchor="middle" x="563" y="-132.4" font-family="Times Roman,serif" font-size="14.00">Misc</text>
<text text-anchor="middle" x="563" y="-114.4" font-family="Times Roman,serif" font-size="14.00">ver3d</text>
</g>
<!-- 16&#45;&gt;27 -->
<g id="edge78" class="edge"><title>16&#45;&gt;27</title>
<path fill="none" stroke="black" d="M568.643,-187.662C567.902,-179.702 567.071,-170.763 566.279,-162.245"/>
<polygon fill="black" stroke="black" points="569.751,-161.789 565.34,-152.157 562.782,-162.438 569.751,-161.789"/>
</g>
<!-- 17 -->
<g id="node18" class="node"><title>17</title>
<polygon fill="crimson" stroke="black" points="1395,-496 1301,-496 1301,-446 1395,-446 1395,-496"/>
<text text-anchor="middle" x="1348" y="-476.4" font-family="Times Roman,serif" font-size="14.00">Input</text>
<text text-anchor="middle" x="1348" y="-458.4" font-family="Times Roman,serif" font-size="14.00">input</text>
</g>
<!-- 18 -->
<g id="node19" class="node"><title>18</title>
<polygon fill="crimson" stroke="black" points="2256,-410 2150,-410 2150,-360 2256,-360 2256,-410"/>
<text text-anchor="middle" x="2203" y="-390.4" font-family="Times Roman,serif" font-size="14.00">Input</text>
<text text-anchor="middle" x="2203" y="-372.4" font-family="Times Roman,serif" font-size="14.00">update</text>
</g>
<!-- 17&#45;&gt;18 -->
<g id="edge80" class="edge"><title>17&#45;&gt;18</title>
<path fill="none" stroke="black" stroke-width="3.83321" d="M1395.24,-448.479C1398.17,-447.532 1401.1,-446.692 1404,-446 1719.71,-370.63 1818.65,-478.056 2139.87,-409.888"/>
<polygon fill="black" stroke="black" points="2140.89,-413.248 2149.93,-407.712 2139.41,-406.406 2140.89,-413.248"/>
</g>
<!-- 17&#45;&gt;29 -->
<g id="edge82" class="edge"><title>17&#45;&gt;29</title>
<path fill="none" stroke="black" stroke-width="1.69315" d="M1300.75,-454.626C1289.48,-451.272 1277.41,-448.122 1266,-446 1046.52,-405.193 985.876,-442.405 765,-410 758.855,-409.099 752.547,-408.046 746.205,-406.892"/>
<polygon fill="black" stroke="black" points="746.707,-403.425 736.23,-405.004 745.405,-410.303 746.707,-403.425"/>
</g>
<!-- 17&#45;&gt;30 -->
<g id="edge84" class="edge"><title>17&#45;&gt;30</title>
<path fill="none" stroke="black" stroke-width="2.09861" d="M1395.16,-449.076C1417.85,-438.53 1445.37,-425.736 1469.84,-414.362"/>
<polygon fill="black" stroke="black" points="1471.46,-417.47 1479.05,-410.08 1468.5,-411.122 1471.46,-417.47"/>
</g>
<!-- 17&#45;&gt;31 -->
<g id="edge86" class="edge"><title>17&#45;&gt;31</title>
<path fill="none" stroke="black" stroke-width="1.69315" d="M1395.03,-448.977C1398.04,-447.89 1401.04,-446.885 1404,-446 1496.27,-418.397 1526.02,-431.043 1623.76,-410.136"/>
<polygon fill="black" stroke="black" points="1624.75,-413.504 1633.76,-407.933 1623.24,-406.668 1624.75,-413.504"/>
</g>
<!-- 17&#45;&gt;32 -->
<g id="edge88" class="edge"><title>17&#45;&gt;32</title>
<path fill="none" stroke="black" stroke-width="1.69315" d="M1395.27,-448.625C1398.19,-447.642 1401.12,-446.754 1404,-446 1570.55,-402.475 1622.73,-441.139 1795.86,-410.034"/>
<polygon fill="black" stroke="black" points="1796.62,-413.454 1805.81,-408.194 1795.34,-406.571 1796.62,-413.454"/>
</g>
<!-- 17&#45;&gt;33 -->
<g id="edge90" class="edge"><title>17&#45;&gt;33</title>
<path fill="none" stroke="black" stroke-width="1.69315" d="M1395.25,-448.53C1398.17,-447.57 1401.11,-446.714 1404,-446 1645.08,-386.554 1719.2,-451.619 1967.78,-410.023"/>
<polygon fill="black" stroke="black" points="1968.57,-413.438 1977.83,-408.298 1967.39,-406.539 1968.57,-413.438"/>
</g>
<!-- 17&#45;&gt;34 -->
<g id="edge92" class="edge"><title>17&#45;&gt;34</title>
<path fill="none" stroke="black" stroke-width="1.69315" d="M1300.97,-455.764C1289.58,-452.326 1277.41,-448.853 1266,-446 1188.73,-426.673 1165.36,-429.336 1084.43,-410.25"/>
<polygon fill="black" stroke="black" points="1084.81,-406.742 1074.27,-407.812 1083.18,-413.549 1084.81,-406.742"/>
</g>
<!-- 17&#45;&gt;35 -->
<g id="edge94" class="edge"><title>17&#45;&gt;35</title>
<path fill="none" stroke="black" stroke-width="1.69315" d="M1300.97,-448.405C1279.3,-437.992 1253.3,-425.502 1230.13,-414.37"/>
<polygon fill="black" stroke="black" points="1231.6,-411.193 1221.07,-410.017 1228.57,-417.503 1231.6,-411.193"/>
</g>
<!-- 17&#45;&gt;37 -->
<g id="edge96" class="edge"><title>17&#45;&gt;37</title>
<path fill="none" stroke="black" stroke-width="1.69315" d="M1348,-445.662C1348,-437.702 1348,-428.763 1348,-420.245"/>
<polygon fill="black" stroke="black" points="1351.5,-420.157 1348,-410.157 1344.5,-420.157 1351.5,-420.157"/>
</g>
<!-- 18&#45;&gt;36 -->
<g id="edge98" class="edge"><title>18&#45;&gt;36</title>
<path fill="none" stroke="black" d="M2149.93,-362.29C2146.94,-361.422 2143.95,-360.648 2141,-360 1925.76,-312.69 1260.65,-302.026 1007.35,-299.661"/>
<polygon fill="black" stroke="black" points="1007.09,-296.158 997.056,-299.567 1007.02,-303.158 1007.09,-296.158"/>
</g>
<!-- 19 -->
<g id="node20" class="node"><title>19</title>
<polygon fill="crimson" stroke="black" points="1069,-582 977,-582 977,-532 1069,-532 1069,-582"/>
<text text-anchor="middle" x="1023" y="-562.4" font-family="Times Roman,serif" font-size="14.00">Main</text>
<text text-anchor="middle" x="1023" y="-544.4" font-family="Times Roman,serif" font-size="14.00">init</text>
</g>
<!-- 19&#45;&gt;2 -->
<g id="edge100" class="edge"><title>19&#45;&gt;2</title>
<path fill="none" stroke="black" d="M976.936,-555.902C785.95,-551.129 64.7681,-530.847 32,-496 -9.40692,-451.966 13.1129,-417.418 32,-360 35.2075,-350.249 40.638,-340.777 46.639,-332.32"/>
<polygon fill="black" stroke="black" points="49.5207,-334.312 52.7691,-324.227 43.9409,-330.085 49.5207,-334.312"/>
</g>
<!-- 19&#45;&gt;3 -->
<g id="edge102" class="edge"><title>19&#45;&gt;3</title>
<path fill="none" stroke="black" d="M976.946,-553.632C791.589,-539.607 107.185,-483.151 47,-410 32.8812,-392.839 33.8414,-377.907 47,-360 78.713,-316.842 114.484,-348.71 162,-324 194.336,-307.184 195.033,-291.507 227,-274 236.347,-268.881 283.878,-251.843 326.16,-237.071"/>
<polygon fill="black" stroke="black" points="327.354,-240.361 335.645,-233.764 325.05,-233.751 327.354,-240.361"/>
</g>
<!-- 19&#45;&gt;6 -->
<g id="edge104" class="edge"><title>19&#45;&gt;6</title>
<path fill="none" stroke="black" d="M976.883,-548.597C893.093,-533.33 715.555,-500.982 618.253,-483.254"/>
<polygon fill="black" stroke="black" points="618.697,-479.777 608.232,-481.428 617.442,-486.664 618.697,-479.777"/>
</g>
<!-- 19&#45;&gt;7 -->
<g id="edge106" class="edge"><title>19&#45;&gt;7</title>
<path fill="none" stroke="black" d="M1023,-531.662C1023,-523.702 1023,-514.763 1023,-506.245"/>
<polygon fill="black" stroke="black" points="1026.5,-506.157 1023,-496.157 1019.5,-506.157 1026.5,-506.157"/>
</g>
<!-- 19&#45;&gt;8 -->
<g id="edge108" class="edge"><title>19&#45;&gt;8</title>
<path fill="none" stroke="black" d="M1067.67,-531.894C1084.72,-522.31 1104.33,-511.283 1122.15,-501.269"/>
<polygon fill="black" stroke="black" points="1124.28,-504.088 1131.28,-496.137 1120.85,-497.986 1124.28,-504.088"/>
</g>
<!-- 19&#45;&gt;17 -->
<g id="edge110" class="edge"><title>19&#45;&gt;17</title>
<path fill="none" stroke="black" d="M1069.31,-546.103C1118.34,-534.397 1197.9,-514.917 1266,-496 1274.14,-493.738 1282.71,-491.25 1291.11,-488.747"/>
<polygon fill="black" stroke="black" points="1292.29,-492.047 1300.85,-485.814 1290.27,-485.344 1292.29,-492.047"/>
</g>
<!-- 38 -->
<g id="node38" class="node"><title>38</title>
<polygon fill="crimson" stroke="black" points="1597,-496 1413,-496 1413,-446 1597,-446 1597,-496"/>
<text text-anchor="middle" x="1505" y="-476.4" font-family="Times Roman,serif" font-size="14.00">ProgramState</text>
<text text-anchor="middle" x="1505" y="-458.4" font-family="Times Roman,serif" font-size="14.00">newProgramState</text>
</g>
<!-- 19&#45;&gt;38 -->
<g id="edge112" class="edge"><title>19&#45;&gt;38</title>
<path fill="none" stroke="black" d="M1069.26,-550.87C1139.36,-541.302 1276.83,-521.447 1403.03,-496.131"/>
<polygon fill="black" stroke="black" points="1403.77,-499.554 1412.87,-494.142 1402.38,-492.693 1403.77,-499.554"/>
</g>
<!-- 22&#45;&gt;22 -->
<g id="edge114" class="edge"><title>22&#45;&gt;22</title>
<path fill="none" stroke="black" d="M827.202,-56.4597C837.592,-54.7196 845,-49.5664 845,-41 845,-35.5121 841.96,-31.4251 837.043,-28.7387"/>
<polygon fill="black" stroke="black" points="837.795,-25.3029 827.202,-25.5403 835.631,-31.9601 837.795,-25.3029"/>
</g>
<!-- 20 -->
<g id="node40" class="node"><title>20</title>
<polygon fill="gold" stroke="black" points="2402,-582 2310,-582 2310,-532 2402,-532 2402,-582"/>
<text text-anchor="middle" x="2356" y="-562.4" font-family="Times Roman,serif" font-size="14.00">Main</text>
<text text-anchor="middle" x="2356" y="-544.4" font-family="Times Roman,serif" font-size="14.00">main</text>
</g>
</g>
</svg>
