<?xml version="1.0" encoding="UTF-8" standalone="no"?>
<!DOCTYPE svg PUBLIC "-//W3C//DTD SVG 1.1//EN"
 "http://www.w3.org/Graphics/SVG/1.1/DTD/svg11.dtd">
<!-- Generated by graphviz version 2.26.3 (20100126.1600)
 -->
<!-- Title: Current module groupings Pages: 1 -->
<svg width="3297pt" height="596pt"
 viewBox="0.00 0.00 3296.70 596.00" xmlns="http://www.w3.org/2000/svg" xmlns:xlink="http://www.w3.org/1999/xlink">
<g id="graph1" class="graph" transform="scale(1 1) rotate(0) translate(4 592)">
<title>Current module groupings</title>
<polygon fill="white" stroke="white" points="-4,5 -4,-592 3293.7,-592 3293.7,5 -4,5"/>
<g id="graph2" class="cluster"><title>cluster_DNA</title>
<polygon fill="lavender" stroke="black" points="38.705,-94 38.705,-408 352.705,-408 352.705,-94 38.705,-94"/>
<text text-anchor="middle" x="195.705" y="-391.4" font-family="Times Roman,serif" font-size="14.00">DNA</text>
</g>
<g id="graph3" class="cluster"><title>cluster_Display</title>
<polygon fill="lavender" stroke="black" points="1396.7,-416 1396.7,-494 1830.7,-494 1830.7,-416 1396.7,-416"/>
<text text-anchor="middle" x="1613.7" y="-477.4" font-family="Times Roman,serif" font-size="14.00">Display</text>
</g>
<g id="graph4" class="cluster"><title>cluster_DoubleHelix</title>
<polygon fill="lavender" stroke="black" points="418.705,-180 418.705,-258 904.705,-258 904.705,-180 418.705,-180"/>
<text text-anchor="middle" x="661.705" y="-241.4" font-family="Times Roman,serif" font-size="14.00">DoubleHelix</text>
</g>
<g id="graph5" class="cluster"><title>cluster_Helix</title>
<polygon fill="lavender" stroke="black" points="360.705,-8 360.705,-172 962.705,-172 962.705,-8 360.705,-8"/>
<text text-anchor="middle" x="661.705" y="-155.4" font-family="Times Roman,serif" font-size="14.00">Helix</text>
</g>
<g id="graph6" class="cluster"><title>cluster_Input</title>
<polygon fill="lavender" stroke="black" points="3158.7,-330 3158.7,-494 3280.7,-494 3280.7,-330 3158.7,-330"/>
<text text-anchor="middle" x="3219.7" y="-477.4" font-family="Times Roman,serif" font-size="14.00">Input</text>
</g>
<g id="graph7" class="cluster"><title>cluster_Main</title>
<polygon fill="lavender" stroke="black" points="1483.7,-502 1483.7,-580 1689.7,-580 1689.7,-502 1483.7,-502"/>
<text text-anchor="middle" x="1586.7" y="-563.4" font-family="Times Roman,serif" font-size="14.00">Main</text>
</g>
<g id="graph8" class="cluster"><title>cluster_Math</title>
<polygon fill="lavender" stroke="black" points="970.705,-8 970.705,-86 1402.7,-86 1402.7,-8 970.705,-8"/>
<text text-anchor="middle" x="1186.7" y="-69.4" font-family="Times Roman,serif" font-size="14.00">Math</text>
</g>
<g id="graph9" class="cluster"><title>cluster_Misc</title>
<polygon fill="lavender" stroke="black" points="1410.7,-8 1410.7,-86 1900.7,-86 1900.7,-8 1410.7,-8"/>
<text text-anchor="middle" x="1655.7" y="-69.4" font-family="Times Roman,serif" font-size="14.00">Misc</text>
</g>
<g id="graph10" class="cluster"><title>cluster_ProgramState</title>
<polygon fill="lavender" stroke="black" points="1192.7,-330 1192.7,-408 3150.7,-408 3150.7,-330 1192.7,-330"/>
<text text-anchor="middle" x="2171.7" y="-391.4" font-family="Times Roman,serif" font-size="14.00">ProgramState</text>
</g>
<!-- 1 -->
<g id="node2" class="node"><title>1</title>
<polygon fill="crimson" stroke="black" points="216.705,-138 88.705,-138 84.705,-134 84.705,-102 212.705,-102 216.705,-106 216.705,-138"/>
<polyline fill="none" stroke="black" points="212.705,-134 84.705,-134 "/>
<polyline fill="none" stroke="black" points="212.705,-134 212.705,-102 "/>
<polyline fill="none" stroke="black" points="212.705,-134 216.705,-138 "/>
<text text-anchor="middle" x="150.705" y="-116.4" font-family="Times Roman,serif" font-size="14.00">Data: DNA</text>
</g>
<!-- 2 -->
<g id="node3" class="node"><title>2</title>
<polygon fill="crimson" stroke="black" points="245.705,-302 129.705,-302 129.705,-266 245.705,-266 245.705,-302"/>
<text text-anchor="middle" x="187.705" y="-280.4" font-family="Times Roman,serif" font-size="14.00">genDNA</text>
</g>
<!-- 2&#45;&gt;1 -->
<g id="edge11" class="edge"><title>2&#45;&gt;1</title>
<path fill="none" stroke="black" stroke-width="1.69315" d="M188.035,-265.631C187.975,-244.586 186.529,-209.237 178.705,-180 175.71,-168.808 170.733,-157.128 165.799,-147.08"/>
<polygon fill="black" stroke="black" points="168.827,-145.314 161.148,-138.015 162.599,-148.51 168.827,-145.314"/>
</g>
<!-- 2&#45;&gt;2 -->
<g id="edge13" class="edge"><title>2&#45;&gt;2</title>
<path fill="none" stroke="black" d="M246.017,-296.708C256.431,-295.056 263.705,-290.82 263.705,-284 263.705,-279.631 260.72,-276.322 255.836,-274.074"/>
<polygon fill="black" stroke="black" points="256.592,-270.65 246.017,-271.292 254.684,-277.385 256.592,-270.65"/>
</g>
<!-- 3 -->
<g id="node4" class="node"><title>3</title>
<polygon fill="crimson" stroke="black" points="169.705,-224 49.705,-224 49.705,-188 169.705,-188 169.705,-224"/>
<text text-anchor="middle" x="109.705" y="-202.4" font-family="Times Roman,serif" font-size="14.00">newDNA</text>
</g>
<!-- 2&#45;&gt;3 -->
<g id="edge15" class="edge"><title>2&#45;&gt;3</title>
<path fill="none" stroke="black" d="M169.614,-265.909C159.351,-255.646 146.345,-242.64 135.076,-231.371"/>
<polygon fill="black" stroke="black" points="137.514,-228.859 127.968,-224.263 132.564,-233.809 137.514,-228.859"/>
</g>
<!-- 10 -->
<g id="node13" class="node"><title>10</title>
<polygon fill="crimson" stroke="black" points="556.705,-224 426.705,-224 426.705,-188 556.705,-188 556.705,-224"/>
<text text-anchor="middle" x="491.705" y="-202.4" font-family="Times Roman,serif" font-size="14.00">genDHelix</text>
</g>
<!-- 2&#45;&gt;10 -->
<g id="edge17" class="edge"><title>2&#45;&gt;10</title>
<path fill="none" stroke="black" d="M245.832,-278.187C278.726,-274.121 320.417,-267.66 356.705,-258 385.759,-250.266 417.16,-238.395 442.36,-227.947"/>
<polygon fill="black" stroke="black" points="443.833,-231.124 451.697,-224.024 441.121,-224.671 443.833,-231.124"/>
</g>
<!-- 15 -->
<g id="node19" class="node"><title>15</title>
<polygon fill="crimson" stroke="black" points="662.705,-138 540.705,-138 540.705,-102 662.705,-102 662.705,-138"/>
<text text-anchor="middle" x="601.705" y="-116.4" font-family="Times Roman,serif" font-size="14.00">newHelix</text>
</g>
<!-- 2&#45;&gt;15 -->
<g id="edge19" class="edge"><title>2&#45;&gt;15</title>
<path fill="none" stroke="black" d="M217.97,-265.801C260.294,-241.384 340.343,-198.904 414.705,-180 465.22,-167.158 482.808,-190.048 531.705,-172 547.899,-166.023 563.554,-155.054 575.938,-144.726"/>
<polygon fill="black" stroke="black" points="578.322,-147.291 583.576,-138.091 573.732,-142.007 578.322,-147.291"/>
</g>
<!-- 3&#45;&gt;1 -->
<g id="edge21" class="edge"><title>3&#45;&gt;1</title>
<path fill="none" stroke="black" d="M118.4,-187.762C123.999,-176.018 131.38,-160.535 137.673,-147.335"/>
<polygon fill="black" stroke="black" points="140.878,-148.745 142.022,-138.212 134.56,-145.733 140.878,-148.745"/>
</g>
<!-- 4 -->
<g id="node5" class="node"><title>4</title>
<polygon fill="crimson" stroke="black" points="344.705,-374 210.705,-374 210.705,-338 344.705,-338 344.705,-374"/>
<text text-anchor="middle" x="277.705" y="-352.4" font-family="Times Roman,serif" font-size="14.00">renderDNA</text>
</g>
<!-- 11 -->
<g id="node14" class="node"><title>11</title>
<polygon fill="crimson" stroke="black" points="724.705,-224 574.705,-224 574.705,-188 724.705,-188 724.705,-224"/>
<text text-anchor="middle" x="649.705" y="-202.4" font-family="Times Roman,serif" font-size="14.00">renderDHelix</text>
</g>
<!-- 4&#45;&gt;11 -->
<g id="edge23" class="edge"><title>4&#45;&gt;11</title>
<path fill="none" stroke="black" stroke-width="1.69315" d="M344.567,-337.929C404.034,-320.769 492.634,-292.503 565.705,-258 582.689,-249.98 600.513,-239.307 615.351,-229.717"/>
<polygon fill="black" stroke="black" points="617.277,-232.64 623.713,-224.224 613.434,-226.789 617.277,-232.64"/>
</g>
<!-- 22 -->
<g id="node29" class="node"><title>22</title>
<polygon fill="crimson" stroke="black" points="1082.7,-52 978.705,-52 978.705,-16 1082.7,-16 1082.7,-52"/>
<text text-anchor="middle" x="1030.7" y="-30.4" font-family="Times Roman,serif" font-size="14.00">fromTo</text>
</g>
<!-- 4&#45;&gt;22 -->
<g id="edge25" class="edge"><title>4&#45;&gt;22</title>
<path fill="none" stroke="black" d="M344.847,-352.316C487.602,-343.417 815.819,-316.983 908.705,-258 945.305,-234.759 997.292,-116.018 1019.71,-61.4691"/>
<polygon fill="black" stroke="black" points="1023.01,-62.6495 1023.55,-52.0681 1016.53,-60.007 1023.01,-62.6495"/>
</g>
<!-- 23 -->
<g id="node30" class="node"><title>23</title>
<polygon fill="crimson" stroke="black" points="1394.7,-52 1314.7,-52 1314.7,-16 1394.7,-16 1394.7,-52"/>
<text text-anchor="middle" x="1354.7" y="-30.4" font-family="Times Roman,serif" font-size="14.00">phi</text>
</g>
<!-- 4&#45;&gt;23 -->
<g id="edge27" class="edge"><title>4&#45;&gt;23</title>
<path fill="none" stroke="black" d="M344.867,-352.329C474.753,-344.79 755.837,-326.217 849.705,-302 897.116,-289.768 913.859,-290.246 950.705,-258 984.317,-228.585 980.554,-210.787 1002.7,-172 1022.23,-137.81 1011.22,-114.705 1044.7,-94 1069.38,-78.7423 1279.25,-97.9065 1305.7,-86 1317.99,-80.4721 1328.67,-70.277 1336.89,-60.3691"/>
<polygon fill="black" stroke="black" points="1339.85,-62.2708 1343.21,-52.2228 1334.32,-57.9826 1339.85,-62.2708"/>
</g>
<!-- 24 -->
<g id="node32" class="node"><title>24</title>
<polygon fill="crimson" stroke="black" points="1746.7,-52 1646.7,-52 1646.7,-16 1746.7,-16 1746.7,-52"/>
<text text-anchor="middle" x="1696.7" y="-30.4" font-family="Times Roman,serif" font-size="14.00">colour</text>
</g>
<!-- 4&#45;&gt;24 -->
<g id="edge29" class="edge"><title>4&#45;&gt;24</title>
<path fill="none" stroke="black" stroke-width="1.69315" d="M344.961,-355.022C493.964,-352.157 847.544,-341.303 959.705,-302 1080.45,-259.691 1043.57,-149.789 1158.7,-94 1182.66,-82.3943 1612.89,-95.6134 1637.7,-86 1652.05,-80.4441 1665.19,-69.708 1675.42,-59.4268"/>
<polygon fill="black" stroke="black" points="1678.01,-61.7795 1682.32,-52.1016 1672.91,-56.9785 1678.01,-61.7795"/>
</g>
<!-- 26 -->
<g id="node34" class="node"><title>26</title>
<polygon fill="crimson" stroke="black" points="1628.7,-52 1534.7,-52 1534.7,-16 1628.7,-16 1628.7,-52"/>
<text text-anchor="middle" x="1581.7" y="-30.4" font-family="Times Roman,serif" font-size="14.00">vec3f</text>
</g>
<!-- 4&#45;&gt;26 -->
<g id="edge31" class="edge"><title>4&#45;&gt;26</title>
<path fill="none" stroke="black" stroke-width="2.38629" d="M344.805,-353.829C485.208,-348.709 805.579,-333.834 909.705,-302 948.139,-290.25 960.113,-286.243 988.705,-258 990.573,-256.155 1080.45,-95.3367 1082.7,-94 1103.89,-81.4672 1502.88,-95.2038 1525.7,-86 1539.43,-80.4657 1551.83,-69.8794 1561.45,-59.6955"/>
<polygon fill="black" stroke="black" points="1564.2,-61.8704 1568.24,-52.0765 1558.98,-57.2127 1564.2,-61.8704"/>
</g>
<!-- 5 -->
<g id="node6" class="node"><title>5</title>
<polygon fill="crimson" stroke="black" points="192.705,-374 46.705,-374 46.705,-338 192.705,-338 192.705,-374"/>
<text text-anchor="middle" x="119.705" y="-352.4" font-family="Times Roman,serif" font-size="14.00">updateModel</text>
</g>
<!-- 5&#45;&gt;2 -->
<g id="edge33" class="edge"><title>5&#45;&gt;2</title>
<path fill="none" stroke="black" d="M136.864,-337.831C144.856,-329.369 154.509,-319.149 163.247,-309.897"/>
<polygon fill="black" stroke="black" points="165.993,-312.087 170.315,-302.413 160.904,-307.28 165.993,-312.087"/>
</g>
<!-- 5&#45;&gt;3 -->
<g id="edge35" class="edge"><title>5&#45;&gt;3</title>
<path fill="none" stroke="black" d="M118.499,-337.906C116.779,-312.117 113.608,-264.548 111.581,-234.136"/>
<polygon fill="black" stroke="black" points="115.073,-233.903 110.915,-224.158 108.089,-234.368 115.073,-233.903"/>
</g>
<!-- 6 -->
<g id="node8" class="node"><title>6</title>
<polygon fill="crimson" stroke="black" points="1698.7,-460 1584.7,-460 1584.7,-424 1698.7,-424 1698.7,-460"/>
<text text-anchor="middle" x="1641.7" y="-438.4" font-family="Times Roman,serif" font-size="14.00">animate</text>
</g>
<!-- 6&#45;&gt;5 -->
<g id="edge37" class="edge"><title>6&#45;&gt;5</title>
<path fill="none" stroke="black" d="M1602.63,-423.879C1593.94,-420.627 1584.65,-417.726 1575.7,-416 1538.23,-408.771 238.327,-418.749 201.705,-408 182.64,-402.404 163.748,-390.938 148.911,-380.193"/>
<polygon fill="black" stroke="black" points="150.77,-377.212 140.673,-374 146.563,-382.807 150.77,-377.212"/>
</g>
<!-- 28 -->
<g id="node37" class="node"><title>28</title>
<polygon fill="crimson" stroke="black" points="1556.7,-374 1396.7,-374 1396.7,-338 1556.7,-338 1556.7,-374"/>
<text text-anchor="middle" x="1476.7" y="-352.4" font-family="Times Roman,serif" font-size="14.00">extractDNARef</text>
</g>
<!-- 6&#45;&gt;28 -->
<g id="edge39" class="edge"><title>6&#45;&gt;28</title>
<path fill="none" stroke="black" d="M1599.11,-423.918C1588.12,-418.986 1576.38,-413.484 1565.7,-408 1548.67,-399.248 1530.33,-388.727 1514.75,-379.446"/>
<polygon fill="black" stroke="black" points="1516.3,-376.295 1505.93,-374.147 1512.7,-382.296 1516.3,-376.295"/>
</g>
<!-- 29 -->
<g id="node38" class="node"><title>29</title>
<polygon fill="crimson" stroke="black" points="1740.7,-374 1574.7,-374 1574.7,-338 1740.7,-338 1740.7,-374"/>
<text text-anchor="middle" x="1657.7" y="-352.4" font-family="Times Roman,serif" font-size="14.00">extractLevelRef</text>
</g>
<!-- 6&#45;&gt;29 -->
<g id="edge41" class="edge"><title>6&#45;&gt;29</title>
<path fill="none" stroke="black" d="M1645.1,-423.762C1647.24,-412.246 1650.05,-397.135 1652.48,-384.106"/>
<polygon fill="black" stroke="black" points="1655.93,-384.684 1654.32,-374.212 1649.05,-383.403 1655.93,-384.684"/>
</g>
<!-- 36 -->
<g id="node45" class="node"><title>36</title>
<polygon fill="crimson" stroke="black" points="1378.7,-374 1200.7,-374 1200.7,-338 1378.7,-338 1378.7,-374"/>
<text text-anchor="middle" x="1289.7" y="-352.4" font-family="Times Roman,serif" font-size="14.00">extractUpdateRef</text>
</g>
<!-- 6&#45;&gt;36 -->
<g id="edge43" class="edge"><title>6&#45;&gt;36</title>
<path fill="none" stroke="black" stroke-width="1.69315" d="M1602.23,-423.995C1593.65,-420.78 1584.5,-417.864 1575.7,-416 1534.8,-407.328 1428.06,-418.959 1387.7,-408 1365.55,-401.982 1342.77,-390.292 1324.76,-379.517"/>
<polygon fill="black" stroke="black" points="1326.16,-376.266 1315.81,-374.001 1322.48,-382.226 1326.16,-376.266"/>
</g>
<!-- 7 -->
<g id="node9" class="node"><title>7</title>
<polygon fill="crimson" stroke="black" points="1822.7,-460 1716.7,-460 1716.7,-424 1822.7,-424 1822.7,-460"/>
<text text-anchor="middle" x="1769.7" y="-438.4" font-family="Times Roman,serif" font-size="14.00">display</text>
</g>
<!-- 7&#45;&gt;4 -->
<g id="edge45" class="edge"><title>7&#45;&gt;4</title>
<path fill="none" stroke="black" d="M1733.07,-423.932C1724.91,-420.677 1716.16,-417.761 1707.7,-416 1675.78,-409.35 1153.3,-409.227 1120.7,-408 838.451,-397.377 503.671,-373.299 355.218,-362.029"/>
<polygon fill="black" stroke="black" points="355.091,-358.51 344.855,-361.24 354.56,-365.489 355.091,-358.51"/>
</g>
<!-- 25 -->
<g id="node33" class="node"><title>25</title>
<polygon fill="crimson" stroke="black" points="1892.7,-52 1764.7,-52 1764.7,-16 1892.7,-16 1892.7,-52"/>
<text text-anchor="middle" x="1828.7" y="-30.4" font-family="Times Roman,serif" font-size="14.00">evenScale</text>
</g>
<!-- 7&#45;&gt;25 -->
<g id="edge47" class="edge"><title>7&#45;&gt;25</title>
<path fill="none" stroke="black" d="M1733.07,-423.944C1724.91,-420.688 1716.16,-417.769 1707.7,-416 1693.59,-413.047 1199.46,-417.604 1188.7,-408 1147.26,-370.987 1172.7,-339.568 1172.7,-284 1172.7,-284 1172.7,-284 1172.7,-206 1172.7,-73.7285 1634.45,-138.843 1755.7,-86 1771.5,-79.1159 1787.29,-68.4569 1800.13,-58.5772"/>
<polygon fill="black" stroke="black" points="1802.45,-61.2037 1808.1,-52.2448 1798.09,-55.7211 1802.45,-61.2037"/>
</g>
<!-- 7&#45;&gt;26 -->
<g id="edge49" class="edge"><title>7&#45;&gt;26</title>
<path fill="none" stroke="black" stroke-width="2.94591" d="M1733.07,-423.939C1724.91,-420.683 1716.16,-417.766 1707.7,-416 1692.86,-412.899 1172.46,-418.697 1161.7,-408 1062.54,-309.364 1072.3,-179.864 1182.7,-94 1197.75,-82.2987 1508.05,-93.1734 1525.7,-86 1539.42,-80.4296 1551.81,-69.8387 1561.44,-59.661"/>
<polygon fill="black" stroke="black" points="1564.18,-61.84 1568.23,-52.0486 1558.96,-57.179 1564.18,-61.84"/>
</g>
<!-- 7&#45;&gt;28 -->
<g id="edge51" class="edge"><title>7&#45;&gt;28</title>
<path fill="none" stroke="black" d="M1732.35,-423.94C1724.38,-420.772 1715.89,-417.889 1707.7,-416 1646.11,-401.794 1626.23,-426.228 1565.7,-408 1545.61,-401.948 1525.25,-390.527 1509.08,-379.927"/>
<polygon fill="black" stroke="black" points="1510.8,-376.866 1500.56,-374.162 1506.88,-382.664 1510.8,-376.866"/>
</g>
<!-- 30 -->
<g id="node39" class="node"><title>30</title>
<polygon fill="crimson" stroke="black" points="2294.7,-374 2128.7,-374 2128.7,-338 2294.7,-338 2294.7,-374"/>
<text text-anchor="middle" x="2211.7" y="-352.4" font-family="Times Roman,serif" font-size="14.00">extractModeRef</text>
</g>
<!-- 7&#45;&gt;30 -->
<g id="edge53" class="edge"><title>7&#45;&gt;30</title>
<path fill="none" stroke="black" d="M1822.77,-439.544C1906.62,-435.209 2065.78,-425.016 2119.7,-408 2140.08,-401.572 2160.95,-390.234 2177.65,-379.782"/>
<polygon fill="black" stroke="black" points="2179.96,-382.459 2186.47,-374.103 2176.17,-376.573 2179.96,-382.459"/>
</g>
<!-- 31 -->
<g id="node40" class="node"><title>31</title>
<polygon fill="crimson" stroke="black" points="2110.7,-374 1960.7,-374 1960.7,-338 2110.7,-338 2110.7,-374"/>
<text text-anchor="middle" x="2035.7" y="-352.4" font-family="Times Roman,serif" font-size="14.00">extractRXRef</text>
</g>
<!-- 7&#45;&gt;31 -->
<g id="edge55" class="edge"><title>7&#45;&gt;31</title>
<path fill="none" stroke="black" d="M1822.9,-437.297C1859.96,-432.773 1910.04,-424.136 1951.7,-408 1969.89,-400.958 1988.49,-389.915 2003.55,-379.814"/>
<polygon fill="black" stroke="black" points="2005.72,-382.566 2011.98,-374.013 2001.75,-376.8 2005.72,-382.566"/>
</g>
<!-- 32 -->
<g id="node41" class="node"><title>32</title>
<polygon fill="crimson" stroke="black" points="2644.7,-374 2498.7,-374 2498.7,-338 2644.7,-338 2644.7,-374"/>
<text text-anchor="middle" x="2571.7" y="-352.4" font-family="Times Roman,serif" font-size="14.00">extractRYRef</text>
</g>
<!-- 7&#45;&gt;32 -->
<g id="edge57" class="edge"><title>7&#45;&gt;32</title>
<path fill="none" stroke="black" d="M1822.79,-441.062C1978.45,-438.092 2426.76,-427.896 2489.7,-408 2508.38,-402.096 2527,-390.839 2541.76,-380.304"/>
<polygon fill="black" stroke="black" points="2544.02,-382.989 2549.98,-374.231 2539.85,-377.36 2544.02,-382.989"/>
</g>
<!-- 33 -->
<g id="node42" class="node"><title>33</title>
<polygon fill="crimson" stroke="black" points="3142.7,-374 2994.7,-374 2994.7,-338 3142.7,-338 3142.7,-374"/>
<text text-anchor="middle" x="3068.7" y="-352.4" font-family="Times Roman,serif" font-size="14.00">extractRZRef</text>
</g>
<!-- 7&#45;&gt;33 -->
<g id="edge59" class="edge"><title>7&#45;&gt;33</title>
<path fill="none" stroke="black" d="M1823.07,-441.29C2050.45,-438.165 2929.42,-425.03 2985.7,-408 3004.75,-402.237 3023.73,-390.875 3038.72,-380.239"/>
<polygon fill="black" stroke="black" points="3041.08,-382.852 3047.06,-374.108 3036.93,-377.213 3041.08,-382.852"/>
</g>
<!-- 34 -->
<g id="node43" class="node"><title>34</title>
<polygon fill="crimson" stroke="black" points="2976.7,-374 2828.7,-374 2828.7,-338 2976.7,-338 2976.7,-374"/>
<text text-anchor="middle" x="2902.7" y="-352.4" font-family="Times Roman,serif" font-size="14.00">extractTXRef</text>
</g>
<!-- 7&#45;&gt;34 -->
<g id="edge61" class="edge"><title>7&#45;&gt;34</title>
<path fill="none" stroke="black" d="M1822.96,-441.047C2029.92,-437.242 2771.7,-422.64 2819.7,-408 2838.74,-402.195 2857.72,-390.83 2872.71,-380.202"/>
<polygon fill="black" stroke="black" points="2875.06,-382.818 2881.05,-374.077 2870.92,-377.176 2875.06,-382.818"/>
</g>
<!-- 35 -->
<g id="node44" class="node"><title>35</title>
<polygon fill="crimson" stroke="black" points="2810.7,-374 2662.7,-374 2662.7,-338 2810.7,-338 2810.7,-374"/>
<text text-anchor="middle" x="2736.7" y="-352.4" font-family="Times Roman,serif" font-size="14.00">extractTYRef</text>
</g>
<!-- 7&#45;&gt;35 -->
<g id="edge63" class="edge"><title>7&#45;&gt;35</title>
<path fill="none" stroke="black" d="M1822.83,-441.55C2001.6,-439.815 2574.59,-432.393 2653.7,-408 2672.72,-402.137 2691.7,-390.767 2706.7,-380.151"/>
<polygon fill="black" stroke="black" points="2709.04,-382.77 2715.04,-374.034 2704.9,-377.125 2709.04,-382.77"/>
</g>
<!-- 37 -->
<g id="node46" class="node"><title>37</title>
<polygon fill="crimson" stroke="black" points="2480.7,-374 2312.7,-374 2312.7,-338 2480.7,-338 2480.7,-374"/>
<text text-anchor="middle" x="2396.7" y="-352.4" font-family="Times Roman,serif" font-size="14.00">extractZoomRef</text>
</g>
<!-- 7&#45;&gt;37 -->
<g id="edge65" class="edge"><title>7&#45;&gt;37</title>
<path fill="none" stroke="black" d="M1822.83,-441.597C1939.48,-440.23 2214.71,-434.238 2303.7,-408 2324.71,-401.808 2346.17,-390.225 2363.18,-379.56"/>
<polygon fill="black" stroke="black" points="2365.13,-382.463 2371.64,-374.1 2361.34,-376.581 2365.13,-382.463"/>
</g>
<!-- 8 -->
<g id="node10" class="node"><title>8</title>
<polygon fill="crimson" stroke="black" points="1566.7,-460 1404.7,-460 1404.7,-424 1566.7,-424 1566.7,-460"/>
<text text-anchor="middle" x="1485.7" y="-438.4" font-family="Times Roman,serif" font-size="14.00">handleReshape</text>
</g>
<!-- 9 -->
<g id="node12" class="node"><title>9</title>
<polygon fill="crimson" stroke="black" points="896.705,-224 742.705,-224 742.705,-188 896.705,-188 896.705,-224"/>
<text text-anchor="middle" x="819.705" y="-202.4" font-family="Times Roman,serif" font-size="14.00">extractHeight</text>
</g>
<!-- 14 -->
<g id="node18" class="node"><title>14</title>
<polygon fill="crimson" stroke="black" points="798.705,-138 680.705,-138 680.705,-102 798.705,-102 798.705,-138"/>
<text text-anchor="middle" x="739.705" y="-116.4" font-family="Times Roman,serif" font-size="14.00">genHelix</text>
</g>
<!-- 10&#45;&gt;14 -->
<g id="edge67" class="edge"><title>10&#45;&gt;14</title>
<path fill="none" stroke="chartreuse" d="M536.961,-187.998C546.337,-184.866 556.242,-181.983 565.705,-180 611.945,-170.308 627.557,-188.824 671.705,-172 687.389,-166.023 702.469,-155.199 714.426,-144.968"/>
<polygon fill="chartreuse" stroke="chartreuse" points="717.048,-147.319 722.173,-138.047 712.384,-142.099 717.048,-147.319"/>
</g>
<!-- 16 -->
<g id="node20" class="node"><title>16</title>
<polygon fill="crimson" stroke="black" points="954.705,-138 816.705,-138 816.705,-102 954.705,-102 954.705,-138"/>
<text text-anchor="middle" x="885.705" y="-116.4" font-family="Times Roman,serif" font-size="14.00">renderHelix</text>
</g>
<!-- 11&#45;&gt;16 -->
<g id="edge69" class="edge"><title>11&#45;&gt;16</title>
<path fill="none" stroke="chartreuse" stroke-width="1.69315" d="M702.626,-187.93C712.847,-184.922 723.539,-182.102 733.705,-180 766.1,-173.301 776.606,-183.276 807.705,-172 825.19,-165.66 842.608,-154.618 856.535,-144.335"/>
<polygon fill="chartreuse" stroke="chartreuse" points="858.902,-146.931 864.724,-138.08 854.653,-141.368 858.902,-146.931"/>
</g>
<!-- 12 -->
<g id="node16" class="node"><title>12</title>
<polygon fill="crimson" stroke="black" points="669.705,-52 537.705,-52 533.705,-48 533.705,-16 665.705,-16 669.705,-20 669.705,-52"/>
<polyline fill="none" stroke="black" points="665.705,-48 533.705,-48 "/>
<polyline fill="none" stroke="black" points="665.705,-48 665.705,-16 "/>
<polyline fill="none" stroke="black" points="665.705,-48 669.705,-52 "/>
<text text-anchor="middle" x="601.705" y="-30.4" font-family="Times Roman,serif" font-size="14.00">Data: Helix</text>
</g>
<!-- 13 -->
<g id="node17" class="node"><title>13</title>
<polygon fill="crimson" stroke="black" points="522.705,-138 368.705,-138 368.705,-102 522.705,-102 522.705,-138"/>
<text text-anchor="middle" x="445.705" y="-116.4" font-family="Times Roman,serif" font-size="14.00">extractHeight</text>
</g>
<!-- 13&#45;&gt;12 -->
<g id="edge71" class="edge"><title>13&#45;&gt;12</title>
<path fill="none" stroke="black" d="M478.408,-101.972C502.12,-88.8993 534.38,-71.115 559.954,-57.0165"/>
<polygon fill="black" stroke="black" points="561.978,-59.8976 569.045,-52.0047 558.598,-53.7674 561.978,-59.8976"/>
</g>
<!-- 14&#45;&gt;12 -->
<g id="edge73" class="edge"><title>14&#45;&gt;12</title>
<path fill="none" stroke="black" d="M710.776,-101.972C689.983,-89.014 661.762,-71.4267 639.235,-57.3884"/>
<polygon fill="black" stroke="black" points="640.934,-54.3232 630.596,-52.0047 637.232,-60.2641 640.934,-54.3232"/>
</g>
<!-- 14&#45;&gt;22 -->
<g id="edge75" class="edge"><title>14&#45;&gt;22</title>
<path fill="none" stroke="black" d="M780.794,-101.922C789.526,-98.7546 798.8,-95.8769 807.705,-94 842.322,-86.7034 933.674,-98.6709 966.705,-86 981.801,-80.2091 996.033,-69.4072 1007.23,-59.1427"/>
<polygon fill="black" stroke="black" points="1009.68,-61.6425 1014.46,-52.1905 1004.83,-56.5946 1009.68,-61.6425"/>
</g>
<!-- 14&#45;&gt;23 -->
<g id="edge77" class="edge"><title>14&#45;&gt;23</title>
<path fill="none" stroke="black" d="M780.019,-101.949C788.965,-98.6923 798.521,-95.7722 807.705,-94 834.874,-88.7571 1280.39,-97.171 1305.7,-86 1318.12,-80.5226 1328.87,-70.2336 1337.11,-60.2442"/>
<polygon fill="black" stroke="black" points="1340.1,-62.0958 1343.43,-52.0359 1334.55,-57.8271 1340.1,-62.0958"/>
</g>
<!-- 15&#45;&gt;12 -->
<g id="edge79" class="edge"><title>15&#45;&gt;12</title>
<path fill="none" stroke="black" d="M601.705,-101.762C601.705,-90.3597 601.705,-75.4342 601.705,-62.494"/>
<polygon fill="black" stroke="black" points="605.205,-62.2121 601.705,-52.2121 598.205,-62.2121 605.205,-62.2121"/>
</g>
<!-- 21 -->
<g id="node28" class="node"><title>21</title>
<polygon fill="crimson" stroke="black" points="1296.7,-52 1118.7,-52 1118.7,-16 1296.7,-16 1296.7,-52"/>
<text text-anchor="middle" x="1207.7" y="-30.4" font-family="Times Roman,serif" font-size="14.00">distanceBetween</text>
</g>
<!-- 16&#45;&gt;21 -->
<g id="edge81" class="edge"><title>16&#45;&gt;21</title>
<path fill="none" stroke="black" stroke-width="1.69315" d="M954.84,-103.475C971.727,-99.9012 989.801,-96.4612 1006.7,-94 1052.14,-87.3843 1065.61,-98.8071 1109.7,-86 1131.44,-79.6867 1153.87,-68.212 1171.78,-57.6449"/>
<polygon fill="black" stroke="black" points="1173.97,-60.4113 1180.7,-52.2339 1170.34,-54.4255 1173.97,-60.4113"/>
</g>
<!-- 16&#45;&gt;26 -->
<g id="edge83" class="edge"><title>16&#45;&gt;26</title>
<path fill="none" stroke="black" stroke-width="2.09861" d="M955.083,-106.407C982.838,-101.558 1015.17,-96.6459 1044.7,-94 1071.32,-91.615 1500.91,-95.9753 1525.7,-86 1539.44,-80.4755 1551.84,-69.8905 1561.45,-59.7049"/>
<polygon fill="black" stroke="black" points="1564.21,-61.8787 1568.25,-52.0841 1558.98,-57.2218 1564.21,-61.8787"/>
</g>
<!-- 27 -->
<g id="node35" class="node"><title>27</title>
<polygon fill="crimson" stroke="black" points="1516.7,-52 1418.7,-52 1418.7,-16 1516.7,-16 1516.7,-52"/>
<text text-anchor="middle" x="1467.7" y="-30.4" font-family="Times Roman,serif" font-size="14.00">ver3d</text>
</g>
<!-- 16&#45;&gt;27 -->
<g id="edge85" class="edge"><title>16&#45;&gt;27</title>
<path fill="none" stroke="black" d="M955.091,-106.49C982.847,-101.653 1015.18,-96.7266 1044.7,-94 1064.74,-92.1501 1387.91,-93.1618 1406.7,-86 1421.35,-80.4186 1434.92,-69.6794 1445.53,-59.4028"/>
<polygon fill="black" stroke="black" points="1448.2,-61.6756 1452.7,-52.082 1443.2,-56.778 1448.2,-61.6756"/>
</g>
<!-- 17 -->
<g id="node22" class="node"><title>17</title>
<polygon fill="crimson" stroke="black" points="3260.7,-460 3166.7,-460 3166.7,-424 3260.7,-424 3260.7,-460"/>
<text text-anchor="middle" x="3213.7" y="-438.4" font-family="Times Roman,serif" font-size="14.00">input</text>
</g>
<!-- 18 -->
<g id="node23" class="node"><title>18</title>
<polygon fill="crimson" stroke="black" points="3272.7,-374 3166.7,-374 3166.7,-338 3272.7,-338 3272.7,-374"/>
<text text-anchor="middle" x="3219.7" y="-352.4" font-family="Times Roman,serif" font-size="14.00">update</text>
</g>
<!-- 17&#45;&gt;18 -->
<g id="edge87" class="edge"><title>17&#45;&gt;18</title>
<path fill="none" stroke="black" stroke-width="3.83321" d="M3214.98,-423.762C3215.77,-412.36 3216.81,-397.434 3217.72,-384.494"/>
<polygon fill="black" stroke="black" points="3221.23,-384.431 3218.43,-374.212 3214.25,-383.944 3221.23,-384.431"/>
</g>
<!-- 17&#45;&gt;29 -->
<g id="edge89" class="edge"><title>17&#45;&gt;29</title>
<path fill="none" stroke="black" stroke-width="1.69315" d="M3166.3,-441.548C2922.61,-439.14 1819.44,-427.214 1749.7,-408 1728.62,-402.19 1707.22,-390.514 1690.37,-379.696"/>
<polygon fill="black" stroke="black" points="1692.27,-376.756 1682,-374.152 1688.41,-382.592 1692.27,-376.756"/>
</g>
<!-- 17&#45;&gt;30 -->
<g id="edge91" class="edge"><title>17&#45;&gt;30</title>
<path fill="none" stroke="black" stroke-width="2.09861" d="M3166.5,-441.543C2991.67,-439.67 2386.85,-431.539 2303.7,-408 2282.66,-402.042 2261.26,-390.355 2244.41,-379.568"/>
<polygon fill="black" stroke="black" points="2246.31,-376.629 2236.03,-374.044 2242.45,-382.472 2246.31,-376.629"/>
</g>
<!-- 17&#45;&gt;31 -->
<g id="edge93" class="edge"><title>17&#45;&gt;31</title>
<path fill="none" stroke="black" stroke-width="1.69315" d="M3166.38,-441.213C2962.91,-437.739 2170.42,-423.283 2119.7,-408 2100.49,-402.209 2081.28,-390.845 2066.1,-380.214"/>
<polygon fill="black" stroke="black" points="2067.8,-377.126 2057.65,-374.087 2063.69,-382.792 2067.8,-377.126"/>
</g>
<!-- 17&#45;&gt;32 -->
<g id="edge95" class="edge"><title>17&#45;&gt;32</title>
<path fill="none" stroke="black" stroke-width="1.69315" d="M3166.65,-440.491C3040.65,-436.261 2701.84,-423.572 2653.7,-408 2635.07,-401.971 2616.46,-390.702 2601.69,-380.192"/>
<polygon fill="black" stroke="black" points="2603.59,-377.248 2593.46,-374.137 2599.44,-382.885 2603.59,-377.248"/>
</g>
<!-- 17&#45;&gt;33 -->
<g id="edge97" class="edge"><title>17&#45;&gt;33</title>
<path fill="none" stroke="black" stroke-width="1.69315" d="M3182.1,-423.948C3173.21,-418.831 3163.56,-413.229 3154.7,-408 3139.15,-398.818 3122.12,-388.559 3107.34,-379.596"/>
<polygon fill="black" stroke="black" points="3108.83,-376.405 3098.46,-374.204 3105.19,-382.387 3108.83,-376.405"/>
</g>
<!-- 17&#45;&gt;34 -->
<g id="edge99" class="edge"><title>17&#45;&gt;34</title>
<path fill="none" stroke="black" stroke-width="1.69315" d="M3166.6,-437.273C3109.82,-431.175 3017.99,-419.926 2985.7,-408 2967.44,-401.252 2948.9,-390.135 2934,-379.908"/>
<polygon fill="black" stroke="black" points="2935.86,-376.937 2925.67,-374.03 2931.82,-382.656 2935.86,-376.937"/>
</g>
<!-- 17&#45;&gt;35 -->
<g id="edge101" class="edge"><title>17&#45;&gt;35</title>
<path fill="none" stroke="black" stroke-width="1.69315" d="M3166.68,-440.702C3076.56,-437.761 2882.86,-429.131 2819.7,-408 2801.1,-401.776 2782.41,-390.602 2767.49,-380.203"/>
<polygon fill="black" stroke="black" points="2769.33,-377.215 2759.17,-374.214 2765.24,-382.896 2769.33,-377.215"/>
</g>
<!-- 17&#45;&gt;37 -->
<g id="edge103" class="edge"><title>17&#45;&gt;37</title>
<path fill="none" stroke="black" stroke-width="1.69315" d="M3166.6,-441.043C3016.33,-437.816 2554.4,-426.489 2489.7,-408 2468.65,-401.983 2447.19,-390.413 2430.19,-379.712"/>
<polygon fill="black" stroke="black" points="2432.03,-376.733 2421.73,-374.229 2428.22,-382.607 2432.03,-376.733"/>
</g>
<!-- 18&#45;&gt;36 -->
<g id="edge105" class="edge"><title>18&#45;&gt;36</title>
<path fill="none" stroke="black" d="M3204.31,-374.272C3190.69,-388.619 3169.35,-406.983 3145.7,-412 3121.94,-417.043 1420.47,-417.043 1396.7,-412 1370.26,-406.389 1343.32,-392.227 1323.08,-379.549"/>
<polygon fill="black" stroke="black" points="1324.86,-376.533 1314.56,-374.051 1321.07,-382.415 1324.86,-376.533"/>
</g>
<!-- 19 -->
<g id="node25" class="node"><title>19</title>
<polygon fill="crimson" stroke="black" points="1681.7,-546 1601.7,-546 1601.7,-510 1681.7,-510 1681.7,-546"/>
<text text-anchor="middle" x="1641.7" y="-524.4" font-family="Times Roman,serif" font-size="14.00">init</text>
</g>
<!-- 19&#45;&gt;2 -->
<g id="edge107" class="edge"><title>19&#45;&gt;2</title>
<path fill="none" stroke="black" d="M1612.79,-509.948C1606.39,-506.736 1599.49,-503.834 1592.7,-502 1549.76,-490.397 1437.13,-496.298 1392.7,-494 1242.05,-486.207 140.944,-518 37.705,-408 13.981,-382.723 17.0964,-357.876 37.705,-330 47.9479,-316.145 84.7,-304.75 119.259,-296.767"/>
<polygon fill="black" stroke="black" points="120.404,-300.098 129.401,-294.504 118.879,-293.266 120.404,-300.098"/>
</g>
<!-- 19&#45;&gt;3 -->
<g id="edge109" class="edge"><title>19&#45;&gt;3</title>
<path fill="none" stroke="black" d="M1613.1,-509.898C1606.63,-506.645 1599.62,-503.739 1592.7,-502 1571.87,-496.757 63.0589,-506.669 45.705,-494 -14.0171,-450.4 -5.49625,-400.209 17.705,-330 30.4757,-291.354 60.4612,-254.93 82.7485,-231.687"/>
<polygon fill="black" stroke="black" points="85.4674,-233.914 89.9757,-224.326 80.4723,-229.01 85.4674,-233.914"/>
</g>
<!-- 19&#45;&gt;6 -->
<g id="edge111" class="edge"><title>19&#45;&gt;6</title>
<path fill="none" stroke="black" d="M1641.7,-509.762C1641.7,-498.36 1641.7,-483.434 1641.7,-470.494"/>
<polygon fill="black" stroke="black" points="1645.21,-470.212 1641.7,-460.212 1638.21,-470.212 1645.21,-470.212"/>
</g>
<!-- 19&#45;&gt;7 -->
<g id="edge113" class="edge"><title>19&#45;&gt;7</title>
<path fill="none" stroke="black" d="M1680.22,-509.982C1689.45,-505.171 1699.12,-499.709 1707.7,-494 1719.82,-485.942 1732.29,-475.89 1742.83,-466.778"/>
<polygon fill="black" stroke="black" points="1745.29,-469.276 1750.48,-460.042 1740.67,-464.022 1745.29,-469.276"/>
</g>
<!-- 19&#45;&gt;8 -->
<g id="edge115" class="edge"><title>19&#45;&gt;8</title>
<path fill="none" stroke="black" d="M1608.08,-509.884C1602.95,-507.2 1597.7,-504.499 1592.7,-502 1585.24,-498.264 1583.1,-497.87 1575.7,-494 1558.73,-485.121 1540.35,-474.664 1524.66,-465.464"/>
<polygon fill="black" stroke="black" points="1526.15,-462.28 1515.76,-460.214 1522.6,-468.31 1526.15,-462.28"/>
</g>
<!-- 19&#45;&gt;17 -->
<g id="edge117" class="edge"><title>19&#45;&gt;17</title>
<path fill="none" stroke="black" d="M1681.75,-525.809C1895.72,-514.103 2903.99,-458.944 3156.34,-445.138"/>
<polygon fill="black" stroke="black" points="3156.6,-448.63 3166.39,-444.588 3156.21,-441.64 3156.6,-448.63"/>
</g>
<!-- 38 -->
<g id="node47" class="node"><title>38</title>
<polygon fill="crimson" stroke="black" points="1942.7,-374 1758.7,-374 1758.7,-338 1942.7,-338 1942.7,-374"/>
<text text-anchor="middle" x="1850.7" y="-352.4" font-family="Times Roman,serif" font-size="14.00">newProgramState</text>
</g>
<!-- 19&#45;&gt;38 -->
<g id="edge119" class="edge"><title>19&#45;&gt;38</title>
<path fill="none" stroke="black" d="M1681.74,-526.424C1732.07,-523.551 1814.34,-515.6 1834.7,-494 1862.08,-464.957 1860.75,-415.795 1856.39,-384.662"/>
<polygon fill="black" stroke="black" points="1859.79,-383.788 1854.76,-374.465 1852.88,-384.891 1859.79,-383.788"/>
</g>
<!-- 20 -->
<g id="node26" class="node"><title>20</title>
<polygon fill="gold" stroke="black" points="1583.7,-546 1491.7,-546 1491.7,-510 1583.7,-510 1583.7,-546"/>
<text text-anchor="middle" x="1537.7" y="-524.4" font-family="Times Roman,serif" font-size="14.00">main</text>
</g>
<!-- 22&#45;&gt;22 -->
<g id="edge121" class="edge"><title>22&#45;&gt;22</title>
<path fill="none" stroke="black" d="M1082.91,-49.4597C1093.3,-47.7196 1100.7,-42.5664 1100.7,-34 1100.7,-28.5121 1097.66,-24.4251 1092.75,-21.7387"/>
<polygon fill="black" stroke="black" points="1093.5,-18.3029 1082.91,-18.5403 1091.34,-24.9601 1093.5,-18.3029"/>
</g>
</g>
</svg>
