<?xml version="1.0" encoding="UTF-8" standalone="no"?>
<!DOCTYPE svg PUBLIC "-//W3C//DTD SVG 1.1//EN"
 "http://www.w3.org/Graphics/SVG/1.1/DTD/svg11.dtd">
<!-- Generated by graphviz version 2.26.3 (20100126.1600)
 -->
<!-- Title: Entire Codebase Pages: 1 -->
<svg width="2683pt" height="610pt"
 viewBox="0.00 0.00 2683.00 610.00" xmlns="http://www.w3.org/2000/svg" xmlns:xlink="http://www.w3.org/1999/xlink">
<g id="graph1" class="graph" transform="scale(1 1) rotate(0) translate(4 606)">
<title>Entire Codebase</title>
<polygon fill="white" stroke="white" points="-4,5 -4,-606 2680,-606 2680,5 -4,5"/>
<g id="graph2" class="cluster"><title>cluster_Data_DNA</title>
<polygon fill="papayawhip" stroke="papayawhip" points="452,-108 534,-108 546,-120 546,-188 534,-200 452,-200 440,-188 440,-120 452,-108"/>
<path fill="papayawhip" stroke="papayawhip" d="M534,-108C540,-108 546,-114 546,-120"/>
<path fill="papayawhip" stroke="papayawhip" d="M546,-188C546,-194 540,-200 534,-200"/>
<path fill="papayawhip" stroke="papayawhip" d="M452,-200C446,-200 440,-194 440,-188"/>
<path fill="papayawhip" stroke="papayawhip" d="M440,-120C440,-114 446,-108 452,-108"/>
<polyline fill="none" stroke="black" points="452,-108 534,-108 "/>
<path fill="none" stroke="black" d="M534,-108C540,-108 546,-114 546,-120"/>
<polyline fill="none" stroke="black" points="546,-120 546,-188 "/>
<path fill="none" stroke="black" d="M546,-188C546,-194 540,-200 534,-200"/>
<polyline fill="none" stroke="black" points="534,-200 452,-200 "/>
<path fill="none" stroke="black" d="M452,-200C446,-200 440,-194 440,-188"/>
<polyline fill="none" stroke="black" points="440,-188 440,-120 "/>
<path fill="none" stroke="black" d="M440,-120C440,-114 446,-108 452,-108"/>
<text text-anchor="middle" x="493" y="-183.4" font-family="Times Roman,serif" font-size="14.00">Data: DNA</text>
</g>
<g id="graph3" class="cluster"><title>cluster_Data_Helix</title>
<polygon fill="papayawhip" stroke="papayawhip" points="175,-8 259,-8 271,-20 271,-88 259,-100 175,-100 163,-88 163,-20 175,-8"/>
<path fill="papayawhip" stroke="papayawhip" d="M259,-8C265,-8 271,-14 271,-20"/>
<path fill="papayawhip" stroke="papayawhip" d="M271,-88C271,-94 265,-100 259,-100"/>
<path fill="papayawhip" stroke="papayawhip" d="M175,-100C169,-100 163,-94 163,-88"/>
<path fill="papayawhip" stroke="papayawhip" d="M163,-20C163,-14 169,-8 175,-8"/>
<polyline fill="none" stroke="black" points="175,-8 259,-8 "/>
<path fill="none" stroke="black" d="M259,-8C265,-8 271,-14 271,-20"/>
<polyline fill="none" stroke="black" points="271,-20 271,-88 "/>
<path fill="none" stroke="black" d="M271,-88C271,-94 265,-100 259,-100"/>
<polyline fill="none" stroke="black" points="259,-100 175,-100 "/>
<path fill="none" stroke="black" d="M175,-100C169,-100 163,-94 163,-88"/>
<polyline fill="none" stroke="black" points="163,-88 163,-20 "/>
<path fill="none" stroke="black" d="M163,-20C163,-14 169,-8 175,-8"/>
<text text-anchor="middle" x="217" y="-83.4" font-family="Times Roman,serif" font-size="14.00">Data: Helix</text>
</g>
<!-- 1 -->
<g id="node2" class="node"><title>1</title>
<polygon fill="crimson" stroke="black" points="538,-166 452,-166 448,-162 448,-116 534,-116 538,-120 538,-166"/>
<polyline fill="none" stroke="black" points="534,-162 448,-162 "/>
<polyline fill="none" stroke="black" points="534,-162 534,-116 "/>
<polyline fill="none" stroke="black" points="534,-162 538,-166 "/>
<text text-anchor="middle" x="493" y="-146.4" font-family="Times Roman,serif" font-size="14.00">DNA</text>
<text text-anchor="middle" x="493" y="-128.4" font-family="Times Roman,serif" font-size="14.00">DNA</text>
</g>
<!-- 12 -->
<g id="node4" class="node"><title>12</title>
<polygon fill="crimson" stroke="black" points="263,-66 175,-66 171,-62 171,-16 259,-16 263,-20 263,-66"/>
<polyline fill="none" stroke="black" points="259,-62 171,-62 "/>
<polyline fill="none" stroke="black" points="259,-62 259,-16 "/>
<polyline fill="none" stroke="black" points="259,-62 263,-66 "/>
<text text-anchor="middle" x="217" y="-46.4" font-family="Times Roman,serif" font-size="14.00">Helix</text>
<text text-anchor="middle" x="217" y="-28.4" font-family="Times Roman,serif" font-size="14.00">Helix</text>
</g>
<!-- 2 -->
<g id="node5" class="node"><title>2</title>
<polygon fill="crimson" stroke="black" points="327,-344 211,-344 211,-294 327,-294 327,-344"/>
<text text-anchor="middle" x="269" y="-324.4" font-family="Times Roman,serif" font-size="14.00">DNA</text>
<text text-anchor="middle" x="269" y="-306.4" font-family="Times Roman,serif" font-size="14.00">genDNA</text>
</g>
<!-- 2&#45;&gt;1 -->
<g id="edge4" class="edge"><title>2&#45;&gt;1</title>
<path fill="none" stroke="black" stroke-width="1.69315" d="M306.141,-293.913C320.256,-283.572 336.043,-270.978 349,-258 368.721,-238.248 362.92,-222.115 387,-208 409.07,-195.064 421.656,-212.457 444,-200 455.085,-193.82 464.708,-184.064 472.421,-174.25"/>
<polygon fill="black" stroke="black" points="475.332,-176.199 478.441,-166.071 469.694,-172.05 475.332,-176.199"/>
</g>
<!-- 2&#45;&gt;2 -->
<g id="edge6" class="edge"><title>2&#45;&gt;2</title>
<path fill="none" stroke="black" d="M327.312,-334.179C337.726,-332.206 345,-327.146 345,-319 345,-313.781 342.015,-309.829 337.131,-307.144"/>
<polygon fill="black" stroke="black" points="337.906,-303.711 327.312,-303.821 335.662,-310.342 337.906,-303.711"/>
</g>
<!-- 3 -->
<g id="node6" class="node"><title>3</title>
<polygon fill="crimson" stroke="black" points="516,-258 396,-258 396,-208 516,-208 516,-258"/>
<text text-anchor="middle" x="456" y="-238.4" font-family="Times Roman,serif" font-size="14.00">DNA</text>
<text text-anchor="middle" x="456" y="-220.4" font-family="Times Roman,serif" font-size="14.00">newDNA</text>
</g>
<!-- 2&#45;&gt;3 -->
<g id="edge8" class="edge"><title>2&#45;&gt;3</title>
<path fill="none" stroke="black" d="M323.591,-293.894C345.003,-284.047 369.73,-272.675 391.976,-262.444"/>
<polygon fill="black" stroke="black" points="393.718,-265.495 401.341,-258.137 390.794,-259.136 393.718,-265.495"/>
</g>
<!-- 10 -->
<g id="node13" class="node"><title>10</title>
<polygon fill="crimson" stroke="black" points="340,-258 198,-258 198,-208 340,-208 340,-258"/>
<text text-anchor="middle" x="269" y="-238.4" font-family="Times Roman,serif" font-size="14.00">DoubleHelix</text>
<text text-anchor="middle" x="269" y="-220.4" font-family="Times Roman,serif" font-size="14.00">genDHelix</text>
</g>
<!-- 2&#45;&gt;10 -->
<g id="edge10" class="edge"><title>2&#45;&gt;10</title>
<path fill="none" stroke="black" d="M269,-293.662C269,-285.702 269,-276.763 269,-268.245"/>
<polygon fill="black" stroke="black" points="272.5,-268.157 269,-258.157 265.5,-268.157 272.5,-268.157"/>
</g>
<!-- 15 -->
<g id="node17" class="node"><title>15</title>
<polygon fill="crimson" stroke="black" points="122,-166 4.9738e-14,-166 0,-116 122,-116 122,-166"/>
<text text-anchor="middle" x="61" y="-146.4" font-family="Times Roman,serif" font-size="14.00">Helix</text>
<text text-anchor="middle" x="61" y="-128.4" font-family="Times Roman,serif" font-size="14.00">newHelix</text>
</g>
<!-- 2&#45;&gt;15 -->
<g id="edge12" class="edge"><title>2&#45;&gt;15</title>
<path fill="none" stroke="black" d="M234.611,-293.833C220.282,-283.076 203.61,-270.206 189,-258 156.127,-230.536 120.255,-197.459 94.8731,-173.492"/>
<polygon fill="black" stroke="black" points="97.0143,-170.699 87.3476,-166.363 92.2002,-175.781 97.0143,-170.699"/>
</g>
<!-- 3&#45;&gt;1 -->
<g id="edge14" class="edge"><title>3&#45;&gt;1</title>
<path fill="none" stroke="black" d="M466.11,-207.861C470.108,-197.922 474.768,-186.335 479.075,-175.625"/>
<polygon fill="black" stroke="black" points="482.418,-176.693 482.902,-166.109 475.923,-174.081 482.418,-176.693"/>
</g>
<!-- 4 -->
<g id="node7" class="node"><title>4</title>
<polygon fill="crimson" stroke="black" points="953,-430 819,-430 819,-380 953,-380 953,-430"/>
<text text-anchor="middle" x="886" y="-410.4" font-family="Times Roman,serif" font-size="14.00">DNA</text>
<text text-anchor="middle" x="886" y="-392.4" font-family="Times Roman,serif" font-size="14.00">renderDNA</text>
</g>
<!-- 11 -->
<g id="node14" class="node"><title>11</title>
<polygon fill="crimson" stroke="black" points="1142,-344 992,-344 992,-294 1142,-294 1142,-344"/>
<text text-anchor="middle" x="1067" y="-324.4" font-family="Times Roman,serif" font-size="14.00">DoubleHelix</text>
<text text-anchor="middle" x="1067" y="-306.4" font-family="Times Roman,serif" font-size="14.00">renderDHelix</text>
</g>
<!-- 4&#45;&gt;11 -->
<g id="edge16" class="edge"><title>4&#45;&gt;11</title>
<path fill="none" stroke="black" stroke-width="1.69315" d="M938.839,-379.894C959.565,-370.047 983.498,-358.675 1005.03,-348.444"/>
<polygon fill="black" stroke="black" points="1006.56,-351.59 1014.1,-344.137 1003.56,-345.267 1006.56,-351.59"/>
</g>
<!-- 23 -->
<g id="node25" class="node"><title>23</title>
<polygon fill="crimson" stroke="black" points="603,-66 499,-66 499,-16 603,-16 603,-66"/>
<text text-anchor="middle" x="551" y="-46.4" font-family="Times Roman,serif" font-size="14.00">Math</text>
<text text-anchor="middle" x="551" y="-28.4" font-family="Times Roman,serif" font-size="14.00">fromTo</text>
</g>
<!-- 4&#45;&gt;23 -->
<g id="edge18" class="edge"><title>4&#45;&gt;23</title>
<path fill="none" stroke="black" d="M861.43,-379.936C850.771,-368.976 838.193,-355.924 827,-344 735.839,-246.881 630.42,-129.781 580.339,-73.8509"/>
<polygon fill="black" stroke="black" points="582.924,-71.4908 573.647,-66.3733 577.708,-76.1591 582.924,-71.4908"/>
</g>
<!-- 24 -->
<g id="node26" class="node"><title>24</title>
<polygon fill="crimson" stroke="black" points="1022,-66 928,-66 928,-16 1022,-16 1022,-66"/>
<text text-anchor="middle" x="975" y="-46.4" font-family="Times Roman,serif" font-size="14.00">Math</text>
<text text-anchor="middle" x="975" y="-28.4" font-family="Times Roman,serif" font-size="14.00">phi</text>
</g>
<!-- 4&#45;&gt;24 -->
<g id="edge20" class="edge"><title>4&#45;&gt;24</title>
<path fill="none" stroke="black" d="M953.357,-381.269C954.916,-380.831 956.465,-380.407 958,-380 1042.34,-357.627 1089.9,-406.292 1151,-344 1224.83,-268.735 1236.58,-193.575 1175,-108 1158.02,-84.405 1085.18,-64.3063 1032.29,-52.4426"/>
<polygon fill="black" stroke="black" points="1032.85,-48.9826 1022.33,-50.2526 1031.35,-55.8192 1032.85,-48.9826"/>
</g>
<!-- 25 -->
<g id="node27" class="node"><title>25</title>
<polygon fill="crimson" stroke="black" points="936,-344 836,-344 836,-294 936,-294 936,-344"/>
<text text-anchor="middle" x="886" y="-324.4" font-family="Times Roman,serif" font-size="14.00">Misc</text>
<text text-anchor="middle" x="886" y="-306.4" font-family="Times Roman,serif" font-size="14.00">colour</text>
</g>
<!-- 4&#45;&gt;25 -->
<g id="edge22" class="edge"><title>4&#45;&gt;25</title>
<path fill="none" stroke="black" stroke-width="1.69315" d="M886,-379.662C886,-371.702 886,-362.763 886,-354.245"/>
<polygon fill="black" stroke="black" points="889.5,-354.157 886,-344.157 882.5,-354.157 889.5,-354.157"/>
</g>
<!-- 27 -->
<g id="node29" class="node"><title>27</title>
<polygon fill="crimson" stroke="black" points="854,-166 760,-166 760,-116 854,-116 854,-166"/>
<text text-anchor="middle" x="807" y="-146.4" font-family="Times Roman,serif" font-size="14.00">Misc</text>
<text text-anchor="middle" x="807" y="-128.4" font-family="Times Roman,serif" font-size="14.00">vec3f</text>
</g>
<!-- 4&#45;&gt;27 -->
<g id="edge24" class="edge"><title>4&#45;&gt;27</title>
<path fill="none" stroke="black" stroke-width="2.38629" d="M918.871,-379.867C929.264,-369.954 939.475,-357.658 945,-344 953.333,-323.399 952.973,-314.743 945,-294 942.163,-286.618 877.366,-216.395 837.584,-173.694"/>
<polygon fill="black" stroke="black" points="840.088,-171.247 830.708,-166.32 834.968,-176.021 840.088,-171.247"/>
</g>
<!-- 5 -->
<g id="node8" class="node"><title>5</title>
<polygon fill="crimson" stroke="black" points="585,-430 439,-430 439,-380 585,-380 585,-430"/>
<text text-anchor="middle" x="512" y="-410.4" font-family="Times Roman,serif" font-size="14.00">DNA</text>
<text text-anchor="middle" x="512" y="-392.4" font-family="Times Roman,serif" font-size="14.00">updateModel</text>
</g>
<!-- 5&#45;&gt;2 -->
<g id="edge26" class="edge"><title>5&#45;&gt;2</title>
<path fill="none" stroke="black" d="M441.061,-379.894C408.307,-368.302 369.586,-354.598 337.179,-343.129"/>
<polygon fill="black" stroke="black" points="337.932,-339.683 327.337,-339.646 335.597,-346.282 337.932,-339.683"/>
</g>
<!-- 5&#45;&gt;3 -->
<g id="edge28" class="edge"><title>5&#45;&gt;3</title>
<path fill="none" stroke="black" d="M503.857,-379.99C494.235,-350.437 478.168,-301.087 467.334,-267.812"/>
<polygon fill="black" stroke="black" points="470.577,-266.466 464.153,-258.04 463.921,-268.633 470.577,-266.466"/>
</g>
<!-- 6 -->
<g id="node9" class="node"><title>6</title>
<polygon fill="crimson" stroke="black" points="889,-516 775,-516 775,-466 889,-466 889,-516"/>
<text text-anchor="middle" x="832" y="-496.4" font-family="Times Roman,serif" font-size="14.00">Display</text>
<text text-anchor="middle" x="832" y="-478.4" font-family="Times Roman,serif" font-size="14.00">animate</text>
</g>
<!-- 6&#45;&gt;5 -->
<g id="edge30" class="edge"><title>6&#45;&gt;5</title>
<path fill="none" stroke="black" d="M774.58,-477.053C728.519,-465.689 661.994,-448.885 595.134,-430.275"/>
<polygon fill="black" stroke="black" points="595.843,-426.839 585.27,-427.517 593.958,-433.581 595.843,-426.839"/>
</g>
<!-- 29 -->
<g id="node31" class="node"><title>29</title>
<polygon fill="crimson" stroke="black" points="763,-430 603,-430 603,-380 763,-380 763,-430"/>
<text text-anchor="middle" x="683" y="-410.4" font-family="Times Roman,serif" font-size="14.00">ProgramState</text>
<text text-anchor="middle" x="683" y="-392.4" font-family="Times Roman,serif" font-size="14.00">extractDNARef</text>
</g>
<!-- 6&#45;&gt;29 -->
<g id="edge32" class="edge"><title>6&#45;&gt;29</title>
<path fill="none" stroke="black" d="M788.502,-465.894C771.898,-456.31 752.793,-445.283 735.442,-435.269"/>
<polygon fill="black" stroke="black" points="736.962,-432.105 726.552,-430.137 733.463,-438.167 736.962,-432.105"/>
</g>
<!-- 31 -->
<g id="node33" class="node"><title>31</title>
<polygon fill="crimson" stroke="black" points="1321,-430 1155,-430 1155,-380 1321,-380 1321,-430"/>
<text text-anchor="middle" x="1238" y="-410.4" font-family="Times Roman,serif" font-size="14.00">ProgramState</text>
<text text-anchor="middle" x="1238" y="-392.4" font-family="Times Roman,serif" font-size="14.00">extractLevelRef</text>
</g>
<!-- 6&#45;&gt;31 -->
<g id="edge34" class="edge"><title>6&#45;&gt;31</title>
<path fill="none" stroke="black" d="M889.354,-468.432C892.26,-467.554 895.153,-466.736 898,-466 1002.77,-438.898 1035.12,-451.855 1145.05,-430.071"/>
<polygon fill="black" stroke="black" points="1145.76,-433.498 1154.86,-428.076 1144.37,-426.639 1145.76,-433.498"/>
</g>
<!-- 38 -->
<g id="node40" class="node"><title>38</title>
<polygon fill="crimson" stroke="black" points="2055,-344 1877,-344 1877,-294 2055,-294 2055,-344"/>
<text text-anchor="middle" x="1966" y="-324.4" font-family="Times Roman,serif" font-size="14.00">ProgramState</text>
<text text-anchor="middle" x="1966" y="-306.4" font-family="Times Roman,serif" font-size="14.00">extractUpdateRef</text>
</g>
<!-- 6&#45;&gt;38 -->
<g id="edge36" class="edge"><title>6&#45;&gt;38</title>
<path fill="none" stroke="black" stroke-width="1.69315" d="M889.074,-467.424C918.102,-454.805 949.786,-439.874 962,-430 983.706,-412.453 975.399,-393.185 1000,-380 1074.98,-339.816 1635.71,-325.037 1866.85,-320.614"/>
<polygon fill="black" stroke="black" points="1867.01,-324.112 1876.94,-320.424 1866.88,-317.113 1867.01,-324.112"/>
</g>
<!-- 7 -->
<g id="node10" class="node"><title>7</title>
<polygon fill="crimson" stroke="black" points="1565,-516 1457,-516 1457,-466 1565,-466 1565,-516"/>
<text text-anchor="middle" x="1511" y="-496.4" font-family="Times Roman,serif" font-size="14.00">Display</text>
<text text-anchor="middle" x="1511" y="-478.4" font-family="Times Roman,serif" font-size="14.00">display</text>
</g>
<!-- 7&#45;&gt;4 -->
<g id="edge38" class="edge"><title>7&#45;&gt;4</title>
<path fill="none" stroke="black" d="M1456.67,-486.263C1363.05,-477.708 1165.4,-457.941 1000,-430 987.94,-427.963 975.229,-425.496 962.845,-422.916"/>
<polygon fill="black" stroke="black" points="963.51,-419.48 953.002,-420.829 962.058,-426.327 963.51,-419.48"/>
</g>
<!-- 26 -->
<g id="node28" class="node"><title>26</title>
<polygon fill="crimson" stroke="black" points="1137,-430 1009,-430 1009,-380 1137,-380 1137,-430"/>
<text text-anchor="middle" x="1073" y="-410.4" font-family="Times Roman,serif" font-size="14.00">Misc</text>
<text text-anchor="middle" x="1073" y="-392.4" font-family="Times Roman,serif" font-size="14.00">evenScale</text>
</g>
<!-- 7&#45;&gt;26 -->
<g id="edge40" class="edge"><title>7&#45;&gt;26</title>
<path fill="none" stroke="black" d="M1456.93,-484.787C1387.2,-476.153 1262.18,-458.567 1147.33,-430.176"/>
<polygon fill="black" stroke="black" points="1147.86,-426.702 1137.31,-427.666 1146.16,-433.492 1147.86,-426.702"/>
</g>
<!-- 7&#45;&gt;27 -->
<g id="edge42" class="edge"><title>7&#45;&gt;27</title>
<path fill="none" stroke="black" stroke-width="2.94591" d="M1456.81,-488.259C1296.1,-479.873 831.948,-453.693 810,-430 745.693,-360.581 774.505,-236.602 794.138,-176.123"/>
<polygon fill="black" stroke="black" points="797.575,-176.881 797.433,-166.287 790.938,-174.657 797.575,-176.881"/>
</g>
<!-- 7&#45;&gt;29 -->
<g id="edge44" class="edge"><title>7&#45;&gt;29</title>
<path fill="none" stroke="black" d="M1456.82,-487.747C1310.21,-478.745 907.957,-452.672 777,-430 775.713,-429.777 774.418,-429.545 773.117,-429.304"/>
<polygon fill="black" stroke="black" points="773.533,-425.819 763.042,-427.303 772.169,-432.684 773.533,-425.819"/>
</g>
<!-- 32 -->
<g id="node34" class="node"><title>32</title>
<polygon fill="crimson" stroke="black" points="1505,-430 1339,-430 1339,-380 1505,-380 1505,-430"/>
<text text-anchor="middle" x="1422" y="-410.4" font-family="Times Roman,serif" font-size="14.00">ProgramState</text>
<text text-anchor="middle" x="1422" y="-392.4" font-family="Times Roman,serif" font-size="14.00">extractModeRef</text>
</g>
<!-- 7&#45;&gt;32 -->
<g id="edge46" class="edge"><title>7&#45;&gt;32</title>
<path fill="none" stroke="black" d="M1484.78,-465.662C1475.54,-456.739 1465.04,-446.588 1455.3,-437.177"/>
<polygon fill="black" stroke="black" points="1457.66,-434.589 1448.03,-430.157 1452.79,-439.622 1457.66,-434.589"/>
</g>
<!-- 33 -->
<g id="node35" class="node"><title>33</title>
<polygon fill="crimson" stroke="black" points="1677,-430 1523,-430 1523,-380 1677,-380 1677,-430"/>
<text text-anchor="middle" x="1600" y="-410.4" font-family="Times Roman,serif" font-size="14.00">ProgramState</text>
<text text-anchor="middle" x="1600" y="-392.4" font-family="Times Roman,serif" font-size="14.00">extractRXRef</text>
</g>
<!-- 7&#45;&gt;33 -->
<g id="edge48" class="edge"><title>7&#45;&gt;33</title>
<path fill="none" stroke="black" d="M1537.22,-465.662C1546.46,-456.739 1556.96,-446.588 1566.7,-437.177"/>
<polygon fill="black" stroke="black" points="1569.21,-439.622 1573.97,-430.157 1564.34,-434.589 1569.21,-439.622"/>
</g>
<!-- 34 -->
<g id="node36" class="node"><title>34</title>
<polygon fill="crimson" stroke="black" points="1849,-430 1695,-430 1695,-380 1849,-380 1849,-430"/>
<text text-anchor="middle" x="1772" y="-410.4" font-family="Times Roman,serif" font-size="14.00">ProgramState</text>
<text text-anchor="middle" x="1772" y="-392.4" font-family="Times Roman,serif" font-size="14.00">extractRYRef</text>
</g>
<!-- 7&#45;&gt;34 -->
<g id="edge50" class="edge"><title>7&#45;&gt;34</title>
<path fill="none" stroke="black" d="M1565.08,-473.181C1599.98,-461.682 1646.14,-446.473 1686,-433.338"/>
<polygon fill="black" stroke="black" points="1687.32,-436.588 1695.72,-430.134 1685.13,-429.939 1687.32,-436.588"/>
</g>
<!-- 35 -->
<g id="node37" class="node"><title>35</title>
<polygon fill="crimson" stroke="black" points="2021,-430 1867,-430 1867,-380 2021,-380 2021,-430"/>
<text text-anchor="middle" x="1944" y="-410.4" font-family="Times Roman,serif" font-size="14.00">ProgramState</text>
<text text-anchor="middle" x="1944" y="-392.4" font-family="Times Roman,serif" font-size="14.00">extractRZRef</text>
</g>
<!-- 7&#45;&gt;35 -->
<g id="edge52" class="edge"><title>7&#45;&gt;35</title>
<path fill="none" stroke="black" d="M1565.17,-483.347C1631.75,-473.525 1748.3,-454.988 1856.94,-430.153"/>
<polygon fill="black" stroke="black" points="1857.79,-433.547 1866.75,-427.887 1856.22,-426.727 1857.79,-433.547"/>
</g>
<!-- 36 -->
<g id="node38" class="node"><title>36</title>
<polygon fill="crimson" stroke="black" points="2193,-430 2039,-430 2039,-380 2193,-380 2193,-430"/>
<text text-anchor="middle" x="2116" y="-410.4" font-family="Times Roman,serif" font-size="14.00">ProgramState</text>
<text text-anchor="middle" x="2116" y="-392.4" font-family="Times Roman,serif" font-size="14.00">extractTXRef</text>
</g>
<!-- 7&#45;&gt;36 -->
<g id="edge54" class="edge"><title>7&#45;&gt;36</title>
<path fill="none" stroke="black" d="M1565.37,-484.261C1606.68,-479.168 1664.91,-472.044 1716,-466 1852.23,-449.884 1890.51,-457.333 2028.67,-430.129"/>
<polygon fill="black" stroke="black" points="2029.68,-433.498 2038.8,-428.109 2028.31,-426.633 2029.68,-433.498"/>
</g>
<!-- 37 -->
<g id="node39" class="node"><title>37</title>
<polygon fill="crimson" stroke="black" points="2365,-430 2211,-430 2211,-380 2365,-380 2365,-430"/>
<text text-anchor="middle" x="2288" y="-410.4" font-family="Times Roman,serif" font-size="14.00">ProgramState</text>
<text text-anchor="middle" x="2288" y="-392.4" font-family="Times Roman,serif" font-size="14.00">extractTYRef</text>
</g>
<!-- 7&#45;&gt;37 -->
<g id="edge56" class="edge"><title>7&#45;&gt;37</title>
<path fill="none" stroke="black" d="M1565.31,-483.665C1606.58,-478.264 1664.79,-471.016 1716,-466 1928.3,-445.204 1987.08,-467.737 2200.86,-430.04"/>
<polygon fill="black" stroke="black" points="2201.6,-433.464 2210.83,-428.259 2200.37,-426.573 2201.6,-433.464"/>
</g>
<!-- 39 -->
<g id="node41" class="node"><title>39</title>
<polygon fill="crimson" stroke="black" points="2551,-430 2383,-430 2383,-380 2551,-380 2551,-430"/>
<text text-anchor="middle" x="2467" y="-410.4" font-family="Times Roman,serif" font-size="14.00">ProgramState</text>
<text text-anchor="middle" x="2467" y="-392.4" font-family="Times Roman,serif" font-size="14.00">extractZoomRef</text>
</g>
<!-- 7&#45;&gt;39 -->
<g id="edge58" class="edge"><title>7&#45;&gt;39</title>
<path fill="none" stroke="black" d="M1565.28,-483.379C1606.54,-477.83 1664.75,-470.522 1716,-466 2004.47,-440.547 2083.04,-475.465 2372.81,-430.041"/>
<polygon fill="black" stroke="black" points="2373.44,-433.485 2382.77,-428.462 2372.34,-426.572 2373.44,-433.485"/>
</g>
<!-- 8 -->
<g id="node11" class="node"><title>8</title>
<polygon fill="crimson" stroke="black" points="1069,-516 907,-516 907,-466 1069,-466 1069,-516"/>
<text text-anchor="middle" x="988" y="-496.4" font-family="Times Roman,serif" font-size="14.00">Display</text>
<text text-anchor="middle" x="988" y="-478.4" font-family="Times Roman,serif" font-size="14.00">handleReshape</text>
</g>
<!-- 9 -->
<g id="node12" class="node"><title>9</title>
<polygon fill="crimson" stroke="black" points="1128,-602 974,-602 974,-552 1128,-552 1128,-602"/>
<text text-anchor="middle" x="1051" y="-582.4" font-family="Times Roman,serif" font-size="14.00">DoubleHelix</text>
<text text-anchor="middle" x="1051" y="-564.4" font-family="Times Roman,serif" font-size="14.00">extractHeight</text>
</g>
<!-- 14 -->
<g id="node16" class="node"><title>14</title>
<polygon fill="crimson" stroke="black" points="430,-166 312,-166 312,-116 430,-116 430,-166"/>
<text text-anchor="middle" x="371" y="-146.4" font-family="Times Roman,serif" font-size="14.00">Helix</text>
<text text-anchor="middle" x="371" y="-128.4" font-family="Times Roman,serif" font-size="14.00">genHelix</text>
</g>
<!-- 10&#45;&gt;14 -->
<g id="edge60" class="edge"><title>10&#45;&gt;14</title>
<path fill="none" stroke="chartreuse" d="M296.872,-207.861C308.791,-197.11 322.847,-184.432 335.498,-173.021"/>
<polygon fill="chartreuse" stroke="chartreuse" points="338.08,-175.406 343.162,-166.109 333.392,-170.208 338.08,-175.406"/>
</g>
<!-- 16 -->
<g id="node18" class="node"><title>16</title>
<polygon fill="crimson" stroke="black" points="1133,-258 995,-258 995,-208 1133,-208 1133,-258"/>
<text text-anchor="middle" x="1064" y="-238.4" font-family="Times Roman,serif" font-size="14.00">Helix</text>
<text text-anchor="middle" x="1064" y="-220.4" font-family="Times Roman,serif" font-size="14.00">renderHelix</text>
</g>
<!-- 11&#45;&gt;16 -->
<g id="edge62" class="edge"><title>11&#45;&gt;16</title>
<path fill="none" stroke="chartreuse" stroke-width="1.69315" d="M1066.12,-293.662C1065.84,-285.702 1065.53,-276.763 1065.23,-268.245"/>
<polygon fill="chartreuse" stroke="chartreuse" points="1068.72,-268.028 1064.88,-258.157 1061.73,-268.273 1068.72,-268.028"/>
</g>
<!-- 13 -->
<g id="node15" class="node"><title>13</title>
<polygon fill="crimson" stroke="black" points="294,-166 140,-166 140,-116 294,-116 294,-166"/>
<text text-anchor="middle" x="217" y="-146.4" font-family="Times Roman,serif" font-size="14.00">Helix</text>
<text text-anchor="middle" x="217" y="-128.4" font-family="Times Roman,serif" font-size="14.00">extractHeight</text>
</g>
<!-- 13&#45;&gt;12 -->
<g id="edge64" class="edge"><title>13&#45;&gt;12</title>
<path fill="none" stroke="black" d="M217,-115.766C217,-103.804 217,-89.3127 217,-76.2845"/>
<polygon fill="black" stroke="black" points="220.5,-76.2261 217,-66.2261 213.5,-76.2262 220.5,-76.2261"/>
</g>
<!-- 14&#45;&gt;12 -->
<g id="edge66" class="edge"><title>14&#45;&gt;12</title>
<path fill="none" stroke="black" d="M322.926,-115.974C316.33,-113.043 309.568,-110.288 303,-108 287.522,-102.608 281.031,-108.472 267,-100 256.225,-93.4936 246.636,-83.8401 238.81,-74.2171"/>
<polygon fill="black" stroke="black" points="241.529,-72.0113 232.663,-66.2107 235.976,-76.2741 241.529,-72.0113"/>
</g>
<!-- 14&#45;&gt;23 -->
<g id="edge68" class="edge"><title>14&#45;&gt;23</title>
<path fill="none" stroke="black" d="M416.422,-115.766C440.924,-102.154 471.323,-85.2651 497.026,-70.9853"/>
<polygon fill="black" stroke="black" points="498.863,-73.9688 505.905,-66.0528 495.464,-67.8497 498.863,-73.9688"/>
</g>
<!-- 14&#45;&gt;24 -->
<g id="edge70" class="edge"><title>14&#45;&gt;24</title>
<path fill="none" stroke="black" d="M414.042,-115.963C421.179,-112.751 428.653,-109.919 436,-108 477.747,-97.0954 587.091,-104.535 630,-100 732.024,-89.2175 849.534,-66.9954 917.728,-53.1125"/>
<polygon fill="black" stroke="black" points="918.738,-56.4785 927.832,-51.043 917.333,-49.6208 918.738,-56.4785"/>
</g>
<!-- 15&#45;&gt;12 -->
<g id="edge72" class="edge"><title>15&#45;&gt;12</title>
<path fill="none" stroke="black" d="M100.365,-115.766C121.322,-102.332 147.257,-85.7071 169.345,-71.5478"/>
<polygon fill="black" stroke="black" points="171.388,-74.3961 177.918,-66.0528 167.61,-68.5029 171.388,-74.3961"/>
</g>
<!-- 22 -->
<g id="node24" class="node"><title>22</title>
<polygon fill="crimson" stroke="black" points="1166,-166 988,-166 988,-116 1166,-116 1166,-166"/>
<text text-anchor="middle" x="1077" y="-146.4" font-family="Times Roman,serif" font-size="14.00">Math</text>
<text text-anchor="middle" x="1077" y="-128.4" font-family="Times Roman,serif" font-size="14.00">distanceBetween</text>
</g>
<!-- 16&#45;&gt;22 -->
<g id="edge74" class="edge"><title>16&#45;&gt;22</title>
<path fill="none" stroke="black" stroke-width="1.69315" d="M1067.55,-207.861C1068.93,-198.125 1070.53,-186.807 1072.01,-176.282"/>
<polygon fill="black" stroke="black" points="1075.52,-176.5 1073.45,-166.109 1068.59,-175.521 1075.52,-176.5"/>
</g>
<!-- 16&#45;&gt;27 -->
<g id="edge76" class="edge"><title>16&#45;&gt;27</title>
<path fill="none" stroke="black" stroke-width="2.09861" d="M994.833,-211.518C989.172,-210.181 983.511,-208.981 978,-208 952.779,-203.51 886.172,-210.922 863,-200 850.479,-194.098 839.337,-184.067 830.353,-173.933"/>
<polygon fill="black" stroke="black" points="833.015,-171.66 823.917,-166.231 827.643,-176.149 833.015,-171.66"/>
</g>
<!-- 28 -->
<g id="node30" class="node"><title>28</title>
<polygon fill="crimson" stroke="black" points="970,-166 872,-166 872,-116 970,-116 970,-166"/>
<text text-anchor="middle" x="921" y="-146.4" font-family="Times Roman,serif" font-size="14.00">Misc</text>
<text text-anchor="middle" x="921" y="-128.4" font-family="Times Roman,serif" font-size="14.00">ver3d</text>
</g>
<!-- 16&#45;&gt;28 -->
<g id="edge78" class="edge"><title>16&#45;&gt;28</title>
<path fill="none" stroke="black" d="M994.994,-209.16C989.43,-206.36 984.025,-203.307 979,-200 967.924,-192.709 957.293,-183.004 948.227,-173.574"/>
<polygon fill="black" stroke="black" points="950.681,-171.072 941.314,-166.121 945.549,-175.833 950.681,-171.072"/>
</g>
<!-- 17 -->
<g id="node19" class="node"><title>17</title>
<polygon fill="crimson" stroke="black" points="1819,-516 1725,-516 1725,-466 1819,-466 1819,-516"/>
<text text-anchor="middle" x="1772" y="-496.4" font-family="Times Roman,serif" font-size="14.00">Input</text>
<text text-anchor="middle" x="1772" y="-478.4" font-family="Times Roman,serif" font-size="14.00">input</text>
</g>
<!-- 18 -->
<g id="node20" class="node"><title>18</title>
<polygon fill="crimson" stroke="black" points="2675,-430 2569,-430 2569,-380 2675,-380 2675,-430"/>
<text text-anchor="middle" x="2622" y="-410.4" font-family="Times Roman,serif" font-size="14.00">Input</text>
<text text-anchor="middle" x="2622" y="-392.4" font-family="Times Roman,serif" font-size="14.00">update</text>
</g>
<!-- 17&#45;&gt;18 -->
<g id="edge80" class="edge"><title>17&#45;&gt;18</title>
<path fill="none" stroke="black" stroke-width="3.83321" d="M1819.24,-468.48C1822.17,-467.533 1825.1,-466.693 1828,-466 2141.56,-391.088 2239.84,-497.651 2558.94,-429.874"/>
<polygon fill="black" stroke="black" points="2559.89,-433.248 2568.93,-427.711 2558.41,-426.407 2559.89,-433.248"/>
</g>
<!-- 17&#45;&gt;31 -->
<g id="edge82" class="edge"><title>17&#45;&gt;31</title>
<path fill="none" stroke="black" stroke-width="1.69315" d="M1724.84,-484.84C1624.87,-471.735 1396.08,-441.476 1331.02,-429.965"/>
<polygon fill="black" stroke="black" points="1331.61,-426.515 1321.13,-428.102 1330.31,-433.394 1331.61,-426.515"/>
</g>
<!-- 17&#45;&gt;32 -->
<g id="edge84" class="edge"><title>17&#45;&gt;32</title>
<path fill="none" stroke="black" stroke-width="2.09861" d="M1724.81,-480.336C1675.11,-468.997 1594.35,-450.257 1515.34,-430.31"/>
<polygon fill="black" stroke="black" points="1515.77,-426.808 1505.21,-427.745 1514.05,-433.594 1515.77,-426.808"/>
</g>
<!-- 17&#45;&gt;33 -->
<g id="edge86" class="edge"><title>17&#45;&gt;33</title>
<path fill="none" stroke="black" stroke-width="1.69315" d="M1724.54,-467.272C1704.27,-457.136 1680.4,-445.199 1659,-434.501"/>
<polygon fill="black" stroke="black" points="1660.51,-431.343 1650,-430.002 1657.38,-437.604 1660.51,-431.343"/>
</g>
<!-- 17&#45;&gt;34 -->
<g id="edge88" class="edge"><title>17&#45;&gt;34</title>
<path fill="none" stroke="black" stroke-width="1.69315" d="M1772,-465.662C1772,-457.702 1772,-448.763 1772,-440.245"/>
<polygon fill="black" stroke="black" points="1775.5,-440.157 1772,-430.157 1768.5,-440.157 1775.5,-440.157"/>
</g>
<!-- 17&#45;&gt;35 -->
<g id="edge90" class="edge"><title>17&#45;&gt;35</title>
<path fill="none" stroke="black" stroke-width="1.69315" d="M1819.46,-467.272C1839.73,-457.136 1863.6,-445.199 1885,-434.501"/>
<polygon fill="black" stroke="black" points="1886.62,-437.604 1894,-430.002 1883.49,-431.343 1886.62,-437.604"/>
</g>
<!-- 17&#45;&gt;36 -->
<g id="edge92" class="edge"><title>17&#45;&gt;36</title>
<path fill="none" stroke="black" stroke-width="1.69315" d="M1819.05,-469.029C1822.05,-467.929 1825.05,-466.907 1828,-466 1912.19,-440.13 1939.35,-450.013 2028.99,-430.107"/>
<polygon fill="black" stroke="black" points="2029.78,-433.517 2038.75,-427.878 2028.22,-426.693 2029.78,-433.517"/>
</g>
<!-- 17&#45;&gt;37 -->
<g id="edge94" class="edge"><title>17&#45;&gt;37</title>
<path fill="none" stroke="black" stroke-width="1.69315" d="M1819.28,-468.641C1822.2,-467.654 1825.12,-466.76 1828,-466 1986.31,-424.238 2036.06,-459.989 2200.83,-430.046"/>
<polygon fill="black" stroke="black" points="2201.63,-433.457 2210.81,-428.177 2200.34,-426.576 2201.63,-433.457"/>
</g>
<!-- 17&#45;&gt;39 -->
<g id="edge96" class="edge"><title>17&#45;&gt;39</title>
<path fill="none" stroke="black" stroke-width="1.69315" d="M1819.25,-468.538C1822.18,-467.576 1825.11,-466.717 1828,-466 2060.83,-408.317 2132.13,-468.08 2372.66,-430.058"/>
<polygon fill="black" stroke="black" points="2373.45,-433.476 2382.76,-428.42 2372.33,-426.566 2373.45,-433.476"/>
</g>
<!-- 18&#45;&gt;38 -->
<g id="edge98" class="edge"><title>18&#45;&gt;38</title>
<path fill="none" stroke="black" d="M2568.88,-382.478C2565.9,-381.562 2562.93,-380.726 2560,-380 2468.86,-357.424 2209.27,-336.254 2065.26,-325.805"/>
<polygon fill="black" stroke="black" points="2065.33,-322.3 2055.1,-325.071 2064.82,-329.282 2065.33,-322.3"/>
</g>
<!-- 19 -->
<g id="node21" class="node"><title>19</title>
<polygon fill="crimson" stroke="black" points="956,-602 864,-602 864,-552 956,-552 956,-602"/>
<text text-anchor="middle" x="910" y="-582.4" font-family="Times Roman,serif" font-size="14.00">Main</text>
<text text-anchor="middle" x="910" y="-564.4" font-family="Times Roman,serif" font-size="14.00">init</text>
</g>
<!-- 19&#45;&gt;2 -->
<g id="edge100" class="edge"><title>19&#45;&gt;2</title>
<path fill="none" stroke="black" d="M863.633,-575.568C745.984,-571.368 438.647,-556.709 346,-516 292.947,-492.689 271.907,-482.787 248,-430 237.075,-405.878 243.516,-376.323 252.043,-353.777"/>
<polygon fill="black" stroke="black" points="255.385,-354.85 255.916,-344.269 248.903,-352.209 255.385,-354.85"/>
</g>
<!-- 19&#45;&gt;3 -->
<g id="edge102" class="edge"><title>19&#45;&gt;3</title>
<path fill="none" stroke="black" d="M863.967,-569.918C754.272,-552.008 482.666,-501.21 430,-430 394.718,-382.296 418.58,-309.77 438.04,-267.308"/>
<polygon fill="black" stroke="black" points="441.23,-268.749 442.352,-258.213 434.905,-265.75 441.23,-268.749"/>
</g>
<!-- 19&#45;&gt;6 -->
<g id="edge104" class="edge"><title>19&#45;&gt;6</title>
<path fill="none" stroke="black" d="M887.019,-551.662C879.085,-542.914 870.08,-532.986 861.686,-523.731"/>
<polygon fill="black" stroke="black" points="864.127,-521.212 854.816,-516.157 858.942,-525.915 864.127,-521.212"/>
</g>
<!-- 19&#45;&gt;7 -->
<g id="edge106" class="edge"><title>19&#45;&gt;7</title>
<path fill="none" stroke="black" d="M956.126,-554.796C959.094,-553.754 962.068,-552.808 965,-552 1054.33,-527.38 1322.56,-504.995 1446.68,-495.633"/>
<polygon fill="black" stroke="black" points="1447.09,-499.112 1456.8,-494.875 1446.57,-492.132 1447.09,-499.112"/>
</g>
<!-- 19&#45;&gt;8 -->
<g id="edge108" class="edge"><title>19&#45;&gt;8</title>
<path fill="none" stroke="black" d="M932.981,-551.662C940.915,-542.914 949.92,-532.986 958.314,-523.731"/>
<polygon fill="black" stroke="black" points="961.058,-525.915 965.184,-516.157 955.873,-521.212 961.058,-525.915"/>
</g>
<!-- 19&#45;&gt;17 -->
<g id="edge110" class="edge"><title>19&#45;&gt;17</title>
<path fill="none" stroke="black" d="M956.078,-554.615C959.058,-553.618 962.048,-552.731 965,-552 1228.18,-486.803 1304.02,-540.996 1574,-516 1621.61,-511.592 1675.42,-504.673 1714.91,-499.23"/>
<polygon fill="black" stroke="black" points="1715.47,-502.687 1724.89,-497.845 1714.5,-495.753 1715.47,-502.687"/>
</g>
<!-- 21 -->
<g id="node23" class="node"><title>21</title>
<polygon fill="crimson" stroke="black" points="383,-430 257,-430 257,-380 383,-380 383,-430"/>
<text text-anchor="middle" x="320" y="-410.4" font-family="Times Roman,serif" font-size="14.00">Main</text>
<text text-anchor="middle" x="320" y="-392.4" font-family="Times Roman,serif" font-size="14.00">parseArgs</text>
</g>
<!-- 19&#45;&gt;21 -->
<g id="edge112" class="edge"><title>19&#45;&gt;21</title>
<path fill="none" stroke="black" d="M863.991,-576.289C753.244,-573.833 475.211,-563.024 397,-516 367.77,-498.426 346.902,-464.999 334.327,-439.402"/>
<polygon fill="black" stroke="black" points="337.339,-437.582 329.914,-430.024 331.005,-440.563 337.339,-437.582"/>
</g>
<!-- 40 -->
<g id="node42" class="node"><title>40</title>
<polygon fill="crimson" stroke="black" points="2021,-516 1837,-516 1837,-466 2021,-466 2021,-516"/>
<text text-anchor="middle" x="1929" y="-496.4" font-family="Times Roman,serif" font-size="14.00">ProgramState</text>
<text text-anchor="middle" x="1929" y="-478.4" font-family="Times Roman,serif" font-size="14.00">newProgramState</text>
</g>
<!-- 19&#45;&gt;40 -->
<g id="edge114" class="edge"><title>19&#45;&gt;40</title>
<path fill="none" stroke="black" d="M956.063,-554.555C959.047,-553.572 962.041,-552.706 965,-552 1148.61,-508.203 1621.93,-542.032 1826.81,-515.965"/>
<polygon fill="black" stroke="black" points="1827.51,-519.402 1836.95,-514.593 1826.57,-512.465 1827.51,-519.402"/>
</g>
<!-- 20 -->
<g id="node22" class="node"><title>20</title>
<polygon fill="gold" stroke="black" points="1238,-602 1146,-602 1146,-552 1238,-552 1238,-602"/>
<text text-anchor="middle" x="1192" y="-582.4" font-family="Times Roman,serif" font-size="14.00">Main</text>
<text text-anchor="middle" x="1192" y="-564.4" font-family="Times Roman,serif" font-size="14.00">main</text>
</g>
<!-- 21&#45;&gt;2 -->
<g id="edge116" class="edge"><title>21&#45;&gt;2</title>
<path fill="none" stroke="black" d="M304.974,-379.662C299.994,-371.264 294.368,-361.778 289.071,-352.845"/>
<polygon fill="black" stroke="black" points="292.03,-350.973 283.918,-344.157 286.009,-354.543 292.03,-350.973"/>
</g>
<!-- 21&#45;&gt;3 -->
<g id="edge118" class="edge"><title>21&#45;&gt;3</title>
<path fill="none" stroke="black" d="M335.725,-379.918C350.566,-356.858 373.927,-322.092 397,-294 404.89,-284.393 413.988,-274.493 422.641,-265.536"/>
<polygon fill="black" stroke="black" points="425.27,-267.853 429.769,-258.261 420.27,-262.955 425.27,-267.853"/>
</g>
<!-- 23&#45;&gt;23 -->
<g id="edge120" class="edge"><title>23&#45;&gt;23</title>
<path fill="none" stroke="black" d="M603.202,-58.9764C613.592,-56.9531 621,-50.9609 621,-41 621,-34.4631 617.809,-29.6355 612.68,-26.5171"/>
<polygon fill="black" stroke="black" points="613.796,-23.1983 603.202,-23.0236 611.375,-29.7663 613.796,-23.1983"/>
</g>
<!-- 30 -->
<g id="node32" class="node"><title>30</title>
<polygon fill="crimson" stroke="black" points="1460,-602 1256,-602 1256,-552 1460,-552 1460,-602"/>
<text text-anchor="middle" x="1358" y="-582.4" font-family="Times Roman,serif" font-size="14.00">ProgramState</text>
<text text-anchor="middle" x="1358" y="-564.4" font-family="Times Roman,serif" font-size="14.00">extractInteractiveRef</text>
</g>
</g>
</svg>
