<?xml version="1.0" encoding="UTF-8" standalone="no"?>
<!DOCTYPE svg PUBLIC "-//W3C//DTD SVG 1.1//EN"
 "http://www.w3.org/Graphics/SVG/1.1/DTD/svg11.dtd">
<!-- Generated by graphviz version 2.26.3 (20100126.1600)
 -->
<!-- Title: Chinese Whispers module suggestions Pages: 1 -->
<svg width="3477pt" height="520pt"
 viewBox="0.00 0.00 3477.00 520.00" xmlns="http://www.w3.org/2000/svg" xmlns:xlink="http://www.w3.org/1999/xlink">
<g id="graph1" class="graph" transform="scale(1 1) rotate(0) translate(4 516)">
<title>Chinese Whispers module suggestions</title>
<polygon fill="white" stroke="white" points="-4,5 -4,-516 3474,-516 3474,5 -4,5"/>
<g id="graph2" class="cluster"><title>cluster_1</title>
<polygon fill="lavender" stroke="black" points="869,-266 869,-418 2405,-418 2405,-266 869,-266"/>
</g>
<g id="graph3" class="cluster"><title>cluster_2</title>
<polygon fill="lavender" stroke="black" points="2413,-94 2413,-504 2939,-504 2939,-94 2413,-94"/>
</g>
<g id="graph4" class="cluster"><title>cluster_3</title>
<polygon fill="lavender" stroke="black" points="427,-266 427,-418 861,-418 861,-266 427,-266"/>
</g>
<g id="graph5" class="cluster"><title>cluster_4</title>
<polygon fill="lavender" stroke="black" points="65,-266 65,-418 349,-418 349,-266 65,-266"/>
</g>
<g id="graph6" class="cluster"><title>cluster_5</title>
<polygon fill="lavender" stroke="black" points="8,-94 8,-246 318,-246 318,-94 8,-94"/>
</g>
<g id="graph7" class="cluster"><title>cluster_6</title>
<polygon fill="lavender" stroke="black" points="389,-8 389,-160 523,-160 523,-8 389,-8"/>
</g>
<g id="graph8" class="cluster"><title>cluster_7</title>
<polygon fill="lavender" stroke="black" points="2253,-8 2253,-160 2405,-160 2405,-8 2253,-8"/>
</g>
<g id="graph9" class="cluster"><title>cluster_8</title>
<polygon fill="lavender" stroke="black" points="2947,-266 2947,-418 3141,-418 3141,-266 2947,-266"/>
</g>
<g id="graph10" class="cluster"><title>cluster_9</title>
<polygon fill="lavender" stroke="black" points="2947,-438 2947,-504 3117,-504 3117,-438 2947,-438"/>
</g>
<g id="graph11" class="cluster"><title>cluster_10</title>
<polygon fill="lavender" stroke="black" points="2947,-94 2947,-160 3117,-160 3117,-94 2947,-94"/>
</g>
<g id="graph12" class="cluster"><title>cluster_11</title>
<polygon fill="lavender" stroke="black" points="3125,-438 3125,-504 3233,-504 3233,-438 3125,-438"/>
</g>
<g id="graph13" class="cluster"><title>cluster_12</title>
<polygon fill="lavender" stroke="black" points="531,-8 531,-74 669,-74 669,-8 531,-8"/>
</g>
<g id="graph14" class="cluster"><title>cluster_13</title>
<polygon fill="lavender" stroke="black" points="3241,-438 3241,-504 3461,-504 3461,-438 3241,-438"/>
</g>
<g id="graph15" class="cluster"><title>cluster_14</title>
<polygon fill="lavender" stroke="black" points="3149,-352 3149,-418 3349,-418 3349,-352 3149,-352"/>
</g>
<!-- 17 -->
<g id="node2" class="node"><title>17</title>
<polygon fill="crimson" stroke="black" points="1801,-410 1707,-410 1707,-360 1801,-360 1801,-410"/>
<text text-anchor="middle" x="1754" y="-390.4" font-family="Times Roman,serif" font-size="14.00">Input</text>
<text text-anchor="middle" x="1754" y="-372.4" font-family="Times Roman,serif" font-size="14.00">input</text>
</g>
<!-- 18 -->
<g id="node3" class="node"><title>18</title>
<polygon fill="crimson" stroke="black" points="2213,-324 2107,-324 2107,-274 2213,-274 2213,-324"/>
<text text-anchor="middle" x="2160" y="-304.4" font-family="Times Roman,serif" font-size="14.00">Input</text>
<text text-anchor="middle" x="2160" y="-286.4" font-family="Times Roman,serif" font-size="14.00">update</text>
</g>
<!-- 17&#45;&gt;18 -->
<g id="edge92" class="edge"><title>17&#45;&gt;18</title>
<path fill="none" stroke="black" stroke-width="3.83321" d="M1801.16,-379.788C1866.14,-371.922 1986.75,-354.854 2096.87,-324.087"/>
<polygon fill="black" stroke="black" points="2098.15,-327.363 2106.81,-321.264 2096.24,-320.629 2098.15,-327.363"/>
</g>
<!-- 31 -->
<g id="node4" class="node"><title>31</title>
<polygon fill="crimson" stroke="black" points="2397,-324 2231,-324 2231,-274 2397,-274 2397,-324"/>
<text text-anchor="middle" x="2314" y="-304.4" font-family="Times Roman,serif" font-size="14.00">ProgramState</text>
<text text-anchor="middle" x="2314" y="-286.4" font-family="Times Roman,serif" font-size="14.00">extractLevelRef</text>
</g>
<!-- 17&#45;&gt;31 -->
<g id="edge94" class="edge"><title>17&#45;&gt;31</title>
<path fill="none" stroke="black" stroke-width="1.69315" d="M1801.18,-380.987C1884.24,-373.458 2062.06,-355.269 2220.92,-324.106"/>
<polygon fill="black" stroke="black" points="2221.75,-327.51 2230.88,-322.131 2220.39,-320.644 2221.75,-327.51"/>
</g>
<!-- 32 -->
<g id="node5" class="node"><title>32</title>
<polygon fill="crimson" stroke="black" points="1401,-324 1235,-324 1235,-274 1401,-274 1401,-324"/>
<text text-anchor="middle" x="1318" y="-304.4" font-family="Times Roman,serif" font-size="14.00">ProgramState</text>
<text text-anchor="middle" x="1318" y="-286.4" font-family="Times Roman,serif" font-size="14.00">extractModeRef</text>
</g>
<!-- 17&#45;&gt;32 -->
<g id="edge96" class="edge"><title>17&#45;&gt;32</title>
<path fill="none" stroke="black" stroke-width="2.09861" d="M1707,-378.036C1642.46,-368.173 1522.64,-348.784 1411.22,-324.198"/>
<polygon fill="black" stroke="black" points="1411.68,-320.714 1401.16,-321.958 1410.16,-327.547 1411.68,-320.714"/>
</g>
<!-- 33 -->
<g id="node6" class="node"><title>33</title>
<polygon fill="crimson" stroke="black" points="1573,-324 1419,-324 1419,-274 1573,-274 1573,-324"/>
<text text-anchor="middle" x="1496" y="-304.4" font-family="Times Roman,serif" font-size="14.00">ProgramState</text>
<text text-anchor="middle" x="1496" y="-286.4" font-family="Times Roman,serif" font-size="14.00">extractRXRef</text>
</g>
<!-- 17&#45;&gt;33 -->
<g id="edge98" class="edge"><title>17&#45;&gt;33</title>
<path fill="none" stroke="black" stroke-width="1.69315" d="M1706.98,-369.326C1671.79,-357.595 1622.69,-341.231 1580.72,-327.239"/>
<polygon fill="black" stroke="black" points="1581.64,-323.858 1571.05,-324.016 1579.43,-330.499 1581.64,-323.858"/>
</g>
<!-- 34 -->
<g id="node7" class="node"><title>34</title>
<polygon fill="crimson" stroke="black" points="1745,-324 1591,-324 1591,-274 1745,-274 1745,-324"/>
<text text-anchor="middle" x="1668" y="-304.4" font-family="Times Roman,serif" font-size="14.00">ProgramState</text>
<text text-anchor="middle" x="1668" y="-286.4" font-family="Times Roman,serif" font-size="14.00">extractRYRef</text>
</g>
<!-- 17&#45;&gt;34 -->
<g id="edge100" class="edge"><title>17&#45;&gt;34</title>
<path fill="none" stroke="black" stroke-width="1.69315" d="M1728.66,-359.662C1719.83,-350.827 1709.79,-340.787 1700.45,-331.454"/>
<polygon fill="black" stroke="black" points="1702.7,-328.753 1693.16,-324.157 1697.75,-333.703 1702.7,-328.753"/>
</g>
<!-- 35 -->
<g id="node8" class="node"><title>35</title>
<polygon fill="crimson" stroke="black" points="1917,-324 1763,-324 1763,-274 1917,-274 1917,-324"/>
<text text-anchor="middle" x="1840" y="-304.4" font-family="Times Roman,serif" font-size="14.00">ProgramState</text>
<text text-anchor="middle" x="1840" y="-286.4" font-family="Times Roman,serif" font-size="14.00">extractRZRef</text>
</g>
<!-- 17&#45;&gt;35 -->
<g id="edge102" class="edge"><title>17&#45;&gt;35</title>
<path fill="none" stroke="black" stroke-width="1.69315" d="M1779.34,-359.662C1788.17,-350.827 1798.21,-340.787 1807.55,-331.454"/>
<polygon fill="black" stroke="black" points="1810.25,-333.703 1814.84,-324.157 1805.3,-328.753 1810.25,-333.703"/>
</g>
<!-- 36 -->
<g id="node9" class="node"><title>36</title>
<polygon fill="crimson" stroke="black" points="2089,-324 1935,-324 1935,-274 2089,-274 2089,-324"/>
<text text-anchor="middle" x="2012" y="-304.4" font-family="Times Roman,serif" font-size="14.00">ProgramState</text>
<text text-anchor="middle" x="2012" y="-286.4" font-family="Times Roman,serif" font-size="14.00">extractTXRef</text>
</g>
<!-- 17&#45;&gt;36 -->
<g id="edge104" class="edge"><title>17&#45;&gt;36</title>
<path fill="none" stroke="black" stroke-width="1.69315" d="M1801.02,-369.326C1836.21,-357.595 1885.31,-341.231 1927.28,-327.239"/>
<polygon fill="black" stroke="black" points="1928.57,-330.499 1936.95,-324.016 1926.36,-323.858 1928.57,-330.499"/>
</g>
<!-- 37 -->
<g id="node10" class="node"><title>37</title>
<polygon fill="crimson" stroke="black" points="1031,-324 877,-324 877,-274 1031,-274 1031,-324"/>
<text text-anchor="middle" x="954" y="-304.4" font-family="Times Roman,serif" font-size="14.00">ProgramState</text>
<text text-anchor="middle" x="954" y="-286.4" font-family="Times Roman,serif" font-size="14.00">extractTYRef</text>
</g>
<!-- 17&#45;&gt;37 -->
<g id="edge106" class="edge"><title>17&#45;&gt;37</title>
<path fill="none" stroke="black" stroke-width="1.69315" d="M1706.79,-384.183C1593.29,-381.532 1296.26,-370.519 1041.37,-324.097"/>
<polygon fill="black" stroke="black" points="1041.65,-320.589 1031.18,-322.217 1040.38,-327.473 1041.65,-320.589"/>
</g>
<!-- 39 -->
<g id="node11" class="node"><title>39</title>
<polygon fill="crimson" stroke="black" points="1217,-324 1049,-324 1049,-274 1217,-274 1217,-324"/>
<text text-anchor="middle" x="1133" y="-304.4" font-family="Times Roman,serif" font-size="14.00">ProgramState</text>
<text text-anchor="middle" x="1133" y="-286.4" font-family="Times Roman,serif" font-size="14.00">extractZoomRef</text>
</g>
<!-- 17&#45;&gt;39 -->
<g id="edge108" class="edge"><title>17&#45;&gt;39</title>
<path fill="none" stroke="black" stroke-width="1.69315" d="M1706.67,-381.886C1615.52,-375.38 1409.24,-358.193 1227.05,-324.082"/>
<polygon fill="black" stroke="black" points="1227.5,-320.604 1217.02,-322.182 1226.19,-327.482 1227.5,-320.604"/>
</g>
<!-- 38 -->
<g id="node42" class="node"><title>38</title>
<polygon fill="crimson" stroke="black" points="3133,-324 2955,-324 2955,-274 3133,-274 3133,-324"/>
<text text-anchor="middle" x="3044" y="-304.4" font-family="Times Roman,serif" font-size="14.00">ProgramState</text>
<text text-anchor="middle" x="3044" y="-286.4" font-family="Times Roman,serif" font-size="14.00">extractUpdateRef</text>
</g>
<!-- 18&#45;&gt;38 -->
<g id="edge110" class="edge"><title>18&#45;&gt;38</title>
<path fill="none" stroke="black" d="M2197.59,-324.183C2207.98,-329.856 2219.56,-335.064 2231,-338 2306.66,-357.412 2857.02,-351.243 2934,-338 2947.66,-335.65 2961.87,-331.772 2975.37,-327.35"/>
<polygon fill="black" stroke="black" points="2976.71,-330.589 2985.05,-324.048 2974.45,-323.964 2976.71,-330.589"/>
</g>
<!-- 1 -->
<g id="node13" class="node"><title>1</title>
<polygon fill="crimson" stroke="black" points="2687,-152 2559,-152 2555,-148 2555,-102 2683,-102 2687,-106 2687,-152"/>
<polyline fill="none" stroke="black" points="2683,-148 2555,-148 "/>
<polyline fill="none" stroke="black" points="2683,-148 2683,-102 "/>
<polyline fill="none" stroke="black" points="2683,-148 2687,-152 "/>
<text text-anchor="middle" x="2621" y="-132.4" font-family="Times Roman,serif" font-size="14.00">DNA</text>
<text text-anchor="middle" x="2621" y="-114.4" font-family="Times Roman,serif" font-size="14.00">Data: DNA</text>
</g>
<!-- 2 -->
<g id="node14" class="node"><title>2</title>
<polygon fill="crimson" stroke="black" points="2572,-324 2456,-324 2456,-274 2572,-274 2572,-324"/>
<text text-anchor="middle" x="2514" y="-304.4" font-family="Times Roman,serif" font-size="14.00">DNA</text>
<text text-anchor="middle" x="2514" y="-286.4" font-family="Times Roman,serif" font-size="14.00">genDNA</text>
</g>
<!-- 2&#45;&gt;1 -->
<g id="edge16" class="edge"><title>2&#45;&gt;1</title>
<path fill="none" stroke="black" stroke-width="1.69315" d="M2547.03,-273.988C2556.09,-265.857 2565.26,-256.26 2572,-246 2586.97,-223.21 2581.69,-213.241 2592,-188 2595.58,-179.231 2599.79,-169.923 2603.88,-161.288"/>
<polygon fill="black" stroke="black" points="2607.05,-162.77 2608.22,-152.24 2600.74,-159.739 2607.05,-162.77"/>
</g>
<!-- 2&#45;&gt;2 -->
<g id="edge18" class="edge"><title>2&#45;&gt;2</title>
<path fill="none" stroke="black" d="M2572.31,-314.179C2582.73,-312.206 2590,-307.146 2590,-299 2590,-293.781 2587.01,-289.829 2582.13,-287.144"/>
<polygon fill="black" stroke="black" points="2582.91,-283.711 2572.31,-283.821 2580.66,-290.342 2582.91,-283.711"/>
</g>
<!-- 3 -->
<g id="node15" class="node"><title>3</title>
<polygon fill="crimson" stroke="black" points="2721,-238 2601,-238 2601,-188 2721,-188 2721,-238"/>
<text text-anchor="middle" x="2661" y="-218.4" font-family="Times Roman,serif" font-size="14.00">DNA</text>
<text text-anchor="middle" x="2661" y="-200.4" font-family="Times Roman,serif" font-size="14.00">newDNA</text>
</g>
<!-- 2&#45;&gt;3 -->
<g id="edge20" class="edge"><title>2&#45;&gt;3</title>
<path fill="none" stroke="black" d="M2556.91,-273.894C2573.3,-264.31 2592.14,-253.283 2609.26,-243.269"/>
<polygon fill="black" stroke="black" points="2611.17,-246.208 2618.03,-238.137 2607.63,-240.166 2611.17,-246.208"/>
</g>
<!-- 10 -->
<g id="node18" class="node"><title>10</title>
<polygon fill="crimson" stroke="black" points="2563,-238 2421,-238 2421,-188 2563,-188 2563,-238"/>
<text text-anchor="middle" x="2492" y="-218.4" font-family="Times Roman,serif" font-size="14.00">DoubleHelix</text>
<text text-anchor="middle" x="2492" y="-200.4" font-family="Times Roman,serif" font-size="14.00">genDHelix</text>
</g>
<!-- 2&#45;&gt;10 -->
<g id="edge22" class="edge"><title>2&#45;&gt;10</title>
<path fill="none" stroke="black" d="M2507.52,-273.662C2505.46,-265.614 2503.14,-256.567 2500.94,-247.964"/>
<polygon fill="black" stroke="black" points="2504.3,-246.977 2498.44,-238.157 2497.52,-248.712 2504.3,-246.977"/>
</g>
<!-- 15 -->
<g id="node39" class="node"><title>15</title>
<polygon fill="crimson" stroke="black" points="2393,-152 2271,-152 2271,-102 2393,-102 2393,-152"/>
<text text-anchor="middle" x="2332" y="-132.4" font-family="Times Roman,serif" font-size="14.00">Helix</text>
<text text-anchor="middle" x="2332" y="-114.4" font-family="Times Roman,serif" font-size="14.00">newHelix</text>
</g>
<!-- 2&#45;&gt;15 -->
<g id="edge24" class="edge"><title>2&#45;&gt;15</title>
<path fill="none" stroke="black" d="M2456,-275.188C2440.69,-267.279 2424.87,-257.5 2412,-246 2385.05,-221.925 2362.94,-186.887 2348.84,-161.062"/>
<polygon fill="black" stroke="black" points="2351.81,-159.184 2344.02,-152.001 2345.63,-162.473 2351.81,-159.184"/>
</g>
<!-- 3&#45;&gt;1 -->
<g id="edge26" class="edge"><title>3&#45;&gt;1</title>
<path fill="none" stroke="black" d="M2649.22,-187.662C2645.39,-179.439 2641.08,-170.173 2637,-161.404"/>
<polygon fill="black" stroke="black" points="2640.09,-159.748 2632.7,-152.157 2633.74,-162.7 2640.09,-159.748"/>
</g>
<!-- 5 -->
<g id="node16" class="node"><title>5</title>
<polygon fill="crimson" stroke="black" points="2587,-410 2441,-410 2441,-360 2587,-360 2587,-410"/>
<text text-anchor="middle" x="2514" y="-390.4" font-family="Times Roman,serif" font-size="14.00">DNA</text>
<text text-anchor="middle" x="2514" y="-372.4" font-family="Times Roman,serif" font-size="14.00">updateModel</text>
</g>
<!-- 5&#45;&gt;2 -->
<g id="edge38" class="edge"><title>5&#45;&gt;2</title>
<path fill="none" stroke="black" d="M2514,-359.662C2514,-351.702 2514,-342.763 2514,-334.245"/>
<polygon fill="black" stroke="black" points="2517.5,-334.157 2514,-324.157 2510.5,-334.157 2517.5,-334.157"/>
</g>
<!-- 5&#45;&gt;3 -->
<g id="edge40" class="edge"><title>5&#45;&gt;3</title>
<path fill="none" stroke="black" d="M2556.75,-359.746C2571.29,-349.821 2586.9,-337.549 2599,-324 2619.29,-301.28 2635.72,-270.803 2646.55,-247.532"/>
<polygon fill="black" stroke="black" points="2649.77,-248.916 2650.71,-238.364 2643.39,-246.026 2649.77,-248.916"/>
</g>
<!-- 8 -->
<g id="node17" class="node"><title>8</title>
<polygon fill="crimson" stroke="black" points="2931,-410 2769,-410 2769,-360 2931,-360 2931,-410"/>
<text text-anchor="middle" x="2850" y="-390.4" font-family="Times Roman,serif" font-size="14.00">Display</text>
<text text-anchor="middle" x="2850" y="-372.4" font-family="Times Roman,serif" font-size="14.00">handleReshape</text>
</g>
<!-- 14 -->
<g id="node35" class="node"><title>14</title>
<polygon fill="crimson" stroke="black" points="515,-152 397,-152 397,-102 515,-102 515,-152"/>
<text text-anchor="middle" x="456" y="-132.4" font-family="Times Roman,serif" font-size="14.00">Helix</text>
<text text-anchor="middle" x="456" y="-114.4" font-family="Times Roman,serif" font-size="14.00">genHelix</text>
</g>
<!-- 10&#45;&gt;14 -->
<g id="edge72" class="edge"><title>10&#45;&gt;14</title>
<path fill="none" stroke="chartreuse" d="M2420.73,-209.99C2105.31,-196.666 836.751,-143.083 525.308,-129.928"/>
<polygon fill="chartreuse" stroke="chartreuse" points="525.208,-126.42 515.069,-129.495 524.913,-133.414 525.208,-126.42"/>
</g>
<!-- 19 -->
<g id="node19" class="node"><title>19</title>
<polygon fill="crimson" stroke="black" points="2755,-496 2663,-496 2663,-446 2755,-446 2755,-496"/>
<text text-anchor="middle" x="2709" y="-476.4" font-family="Times Roman,serif" font-size="14.00">Main</text>
<text text-anchor="middle" x="2709" y="-458.4" font-family="Times Roman,serif" font-size="14.00">init</text>
</g>
<!-- 19&#45;&gt;17 -->
<g id="edge122" class="edge"><title>19&#45;&gt;17</title>
<path fill="none" stroke="black" d="M2662.94,-466.852C2504.94,-452.624 1985.16,-405.817 1811.26,-390.156"/>
<polygon fill="black" stroke="black" points="1811.56,-386.669 1801.28,-389.258 1810.93,-393.641 1811.56,-386.669"/>
</g>
<!-- 19&#45;&gt;2 -->
<g id="edge112" class="edge"><title>19&#45;&gt;2</title>
<path fill="none" stroke="black" d="M2662.98,-469.053C2591.95,-464.974 2460.78,-452.811 2432,-418 2413.31,-395.393 2417.98,-377.764 2432,-352 2436.46,-343.8 2442.8,-336.675 2450,-330.542"/>
<polygon fill="black" stroke="black" points="2452.34,-333.16 2458.11,-324.273 2448.05,-327.624 2452.34,-333.16"/>
</g>
<!-- 19&#45;&gt;3 -->
<g id="edge114" class="edge"><title>19&#45;&gt;3</title>
<path fill="none" stroke="black" d="M2727.38,-445.809C2732.5,-437.386 2737.38,-427.671 2740,-418 2747.67,-389.688 2747.5,-380.359 2740,-352 2729.7,-313.014 2705.64,-273.512 2686.77,-246.635"/>
<polygon fill="black" stroke="black" points="2689.51,-244.459 2680.85,-238.369 2683.82,-248.536 2689.51,-244.459"/>
</g>
<!-- 19&#45;&gt;8 -->
<g id="edge120" class="edge"><title>19&#45;&gt;8</title>
<path fill="none" stroke="black" d="M2750.16,-445.894C2765.66,-436.44 2783.47,-425.582 2799.71,-415.676"/>
<polygon fill="black" stroke="black" points="2801.83,-418.481 2808.54,-410.286 2798.18,-412.505 2801.83,-418.481"/>
</g>
<!-- 21 -->
<g id="node20" class="node"><title>21</title>
<polygon fill="crimson" stroke="black" points="2731,-410 2605,-410 2605,-360 2731,-360 2731,-410"/>
<text text-anchor="middle" x="2668" y="-390.4" font-family="Times Roman,serif" font-size="14.00">Main</text>
<text text-anchor="middle" x="2668" y="-372.4" font-family="Times Roman,serif" font-size="14.00">parseArgs</text>
</g>
<!-- 19&#45;&gt;21 -->
<g id="edge124" class="edge"><title>19&#45;&gt;21</title>
<path fill="none" stroke="black" d="M2696.92,-445.662C2693,-437.439 2688.58,-428.173 2684.4,-419.404"/>
<polygon fill="black" stroke="black" points="2687.46,-417.677 2679.99,-410.157 2681.14,-420.689 2687.46,-417.677"/>
</g>
<!-- 7 -->
<g id="node22" class="node"><title>7</title>
<polygon fill="crimson" stroke="black" points="853,-410 745,-410 745,-360 853,-360 853,-410"/>
<text text-anchor="middle" x="799" y="-390.4" font-family="Times Roman,serif" font-size="14.00">Display</text>
<text text-anchor="middle" x="799" y="-372.4" font-family="Times Roman,serif" font-size="14.00">display</text>
</g>
<!-- 19&#45;&gt;7 -->
<g id="edge118" class="edge"><title>19&#45;&gt;7</title>
<path fill="none" stroke="black" d="M2662.65,-470.864C2394.13,-469.92 1043.89,-462.954 865,-418 860.69,-416.917 856.337,-415.522 852.03,-413.918"/>
<polygon fill="black" stroke="black" points="853.295,-410.654 842.714,-410.117 850.65,-417.136 853.295,-410.654"/>
</g>
<!-- 6 -->
<g id="node41" class="node"><title>6</title>
<polygon fill="crimson" stroke="black" points="3069,-410 2955,-410 2955,-360 3069,-360 3069,-410"/>
<text text-anchor="middle" x="3012" y="-390.4" font-family="Times Roman,serif" font-size="14.00">Display</text>
<text text-anchor="middle" x="3012" y="-372.4" font-family="Times Roman,serif" font-size="14.00">animate</text>
</g>
<!-- 19&#45;&gt;6 -->
<g id="edge116" class="edge"><title>19&#45;&gt;6</title>
<path fill="none" stroke="black" d="M2755.14,-463.692C2802.96,-455.394 2879.46,-440.08 2943,-418 2946.47,-416.796 2949.99,-415.468 2953.51,-414.056"/>
<polygon fill="black" stroke="black" points="2954.94,-417.249 2962.81,-410.151 2952.23,-410.795 2954.94,-417.249"/>
</g>
<!-- 40 -->
<g id="node54" class="node"><title>40</title>
<polygon fill="crimson" stroke="black" points="3341,-410 3157,-410 3157,-360 3341,-360 3341,-410"/>
<text text-anchor="middle" x="3249" y="-390.4" font-family="Times Roman,serif" font-size="14.00">ProgramState</text>
<text text-anchor="middle" x="3249" y="-372.4" font-family="Times Roman,serif" font-size="14.00">newProgramState</text>
</g>
<!-- 19&#45;&gt;40 -->
<g id="edge126" class="edge"><title>19&#45;&gt;40</title>
<path fill="none" stroke="black" d="M2755.1,-463.924C2802.24,-456.823 2877.62,-445.843 2943,-438 3032.57,-427.254 3056.64,-436.186 3145,-418 3152.14,-416.53 3159.49,-414.756 3166.82,-412.802"/>
<polygon fill="black" stroke="black" points="3168.08,-416.085 3176.78,-410.038 3166.21,-409.339 3168.08,-416.085"/>
</g>
<!-- 21&#45;&gt;2 -->
<g id="edge128" class="edge"><title>21&#45;&gt;2</title>
<path fill="none" stroke="black" d="M2623.04,-359.894C2605.88,-350.31 2586.14,-339.283 2568.2,-329.269"/>
<polygon fill="black" stroke="black" points="2569.45,-325.957 2559.01,-324.137 2566.04,-332.069 2569.45,-325.957"/>
</g>
<!-- 21&#45;&gt;3 -->
<g id="edge130" class="edge"><title>21&#45;&gt;3</title>
<path fill="none" stroke="black" d="M2666.98,-359.99C2665.78,-330.564 2663.79,-281.512 2662.43,-248.243"/>
<polygon fill="black" stroke="black" points="2665.92,-247.89 2662.02,-238.04 2658.93,-248.175 2665.92,-247.89"/>
</g>
<!-- 7&#45;&gt;32 -->
<g id="edge58" class="edge"><title>7&#45;&gt;32</title>
<path fill="none" stroke="black" d="M843.522,-359.878C850.537,-356.765 857.84,-353.986 865,-352 1016.89,-309.876 1065.44,-349.738 1224.76,-324.031"/>
<polygon fill="black" stroke="black" points="1225.63,-327.434 1234.91,-322.329 1224.47,-320.531 1225.63,-327.434"/>
</g>
<!-- 7&#45;&gt;33 -->
<g id="edge60" class="edge"><title>7&#45;&gt;33</title>
<path fill="none" stroke="black" d="M843.114,-359.87C850.245,-356.715 857.691,-353.925 865,-352 1096.34,-291.08 1168.86,-362.343 1408.77,-324.002"/>
<polygon fill="black" stroke="black" points="1409.54,-327.422 1418.84,-322.344 1408.41,-320.515 1409.54,-327.422"/>
</g>
<!-- 7&#45;&gt;34 -->
<g id="edge62" class="edge"><title>7&#45;&gt;34</title>
<path fill="none" stroke="black" d="M842.731,-359.95C849.974,-356.74 857.555,-353.912 865,-352 1016.43,-313.118 1408.88,-348.132 1580.84,-323.909"/>
<polygon fill="black" stroke="black" points="1581.49,-327.351 1590.85,-322.39 1580.44,-320.43 1581.49,-327.351"/>
</g>
<!-- 7&#45;&gt;35 -->
<g id="edge64" class="edge"><title>7&#45;&gt;35</title>
<path fill="none" stroke="black" d="M842.718,-359.901C849.963,-356.697 857.548,-353.884 865,-352 1053.54,-304.346 1542.68,-353.312 1752.76,-323.926"/>
<polygon fill="black" stroke="black" points="1753.48,-327.357 1762.85,-322.418 1752.45,-320.434 1753.48,-327.357"/>
</g>
<!-- 7&#45;&gt;36 -->
<g id="edge66" class="edge"><title>7&#45;&gt;36</title>
<path fill="none" stroke="black" d="M842.71,-359.867C849.956,-356.668 857.543,-353.865 865,-352 1090.69,-295.569 1676.64,-358.56 1924.74,-323.934"/>
<polygon fill="black" stroke="black" points="1925.48,-327.363 1934.86,-322.437 1924.45,-320.438 1925.48,-327.363"/>
</g>
<!-- 7&#45;&gt;37 -->
<g id="edge68" class="edge"><title>7&#45;&gt;37</title>
<path fill="none" stroke="black" d="M844.249,-359.894C861.681,-350.222 881.761,-339.081 899.942,-328.993"/>
<polygon fill="black" stroke="black" points="901.649,-332.049 908.695,-324.137 898.252,-325.928 901.649,-332.049"/>
</g>
<!-- 7&#45;&gt;39 -->
<g id="edge70" class="edge"><title>7&#45;&gt;39</title>
<path fill="none" stroke="black" d="M844.765,-359.905C851.421,-356.911 858.292,-354.157 865,-352 937.056,-328.827 961.098,-339.541 1039.15,-324.04"/>
<polygon fill="black" stroke="black" points="1039.86,-327.467 1048.95,-322.015 1038.44,-320.612 1039.86,-327.467"/>
</g>
<!-- 26 -->
<g id="node23" class="node"><title>26</title>
<polygon fill="crimson" stroke="black" points="675,-324 547,-324 547,-274 675,-274 675,-324"/>
<text text-anchor="middle" x="611" y="-304.4" font-family="Times Roman,serif" font-size="14.00">Misc</text>
<text text-anchor="middle" x="611" y="-286.4" font-family="Times Roman,serif" font-size="14.00">evenScale</text>
</g>
<!-- 7&#45;&gt;26 -->
<g id="edge52" class="edge"><title>7&#45;&gt;26</title>
<path fill="none" stroke="black" d="M744.875,-360.241C723.042,-350.253 697.687,-338.655 674.952,-328.255"/>
<polygon fill="black" stroke="black" points="676.27,-325.009 665.72,-324.032 673.358,-331.374 676.27,-325.009"/>
</g>
<!-- 27 -->
<g id="node24" class="node"><title>27</title>
<polygon fill="crimson" stroke="black" points="529,-324 435,-324 435,-274 529,-274 529,-324"/>
<text text-anchor="middle" x="482" y="-304.4" font-family="Times Roman,serif" font-size="14.00">Misc</text>
<text text-anchor="middle" x="482" y="-286.4" font-family="Times Roman,serif" font-size="14.00">vec3f</text>
</g>
<!-- 7&#45;&gt;27 -->
<g id="edge54" class="edge"><title>7&#45;&gt;27</title>
<path fill="none" stroke="black" stroke-width="2.94591" d="M744.931,-375.483C693.748,-365.78 614.814,-349.016 538.835,-324.037"/>
<polygon fill="black" stroke="black" points="539.698,-320.635 529.104,-320.786 537.48,-327.275 539.698,-320.635"/>
</g>
<!-- 29 -->
<g id="node25" class="node"><title>29</title>
<polygon fill="crimson" stroke="black" points="853,-324 693,-324 693,-274 853,-274 853,-324"/>
<text text-anchor="middle" x="773" y="-304.4" font-family="Times Roman,serif" font-size="14.00">ProgramState</text>
<text text-anchor="middle" x="773" y="-286.4" font-family="Times Roman,serif" font-size="14.00">extractDNARef</text>
</g>
<!-- 7&#45;&gt;29 -->
<g id="edge56" class="edge"><title>7&#45;&gt;29</title>
<path fill="none" stroke="black" d="M791.34,-359.662C788.907,-351.614 786.171,-342.567 783.571,-333.964"/>
<polygon fill="black" stroke="black" points="786.85,-332.716 780.605,-324.157 780.149,-334.742 786.85,-332.716"/>
</g>
<!-- 4 -->
<g id="node27" class="node"><title>4</title>
<polygon fill="crimson" stroke="black" points="341,-410 207,-410 207,-360 341,-360 341,-410"/>
<text text-anchor="middle" x="274" y="-390.4" font-family="Times Roman,serif" font-size="14.00">DNA</text>
<text text-anchor="middle" x="274" y="-372.4" font-family="Times Roman,serif" font-size="14.00">renderDNA</text>
</g>
<!-- 7&#45;&gt;4 -->
<g id="edge50" class="edge"><title>7&#45;&gt;4</title>
<path fill="none" stroke="black" d="M744.9,-385C613.738,-385 482.576,-385 351.414,-385"/>
<polygon fill="black" stroke="black" points="351.163,-381.5 341.163,-385 351.163,-388.5 351.163,-381.5"/>
</g>
<!-- 4&#45;&gt;27 -->
<g id="edge36" class="edge"><title>4&#45;&gt;27</title>
<path fill="none" stroke="black" stroke-width="2.38629" d="M334.721,-359.894C363.378,-348.046 397.37,-333.991 425.474,-322.371"/>
<polygon fill="black" stroke="black" points="426.859,-325.586 434.763,-318.531 424.184,-319.117 426.859,-325.586"/>
</g>
<!-- 11 -->
<g id="node28" class="node"><title>11</title>
<polygon fill="crimson" stroke="black" points="223,-324 73,-324 73,-274 223,-274 223,-324"/>
<text text-anchor="middle" x="148" y="-304.4" font-family="Times Roman,serif" font-size="14.00">DoubleHelix</text>
<text text-anchor="middle" x="148" y="-286.4" font-family="Times Roman,serif" font-size="14.00">renderDHelix</text>
</g>
<!-- 4&#45;&gt;11 -->
<g id="edge28" class="edge"><title>4&#45;&gt;11</title>
<path fill="none" stroke="black" stroke-width="1.69315" d="M237.217,-359.894C223.494,-350.528 207.751,-339.783 193.348,-329.951"/>
<polygon fill="black" stroke="black" points="195.28,-327.033 185.047,-324.286 191.333,-332.814 195.28,-327.033"/>
</g>
<!-- 25 -->
<g id="node29" class="node"><title>25</title>
<polygon fill="crimson" stroke="black" points="341,-324 241,-324 241,-274 341,-274 341,-324"/>
<text text-anchor="middle" x="291" y="-304.4" font-family="Times Roman,serif" font-size="14.00">Misc</text>
<text text-anchor="middle" x="291" y="-286.4" font-family="Times Roman,serif" font-size="14.00">colour</text>
</g>
<!-- 4&#45;&gt;25 -->
<g id="edge34" class="edge"><title>4&#45;&gt;25</title>
<path fill="none" stroke="black" stroke-width="1.69315" d="M279.009,-359.662C280.582,-351.702 282.349,-342.763 284.033,-334.245"/>
<polygon fill="black" stroke="black" points="287.521,-334.646 286.027,-324.157 280.654,-333.288 287.521,-334.646"/>
</g>
<!-- 24 -->
<g id="node36" class="node"><title>24</title>
<polygon fill="crimson" stroke="black" points="497,-66 403,-66 403,-16 497,-16 497,-66"/>
<text text-anchor="middle" x="450" y="-46.4" font-family="Times Roman,serif" font-size="14.00">Math</text>
<text text-anchor="middle" x="450" y="-28.4" font-family="Times Roman,serif" font-size="14.00">phi</text>
</g>
<!-- 4&#45;&gt;24 -->
<g id="edge32" class="edge"><title>4&#45;&gt;24</title>
<path fill="none" stroke="black" d="M316.346,-359.732C329.065,-350.105 341.802,-338.021 350,-324 402.296,-234.559 337.094,-184.24 388,-94 392.301,-86.3763 398.139,-79.3442 404.522,-73.0625"/>
<polygon fill="black" stroke="black" points="407.184,-75.3716 412.206,-66.0426 402.462,-70.2037 407.184,-75.3716"/>
</g>
<!-- 23 -->
<g id="node50" class="node"><title>23</title>
<polygon fill="crimson" stroke="black" points="643,-66 539,-66 539,-16 643,-16 643,-66"/>
<text text-anchor="middle" x="591" y="-46.4" font-family="Times Roman,serif" font-size="14.00">Math</text>
<text text-anchor="middle" x="591" y="-28.4" font-family="Times Roman,serif" font-size="14.00">fromTo</text>
</g>
<!-- 4&#45;&gt;23 -->
<g id="edge30" class="edge"><title>4&#45;&gt;23</title>
<path fill="none" stroke="black" d="M322.75,-359.997C340.113,-349.974 359.251,-337.575 375,-324 400.345,-302.154 400.596,-290.853 423,-266 467.19,-216.978 487.869,-213.148 527,-160 546.523,-133.484 563.878,-100.27 575.573,-75.6741"/>
<polygon fill="black" stroke="black" points="578.857,-76.912 579.923,-66.3708 572.516,-73.9471 578.857,-76.912"/>
</g>
<!-- 16 -->
<g id="node31" class="node"><title>16</title>
<polygon fill="crimson" stroke="black" points="279,-238 141,-238 141,-188 279,-188 279,-238"/>
<text text-anchor="middle" x="210" y="-218.4" font-family="Times Roman,serif" font-size="14.00">Helix</text>
<text text-anchor="middle" x="210" y="-200.4" font-family="Times Roman,serif" font-size="14.00">renderHelix</text>
</g>
<!-- 11&#45;&gt;16 -->
<g id="edge74" class="edge"><title>11&#45;&gt;16</title>
<path fill="none" stroke="chartreuse" stroke-width="1.69315" d="M166.267,-273.662C172.447,-265.089 179.445,-255.382 186.002,-246.287"/>
<polygon fill="chartreuse" stroke="chartreuse" points="188.855,-248.315 191.864,-238.157 183.177,-244.222 188.855,-248.315"/>
</g>
<!-- 16&#45;&gt;27 -->
<g id="edge88" class="edge"><title>16&#45;&gt;27</title>
<path fill="none" stroke="black" stroke-width="2.09861" d="M279.174,-234.871C324.422,-249.177 382.803,-267.636 425.303,-281.074"/>
<polygon fill="black" stroke="black" points="424.342,-284.441 434.932,-284.118 426.452,-277.766 424.342,-284.441"/>
</g>
<!-- 22 -->
<g id="node32" class="node"><title>22</title>
<polygon fill="crimson" stroke="black" points="194,-152 16,-152 16,-102 194,-102 194,-152"/>
<text text-anchor="middle" x="105" y="-132.4" font-family="Times Roman,serif" font-size="14.00">Math</text>
<text text-anchor="middle" x="105" y="-114.4" font-family="Times Roman,serif" font-size="14.00">distanceBetween</text>
</g>
<!-- 16&#45;&gt;22 -->
<g id="edge86" class="edge"><title>16&#45;&gt;22</title>
<path fill="none" stroke="black" stroke-width="1.69315" d="M179.347,-187.894C168.232,-178.79 155.527,-168.384 143.802,-158.78"/>
<polygon fill="black" stroke="black" points="145.827,-155.915 135.872,-152.286 141.391,-161.33 145.827,-155.915"/>
</g>
<!-- 28 -->
<g id="node33" class="node"><title>28</title>
<polygon fill="crimson" stroke="black" points="310,-152 212,-152 212,-102 310,-102 310,-152"/>
<text text-anchor="middle" x="261" y="-132.4" font-family="Times Roman,serif" font-size="14.00">Misc</text>
<text text-anchor="middle" x="261" y="-114.4" font-family="Times Roman,serif" font-size="14.00">ver3d</text>
</g>
<!-- 16&#45;&gt;28 -->
<g id="edge90" class="edge"><title>16&#45;&gt;28</title>
<path fill="none" stroke="black" d="M225.026,-187.662C230.006,-179.264 235.632,-169.778 240.929,-160.845"/>
<polygon fill="black" stroke="black" points="243.991,-162.543 246.082,-152.157 237.97,-158.973 243.991,-162.543"/>
</g>
<!-- 14&#45;&gt;24 -->
<g id="edge82" class="edge"><title>14&#45;&gt;24</title>
<path fill="none" stroke="black" d="M454.232,-101.662C453.677,-93.7016 453.053,-84.7633 452.459,-76.2449"/>
<polygon fill="black" stroke="black" points="455.943,-75.8887 451.755,-66.1566 448.96,-76.376 455.943,-75.8887"/>
</g>
<!-- 12 -->
<g id="node38" class="node"><title>12</title>
<polygon fill="crimson" stroke="black" points="2397,-66 2265,-66 2261,-62 2261,-16 2393,-16 2397,-20 2397,-66"/>
<polyline fill="none" stroke="black" points="2393,-62 2261,-62 "/>
<polyline fill="none" stroke="black" points="2393,-62 2393,-16 "/>
<polyline fill="none" stroke="black" points="2393,-62 2397,-66 "/>
<text text-anchor="middle" x="2329" y="-46.4" font-family="Times Roman,serif" font-size="14.00">Helix</text>
<text text-anchor="middle" x="2329" y="-28.4" font-family="Times Roman,serif" font-size="14.00">Data: Helix</text>
</g>
<!-- 14&#45;&gt;12 -->
<g id="edge78" class="edge"><title>14&#45;&gt;12</title>
<path fill="none" stroke="black" d="M515.149,-124.284C789.521,-111.686 1938.12,-58.9477 2250.36,-44.6108"/>
<polygon fill="black" stroke="black" points="2250.84,-48.0923 2260.67,-44.1373 2250.52,-41.0997 2250.84,-48.0923"/>
</g>
<!-- 14&#45;&gt;23 -->
<g id="edge80" class="edge"><title>14&#45;&gt;23</title>
<path fill="none" stroke="black" d="M495.41,-101.894C510.251,-92.4401 527.296,-81.5816 542.846,-71.6761"/>
<polygon fill="black" stroke="black" points="544.753,-74.6108 551.307,-66.286 540.992,-68.707 544.753,-74.6108"/>
</g>
<!-- 15&#45;&gt;12 -->
<g id="edge84" class="edge"><title>15&#45;&gt;12</title>
<path fill="none" stroke="black" d="M2331.12,-101.662C2330.84,-93.7016 2330.53,-84.7633 2330.23,-76.2449"/>
<polygon fill="black" stroke="black" points="2333.72,-76.0285 2329.88,-66.1566 2326.73,-76.2726 2333.72,-76.0285"/>
</g>
<!-- 6&#45;&gt;31 -->
<g id="edge46" class="edge"><title>6&#45;&gt;31</title>
<path fill="none" stroke="black" d="M2965.79,-359.884C2958.35,-356.727 2950.59,-353.933 2943,-352 2712.68,-293.376 2643.82,-360.656 2409,-324 2408.39,-323.905 2407.79,-323.809 2407.18,-323.71"/>
<polygon fill="black" stroke="black" points="2407.67,-320.241 2397.21,-321.927 2406.43,-327.132 2407.67,-320.241"/>
</g>
<!-- 6&#45;&gt;5 -->
<g id="edge42" class="edge"><title>6&#45;&gt;5</title>
<path fill="none" stroke="black" d="M2975.53,-410.058C2962.94,-417.328 2948.38,-424.3 2934,-428 2898.6,-437.112 2640.67,-436.003 2605,-428 2591.96,-425.074 2578.58,-420.056 2566.24,-414.459"/>
<polygon fill="black" stroke="black" points="2567.56,-411.212 2557.03,-410.091 2564.56,-417.537 2567.56,-411.212"/>
</g>
<!-- 6&#45;&gt;29 -->
<g id="edge44" class="edge"><title>6&#45;&gt;29</title>
<path fill="none" stroke="black" d="M2966.61,-359.94C2958.93,-356.684 2950.89,-353.845 2943,-352 2718.16,-299.405 1093.67,-356.085 865,-324 864.385,-323.914 863.769,-323.825 863.151,-323.733"/>
<polygon fill="black" stroke="black" points="863.477,-320.238 853.033,-322.022 862.31,-327.14 863.477,-320.238"/>
</g>
<!-- 6&#45;&gt;38 -->
<g id="edge48" class="edge"><title>6&#45;&gt;38</title>
<path fill="none" stroke="black" stroke-width="1.69315" d="M3021.43,-359.662C3024.46,-351.527 3027.86,-342.37 3031.09,-333.684"/>
<polygon fill="black" stroke="black" points="3034.43,-334.749 3034.64,-324.157 3027.87,-332.308 3034.43,-334.749"/>
</g>
<!-- 9 -->
<g id="node44" class="node"><title>9</title>
<polygon fill="crimson" stroke="black" points="3109,-496 2955,-496 2955,-446 3109,-446 3109,-496"/>
<text text-anchor="middle" x="3032" y="-476.4" font-family="Times Roman,serif" font-size="14.00">DoubleHelix</text>
<text text-anchor="middle" x="3032" y="-458.4" font-family="Times Roman,serif" font-size="14.00">extractHeight</text>
</g>
<!-- 13 -->
<g id="node46" class="node"><title>13</title>
<polygon fill="crimson" stroke="black" points="3109,-152 2955,-152 2955,-102 3109,-102 3109,-152"/>
<text text-anchor="middle" x="3032" y="-132.4" font-family="Times Roman,serif" font-size="14.00">Helix</text>
<text text-anchor="middle" x="3032" y="-114.4" font-family="Times Roman,serif" font-size="14.00">extractHeight</text>
</g>
<!-- 13&#45;&gt;12 -->
<g id="edge76" class="edge"><title>13&#45;&gt;12</title>
<path fill="none" stroke="black" d="M2970.89,-101.905C2961.66,-98.8313 2952.17,-96.0553 2943,-94 2843.12,-71.6034 2549.55,-53.0788 2407.62,-45.1494"/>
<polygon fill="black" stroke="black" points="2407.43,-41.6337 2397.25,-44.5741 2407.04,-48.623 2407.43,-41.6337"/>
</g>
<!-- 20 -->
<g id="node48" class="node"><title>20</title>
<polygon fill="gold" stroke="black" points="3225,-496 3133,-496 3133,-446 3225,-446 3225,-496"/>
<text text-anchor="middle" x="3179" y="-476.4" font-family="Times Roman,serif" font-size="14.00">Main</text>
<text text-anchor="middle" x="3179" y="-458.4" font-family="Times Roman,serif" font-size="14.00">main</text>
</g>
<!-- 23&#45;&gt;23 -->
<g id="edge132" class="edge"><title>23&#45;&gt;23</title>
<path fill="none" stroke="black" d="M643.202,-56.4597C653.592,-54.7196 661,-49.5664 661,-41 661,-35.5121 657.96,-31.4251 653.043,-28.7387"/>
<polygon fill="black" stroke="black" points="653.795,-25.3029 643.202,-25.5403 651.631,-31.9601 653.795,-25.3029"/>
</g>
<!-- 30 -->
<g id="node52" class="node"><title>30</title>
<polygon fill="crimson" stroke="black" points="3453,-496 3249,-496 3249,-446 3453,-446 3453,-496"/>
<text text-anchor="middle" x="3351" y="-476.4" font-family="Times Roman,serif" font-size="14.00">ProgramState</text>
<text text-anchor="middle" x="3351" y="-458.4" font-family="Times Roman,serif" font-size="14.00">extractInteractiveRef</text>
</g>
</g>
</svg>
