<?xml version="1.0" encoding="UTF-8" standalone="no"?>
<!DOCTYPE svg PUBLIC "-//W3C//DTD SVG 1.1//EN"
 "http://www.w3.org/Graphics/SVG/1.1/DTD/svg11.dtd">
<!-- Generated by graphviz version 2.26.3 (20100126.1600)
 -->
<!-- Title: Current module groupings Pages: 1 -->
<svg width="3615pt" height="588pt"
 viewBox="0.00 0.00 3614.87 588.00" xmlns="http://www.w3.org/2000/svg" xmlns:xlink="http://www.w3.org/1999/xlink">
<g id="graph1" class="graph" transform="scale(1 1) rotate(0) translate(4 584)">
<title>Current module groupings</title>
<polygon fill="white" stroke="white" points="-4,5 -4,-584 3611.87,-584 3611.87,5 -4,5"/>
<g id="graph2" class="cluster"><title>cluster_DNA</title>
<polygon fill="lavender" stroke="black" points="134.873,-94 134.873,-408 448.873,-408 448.873,-94 134.873,-94"/>
<text text-anchor="middle" x="291.873" y="-391.4" font-family="Times Roman,serif" font-size="14.00">DNA</text>
</g>
<g id="graph3" class="cluster"><title>cluster_Display</title>
<polygon fill="lavender" stroke="black" points="1263.87,-416 1263.87,-494 1697.87,-494 1697.87,-416 1263.87,-416"/>
<text text-anchor="middle" x="1480.87" y="-477.4" font-family="Times Roman,serif" font-size="14.00">Display</text>
</g>
<g id="graph4" class="cluster"><title>cluster_DoubleHelix</title>
<polygon fill="lavender" stroke="black" points="514.873,-180 514.873,-258 1000.87,-258 1000.87,-180 514.873,-180"/>
<text text-anchor="middle" x="757.873" y="-241.4" font-family="Times Roman,serif" font-size="14.00">DoubleHelix</text>
</g>
<g id="graph5" class="cluster"><title>cluster_Helix</title>
<polygon fill="lavender" stroke="black" points="456.873,-8 456.873,-172 1058.87,-172 1058.87,-8 456.873,-8"/>
<text text-anchor="middle" x="757.873" y="-155.4" font-family="Times Roman,serif" font-size="14.00">Helix</text>
</g>
<g id="graph6" class="cluster"><title>cluster_Input</title>
<polygon fill="lavender" stroke="black" points="3476.87,-330 3476.87,-494 3598.87,-494 3598.87,-330 3476.87,-330"/>
<text text-anchor="middle" x="3537.87" y="-477.4" font-family="Times Roman,serif" font-size="14.00">Input</text>
</g>
<g id="graph7" class="cluster"><title>cluster_Main</title>
<polygon fill="lavender" stroke="black" points="13.8731,-416 13.8731,-572 219.873,-572 219.873,-416 13.8731,-416"/>
<text text-anchor="middle" x="116.873" y="-555.4" font-family="Times Roman,serif" font-size="14.00">Main</text>
</g>
<g id="graph8" class="cluster"><title>cluster_Math</title>
<polygon fill="lavender" stroke="black" points="1066.87,-8 1066.87,-86 1498.87,-86 1498.87,-8 1066.87,-8"/>
<text text-anchor="middle" x="1282.87" y="-69.4" font-family="Times Roman,serif" font-size="14.00">Math</text>
</g>
<g id="graph9" class="cluster"><title>cluster_Misc</title>
<polygon fill="lavender" stroke="black" points="1506.87,-8 1506.87,-86 1996.87,-86 1996.87,-8 1506.87,-8"/>
<text text-anchor="middle" x="1751.87" y="-69.4" font-family="Times Roman,serif" font-size="14.00">Misc</text>
</g>
<g id="graph10" class="cluster"><title>cluster_ProgramState</title>
<polygon fill="lavender" stroke="black" points="1288.87,-330 1288.87,-408 3468.87,-408 3468.87,-330 1288.87,-330"/>
<text text-anchor="middle" x="2378.87" y="-391.4" font-family="Times Roman,serif" font-size="14.00">ProgramState</text>
</g>
<!-- 1 -->
<g id="node2" class="node"><title>1</title>
<polygon fill="crimson" stroke="black" points="310.873,-138 182.873,-138 178.873,-134 178.873,-102 306.873,-102 310.873,-106 310.873,-138"/>
<polyline fill="none" stroke="black" points="306.873,-134 178.873,-134 "/>
<polyline fill="none" stroke="black" points="306.873,-134 306.873,-102 "/>
<polyline fill="none" stroke="black" points="306.873,-134 310.873,-138 "/>
<text text-anchor="middle" x="244.873" y="-116.4" font-family="Times Roman,serif" font-size="14.00">Data: DNA</text>
</g>
<!-- 2 -->
<g id="node3" class="node"><title>2</title>
<polygon fill="crimson" stroke="black" points="337.873,-302 221.873,-302 221.873,-266 337.873,-266 337.873,-302"/>
<text text-anchor="middle" x="279.873" y="-280.4" font-family="Times Roman,serif" font-size="14.00">genDNA</text>
</g>
<!-- 2&#45;&gt;1 -->
<g id="edge11" class="edge"><title>2&#45;&gt;1</title>
<path fill="none" stroke="black" stroke-width="1.69315" d="M280.356,-265.655C280.476,-244.632 279.35,-209.303 271.873,-180 269.027,-168.844 264.237,-157.173 259.474,-147.12"/>
<polygon fill="black" stroke="black" points="262.556,-145.456 254.981,-138.048 256.283,-148.563 262.556,-145.456"/>
</g>
<!-- 2&#45;&gt;2 -->
<g id="edge13" class="edge"><title>2&#45;&gt;2</title>
<path fill="none" stroke="black" d="M338.185,-296.708C348.599,-295.056 355.873,-290.82 355.873,-284 355.873,-279.631 352.888,-276.322 348.004,-274.074"/>
<polygon fill="black" stroke="black" points="348.76,-270.65 338.185,-271.292 346.852,-277.385 348.76,-270.65"/>
</g>
<!-- 3 -->
<g id="node4" class="node"><title>3</title>
<polygon fill="crimson" stroke="black" points="262.873,-224 142.873,-224 142.873,-188 262.873,-188 262.873,-224"/>
<text text-anchor="middle" x="202.873" y="-202.4" font-family="Times Roman,serif" font-size="14.00">newDNA</text>
</g>
<!-- 2&#45;&gt;3 -->
<g id="edge15" class="edge"><title>2&#45;&gt;3</title>
<path fill="none" stroke="black" d="M262.014,-265.909C251.979,-255.744 239.288,-242.888 228.237,-231.694"/>
<polygon fill="black" stroke="black" points="230.418,-228.921 220.902,-224.263 225.436,-233.838 230.418,-228.921"/>
</g>
<!-- 10 -->
<g id="node13" class="node"><title>10</title>
<polygon fill="crimson" stroke="black" points="652.873,-224 522.873,-224 522.873,-188 652.873,-188 652.873,-224"/>
<text text-anchor="middle" x="587.873" y="-202.4" font-family="Times Roman,serif" font-size="14.00">genDHelix</text>
</g>
<!-- 2&#45;&gt;10 -->
<g id="edge17" class="edge"><title>2&#45;&gt;10</title>
<path fill="none" stroke="black" d="M338.184,-278.451C372.038,-274.435 415.288,-267.935 452.873,-258 481.94,-250.317 513.342,-238.449 538.539,-227.99"/>
<polygon fill="black" stroke="black" points="540.015,-231.166 547.875,-224.062 537.3,-224.714 540.015,-231.166"/>
</g>
<!-- 15 -->
<g id="node19" class="node"><title>15</title>
<polygon fill="crimson" stroke="black" points="758.873,-138 636.873,-138 636.873,-102 758.873,-102 758.873,-138"/>
<text text-anchor="middle" x="697.873" y="-116.4" font-family="Times Roman,serif" font-size="14.00">newHelix</text>
</g>
<!-- 2&#45;&gt;15 -->
<g id="edge19" class="edge"><title>2&#45;&gt;15</title>
<path fill="none" stroke="black" d="M310.718,-265.809C353.842,-241.401 435.363,-198.931 510.873,-180 561.43,-167.325 578.976,-190.048 627.873,-172 644.067,-166.023 659.722,-155.054 672.106,-144.726"/>
<polygon fill="black" stroke="black" points="674.49,-147.291 679.744,-138.091 669.9,-142.007 674.49,-147.291"/>
</g>
<!-- 3&#45;&gt;1 -->
<g id="edge21" class="edge"><title>3&#45;&gt;1</title>
<path fill="none" stroke="black" d="M211.78,-187.762C217.516,-176.018 225.077,-160.535 231.523,-147.335"/>
<polygon fill="black" stroke="black" points="234.735,-148.734 235.979,-138.212 228.445,-145.662 234.735,-148.734"/>
</g>
<!-- 4 -->
<g id="node5" class="node"><title>4</title>
<polygon fill="crimson" stroke="black" points="440.873,-374 306.873,-374 306.873,-338 440.873,-338 440.873,-374"/>
<text text-anchor="middle" x="373.873" y="-352.4" font-family="Times Roman,serif" font-size="14.00">renderDNA</text>
</g>
<!-- 11 -->
<g id="node14" class="node"><title>11</title>
<polygon fill="crimson" stroke="black" points="820.873,-224 670.873,-224 670.873,-188 820.873,-188 820.873,-224"/>
<text text-anchor="middle" x="745.873" y="-202.4" font-family="Times Roman,serif" font-size="14.00">renderDHelix</text>
</g>
<!-- 4&#45;&gt;11 -->
<g id="edge23" class="edge"><title>4&#45;&gt;11</title>
<path fill="none" stroke="black" stroke-width="1.69315" d="M440.736,-337.929C500.202,-320.769 588.802,-292.503 661.873,-258 678.857,-249.98 696.681,-239.307 711.519,-229.717"/>
<polygon fill="black" stroke="black" points="713.445,-232.64 719.881,-224.224 709.602,-226.789 713.445,-232.64"/>
</g>
<!-- 23 -->
<g id="node30" class="node"><title>23</title>
<polygon fill="crimson" stroke="black" points="1472.87,-52 1368.87,-52 1368.87,-16 1472.87,-16 1472.87,-52"/>
<text text-anchor="middle" x="1420.87" y="-30.4" font-family="Times Roman,serif" font-size="14.00">fromTo</text>
</g>
<!-- 4&#45;&gt;23 -->
<g id="edge25" class="edge"><title>4&#45;&gt;23</title>
<path fill="none" stroke="black" d="M441.042,-352.359C570.943,-344.873 852.049,-326.389 945.873,-302 992.868,-289.784 1009.53,-290.2 1045.87,-258 1079.13,-228.531 1074.62,-210.466 1096.87,-172 1116.8,-137.547 1106.88,-114.697 1140.87,-94 1161.67,-81.3382 1337.18,-94.8328 1359.87,-86 1374.48,-80.3131 1388.05,-69.5613 1398.66,-59.3036"/>
<polygon fill="black" stroke="black" points="1401.32,-61.587 1405.83,-52.0013 1396.33,-56.6805 1401.32,-61.587"/>
</g>
<!-- 24 -->
<g id="node31" class="node"><title>24</title>
<polygon fill="crimson" stroke="black" points="1350.87,-52 1270.87,-52 1270.87,-16 1350.87,-16 1350.87,-52"/>
<text text-anchor="middle" x="1310.87" y="-30.4" font-family="Times Roman,serif" font-size="14.00">phi</text>
</g>
<!-- 4&#45;&gt;24 -->
<g id="edge27" class="edge"><title>4&#45;&gt;24</title>
<path fill="none" stroke="black" d="M441.015,-352.316C583.771,-343.417 911.988,-316.983 1004.87,-258 1043.79,-233.286 1039.42,-211.693 1062.87,-172 1082.69,-138.457 1070.15,-115.142 1102.87,-94 1132.59,-74.8015 1229.76,-100.834 1261.87,-86 1274.1,-80.3518 1284.77,-70.1385 1293.01,-60.2495"/>
<polygon fill="black" stroke="black" points="1295.95,-62.167 1299.33,-52.1263 1290.43,-57.8666 1295.95,-62.167"/>
</g>
<!-- 25 -->
<g id="node33" class="node"><title>25</title>
<polygon fill="crimson" stroke="black" points="1730.87,-52 1630.87,-52 1630.87,-16 1730.87,-16 1730.87,-52"/>
<text text-anchor="middle" x="1680.87" y="-30.4" font-family="Times Roman,serif" font-size="14.00">colour</text>
</g>
<!-- 4&#45;&gt;25 -->
<g id="edge29" class="edge"><title>4&#45;&gt;25</title>
<path fill="none" stroke="black" stroke-width="1.69315" d="M441.133,-353.813C581.452,-348.67 900.979,-333.771 1004.87,-302 1043.31,-290.247 1055.22,-286.178 1083.87,-258 1087.63,-254.309 1174.34,-96.6701 1178.87,-94 1200.09,-81.5157 1598.93,-94.9067 1621.87,-86 1636.21,-80.4344 1649.36,-69.6971 1659.58,-59.4177"/>
<polygon fill="black" stroke="black" points="1662.17,-61.7713 1666.49,-52.0941 1657.08,-56.9695 1662.17,-61.7713"/>
</g>
<!-- 27 -->
<g id="node35" class="node"><title>27</title>
<polygon fill="crimson" stroke="black" points="1842.87,-52 1748.87,-52 1748.87,-16 1842.87,-16 1842.87,-52"/>
<text text-anchor="middle" x="1795.87" y="-30.4" font-family="Times Roman,serif" font-size="14.00">vec3f</text>
</g>
<!-- 4&#45;&gt;27 -->
<g id="edge31" class="edge"><title>4&#45;&gt;27</title>
<path fill="none" stroke="black" stroke-width="2.38629" d="M441.011,-354.959C589.755,-351.962 942.74,-340.856 1054.87,-302 1088.18,-290.457 1096.68,-283.646 1120.87,-258 1122.68,-256.08 1214.59,-95.3303 1216.87,-94 1241.97,-79.3536 1712.91,-96.8281 1739.87,-86 1753.61,-80.4846 1766.01,-69.9008 1775.63,-59.7136"/>
<polygon fill="black" stroke="black" points="1778.38,-61.8864 1782.42,-52.0912 1773.15,-57.2303 1778.38,-61.8864"/>
</g>
<!-- 5 -->
<g id="node6" class="node"><title>5</title>
<polygon fill="crimson" stroke="black" points="288.873,-374 142.873,-374 142.873,-338 288.873,-338 288.873,-374"/>
<text text-anchor="middle" x="215.873" y="-352.4" font-family="Times Roman,serif" font-size="14.00">updateModel</text>
</g>
<!-- 5&#45;&gt;2 -->
<g id="edge33" class="edge"><title>5&#45;&gt;2</title>
<path fill="none" stroke="black" d="M232.023,-337.831C239.545,-329.369 248.63,-319.149 256.853,-309.897"/>
<polygon fill="black" stroke="black" points="259.478,-312.213 263.506,-302.413 254.246,-307.562 259.478,-312.213"/>
</g>
<!-- 5&#45;&gt;3 -->
<g id="edge35" class="edge"><title>5&#45;&gt;3</title>
<path fill="none" stroke="black" d="M214.305,-337.906C212.07,-312.117 207.947,-264.548 205.311,-234.136"/>
<polygon fill="black" stroke="black" points="208.797,-233.818 204.447,-224.158 201.823,-234.423 208.797,-233.818"/>
</g>
<!-- 6 -->
<g id="node8" class="node"><title>6</title>
<polygon fill="crimson" stroke="black" points="1565.87,-460 1451.87,-460 1451.87,-424 1565.87,-424 1565.87,-460"/>
<text text-anchor="middle" x="1508.87" y="-438.4" font-family="Times Roman,serif" font-size="14.00">animate</text>
</g>
<!-- 6&#45;&gt;5 -->
<g id="edge37" class="edge"><title>6&#45;&gt;5</title>
<path fill="none" stroke="black" d="M1469.8,-423.887C1461.11,-420.634 1451.82,-417.731 1442.87,-416 1380.42,-403.916 358.901,-425.95 297.873,-408 278.947,-402.433 260.188,-391.089 245.398,-380.412"/>
<polygon fill="black" stroke="black" points="247.279,-377.448 237.178,-374.252 243.082,-383.05 247.279,-377.448"/>
</g>
<!-- 29 -->
<g id="node38" class="node"><title>29</title>
<polygon fill="crimson" stroke="black" points="1652.87,-374 1492.87,-374 1492.87,-338 1652.87,-338 1652.87,-374"/>
<text text-anchor="middle" x="1572.87" y="-352.4" font-family="Times Roman,serif" font-size="14.00">extractDNARef</text>
</g>
<!-- 6&#45;&gt;29 -->
<g id="edge39" class="edge"><title>6&#45;&gt;29</title>
<path fill="none" stroke="black" d="M1522.45,-423.762C1531.36,-411.79 1543.16,-395.933 1553.1,-382.569"/>
<polygon fill="black" stroke="black" points="1556.16,-384.324 1559.32,-374.212 1550.54,-380.145 1556.16,-384.324"/>
</g>
<!-- 31 -->
<g id="node40" class="node"><title>31</title>
<polygon fill="crimson" stroke="black" points="1836.87,-374 1670.87,-374 1670.87,-338 1836.87,-338 1836.87,-374"/>
<text text-anchor="middle" x="1753.87" y="-352.4" font-family="Times Roman,serif" font-size="14.00">extractLevelRef</text>
</g>
<!-- 6&#45;&gt;31 -->
<g id="edge41" class="edge"><title>6&#45;&gt;31</title>
<path fill="none" stroke="black" d="M1549.49,-423.928C1557.75,-420.842 1566.49,-417.995 1574.87,-416 1612.65,-407.016 1624.81,-419.589 1661.87,-408 1682.26,-401.624 1703.14,-390.291 1719.84,-379.829"/>
<polygon fill="black" stroke="black" points="1722.15,-382.503 1728.66,-374.143 1718.35,-376.62 1722.15,-382.503"/>
</g>
<!-- 38 -->
<g id="node47" class="node"><title>38</title>
<polygon fill="crimson" stroke="black" points="1474.87,-374 1296.87,-374 1296.87,-338 1474.87,-338 1474.87,-374"/>
<text text-anchor="middle" x="1385.87" y="-352.4" font-family="Times Roman,serif" font-size="14.00">extractUpdateRef</text>
</g>
<!-- 6&#45;&gt;38 -->
<g id="edge43" class="edge"><title>6&#45;&gt;38</title>
<path fill="none" stroke="black" stroke-width="1.69315" d="M1483.09,-423.972C1464.72,-411.129 1439.85,-393.738 1419.86,-379.762"/>
<polygon fill="black" stroke="black" points="1421.82,-376.866 1411.62,-374.005 1417.81,-382.603 1421.82,-376.866"/>
</g>
<!-- 7 -->
<g id="node9" class="node"><title>7</title>
<polygon fill="crimson" stroke="black" points="1689.87,-460 1583.87,-460 1583.87,-424 1689.87,-424 1689.87,-460"/>
<text text-anchor="middle" x="1636.87" y="-438.4" font-family="Times Roman,serif" font-size="14.00">display</text>
</g>
<!-- 7&#45;&gt;4 -->
<g id="edge45" class="edge"><title>7&#45;&gt;4</title>
<path fill="none" stroke="black" d="M1600.23,-423.988C1592.07,-420.729 1583.32,-417.798 1574.87,-416 1535.96,-407.717 1256.63,-409.67 1216.87,-408 934.668,-396.148 599.864,-372.691 451.395,-361.803"/>
<polygon fill="black" stroke="black" points="451.26,-358.284 441.031,-361.041 450.747,-365.265 451.26,-358.284"/>
</g>
<!-- 26 -->
<g id="node34" class="node"><title>26</title>
<polygon fill="crimson" stroke="black" points="1988.87,-52 1860.87,-52 1860.87,-16 1988.87,-16 1988.87,-52"/>
<text text-anchor="middle" x="1924.87" y="-30.4" font-family="Times Roman,serif" font-size="14.00">evenScale</text>
</g>
<!-- 7&#45;&gt;26 -->
<g id="edge47" class="edge"><title>7&#45;&gt;26</title>
<path fill="none" stroke="black" d="M1599.89,-423.889C1591.82,-420.681 1583.2,-417.796 1574.87,-416 1559.12,-412.603 1296.83,-418.808 1284.87,-408 1243.65,-370.736 1268.87,-339.568 1268.87,-284 1268.87,-284 1268.87,-284 1268.87,-206 1268.87,-73.7285 1730.62,-138.843 1851.87,-86 1867.67,-79.1159 1883.46,-68.4569 1896.29,-58.5772"/>
<polygon fill="black" stroke="black" points="1898.61,-61.2037 1904.27,-52.2448 1894.26,-55.7211 1898.61,-61.2037"/>
</g>
<!-- 7&#45;&gt;27 -->
<g id="edge49" class="edge"><title>7&#45;&gt;27</title>
<path fill="none" stroke="black" stroke-width="2.94591" d="M1599.89,-423.873C1591.83,-420.666 1583.2,-417.785 1574.87,-416 1557.48,-412.275 1268.45,-419.488 1254.87,-408 1212.02,-371.739 1230.87,-340.134 1230.87,-284 1230.87,-284 1230.87,-284 1230.87,-206 1230.87,-155.092 1215.55,-126.33 1254.87,-94 1275.69,-76.8861 1714.87,-96.0565 1739.87,-86 1753.61,-80.4764 1766,-69.8916 1775.62,-59.7058"/>
<polygon fill="black" stroke="black" points="1778.37,-61.8794 1782.41,-52.0848 1773.15,-57.2227 1778.37,-61.8794"/>
</g>
<!-- 7&#45;&gt;29 -->
<g id="edge51" class="edge"><title>7&#45;&gt;29</title>
<path fill="none" stroke="black" d="M1623.3,-423.762C1614.39,-411.79 1602.59,-395.933 1592.64,-382.569"/>
<polygon fill="black" stroke="black" points="1595.2,-380.145 1586.43,-374.212 1589.59,-384.324 1595.2,-380.145"/>
</g>
<!-- 32 -->
<g id="node41" class="node"><title>32</title>
<polygon fill="crimson" stroke="black" points="3460.87,-374 3294.87,-374 3294.87,-338 3460.87,-338 3460.87,-374"/>
<text text-anchor="middle" x="3377.87" y="-352.4" font-family="Times Roman,serif" font-size="14.00">extractModeRef</text>
</g>
<!-- 7&#45;&gt;32 -->
<g id="edge53" class="edge"><title>7&#45;&gt;32</title>
<path fill="none" stroke="black" d="M1690.26,-441.633C1964.75,-439.655 3207.3,-429.538 3285.87,-408 3306.97,-402.218 3328.37,-390.544 3345.21,-379.719"/>
<polygon fill="black" stroke="black" points="3347.18,-382.614 3353.58,-374.172 3343.31,-376.78 3347.18,-382.614"/>
</g>
<!-- 33 -->
<g id="node42" class="node"><title>33</title>
<polygon fill="crimson" stroke="black" points="2536.87,-374 2386.87,-374 2386.87,-338 2536.87,-338 2536.87,-374"/>
<text text-anchor="middle" x="2461.87" y="-352.4" font-family="Times Roman,serif" font-size="14.00">extractRXRef</text>
</g>
<!-- 7&#45;&gt;33 -->
<g id="edge55" class="edge"><title>7&#45;&gt;33</title>
<path fill="none" stroke="black" d="M1690.08,-441.105C1848.93,-438.217 2312.78,-428.14 2377.87,-408 2396.91,-402.109 2415.97,-390.853 2431.11,-380.316"/>
<polygon fill="black" stroke="black" points="2433.48,-382.926 2439.55,-374.241 2429.39,-377.247 2433.48,-382.926"/>
</g>
<!-- 34 -->
<g id="node43" class="node"><title>34</title>
<polygon fill="crimson" stroke="black" points="2202.87,-374 2056.87,-374 2056.87,-338 2202.87,-338 2202.87,-374"/>
<text text-anchor="middle" x="2129.87" y="-352.4" font-family="Times Roman,serif" font-size="14.00">extractRYRef</text>
</g>
<!-- 7&#45;&gt;34 -->
<g id="edge57" class="edge"><title>7&#45;&gt;34</title>
<path fill="none" stroke="black" d="M1689.99,-440.756C1785.65,-437.997 1982.97,-429.787 2047.87,-408 2066.31,-401.812 2084.78,-390.642 2099.51,-380.236"/>
<polygon fill="black" stroke="black" points="2101.71,-382.964 2107.72,-374.241 2097.58,-377.31 2101.71,-382.964"/>
</g>
<!-- 35 -->
<g id="node44" class="node"><title>35</title>
<polygon fill="crimson" stroke="black" points="2868.87,-374 2720.87,-374 2720.87,-338 2868.87,-338 2868.87,-374"/>
<text text-anchor="middle" x="2794.87" y="-352.4" font-family="Times Roman,serif" font-size="14.00">extractRZRef</text>
</g>
<!-- 7&#45;&gt;35 -->
<g id="edge59" class="edge"><title>7&#45;&gt;35</title>
<path fill="none" stroke="black" d="M1689.96,-441.091C1899.83,-437.399 2662.61,-423.004 2711.87,-408 2730.91,-402.202 2749.89,-390.838 2764.88,-380.208"/>
<polygon fill="black" stroke="black" points="2767.23,-382.823 2773.22,-374.082 2763.09,-377.182 2767.23,-382.823"/>
</g>
<!-- 36 -->
<g id="node45" class="node"><title>36</title>
<polygon fill="crimson" stroke="black" points="2368.87,-374 2220.87,-374 2220.87,-338 2368.87,-338 2368.87,-374"/>
<text text-anchor="middle" x="2294.87" y="-352.4" font-family="Times Roman,serif" font-size="14.00">extractTXRef</text>
</g>
<!-- 7&#45;&gt;36 -->
<g id="edge61" class="edge"><title>7&#45;&gt;36</title>
<path fill="none" stroke="black" d="M1689.94,-440.363C1822.88,-436.05 2163,-423.623 2211.87,-408 2230.69,-401.984 2249.53,-390.717 2264.49,-380.204"/>
<polygon fill="black" stroke="black" points="2266.79,-382.859 2272.82,-374.147 2262.67,-377.197 2266.79,-382.859"/>
</g>
<!-- 37 -->
<g id="node46" class="node"><title>37</title>
<polygon fill="crimson" stroke="black" points="2702.87,-374 2554.87,-374 2554.87,-338 2702.87,-338 2702.87,-374"/>
<text text-anchor="middle" x="2628.87" y="-352.4" font-family="Times Roman,serif" font-size="14.00">extractTYRef</text>
</g>
<!-- 7&#45;&gt;37 -->
<g id="edge63" class="edge"><title>7&#45;&gt;37</title>
<path fill="none" stroke="black" d="M1689.91,-441.612C1871.9,-440.059 2464.27,-433.111 2545.87,-408 2564.89,-402.147 2583.87,-390.778 2598.87,-380.16"/>
<polygon fill="black" stroke="black" points="2601.21,-382.778 2607.21,-374.042 2597.07,-377.134 2601.21,-382.778"/>
</g>
<!-- 39 -->
<g id="node48" class="node"><title>39</title>
<polygon fill="crimson" stroke="black" points="3054.87,-374 2886.87,-374 2886.87,-338 3054.87,-338 3054.87,-374"/>
<text text-anchor="middle" x="2970.87" y="-352.4" font-family="Times Roman,serif" font-size="14.00">extractZoomRef</text>
</g>
<!-- 7&#45;&gt;39 -->
<g id="edge65" class="edge"><title>7&#45;&gt;39</title>
<path fill="none" stroke="black" d="M1690.15,-441.251C1920.26,-437.926 2819.92,-423.954 2877.87,-408 2899.14,-402.147 2920.76,-390.468 2937.81,-379.659"/>
<polygon fill="black" stroke="black" points="2939.82,-382.524 2946.27,-374.121 2935.99,-376.665 2939.82,-382.524"/>
</g>
<!-- 8 -->
<g id="node10" class="node"><title>8</title>
<polygon fill="crimson" stroke="black" points="1433.87,-460 1271.87,-460 1271.87,-424 1433.87,-424 1433.87,-460"/>
<text text-anchor="middle" x="1352.87" y="-438.4" font-family="Times Roman,serif" font-size="14.00">handleReshape</text>
</g>
<!-- 9 -->
<g id="node12" class="node"><title>9</title>
<polygon fill="crimson" stroke="black" points="992.873,-224 838.873,-224 838.873,-188 992.873,-188 992.873,-224"/>
<text text-anchor="middle" x="915.873" y="-202.4" font-family="Times Roman,serif" font-size="14.00">extractHeight</text>
</g>
<!-- 14 -->
<g id="node18" class="node"><title>14</title>
<polygon fill="crimson" stroke="black" points="894.873,-138 776.873,-138 776.873,-102 894.873,-102 894.873,-138"/>
<text text-anchor="middle" x="835.873" y="-116.4" font-family="Times Roman,serif" font-size="14.00">genHelix</text>
</g>
<!-- 10&#45;&gt;14 -->
<g id="edge67" class="edge"><title>10&#45;&gt;14</title>
<path fill="none" stroke="chartreuse" d="M633.129,-187.998C642.505,-184.866 652.411,-181.983 661.873,-180 708.113,-170.308 723.725,-188.824 767.873,-172 783.557,-166.023 798.637,-155.199 810.594,-144.968"/>
<polygon fill="chartreuse" stroke="chartreuse" points="813.216,-147.319 818.341,-138.047 808.552,-142.099 813.216,-147.319"/>
</g>
<!-- 16 -->
<g id="node20" class="node"><title>16</title>
<polygon fill="crimson" stroke="black" points="1050.87,-138 912.873,-138 912.873,-102 1050.87,-102 1050.87,-138"/>
<text text-anchor="middle" x="981.873" y="-116.4" font-family="Times Roman,serif" font-size="14.00">renderHelix</text>
</g>
<!-- 11&#45;&gt;16 -->
<g id="edge69" class="edge"><title>11&#45;&gt;16</title>
<path fill="none" stroke="chartreuse" stroke-width="1.69315" d="M798.794,-187.93C809.015,-184.922 819.707,-182.102 829.873,-180 862.268,-173.301 872.774,-183.276 903.873,-172 921.358,-165.66 938.777,-154.618 952.703,-144.335"/>
<polygon fill="chartreuse" stroke="chartreuse" points="955.07,-146.931 960.892,-138.08 950.821,-141.368 955.07,-146.931"/>
</g>
<!-- 12 -->
<g id="node16" class="node"><title>12</title>
<polygon fill="crimson" stroke="black" points="765.873,-52 633.873,-52 629.873,-48 629.873,-16 761.873,-16 765.873,-20 765.873,-52"/>
<polyline fill="none" stroke="black" points="761.873,-48 629.873,-48 "/>
<polyline fill="none" stroke="black" points="761.873,-48 761.873,-16 "/>
<polyline fill="none" stroke="black" points="761.873,-48 765.873,-52 "/>
<text text-anchor="middle" x="697.873" y="-30.4" font-family="Times Roman,serif" font-size="14.00">Data: Helix</text>
</g>
<!-- 13 -->
<g id="node17" class="node"><title>13</title>
<polygon fill="crimson" stroke="black" points="618.873,-138 464.873,-138 464.873,-102 618.873,-102 618.873,-138"/>
<text text-anchor="middle" x="541.873" y="-116.4" font-family="Times Roman,serif" font-size="14.00">extractHeight</text>
</g>
<!-- 13&#45;&gt;12 -->
<g id="edge71" class="edge"><title>13&#45;&gt;12</title>
<path fill="none" stroke="black" d="M574.576,-101.972C598.288,-88.8993 630.548,-71.115 656.122,-57.0165"/>
<polygon fill="black" stroke="black" points="658.146,-59.8976 665.213,-52.0047 654.766,-53.7674 658.146,-59.8976"/>
</g>
<!-- 14&#45;&gt;12 -->
<g id="edge73" class="edge"><title>14&#45;&gt;12</title>
<path fill="none" stroke="black" d="M806.944,-101.972C786.151,-89.014 757.93,-71.4267 735.403,-57.3884"/>
<polygon fill="black" stroke="black" points="737.102,-54.3232 726.764,-52.0047 733.4,-60.2641 737.102,-54.3232"/>
</g>
<!-- 14&#45;&gt;23 -->
<g id="edge75" class="edge"><title>14&#45;&gt;23</title>
<path fill="none" stroke="black" d="M876.189,-101.959C885.135,-98.702 894.691,-95.779 903.873,-94 953.622,-84.3614 1312.48,-103.933 1359.87,-86 1374.54,-80.4519 1388.11,-69.7168 1398.71,-59.4342"/>
<polygon fill="black" stroke="black" points="1401.38,-61.7037 1405.87,-52.1076 1396.38,-56.8088 1401.38,-61.7037"/>
</g>
<!-- 14&#45;&gt;24 -->
<g id="edge77" class="edge"><title>14&#45;&gt;24</title>
<path fill="none" stroke="black" d="M876.196,-101.992C885.141,-98.7333 894.695,-95.801 903.873,-94 942.916,-86.3384 1225.52,-102.177 1261.87,-86 1274.27,-80.4837 1285.02,-70.189 1293.26,-60.2059"/>
<polygon fill="black" stroke="black" points="1296.25,-62.0627 1299.58,-52.0052 1290.71,-57.7901 1296.25,-62.0627"/>
</g>
<!-- 15&#45;&gt;12 -->
<g id="edge79" class="edge"><title>15&#45;&gt;12</title>
<path fill="none" stroke="black" d="M697.873,-101.762C697.873,-90.3597 697.873,-75.4342 697.873,-62.494"/>
<polygon fill="black" stroke="black" points="701.373,-62.2121 697.873,-52.2121 694.373,-62.2121 701.373,-62.2121"/>
</g>
<!-- 22 -->
<g id="node29" class="node"><title>22</title>
<polygon fill="crimson" stroke="black" points="1252.87,-52 1074.87,-52 1074.87,-16 1252.87,-16 1252.87,-52"/>
<text text-anchor="middle" x="1163.87" y="-30.4" font-family="Times Roman,serif" font-size="14.00">distanceBetween</text>
</g>
<!-- 16&#45;&gt;22 -->
<g id="edge81" class="edge"><title>16&#45;&gt;22</title>
<path fill="none" stroke="black" stroke-width="1.69315" d="M1026.71,-101.913C1038.55,-96.9375 1051.26,-91.4154 1062.87,-86 1082.2,-76.9838 1103.23,-66.3051 1121.06,-56.9777"/>
<polygon fill="black" stroke="black" points="1122.85,-59.9915 1130.07,-52.2392 1119.59,-53.7959 1122.85,-59.9915"/>
</g>
<!-- 16&#45;&gt;27 -->
<g id="edge83" class="edge"><title>16&#45;&gt;27</title>
<path fill="none" stroke="black" stroke-width="2.09861" d="M1050.96,-108.871C1088.66,-103.306 1136.21,-97.1089 1178.87,-94 1209.96,-91.7347 1710.94,-97.5997 1739.87,-86 1753.61,-80.4917 1766.01,-69.9089 1775.63,-59.7204"/>
<polygon fill="black" stroke="black" points="1778.38,-61.8924 1782.42,-52.0967 1773.15,-57.237 1778.38,-61.8924"/>
</g>
<!-- 28 -->
<g id="node36" class="node"><title>28</title>
<polygon fill="crimson" stroke="black" points="1612.87,-52 1514.87,-52 1514.87,-16 1612.87,-16 1612.87,-52"/>
<text text-anchor="middle" x="1563.87" y="-30.4" font-family="Times Roman,serif" font-size="14.00">ver3d</text>
</g>
<!-- 16&#45;&gt;28 -->
<g id="edge85" class="edge"><title>16&#45;&gt;28</title>
<path fill="none" stroke="black" d="M1051.26,-106.49C1079.02,-101.653 1111.35,-96.7266 1140.87,-94 1160.9,-92.1501 1484.08,-93.1618 1502.87,-86 1517.52,-80.4186 1531.09,-69.6794 1541.69,-59.4028"/>
<polygon fill="black" stroke="black" points="1544.37,-61.6756 1548.86,-52.082 1539.37,-56.778 1544.37,-61.6756"/>
</g>
<!-- 17 -->
<g id="node22" class="node"><title>17</title>
<polygon fill="crimson" stroke="black" points="3578.87,-460 3484.87,-460 3484.87,-424 3578.87,-424 3578.87,-460"/>
<text text-anchor="middle" x="3531.87" y="-438.4" font-family="Times Roman,serif" font-size="14.00">input</text>
</g>
<!-- 18 -->
<g id="node23" class="node"><title>18</title>
<polygon fill="crimson" stroke="black" points="3590.87,-374 3484.87,-374 3484.87,-338 3590.87,-338 3590.87,-374"/>
<text text-anchor="middle" x="3537.87" y="-352.4" font-family="Times Roman,serif" font-size="14.00">update</text>
</g>
<!-- 17&#45;&gt;18 -->
<g id="edge87" class="edge"><title>17&#45;&gt;18</title>
<path fill="none" stroke="black" stroke-width="3.83321" d="M3533.15,-423.762C3533.94,-412.36 3534.98,-397.434 3535.89,-384.494"/>
<polygon fill="black" stroke="black" points="3539.4,-384.431 3536.6,-374.212 3532.41,-383.944 3539.4,-384.431"/>
</g>
<!-- 17&#45;&gt;31 -->
<g id="edge89" class="edge"><title>17&#45;&gt;31</title>
<path fill="none" stroke="black" stroke-width="1.69315" d="M3484.45,-441.698C3219.06,-439.929 1926.92,-430.196 1845.87,-408 1824.78,-402.223 1803.38,-390.549 1786.53,-379.723"/>
<polygon fill="black" stroke="black" points="1788.43,-376.784 1778.16,-374.175 1784.56,-382.618 1788.43,-376.784"/>
</g>
<!-- 17&#45;&gt;32 -->
<g id="edge91" class="edge"><title>17&#45;&gt;32</title>
<path fill="none" stroke="black" stroke-width="2.09861" d="M3499.59,-423.972C3476.18,-410.899 3444.33,-393.115 3419.09,-379.017"/>
<polygon fill="black" stroke="black" points="3420.55,-375.825 3410.11,-374.005 3417.14,-381.936 3420.55,-375.825"/>
</g>
<!-- 17&#45;&gt;33 -->
<g id="edge93" class="edge"><title>17&#45;&gt;33</title>
<path fill="none" stroke="black" stroke-width="1.69315" d="M3484.84,-441.797C3300.92,-440.81 2636.13,-435.365 2545.87,-408 2526.66,-402.176 2507.46,-390.809 2492.28,-380.185"/>
<polygon fill="black" stroke="black" points="2493.98,-377.097 2483.83,-374.063 2489.87,-382.765 2493.98,-377.097"/>
</g>
<!-- 17&#45;&gt;34 -->
<g id="edge95" class="edge"><title>17&#45;&gt;34</title>
<path fill="none" stroke="black" stroke-width="1.69315" d="M3484.67,-441.49C3256.23,-438.931 2273.86,-426.867 2211.87,-408 2193,-402.256 2174.25,-390.896 2159.45,-380.256"/>
<polygon fill="black" stroke="black" points="2161.33,-377.293 2151.22,-374.122 2157.14,-382.905 2161.33,-377.293"/>
</g>
<!-- 17&#45;&gt;35 -->
<g id="edge97" class="edge"><title>17&#45;&gt;35</title>
<path fill="none" stroke="black" stroke-width="1.69315" d="M3484.66,-440.916C3344.2,-437.499 2935.2,-426.099 2877.87,-408 2859.03,-402.052 2840.19,-390.79 2825.24,-380.264"/>
<polygon fill="black" stroke="black" points="2827.06,-377.257 2816.91,-374.198 2822.93,-382.915 2827.06,-377.257"/>
</g>
<!-- 17&#45;&gt;36 -->
<g id="edge99" class="edge"><title>17&#45;&gt;36</title>
<path fill="none" stroke="black" stroke-width="1.69315" d="M3484.8,-441.303C3274.83,-438.105 2431.58,-424.294 2377.87,-408 2358.83,-402.222 2339.85,-390.86 2324.86,-380.226"/>
<polygon fill="black" stroke="black" points="2326.65,-377.2 2316.52,-374.097 2322.51,-382.84 2326.65,-377.2"/>
</g>
<!-- 17&#45;&gt;37 -->
<g id="edge101" class="edge"><title>17&#45;&gt;37</title>
<path fill="none" stroke="black" stroke-width="1.69315" d="M3484.59,-441.452C3321.08,-439.363 2785.54,-430.832 2711.87,-408 2692.87,-402.108 2673.89,-390.736 2658.89,-380.125"/>
<polygon fill="black" stroke="black" points="2660.68,-377.1 2650.55,-374.013 2656.55,-382.747 2660.68,-377.1"/>
</g>
<!-- 17&#45;&gt;39 -->
<g id="edge103" class="edge"><title>17&#45;&gt;39</title>
<path fill="none" stroke="black" stroke-width="1.69315" d="M3484.54,-441.163C3381.85,-438.926 3141.62,-431.299 3063.87,-408 3042.9,-401.714 3021.44,-390.124 3004.42,-379.479"/>
<polygon fill="black" stroke="black" points="3006.26,-376.499 2995.96,-374.031 3002.47,-382.386 3006.26,-376.499"/>
</g>
<!-- 18&#45;&gt;38 -->
<g id="edge105" class="edge"><title>18&#45;&gt;38</title>
<path fill="none" stroke="black" d="M3522.48,-374.272C3508.86,-388.619 3487.51,-406.983 3463.87,-412 3450.48,-414.841 1506.26,-414.841 1492.87,-412 1466.43,-406.389 1439.48,-392.227 1419.25,-379.549"/>
<polygon fill="black" stroke="black" points="1421.03,-376.533 1410.73,-374.051 1417.23,-382.415 1421.03,-376.533"/>
</g>
<!-- 19 -->
<g id="node25" class="node"><title>19</title>
<polygon fill="crimson" stroke="black" points="211.873,-538 131.873,-538 131.873,-502 211.873,-502 211.873,-538"/>
<text text-anchor="middle" x="171.873" y="-516.4" font-family="Times Roman,serif" font-size="14.00">init</text>
</g>
<!-- 19&#45;&gt;2 -->
<g id="edge107" class="edge"><title>19&#45;&gt;2</title>
<path fill="none" stroke="black" d="M174.498,-501.97C176.744,-479.282 176.953,-440.347 156.873,-416 149.987,-407.65 140.144,-416.821 133.873,-408 113.786,-379.746 113.371,-357.955 133.873,-330 143.672,-316.639 178.562,-305.381 211.777,-297.346"/>
<polygon fill="black" stroke="black" points="212.599,-300.749 221.538,-295.062 211.004,-293.933 212.599,-300.749"/>
</g>
<!-- 19&#45;&gt;3 -->
<g id="edge109" class="edge"><title>19&#45;&gt;3</title>
<path fill="none" stroke="black" d="M131.761,-504.255C128.781,-503.397 125.797,-502.63 122.873,-502 110.894,-499.418 21.2181,-502.974 12.8731,-494 -10.7342,-468.613 4.72943,-449.697 12.8731,-416 30.4768,-343.16 37.2529,-319.355 89.8731,-266 105.287,-250.371 125.641,-237.867 144.823,-228.404"/>
<polygon fill="black" stroke="black" points="146.579,-231.446 154.119,-224.003 143.583,-225.119 146.579,-231.446"/>
</g>
<!-- 19&#45;&gt;6 -->
<g id="edge111" class="edge"><title>19&#45;&gt;6</title>
<path fill="none" stroke="black" d="M212.036,-519.896C421.745,-519.262 1383.65,-515.207 1442.87,-494 1458.49,-488.406 1473.26,-477.516 1484.86,-467.142"/>
<polygon fill="black" stroke="black" points="1487.45,-469.509 1492.34,-460.113 1482.66,-464.405 1487.45,-469.509"/>
</g>
<!-- 19&#45;&gt;7 -->
<g id="edge113" class="edge"><title>19&#45;&gt;7</title>
<path fill="none" stroke="black" d="M212.069,-519.623C438.127,-517.457 1542.11,-506.265 1574.87,-494 1589.7,-488.451 1603.48,-477.716 1614.27,-467.433"/>
<polygon fill="black" stroke="black" points="1616.99,-469.662 1621.57,-460.107 1612.03,-464.721 1616.99,-469.662"/>
</g>
<!-- 19&#45;&gt;8 -->
<g id="edge115" class="edge"><title>19&#45;&gt;8</title>
<path fill="none" stroke="black" d="M212.184,-517.338C379.471,-506.289 1021.46,-463.888 1261.56,-448.031"/>
<polygon fill="black" stroke="black" points="1261.9,-451.516 1271.65,-447.364 1261.44,-444.531 1261.9,-451.516"/>
</g>
<!-- 19&#45;&gt;17 -->
<g id="edge117" class="edge"><title>19&#45;&gt;17</title>
<path fill="none" stroke="black" d="M212.178,-519.627C400.465,-517.832 1212.31,-509.533 1877.87,-494 2503.85,-479.391 3262.79,-451.967 3474.59,-444.137"/>
<polygon fill="black" stroke="black" points="3474.98,-447.625 3484.85,-443.757 3474.72,-440.63 3474.98,-447.625"/>
</g>
<!-- 21 -->
<g id="node27" class="node"><title>21</title>
<polygon fill="crimson" stroke="black" points="147.873,-460 21.8731,-460 21.8731,-424 147.873,-424 147.873,-460"/>
<text text-anchor="middle" x="84.8731" y="-438.4" font-family="Times Roman,serif" font-size="14.00">parseArgs</text>
</g>
<!-- 19&#45;&gt;21 -->
<g id="edge119" class="edge"><title>19&#45;&gt;21</title>
<path fill="none" stroke="black" d="M151.695,-501.909C140.139,-491.548 125.465,-478.393 112.813,-467.05"/>
<polygon fill="black" stroke="black" points="115.025,-464.332 105.243,-460.263 110.353,-469.544 115.025,-464.332"/>
</g>
<!-- 40 -->
<g id="node49" class="node"><title>40</title>
<polygon fill="crimson" stroke="black" points="2038.87,-374 1854.87,-374 1854.87,-338 2038.87,-338 2038.87,-374"/>
<text text-anchor="middle" x="1946.87" y="-352.4" font-family="Times Roman,serif" font-size="14.00">newProgramState</text>
</g>
<!-- 19&#45;&gt;40 -->
<g id="edge121" class="edge"><title>19&#45;&gt;40</title>
<path fill="none" stroke="black" d="M212.192,-519.874C446.78,-519.072 1628,-514.046 1701.87,-494 1785.75,-471.239 1871.45,-413.398 1915.88,-380.274"/>
<polygon fill="black" stroke="black" points="1918.06,-383.009 1923.94,-374.194 1913.85,-377.42 1918.06,-383.009"/>
</g>
<!-- 20 -->
<g id="node26" class="node"><title>20</title>
<polygon fill="gold" stroke="black" points="113.873,-538 21.8731,-538 21.8731,-502 113.873,-502 113.873,-538"/>
<text text-anchor="middle" x="67.8731" y="-516.4" font-family="Times Roman,serif" font-size="14.00">main</text>
</g>
<!-- 21&#45;&gt;2 -->
<g id="edge123" class="edge"><title>21&#45;&gt;2</title>
<path fill="none" stroke="black" d="M81.8759,-423.983C78.906,-399.522 77.6737,-355.893 100.873,-330 115.771,-313.372 167.366,-301.229 211.358,-293.609"/>
<polygon fill="black" stroke="black" points="212.197,-297.017 221.48,-291.91 211.038,-290.113 212.197,-297.017"/>
</g>
<!-- 21&#45;&gt;3 -->
<g id="edge125" class="edge"><title>21&#45;&gt;3</title>
<path fill="none" stroke="black" d="M78.6699,-423.727C71.9826,-400.854 63.918,-360.926 76.8731,-330 94.758,-287.306 135.302,-251.879 165.6,-229.974"/>
<polygon fill="black" stroke="black" points="167.69,-232.783 173.846,-224.16 163.656,-227.062 167.69,-232.783"/>
</g>
<!-- 23&#45;&gt;23 -->
<g id="edge127" class="edge"><title>23&#45;&gt;23</title>
<path fill="none" stroke="black" d="M1473.08,-49.4597C1483.46,-47.7196 1490.87,-42.5664 1490.87,-34 1490.87,-28.5121 1487.83,-24.4251 1482.92,-21.7387"/>
<polygon fill="black" stroke="black" points="1483.67,-18.3029 1473.08,-18.5403 1481.5,-24.9601 1483.67,-18.3029"/>
</g>
<!-- 30 -->
<g id="node39" class="node"><title>30</title>
<polygon fill="crimson" stroke="black" points="3276.87,-374 3072.87,-374 3072.87,-338 3276.87,-338 3276.87,-374"/>
<text text-anchor="middle" x="3174.87" y="-352.4" font-family="Times Roman,serif" font-size="14.00">extractInteractiveRef</text>
</g>
</g>
</svg>
