<?xml version="1.0" encoding="UTF-8" standalone="no"?>
<!DOCTYPE svg PUBLIC "-//W3C//DTD SVG 1.1//EN"
 "http://www.w3.org/Graphics/SVG/1.1/DTD/svg11.dtd">
<!-- Generated by graphviz version 2.26.3 (20100126.1600)
 -->
<!-- Title: Entire Codebase Pages: 1 -->
<svg width="2625pt" height="610pt"
 viewBox="0.00 0.00 2624.51 610.00" xmlns="http://www.w3.org/2000/svg" xmlns:xlink="http://www.w3.org/1999/xlink">
<g id="graph1" class="graph" transform="scale(1 1) rotate(0) translate(4 606)">
<title>Entire Codebase</title>
<polygon fill="white" stroke="white" points="-4,5 -4,-606 2621.51,-606 2621.51,5 -4,5"/>
<g id="graph2" class="cluster"><title>cluster_Data_DNA</title>
<polygon fill="papayawhip" stroke="papayawhip" points="452,-108 534,-108 546,-120 546,-188 534,-200 452,-200 440,-188 440,-120 452,-108"/>
<path fill="papayawhip" stroke="papayawhip" d="M534,-108C540,-108 546,-114 546,-120"/>
<path fill="papayawhip" stroke="papayawhip" d="M546,-188C546,-194 540,-200 534,-200"/>
<path fill="papayawhip" stroke="papayawhip" d="M452,-200C446,-200 440,-194 440,-188"/>
<path fill="papayawhip" stroke="papayawhip" d="M440,-120C440,-114 446,-108 452,-108"/>
<polyline fill="none" stroke="black" points="452,-108 534,-108 "/>
<path fill="none" stroke="black" d="M534,-108C540,-108 546,-114 546,-120"/>
<polyline fill="none" stroke="black" points="546,-120 546,-188 "/>
<path fill="none" stroke="black" d="M546,-188C546,-194 540,-200 534,-200"/>
<polyline fill="none" stroke="black" points="534,-200 452,-200 "/>
<path fill="none" stroke="black" d="M452,-200C446,-200 440,-194 440,-188"/>
<polyline fill="none" stroke="black" points="440,-188 440,-120 "/>
<path fill="none" stroke="black" d="M440,-120C440,-114 446,-108 452,-108"/>
<text text-anchor="middle" x="493" y="-183.4" font-family="Times Roman,serif" font-size="14.00">Data: DNA</text>
</g>
<g id="graph3" class="cluster"><title>cluster_Data_Helix</title>
<polygon fill="papayawhip" stroke="papayawhip" points="175,-8 259,-8 271,-20 271,-88 259,-100 175,-100 163,-88 163,-20 175,-8"/>
<path fill="papayawhip" stroke="papayawhip" d="M259,-8C265,-8 271,-14 271,-20"/>
<path fill="papayawhip" stroke="papayawhip" d="M271,-88C271,-94 265,-100 259,-100"/>
<path fill="papayawhip" stroke="papayawhip" d="M175,-100C169,-100 163,-94 163,-88"/>
<path fill="papayawhip" stroke="papayawhip" d="M163,-20C163,-14 169,-8 175,-8"/>
<polyline fill="none" stroke="black" points="175,-8 259,-8 "/>
<path fill="none" stroke="black" d="M259,-8C265,-8 271,-14 271,-20"/>
<polyline fill="none" stroke="black" points="271,-20 271,-88 "/>
<path fill="none" stroke="black" d="M271,-88C271,-94 265,-100 259,-100"/>
<polyline fill="none" stroke="black" points="259,-100 175,-100 "/>
<path fill="none" stroke="black" d="M175,-100C169,-100 163,-94 163,-88"/>
<polyline fill="none" stroke="black" points="163,-88 163,-20 "/>
<path fill="none" stroke="black" d="M163,-20C163,-14 169,-8 175,-8"/>
<text text-anchor="middle" x="217" y="-83.4" font-family="Times Roman,serif" font-size="14.00">Data: Helix</text>
</g>
<!-- 1 -->
<g id="node2" class="node"><title>1</title>
<polygon fill="crimson" stroke="black" points="538,-166 452,-166 448,-162 448,-116 534,-116 538,-120 538,-166"/>
<polyline fill="none" stroke="black" points="534,-162 448,-162 "/>
<polyline fill="none" stroke="black" points="534,-162 534,-116 "/>
<polyline fill="none" stroke="black" points="534,-162 538,-166 "/>
<text text-anchor="middle" x="493" y="-146.4" font-family="Times Roman,serif" font-size="14.00">DNA</text>
<text text-anchor="middle" x="493" y="-128.4" font-family="Times Roman,serif" font-size="14.00">DNA</text>
</g>
<!-- 12 -->
<g id="node4" class="node"><title>12</title>
<polygon fill="crimson" stroke="black" points="263,-66 175,-66 171,-62 171,-16 259,-16 263,-20 263,-66"/>
<polyline fill="none" stroke="black" points="259,-62 171,-62 "/>
<polyline fill="none" stroke="black" points="259,-62 259,-16 "/>
<polyline fill="none" stroke="black" points="259,-62 263,-66 "/>
<text text-anchor="middle" x="217" y="-46.4" font-family="Times Roman,serif" font-size="14.00">Helix</text>
<text text-anchor="middle" x="217" y="-28.4" font-family="Times Roman,serif" font-size="14.00">Helix</text>
</g>
<!-- 2 -->
<g id="node5" class="node"><title>2</title>
<polygon fill="crimson" stroke="black" points="327,-344 211,-344 211,-294 327,-294 327,-344"/>
<text text-anchor="middle" x="269" y="-324.4" font-family="Times Roman,serif" font-size="14.00">DNA</text>
<text text-anchor="middle" x="269" y="-306.4" font-family="Times Roman,serif" font-size="14.00">genDNA</text>
</g>
<!-- 2&#45;&gt;1 -->
<g id="edge4" class="edge"><title>2&#45;&gt;1</title>
<path fill="none" stroke="black" stroke-width="1.69315" d="M306.141,-293.913C320.256,-283.572 336.043,-270.978 349,-258 368.721,-238.248 362.92,-222.115 387,-208 409.07,-195.064 421.656,-212.457 444,-200 455.085,-193.82 464.708,-184.064 472.421,-174.25"/>
<polygon fill="black" stroke="black" points="475.332,-176.199 478.441,-166.071 469.694,-172.05 475.332,-176.199"/>
</g>
<!-- 2&#45;&gt;2 -->
<g id="edge6" class="edge"><title>2&#45;&gt;2</title>
<path fill="none" stroke="black" d="M327.312,-334.179C337.726,-332.206 345,-327.146 345,-319 345,-313.781 342.015,-309.829 337.131,-307.144"/>
<polygon fill="black" stroke="black" points="337.906,-303.711 327.312,-303.821 335.662,-310.342 337.906,-303.711"/>
</g>
<!-- 3 -->
<g id="node6" class="node"><title>3</title>
<polygon fill="crimson" stroke="black" points="516,-258 396,-258 396,-208 516,-208 516,-258"/>
<text text-anchor="middle" x="456" y="-238.4" font-family="Times Roman,serif" font-size="14.00">DNA</text>
<text text-anchor="middle" x="456" y="-220.4" font-family="Times Roman,serif" font-size="14.00">newDNA</text>
</g>
<!-- 2&#45;&gt;3 -->
<g id="edge8" class="edge"><title>2&#45;&gt;3</title>
<path fill="none" stroke="black" d="M323.591,-293.894C345.003,-284.047 369.73,-272.675 391.976,-262.444"/>
<polygon fill="black" stroke="black" points="393.718,-265.495 401.341,-258.137 390.794,-259.136 393.718,-265.495"/>
</g>
<!-- 10 -->
<g id="node13" class="node"><title>10</title>
<polygon fill="crimson" stroke="black" points="340,-258 198,-258 198,-208 340,-208 340,-258"/>
<text text-anchor="middle" x="269" y="-238.4" font-family="Times Roman,serif" font-size="14.00">DoubleHelix</text>
<text text-anchor="middle" x="269" y="-220.4" font-family="Times Roman,serif" font-size="14.00">genDHelix</text>
</g>
<!-- 2&#45;&gt;10 -->
<g id="edge10" class="edge"><title>2&#45;&gt;10</title>
<path fill="none" stroke="black" d="M269,-293.662C269,-285.702 269,-276.763 269,-268.245"/>
<polygon fill="black" stroke="black" points="272.5,-268.157 269,-258.157 265.5,-268.157 272.5,-268.157"/>
</g>
<!-- 15 -->
<g id="node17" class="node"><title>15</title>
<polygon fill="crimson" stroke="black" points="122,-166 4.9738e-14,-166 0,-116 122,-116 122,-166"/>
<text text-anchor="middle" x="61" y="-146.4" font-family="Times Roman,serif" font-size="14.00">Helix</text>
<text text-anchor="middle" x="61" y="-128.4" font-family="Times Roman,serif" font-size="14.00">newHelix</text>
</g>
<!-- 2&#45;&gt;15 -->
<g id="edge12" class="edge"><title>2&#45;&gt;15</title>
<path fill="none" stroke="black" d="M234.611,-293.833C220.282,-283.076 203.61,-270.206 189,-258 156.127,-230.536 120.255,-197.459 94.8731,-173.492"/>
<polygon fill="black" stroke="black" points="97.0143,-170.699 87.3476,-166.363 92.2002,-175.781 97.0143,-170.699"/>
</g>
<!-- 3&#45;&gt;1 -->
<g id="edge14" class="edge"><title>3&#45;&gt;1</title>
<path fill="none" stroke="black" d="M466.11,-207.861C470.108,-197.922 474.768,-186.335 479.075,-175.625"/>
<polygon fill="black" stroke="black" points="482.418,-176.693 482.902,-166.109 475.923,-174.081 482.418,-176.693"/>
</g>
<!-- 4 -->
<g id="node7" class="node"><title>4</title>
<polygon fill="crimson" stroke="black" points="2581,-430 2447,-430 2447,-380 2581,-380 2581,-430"/>
<text text-anchor="middle" x="2514" y="-410.4" font-family="Times Roman,serif" font-size="14.00">DNA</text>
<text text-anchor="middle" x="2514" y="-392.4" font-family="Times Roman,serif" font-size="14.00">renderDNA</text>
</g>
<!-- 11 -->
<g id="node14" class="node"><title>11</title>
<polygon fill="crimson" stroke="black" points="2486,-344 2336,-344 2336,-294 2486,-294 2486,-344"/>
<text text-anchor="middle" x="2411" y="-324.4" font-family="Times Roman,serif" font-size="14.00">DoubleHelix</text>
<text text-anchor="middle" x="2411" y="-306.4" font-family="Times Roman,serif" font-size="14.00">renderDHelix</text>
</g>
<!-- 4&#45;&gt;11 -->
<g id="edge16" class="edge"><title>4&#45;&gt;11</title>
<path fill="none" stroke="black" stroke-width="1.69315" d="M2483.93,-379.894C2473.03,-370.79 2460.56,-360.384 2449.06,-350.78"/>
<polygon fill="black" stroke="black" points="2451.2,-348.009 2441.28,-344.286 2446.72,-353.382 2451.2,-348.009"/>
</g>
<!-- 22 -->
<g id="node24" class="node"><title>22</title>
<polygon fill="crimson" stroke="black" points="966,-66 862,-66 862,-16 966,-16 966,-66"/>
<text text-anchor="middle" x="914" y="-46.4" font-family="Times Roman,serif" font-size="14.00">Math</text>
<text text-anchor="middle" x="914" y="-28.4" font-family="Times Roman,serif" font-size="14.00">fromTo</text>
</g>
<!-- 4&#45;&gt;22 -->
<g id="edge18" class="edge"><title>4&#45;&gt;22</title>
<path fill="none" stroke="black" d="M2446.62,-382.207C2443.72,-381.425 2440.84,-380.684 2438,-380 2337.85,-355.824 2310.12,-363.75 2209,-344 1731.13,-250.666 1161.86,-105.507 975.994,-57.2277"/>
<polygon fill="black" stroke="black" points="976.686,-53.7914 966.127,-54.6621 974.925,-60.5661 976.686,-53.7914"/>
</g>
<!-- 23 -->
<g id="node25" class="node"><title>23</title>
<polygon fill="crimson" stroke="black" points="2074,-66 1980,-66 1980,-16 2074,-16 2074,-66"/>
<text text-anchor="middle" x="2027" y="-46.4" font-family="Times Roman,serif" font-size="14.00">Math</text>
<text text-anchor="middle" x="2027" y="-28.4" font-family="Times Roman,serif" font-size="14.00">phi</text>
</g>
<!-- 4&#45;&gt;23 -->
<g id="edge20" class="edge"><title>4&#45;&gt;23</title>
<path fill="none" stroke="black" d="M2528.52,-379.783C2558.86,-323.412 2620.7,-186.029 2552,-108 2521.44,-73.2948 2214.33,-51.7423 2084.48,-44.1162"/>
<polygon fill="black" stroke="black" points="2084.52,-40.6125 2074.33,-43.5273 2084.11,-47.6008 2084.52,-40.6125"/>
</g>
<!-- 24 -->
<g id="node26" class="node"><title>24</title>
<polygon fill="crimson" stroke="black" points="2318,-344 2218,-344 2218,-294 2318,-294 2318,-344"/>
<text text-anchor="middle" x="2268" y="-324.4" font-family="Times Roman,serif" font-size="14.00">Misc</text>
<text text-anchor="middle" x="2268" y="-306.4" font-family="Times Roman,serif" font-size="14.00">colour</text>
</g>
<!-- 4&#45;&gt;24 -->
<g id="edge22" class="edge"><title>4&#45;&gt;24</title>
<path fill="none" stroke="black" stroke-width="1.69315" d="M2446.87,-382.9C2443.87,-381.919 2440.9,-380.949 2438,-380 2391.59,-364.841 2377.25,-362.39 2327.76,-344.169"/>
<polygon fill="black" stroke="black" points="2328.69,-340.78 2318.09,-340.576 2326.25,-347.341 2328.69,-340.78"/>
</g>
<!-- 26 -->
<g id="node28" class="node"><title>26</title>
<polygon fill="crimson" stroke="black" points="2543,-166 2449,-166 2449,-116 2543,-116 2543,-166"/>
<text text-anchor="middle" x="2496" y="-146.4" font-family="Times Roman,serif" font-size="14.00">Misc</text>
<text text-anchor="middle" x="2496" y="-128.4" font-family="Times Roman,serif" font-size="14.00">vec3f</text>
</g>
<!-- 4&#45;&gt;26 -->
<g id="edge24" class="edge"><title>4&#45;&gt;26</title>
<path fill="none" stroke="black" stroke-width="2.38629" d="M2512.27,-379.687C2509.05,-332.379 2502.1,-230.466 2498.41,-176.385"/>
<polygon fill="black" stroke="black" points="2501.89,-175.976 2497.72,-166.237 2494.91,-176.452 2501.89,-175.976"/>
</g>
<!-- 5 -->
<g id="node8" class="node"><title>5</title>
<polygon fill="crimson" stroke="black" points="529,-430 383,-430 383,-380 529,-380 529,-430"/>
<text text-anchor="middle" x="456" y="-410.4" font-family="Times Roman,serif" font-size="14.00">DNA</text>
<text text-anchor="middle" x="456" y="-392.4" font-family="Times Roman,serif" font-size="14.00">updateModel</text>
</g>
<!-- 5&#45;&gt;2 -->
<g id="edge26" class="edge"><title>5&#45;&gt;2</title>
<path fill="none" stroke="black" d="M401.409,-379.894C379.997,-370.047 355.27,-358.675 333.024,-348.444"/>
<polygon fill="black" stroke="black" points="334.206,-345.136 323.659,-344.137 331.282,-351.495 334.206,-345.136"/>
</g>
<!-- 5&#45;&gt;3 -->
<g id="edge28" class="edge"><title>5&#45;&gt;3</title>
<path fill="none" stroke="black" d="M456,-379.99C456,-350.564 456,-301.512 456,-268.243"/>
<polygon fill="black" stroke="black" points="459.5,-268.04 456,-258.04 452.5,-268.04 459.5,-268.04"/>
</g>
<!-- 6 -->
<g id="node9" class="node"><title>6</title>
<polygon fill="crimson" stroke="black" points="725,-516 611,-516 611,-466 725,-466 725,-516"/>
<text text-anchor="middle" x="668" y="-496.4" font-family="Times Roman,serif" font-size="14.00">Display</text>
<text text-anchor="middle" x="668" y="-478.4" font-family="Times Roman,serif" font-size="14.00">animate</text>
</g>
<!-- 6&#45;&gt;5 -->
<g id="edge30" class="edge"><title>6&#45;&gt;5</title>
<path fill="none" stroke="black" d="M610.909,-467.84C585.128,-457.382 554.404,-444.919 527.142,-433.859"/>
<polygon fill="black" stroke="black" points="528.239,-430.528 517.657,-430.012 525.608,-437.014 528.239,-430.528"/>
</g>
<!-- 28 -->
<g id="node30" class="node"><title>28</title>
<polygon fill="crimson" stroke="black" points="1053,-430 893,-430 893,-380 1053,-380 1053,-430"/>
<text text-anchor="middle" x="973" y="-410.4" font-family="Times Roman,serif" font-size="14.00">ProgramState</text>
<text text-anchor="middle" x="973" y="-392.4" font-family="Times Roman,serif" font-size="14.00">extractDNARef</text>
</g>
<!-- 6&#45;&gt;28 -->
<g id="edge32" class="edge"><title>6&#45;&gt;28</title>
<path fill="none" stroke="black" d="M725.01,-474.925C769.474,-462.388 832.058,-444.741 883.23,-430.312"/>
<polygon fill="black" stroke="black" points="884.299,-433.647 892.974,-427.565 882.4,-426.91 884.299,-433.647"/>
</g>
<!-- 29 -->
<g id="node31" class="node"><title>29</title>
<polygon fill="crimson" stroke="black" points="751,-430 585,-430 585,-380 751,-380 751,-430"/>
<text text-anchor="middle" x="668" y="-410.4" font-family="Times Roman,serif" font-size="14.00">ProgramState</text>
<text text-anchor="middle" x="668" y="-392.4" font-family="Times Roman,serif" font-size="14.00">extractLevelRef</text>
</g>
<!-- 6&#45;&gt;29 -->
<g id="edge34" class="edge"><title>6&#45;&gt;29</title>
<path fill="none" stroke="black" d="M668,-465.662C668,-457.702 668,-448.763 668,-440.245"/>
<polygon fill="black" stroke="black" points="671.5,-440.157 668,-430.157 664.5,-440.157 671.5,-440.157"/>
</g>
<!-- 36 -->
<g id="node38" class="node"><title>36</title>
<polygon fill="crimson" stroke="black" points="786,-344 608,-344 608,-294 786,-294 786,-344"/>
<text text-anchor="middle" x="697" y="-324.4" font-family="Times Roman,serif" font-size="14.00">ProgramState</text>
<text text-anchor="middle" x="697" y="-306.4" font-family="Times Roman,serif" font-size="14.00">extractUpdateRef</text>
</g>
<!-- 6&#45;&gt;36 -->
<g id="edge36" class="edge"><title>6&#45;&gt;36</title>
<path fill="none" stroke="black" stroke-width="1.69315" d="M611.445,-465.866C597.34,-456.71 583.976,-444.859 576,-430 565.49,-410.42 564.348,-398.923 576,-380 583.717,-367.467 594.889,-357.417 607.366,-349.384"/>
<polygon fill="black" stroke="black" points="609.38,-352.259 616.186,-344.14 605.802,-346.242 609.38,-352.259"/>
</g>
<!-- 7 -->
<g id="node10" class="node"><title>7</title>
<polygon fill="crimson" stroke="black" points="1714,-516 1606,-516 1606,-466 1714,-466 1714,-516"/>
<text text-anchor="middle" x="1660" y="-496.4" font-family="Times Roman,serif" font-size="14.00">Display</text>
<text text-anchor="middle" x="1660" y="-478.4" font-family="Times Roman,serif" font-size="14.00">display</text>
</g>
<!-- 7&#45;&gt;4 -->
<g id="edge38" class="edge"><title>7&#45;&gt;4</title>
<path fill="none" stroke="black" d="M1714.29,-468.195C1717.21,-467.366 1720.13,-466.625 1723,-466 2030.58,-399.142 2123.21,-486.32 2436.42,-430.057"/>
<polygon fill="black" stroke="black" points="2437.49,-433.418 2446.7,-428.173 2436.23,-426.533 2437.49,-433.418"/>
</g>
<!-- 25 -->
<g id="node27" class="node"><title>25</title>
<polygon fill="crimson" stroke="black" points="2429,-430 2301,-430 2301,-380 2429,-380 2429,-430"/>
<text text-anchor="middle" x="2365" y="-410.4" font-family="Times Roman,serif" font-size="14.00">Misc</text>
<text text-anchor="middle" x="2365" y="-392.4" font-family="Times Roman,serif" font-size="14.00">evenScale</text>
</g>
<!-- 7&#45;&gt;25 -->
<g id="edge40" class="edge"><title>7&#45;&gt;25</title>
<path fill="none" stroke="black" d="M1714.3,-468.24C1717.22,-467.399 1720.13,-466.643 1723,-466 1967,-411.315 2041.52,-477.693 2290.69,-430.008"/>
<polygon fill="black" stroke="black" points="2291.63,-433.391 2300.77,-428.035 2290.28,-426.521 2291.63,-433.391"/>
</g>
<!-- 7&#45;&gt;26 -->
<g id="edge42" class="edge"><title>7&#45;&gt;26</title>
<path fill="none" stroke="black" stroke-width="2.94591" d="M1714.29,-468.164C1717.21,-467.343 1720.12,-466.612 1723,-466 1770.15,-455.968 2556.63,-464.788 2590,-430 2659.42,-357.637 2573.95,-233.427 2525.31,-174.241"/>
<polygon fill="black" stroke="black" points="2527.81,-171.769 2518.72,-166.333 2522.44,-176.254 2527.81,-171.769"/>
</g>
<!-- 7&#45;&gt;28 -->
<g id="edge44" class="edge"><title>7&#45;&gt;28</title>
<path fill="none" stroke="black" d="M1605.9,-474.425C1593.55,-471.164 1580.4,-468.106 1568,-466 1348.98,-428.814 1285.95,-467.517 1063.39,-430.082"/>
<polygon fill="black" stroke="black" points="1063.81,-426.602 1053.36,-428.361 1062.63,-433.501 1063.81,-426.602"/>
</g>
<!-- 30 -->
<g id="node32" class="node"><title>30</title>
<polygon fill="crimson" stroke="black" points="1595,-430 1429,-430 1429,-380 1595,-380 1595,-430"/>
<text text-anchor="middle" x="1512" y="-410.4" font-family="Times Roman,serif" font-size="14.00">ProgramState</text>
<text text-anchor="middle" x="1512" y="-392.4" font-family="Times Roman,serif" font-size="14.00">extractModeRef</text>
</g>
<!-- 7&#45;&gt;30 -->
<g id="edge46" class="edge"><title>7&#45;&gt;30</title>
<path fill="none" stroke="black" d="M1616.79,-465.894C1600.3,-456.31 1581.32,-445.283 1564.09,-435.269"/>
<polygon fill="black" stroke="black" points="1565.66,-432.135 1555.26,-430.137 1562.15,-438.188 1565.66,-432.135"/>
</g>
<!-- 31 -->
<g id="node33" class="node"><title>31</title>
<polygon fill="crimson" stroke="black" points="1767,-430 1613,-430 1613,-380 1767,-380 1767,-430"/>
<text text-anchor="middle" x="1690" y="-410.4" font-family="Times Roman,serif" font-size="14.00">ProgramState</text>
<text text-anchor="middle" x="1690" y="-392.4" font-family="Times Roman,serif" font-size="14.00">extractRXRef</text>
</g>
<!-- 7&#45;&gt;31 -->
<g id="edge48" class="edge"><title>7&#45;&gt;31</title>
<path fill="none" stroke="black" d="M1668.84,-465.662C1671.68,-457.527 1674.87,-448.37 1677.9,-439.684"/>
<polygon fill="black" stroke="black" points="1681.24,-440.751 1681.22,-430.157 1674.63,-438.446 1681.24,-440.751"/>
</g>
<!-- 32 -->
<g id="node34" class="node"><title>32</title>
<polygon fill="crimson" stroke="black" points="1939,-430 1785,-430 1785,-380 1939,-380 1939,-430"/>
<text text-anchor="middle" x="1862" y="-410.4" font-family="Times Roman,serif" font-size="14.00">ProgramState</text>
<text text-anchor="middle" x="1862" y="-392.4" font-family="Times Roman,serif" font-size="14.00">extractRYRef</text>
</g>
<!-- 7&#45;&gt;32 -->
<g id="edge50" class="edge"><title>7&#45;&gt;32</title>
<path fill="none" stroke="black" d="M1714.13,-467.954C1738.59,-457.54 1767.76,-445.121 1793.71,-434.075"/>
<polygon fill="black" stroke="black" points="1795.27,-437.212 1803.1,-430.074 1792.53,-430.771 1795.27,-437.212"/>
</g>
<!-- 33 -->
<g id="node35" class="node"><title>33</title>
<polygon fill="crimson" stroke="black" points="2111,-430 1957,-430 1957,-380 2111,-380 2111,-430"/>
<text text-anchor="middle" x="2034" y="-410.4" font-family="Times Roman,serif" font-size="14.00">ProgramState</text>
<text text-anchor="middle" x="2034" y="-392.4" font-family="Times Roman,serif" font-size="14.00">extractRZRef</text>
</g>
<!-- 7&#45;&gt;33 -->
<g id="edge52" class="edge"><title>7&#45;&gt;33</title>
<path fill="none" stroke="black" d="M1714.04,-468.685C1717.05,-467.715 1720.05,-466.811 1723,-466 1817.6,-440.001 1847.34,-451.403 1946.9,-430.109"/>
<polygon fill="black" stroke="black" points="1947.75,-433.508 1956.76,-427.944 1946.24,-426.671 1947.75,-433.508"/>
</g>
<!-- 34 -->
<g id="node36" class="node"><title>34</title>
<polygon fill="crimson" stroke="black" points="2283,-430 2129,-430 2129,-380 2283,-380 2283,-430"/>
<text text-anchor="middle" x="2206" y="-410.4" font-family="Times Roman,serif" font-size="14.00">ProgramState</text>
<text text-anchor="middle" x="2206" y="-392.4" font-family="Times Roman,serif" font-size="14.00">extractTXRef</text>
</g>
<!-- 7&#45;&gt;34 -->
<g id="edge54" class="edge"><title>7&#45;&gt;34</title>
<path fill="none" stroke="black" d="M1714.33,-468.336C1717.23,-467.47 1720.14,-466.682 1723,-466 1892.14,-425.665 1943.99,-461.498 2118.77,-430.054"/>
<polygon fill="black" stroke="black" points="2119.62,-433.457 2128.81,-428.198 2118.35,-426.573 2119.62,-433.457"/>
</g>
<!-- 35 -->
<g id="node37" class="node"><title>35</title>
<polygon fill="crimson" stroke="black" points="1225,-430 1071,-430 1071,-380 1225,-380 1225,-430"/>
<text text-anchor="middle" x="1148" y="-410.4" font-family="Times Roman,serif" font-size="14.00">ProgramState</text>
<text text-anchor="middle" x="1148" y="-392.4" font-family="Times Roman,serif" font-size="14.00">extractTYRef</text>
</g>
<!-- 7&#45;&gt;35 -->
<g id="edge56" class="edge"><title>7&#45;&gt;35</title>
<path fill="none" stroke="black" d="M1605.84,-474.758C1593.49,-471.481 1580.36,-468.331 1568,-466 1424.43,-438.932 1382.27,-458.087 1235.05,-430.05"/>
<polygon fill="black" stroke="black" points="1235.68,-426.608 1225.2,-428.134 1234.35,-433.479 1235.68,-426.608"/>
</g>
<!-- 37 -->
<g id="node39" class="node"><title>37</title>
<polygon fill="crimson" stroke="black" points="1411,-430 1243,-430 1243,-380 1411,-380 1411,-430"/>
<text text-anchor="middle" x="1327" y="-410.4" font-family="Times Roman,serif" font-size="14.00">ProgramState</text>
<text text-anchor="middle" x="1327" y="-392.4" font-family="Times Roman,serif" font-size="14.00">extractZoomRef</text>
</g>
<!-- 7&#45;&gt;37 -->
<g id="edge58" class="edge"><title>7&#45;&gt;37</title>
<path fill="none" stroke="black" d="M1605.58,-475.953C1593.24,-472.614 1580.18,-469.136 1568,-466 1505.39,-449.881 1487.19,-447.027 1420.82,-430.184"/>
<polygon fill="black" stroke="black" points="1421.68,-426.791 1411.13,-427.711 1419.95,-433.574 1421.68,-426.791"/>
</g>
<!-- 8 -->
<g id="node11" class="node"><title>8</title>
<polygon fill="crimson" stroke="black" points="1894,-516 1732,-516 1732,-466 1894,-466 1894,-516"/>
<text text-anchor="middle" x="1813" y="-496.4" font-family="Times Roman,serif" font-size="14.00">Display</text>
<text text-anchor="middle" x="1813" y="-478.4" font-family="Times Roman,serif" font-size="14.00">handleReshape</text>
</g>
<!-- 9 -->
<g id="node12" class="node"><title>9</title>
<polygon fill="crimson" stroke="black" points="1730,-602 1576,-602 1576,-552 1730,-552 1730,-602"/>
<text text-anchor="middle" x="1653" y="-582.4" font-family="Times Roman,serif" font-size="14.00">DoubleHelix</text>
<text text-anchor="middle" x="1653" y="-564.4" font-family="Times Roman,serif" font-size="14.00">extractHeight</text>
</g>
<!-- 14 -->
<g id="node16" class="node"><title>14</title>
<polygon fill="crimson" stroke="black" points="430,-166 312,-166 312,-116 430,-116 430,-166"/>
<text text-anchor="middle" x="371" y="-146.4" font-family="Times Roman,serif" font-size="14.00">Helix</text>
<text text-anchor="middle" x="371" y="-128.4" font-family="Times Roman,serif" font-size="14.00">genHelix</text>
</g>
<!-- 10&#45;&gt;14 -->
<g id="edge60" class="edge"><title>10&#45;&gt;14</title>
<path fill="none" stroke="chartreuse" d="M296.872,-207.861C308.791,-197.11 322.847,-184.432 335.498,-173.021"/>
<polygon fill="chartreuse" stroke="chartreuse" points="338.08,-175.406 343.162,-166.109 333.392,-170.208 338.08,-175.406"/>
</g>
<!-- 16 -->
<g id="node18" class="node"><title>16</title>
<polygon fill="crimson" stroke="black" points="2446,-258 2308,-258 2308,-208 2446,-208 2446,-258"/>
<text text-anchor="middle" x="2377" y="-238.4" font-family="Times Roman,serif" font-size="14.00">Helix</text>
<text text-anchor="middle" x="2377" y="-220.4" font-family="Times Roman,serif" font-size="14.00">renderHelix</text>
</g>
<!-- 11&#45;&gt;16 -->
<g id="edge62" class="edge"><title>11&#45;&gt;16</title>
<path fill="none" stroke="chartreuse" stroke-width="1.69315" d="M2400.98,-293.662C2397.77,-285.527 2394.15,-276.37 2390.71,-267.684"/>
<polygon fill="chartreuse" stroke="chartreuse" points="2393.88,-266.169 2386.95,-258.157 2387.37,-268.743 2393.88,-266.169"/>
</g>
<!-- 13 -->
<g id="node15" class="node"><title>13</title>
<polygon fill="crimson" stroke="black" points="294,-166 140,-166 140,-116 294,-116 294,-166"/>
<text text-anchor="middle" x="217" y="-146.4" font-family="Times Roman,serif" font-size="14.00">Helix</text>
<text text-anchor="middle" x="217" y="-128.4" font-family="Times Roman,serif" font-size="14.00">extractHeight</text>
</g>
<!-- 13&#45;&gt;12 -->
<g id="edge64" class="edge"><title>13&#45;&gt;12</title>
<path fill="none" stroke="black" d="M217,-115.766C217,-103.804 217,-89.3127 217,-76.2845"/>
<polygon fill="black" stroke="black" points="220.5,-76.2261 217,-66.2261 213.5,-76.2262 220.5,-76.2261"/>
</g>
<!-- 14&#45;&gt;12 -->
<g id="edge66" class="edge"><title>14&#45;&gt;12</title>
<path fill="none" stroke="black" d="M322.926,-115.974C316.33,-113.043 309.568,-110.288 303,-108 287.522,-102.608 281.031,-108.472 267,-100 256.225,-93.4936 246.636,-83.8401 238.81,-74.2171"/>
<polygon fill="black" stroke="black" points="241.529,-72.0113 232.663,-66.2107 235.976,-76.2741 241.529,-72.0113"/>
</g>
<!-- 14&#45;&gt;22 -->
<g id="edge68" class="edge"><title>14&#45;&gt;22</title>
<path fill="none" stroke="black" d="M415.65,-115.937C422.325,-112.899 429.239,-110.125 436,-108 580.475,-62.5919 759.187,-47.905 851.794,-43.1939"/>
<polygon fill="black" stroke="black" points="852.021,-46.687 861.839,-42.705 851.681,-39.6953 852.021,-46.687"/>
</g>
<!-- 14&#45;&gt;23 -->
<g id="edge70" class="edge"><title>14&#45;&gt;23</title>
<path fill="none" stroke="black" d="M413.641,-115.949C420.891,-112.693 428.505,-109.851 436,-108 466.045,-100.581 962.072,-101.104 993,-100 1365.61,-86.6997 1813,-56.2359 1969.56,-45.1398"/>
<polygon fill="black" stroke="black" points="1970.16,-48.6061 1979.88,-44.4061 1969.66,-41.6237 1970.16,-48.6061"/>
</g>
<!-- 15&#45;&gt;12 -->
<g id="edge72" class="edge"><title>15&#45;&gt;12</title>
<path fill="none" stroke="black" d="M100.365,-115.766C121.322,-102.332 147.257,-85.7071 169.345,-71.5478"/>
<polygon fill="black" stroke="black" points="171.388,-74.3961 177.918,-66.0528 167.61,-68.5029 171.388,-74.3961"/>
</g>
<!-- 21 -->
<g id="node23" class="node"><title>21</title>
<polygon fill="crimson" stroke="black" points="2431,-166 2253,-166 2253,-116 2431,-116 2431,-166"/>
<text text-anchor="middle" x="2342" y="-146.4" font-family="Times Roman,serif" font-size="14.00">Math</text>
<text text-anchor="middle" x="2342" y="-128.4" font-family="Times Roman,serif" font-size="14.00">distanceBetween</text>
</g>
<!-- 16&#45;&gt;21 -->
<g id="edge74" class="edge"><title>16&#45;&gt;21</title>
<path fill="none" stroke="black" stroke-width="1.69315" d="M2367.44,-207.861C2363.66,-197.922 2359.25,-186.335 2355.17,-175.625"/>
<polygon fill="black" stroke="black" points="2358.38,-174.211 2351.55,-166.109 2351.84,-176.7 2358.38,-174.211"/>
</g>
<!-- 16&#45;&gt;26 -->
<g id="edge76" class="edge"><title>16&#45;&gt;26</title>
<path fill="none" stroke="black" stroke-width="2.09861" d="M2428.43,-207.915C2432.45,-205.401 2436.35,-202.754 2440,-200 2450.12,-192.352 2460.04,-182.805 2468.65,-173.634"/>
<polygon fill="black" stroke="black" points="2471.39,-175.817 2475.54,-166.069 2466.22,-171.101 2471.39,-175.817"/>
</g>
<!-- 27 -->
<g id="node29" class="node"><title>27</title>
<polygon fill="crimson" stroke="black" points="2235,-166 2137,-166 2137,-116 2235,-116 2235,-166"/>
<text text-anchor="middle" x="2186" y="-146.4" font-family="Times Roman,serif" font-size="14.00">Misc</text>
<text text-anchor="middle" x="2186" y="-128.4" font-family="Times Roman,serif" font-size="14.00">ver3d</text>
</g>
<!-- 16&#45;&gt;27 -->
<g id="edge78" class="edge"><title>16&#45;&gt;27</title>
<path fill="none" stroke="black" d="M2307.96,-223.396C2286.51,-218.478 2263.42,-211.084 2244,-200 2232.19,-193.259 2221.18,-183.433 2211.99,-173.726"/>
<polygon fill="black" stroke="black" points="2214.34,-171.103 2205.04,-166.029 2209.15,-175.795 2214.34,-171.103"/>
</g>
<!-- 17 -->
<g id="node19" class="node"><title>17</title>
<polygon fill="crimson" stroke="black" points="1559,-516 1465,-516 1465,-466 1559,-466 1559,-516"/>
<text text-anchor="middle" x="1512" y="-496.4" font-family="Times Roman,serif" font-size="14.00">Input</text>
<text text-anchor="middle" x="1512" y="-478.4" font-family="Times Roman,serif" font-size="14.00">input</text>
</g>
<!-- 18 -->
<g id="node20" class="node"><title>18</title>
<polygon fill="crimson" stroke="black" points="875,-430 769,-430 769,-380 875,-380 875,-430"/>
<text text-anchor="middle" x="822" y="-410.4" font-family="Times Roman,serif" font-size="14.00">Input</text>
<text text-anchor="middle" x="822" y="-392.4" font-family="Times Roman,serif" font-size="14.00">update</text>
</g>
<!-- 17&#45;&gt;18 -->
<g id="edge80" class="edge"><title>17&#45;&gt;18</title>
<path fill="none" stroke="black" stroke-width="3.83321" d="M1464.81,-488.171C1341.75,-480.522 1012.38,-458.239 885.009,-429.86"/>
<polygon fill="black" stroke="black" points="885.648,-426.415 875.114,-427.541 884.051,-433.231 885.648,-426.415"/>
</g>
<!-- 17&#45;&gt;29 -->
<g id="edge82" class="edge"><title>17&#45;&gt;29</title>
<path fill="none" stroke="black" stroke-width="1.69315" d="M1464.98,-490.19C1347.48,-487.525 1031.69,-476.421 761.101,-430.051"/>
<polygon fill="black" stroke="black" points="761.541,-426.575 751.09,-428.316 760.345,-433.472 761.541,-426.575"/>
</g>
<!-- 17&#45;&gt;30 -->
<g id="edge84" class="edge"><title>17&#45;&gt;30</title>
<path fill="none" stroke="black" stroke-width="2.09861" d="M1512,-465.662C1512,-457.702 1512,-448.763 1512,-440.245"/>
<polygon fill="black" stroke="black" points="1515.5,-440.157 1512,-430.157 1508.5,-440.157 1515.5,-440.157"/>
</g>
<!-- 17&#45;&gt;31 -->
<g id="edge86" class="edge"><title>17&#45;&gt;31</title>
<path fill="none" stroke="black" stroke-width="1.69315" d="M1559.23,-468.179C1580.6,-457.858 1606.11,-445.53 1628.91,-434.515"/>
<polygon fill="black" stroke="black" points="1630.68,-437.548 1638.16,-430.046 1627.63,-431.245 1630.68,-437.548"/>
</g>
<!-- 17&#45;&gt;32 -->
<g id="edge88" class="edge"><title>17&#45;&gt;32</title>
<path fill="none" stroke="black" stroke-width="1.69315" d="M1559.01,-476.376C1571.31,-472.767 1584.61,-469.063 1597,-466 1672.7,-447.293 1695.43,-449.158 1774.76,-430.213"/>
<polygon fill="black" stroke="black" points="1775.83,-433.555 1784.73,-427.797 1774.18,-426.752 1775.83,-433.555"/>
</g>
<!-- 17&#45;&gt;33 -->
<g id="edge90" class="edge"><title>17&#45;&gt;33</title>
<path fill="none" stroke="black" stroke-width="1.69315" d="M1559.27,-475.424C1571.45,-471.873 1584.62,-468.433 1597,-466 1747.72,-436.368 1792.26,-459.038 1946.94,-430.044"/>
<polygon fill="black" stroke="black" points="1947.64,-433.473 1956.81,-428.154 1946.33,-426.598 1947.64,-433.473"/>
</g>
<!-- 17&#45;&gt;34 -->
<g id="edge92" class="edge"><title>17&#45;&gt;34</title>
<path fill="none" stroke="black" stroke-width="1.69315" d="M1559.22,-475.136C1571.4,-471.591 1584.58,-468.226 1597,-466 1823.09,-425.468 1888.74,-469.471 2118.81,-430.03"/>
<polygon fill="black" stroke="black" points="2119.58,-433.449 2128.83,-428.279 2118.38,-426.554 2119.58,-433.449"/>
</g>
<!-- 17&#45;&gt;35 -->
<g id="edge94" class="edge"><title>17&#45;&gt;35</title>
<path fill="none" stroke="black" stroke-width="1.69315" d="M1464.55,-481.596C1411.09,-470.777 1321.41,-451.956 1235.23,-430.254"/>
<polygon fill="black" stroke="black" points="1235.84,-426.797 1225.29,-427.732 1234.12,-433.583 1235.84,-426.797"/>
</g>
<!-- 17&#45;&gt;37 -->
<g id="edge96" class="edge"><title>17&#45;&gt;37</title>
<path fill="none" stroke="black" stroke-width="1.69315" d="M1464.84,-469.076C1442.15,-458.53 1414.63,-445.736 1390.16,-434.362"/>
<polygon fill="black" stroke="black" points="1391.5,-431.122 1380.95,-430.08 1388.54,-437.47 1391.5,-431.122"/>
</g>
<!-- 18&#45;&gt;36 -->
<g id="edge98" class="edge"><title>18&#45;&gt;36</title>
<path fill="none" stroke="black" d="M785.509,-379.894C772.022,-370.615 756.569,-359.983 742.389,-350.227"/>
<polygon fill="black" stroke="black" points="743.975,-347.071 733.753,-344.286 740.008,-352.838 743.975,-347.071"/>
</g>
<!-- 19 -->
<g id="node21" class="node"><title>19</title>
<polygon fill="crimson" stroke="black" points="1558,-602 1466,-602 1466,-552 1558,-552 1558,-602"/>
<text text-anchor="middle" x="1512" y="-582.4" font-family="Times Roman,serif" font-size="14.00">Main</text>
<text text-anchor="middle" x="1512" y="-564.4" font-family="Times Roman,serif" font-size="14.00">init</text>
</g>
<!-- 19&#45;&gt;2 -->
<g id="edge100" class="edge"><title>19&#45;&gt;2</title>
<path fill="none" stroke="black" d="M1465.97,-576.014C1254.79,-571.313 387.002,-549.981 341,-516 289.643,-478.063 274.861,-399.676 270.644,-354.047"/>
<polygon fill="black" stroke="black" points="274.128,-353.703 269.838,-344.016 267.15,-354.264 274.128,-353.703"/>
</g>
<!-- 19&#45;&gt;3 -->
<g id="edge102" class="edge"><title>19&#45;&gt;3</title>
<path fill="none" stroke="black" d="M1465.93,-575.697C1305.15,-570.873 769.597,-552.391 602,-516 496.164,-493.02 435.603,-519.076 374,-430 337.773,-377.617 387.185,-306.745 423.55,-265.841"/>
<polygon fill="black" stroke="black" points="426.253,-268.072 430.393,-258.319 421.075,-263.361 426.253,-268.072"/>
</g>
<!-- 19&#45;&gt;6 -->
<g id="edge104" class="edge"><title>19&#45;&gt;6</title>
<path fill="none" stroke="black" d="M1465.72,-572.285C1324.81,-557.926 900.575,-514.698 735.114,-497.839"/>
<polygon fill="black" stroke="black" points="735.37,-494.347 725.066,-496.815 734.66,-501.311 735.37,-494.347"/>
</g>
<!-- 19&#45;&gt;7 -->
<g id="edge106" class="edge"><title>19&#45;&gt;7</title>
<path fill="none" stroke="black" d="M1555.21,-551.894C1571.7,-542.31 1590.68,-531.283 1607.91,-521.269"/>
<polygon fill="black" stroke="black" points="1609.85,-524.188 1616.74,-516.137 1606.34,-518.135 1609.85,-524.188"/>
</g>
<!-- 19&#45;&gt;8 -->
<g id="edge108" class="edge"><title>19&#45;&gt;8</title>
<path fill="none" stroke="black" d="M1558.25,-555.192C1561.19,-554.052 1564.12,-552.976 1567,-552 1631.36,-530.19 1652.18,-533.189 1721.5,-516.302"/>
<polygon fill="black" stroke="black" points="1722.75,-519.596 1731.61,-513.782 1721.06,-512.804 1722.75,-519.596"/>
</g>
<!-- 19&#45;&gt;17 -->
<g id="edge110" class="edge"><title>19&#45;&gt;17</title>
<path fill="none" stroke="black" d="M1512,-551.662C1512,-543.702 1512,-534.763 1512,-526.245"/>
<polygon fill="black" stroke="black" points="1515.5,-526.157 1512,-516.157 1508.5,-526.157 1515.5,-526.157"/>
</g>
<!-- 38 -->
<g id="node40" class="node"><title>38</title>
<polygon fill="crimson" stroke="black" points="2096,-516 1912,-516 1912,-466 2096,-466 2096,-516"/>
<text text-anchor="middle" x="2004" y="-496.4" font-family="Times Roman,serif" font-size="14.00">ProgramState</text>
<text text-anchor="middle" x="2004" y="-478.4" font-family="Times Roman,serif" font-size="14.00">newProgramState</text>
</g>
<!-- 19&#45;&gt;38 -->
<g id="edge112" class="edge"><title>19&#45;&gt;38</title>
<path fill="none" stroke="black" d="M1558.12,-554.781C1561.09,-553.742 1564.07,-552.802 1567,-552 1708.77,-513.271 1753.19,-540.86 1901.96,-516.053"/>
<polygon fill="black" stroke="black" points="1902.65,-519.486 1911.91,-514.342 1901.46,-512.587 1902.65,-519.486"/>
</g>
<!-- 20 -->
<g id="node22" class="node"><title>20</title>
<polygon fill="gold" stroke="black" points="1840,-602 1748,-602 1748,-552 1840,-552 1840,-602"/>
<text text-anchor="middle" x="1794" y="-582.4" font-family="Times Roman,serif" font-size="14.00">Main</text>
<text text-anchor="middle" x="1794" y="-564.4" font-family="Times Roman,serif" font-size="14.00">main</text>
</g>
<!-- 22&#45;&gt;22 -->
<g id="edge114" class="edge"><title>22&#45;&gt;22</title>
<path fill="none" stroke="black" d="M966.202,-58.9764C976.592,-56.9531 984,-50.9609 984,-41 984,-34.4631 980.809,-29.6355 975.68,-26.5171"/>
<polygon fill="black" stroke="black" points="976.796,-23.1983 966.202,-23.0236 974.375,-29.7663 976.796,-23.1983"/>
</g>
</g>
</svg>
