<?xml version="1.0" encoding="UTF-8" standalone="no"?>
<!DOCTYPE svg PUBLIC "-//W3C//DTD SVG 1.1//EN"
 "http://www.w3.org/Graphics/SVG/1.1/DTD/svg11.dtd">
<!-- Generated by graphviz version 2.26.3 (20100126.1600)
 -->
<!-- Title: Chinese Whispers module suggestions Pages: 1 -->
<svg width="2918pt" height="606pt"
 viewBox="0.00 0.00 2918.00 606.00" xmlns="http://www.w3.org/2000/svg" xmlns:xlink="http://www.w3.org/1999/xlink">
<g id="graph1" class="graph" transform="scale(1 1) rotate(0) translate(4 602)">
<title>Chinese Whispers module suggestions</title>
<polygon fill="white" stroke="white" points="-4,5 -4,-602 2915,-602 2915,5 -4,5"/>
<g id="graph2" class="cluster"><title>cluster_1</title>
<polygon fill="lavender" stroke="black" points="8,-94 8,-590 514,-590 514,-94 8,-94"/>
</g>
<g id="graph3" class="cluster"><title>cluster_2</title>
<polygon fill="lavender" stroke="black" points="522,-352 522,-504 2058,-504 2058,-352 522,-352"/>
</g>
<g id="graph4" class="cluster"><title>cluster_3</title>
<polygon fill="lavender" stroke="black" points="2446,-94 2446,-418 2902,-418 2902,-94 2446,-94"/>
</g>
<g id="graph5" class="cluster"><title>cluster_4</title>
<polygon fill="lavender" stroke="black" points="2066,-352 2066,-504 2438,-504 2438,-352 2066,-352"/>
</g>
<g id="graph6" class="cluster"><title>cluster_5</title>
<polygon fill="lavender" stroke="black" points="2086,-8 2086,-160 2256,-160 2256,-8 2086,-8"/>
</g>
<g id="graph7" class="cluster"><title>cluster_6</title>
<polygon fill="lavender" stroke="black" points="1763,-8 1763,-160 1897,-160 1897,-8 1763,-8"/>
</g>
<g id="graph8" class="cluster"><title>cluster_7</title>
<polygon fill="lavender" stroke="black" points="1569,-524 1569,-590 1739,-590 1739,-524 1569,-524"/>
</g>
<g id="graph9" class="cluster"><title>cluster_8</title>
<polygon fill="lavender" stroke="black" points="522,-94 522,-160 636,-160 636,-94 522,-94"/>
</g>
<g id="graph10" class="cluster"><title>cluster_9</title>
<polygon fill="lavender" stroke="black" points="2270,-524 2270,-590 2378,-590 2378,-524 2270,-524"/>
</g>
<g id="graph11" class="cluster"><title>cluster_10</title>
<polygon fill="lavender" stroke="black" points="806,-8 806,-74 944,-74 944,-8 806,-8"/>
</g>
<!-- 4 -->
<g id="node2" class="node"><title>4</title>
<polygon fill="crimson" stroke="black" points="369,-410 235,-410 235,-360 369,-360 369,-410"/>
<text text-anchor="middle" x="302" y="-390.4" font-family="Times Roman,serif" font-size="14.00">DNA</text>
<text text-anchor="middle" x="302" y="-372.4" font-family="Times Roman,serif" font-size="14.00">renderDNA</text>
</g>
<!-- 11 -->
<g id="node5" class="node"><title>11</title>
<polygon fill="crimson" stroke="black" points="502,-324 352,-324 352,-274 502,-274 502,-324"/>
<text text-anchor="middle" x="427" y="-304.4" font-family="Times Roman,serif" font-size="14.00">DoubleHelix</text>
<text text-anchor="middle" x="427" y="-286.4" font-family="Times Roman,serif" font-size="14.00">renderDHelix</text>
</g>
<!-- 4&#45;&gt;11 -->
<g id="edge24" class="edge"><title>4&#45;&gt;11</title>
<path fill="none" stroke="black" stroke-width="1.69315" d="M338.491,-359.894C351.978,-350.615 367.431,-339.983 381.611,-330.227"/>
<polygon fill="black" stroke="black" points="383.992,-332.838 390.247,-324.286 380.025,-327.071 383.992,-332.838"/>
</g>
<!-- 24 -->
<g id="node9" class="node"><title>24</title>
<polygon fill="crimson" stroke="black" points="334,-324 234,-324 234,-274 334,-274 334,-324"/>
<text text-anchor="middle" x="284" y="-304.4" font-family="Times Roman,serif" font-size="14.00">Misc</text>
<text text-anchor="middle" x="284" y="-286.4" font-family="Times Roman,serif" font-size="14.00">colour</text>
</g>
<!-- 4&#45;&gt;24 -->
<g id="edge30" class="edge"><title>4&#45;&gt;24</title>
<path fill="none" stroke="black" stroke-width="1.69315" d="M296.697,-359.662C295.012,-351.614 293.119,-342.567 291.318,-333.964"/>
<polygon fill="black" stroke="black" points="294.74,-333.227 289.265,-324.157 287.888,-334.662 294.74,-333.227"/>
</g>
<!-- 26 -->
<g id="node11" class="node"><title>26</title>
<polygon fill="crimson" stroke="black" points="262,-152 168,-152 168,-102 262,-102 262,-152"/>
<text text-anchor="middle" x="215" y="-132.4" font-family="Times Roman,serif" font-size="14.00">Misc</text>
<text text-anchor="middle" x="215" y="-114.4" font-family="Times Roman,serif" font-size="14.00">vec3f</text>
</g>
<!-- 4&#45;&gt;26 -->
<g id="edge32" class="edge"><title>4&#45;&gt;26</title>
<path fill="none" stroke="black" stroke-width="2.38629" d="M257.342,-359.754C244.675,-350.261 232.343,-338.251 225,-324 198.522,-272.612 202.615,-203.338 208.475,-162.109"/>
<polygon fill="black" stroke="black" points="211.967,-162.426 210.026,-152.01 205.049,-161.363 211.967,-162.426"/>
</g>
<!-- 23 -->
<g id="node40" class="node"><title>23</title>
<polygon fill="crimson" stroke="black" points="1871,-66 1777,-66 1777,-16 1871,-16 1871,-66"/>
<text text-anchor="middle" x="1824" y="-46.4" font-family="Times Roman,serif" font-size="14.00">Math</text>
<text text-anchor="middle" x="1824" y="-28.4" font-family="Times Roman,serif" font-size="14.00">phi</text>
</g>
<!-- 4&#45;&gt;23 -->
<g id="edge28" class="edge"><title>4&#45;&gt;23</title>
<path fill="none" stroke="black" d="M369.362,-369.775C624.723,-312.059 1530.61,-107.312 1767.16,-53.8478"/>
<polygon fill="black" stroke="black" points="1767.95,-57.257 1776.93,-51.6385 1766.41,-50.4293 1767.95,-57.257"/>
</g>
<!-- 22 -->
<g id="node48" class="node"><title>22</title>
<polygon fill="crimson" stroke="black" points="918,-66 814,-66 814,-16 918,-16 918,-66"/>
<text text-anchor="middle" x="866" y="-46.4" font-family="Times Roman,serif" font-size="14.00">Math</text>
<text text-anchor="middle" x="866" y="-28.4" font-family="Times Roman,serif" font-size="14.00">fromTo</text>
</g>
<!-- 4&#45;&gt;22 -->
<g id="edge26" class="edge"><title>4&#45;&gt;22</title>
<path fill="none" stroke="black" d="M247.676,-359.887C232.335,-350.521 216.877,-338.551 206,-324 143.531,-240.434 88.0353,-170.484 159,-94 180.795,-70.5102 635.046,-50.1625 803.694,-43.391"/>
<polygon fill="black" stroke="black" points="804.053,-46.8795 813.905,-42.9836 803.773,-39.8851 804.053,-46.8795"/>
</g>
<!-- 7 -->
<g id="node3" class="node"><title>7</title>
<polygon fill="crimson" stroke="black" points="124,-496 16,-496 16,-446 124,-446 124,-496"/>
<text text-anchor="middle" x="70" y="-476.4" font-family="Times Roman,serif" font-size="14.00">Display</text>
<text text-anchor="middle" x="70" y="-458.4" font-family="Times Roman,serif" font-size="14.00">display</text>
</g>
<!-- 7&#45;&gt;4 -->
<g id="edge46" class="edge"><title>7&#45;&gt;4</title>
<path fill="none" stroke="black" d="M124.186,-449.158C127.158,-448.066 130.111,-447.006 133,-446 173.765,-431.804 185.466,-432.844 226,-418 229.516,-416.712 233.103,-415.345 236.71,-413.928"/>
<polygon fill="black" stroke="black" points="238.299,-417.062 246.269,-410.082 235.686,-410.568 238.299,-417.062"/>
</g>
<!-- 25 -->
<g id="node10" class="node"><title>25</title>
<polygon fill="crimson" stroke="black" points="217,-410 89,-410 89,-360 217,-360 217,-410"/>
<text text-anchor="middle" x="153" y="-390.4" font-family="Times Roman,serif" font-size="14.00">Misc</text>
<text text-anchor="middle" x="153" y="-372.4" font-family="Times Roman,serif" font-size="14.00">evenScale</text>
</g>
<!-- 7&#45;&gt;25 -->
<g id="edge48" class="edge"><title>7&#45;&gt;25</title>
<path fill="none" stroke="black" d="M94.4538,-445.662C102.981,-436.827 112.671,-426.787 121.678,-417.454"/>
<polygon fill="black" stroke="black" points="124.295,-419.783 128.721,-410.157 119.258,-414.922 124.295,-419.783"/>
</g>
<!-- 7&#45;&gt;26 -->
<g id="edge50" class="edge"><title>7&#45;&gt;26</title>
<path fill="none" stroke="black" stroke-width="2.94591" d="M68.8519,-445.74C68.4891,-421.198 69.9407,-383.175 80,-352 103.95,-277.777 156.245,-202.198 188.261,-160.274"/>
<polygon fill="black" stroke="black" points="191.231,-162.153 194.573,-152.099 185.691,-157.875 191.231,-162.153"/>
</g>
<!-- 30 -->
<g id="node17" class="node"><title>30</title>
<polygon fill="crimson" stroke="black" points="1742,-410 1576,-410 1576,-360 1742,-360 1742,-410"/>
<text text-anchor="middle" x="1659" y="-390.4" font-family="Times Roman,serif" font-size="14.00">ProgramState</text>
<text text-anchor="middle" x="1659" y="-372.4" font-family="Times Roman,serif" font-size="14.00">extractModeRef</text>
</g>
<!-- 7&#45;&gt;30 -->
<g id="edge54" class="edge"><title>7&#45;&gt;30</title>
<path fill="none" stroke="black" d="M124.27,-448.087C127.195,-447.286 130.116,-446.581 133,-446 445.46,-383.102 1253.53,-475.677 1567,-418 1574,-416.712 1581.17,-414.961 1588.28,-412.932"/>
<polygon fill="black" stroke="black" points="1589.35,-416.265 1597.9,-410.012 1587.32,-409.567 1589.35,-416.265"/>
</g>
<!-- 31 -->
<g id="node18" class="node"><title>31</title>
<polygon fill="crimson" stroke="black" points="684,-410 530,-410 530,-360 684,-360 684,-410"/>
<text text-anchor="middle" x="607" y="-390.4" font-family="Times Roman,serif" font-size="14.00">ProgramState</text>
<text text-anchor="middle" x="607" y="-372.4" font-family="Times Roman,serif" font-size="14.00">extractRXRef</text>
</g>
<!-- 7&#45;&gt;31 -->
<g id="edge56" class="edge"><title>7&#45;&gt;31</title>
<path fill="none" stroke="black" d="M124.31,-448.273C127.224,-447.424 130.132,-446.657 133,-446 300.232,-407.693 350.344,-454.407 518,-418 524.13,-416.669 530.404,-415.004 536.644,-413.134"/>
<polygon fill="black" stroke="black" points="537.921,-416.402 546.398,-410.046 535.807,-409.728 537.921,-416.402"/>
</g>
<!-- 32 -->
<g id="node19" class="node"><title>32</title>
<polygon fill="crimson" stroke="black" points="856,-410 702,-410 702,-360 856,-360 856,-410"/>
<text text-anchor="middle" x="779" y="-390.4" font-family="Times Roman,serif" font-size="14.00">ProgramState</text>
<text text-anchor="middle" x="779" y="-372.4" font-family="Times Roman,serif" font-size="14.00">extractRYRef</text>
</g>
<!-- 7&#45;&gt;32 -->
<g id="edge58" class="edge"><title>7&#45;&gt;32</title>
<path fill="none" stroke="black" d="M124.293,-448.194C127.211,-447.365 130.125,-446.624 133,-446 376.523,-393.111 449.181,-469.504 693,-418 699.058,-416.72 705.251,-415.073 711.399,-413.198"/>
<polygon fill="black" stroke="black" points="712.566,-416.499 720.999,-410.085 710.407,-409.841 712.566,-416.499"/>
</g>
<!-- 33 -->
<g id="node20" class="node"><title>33</title>
<polygon fill="crimson" stroke="black" points="1028,-410 874,-410 874,-360 1028,-360 1028,-410"/>
<text text-anchor="middle" x="951" y="-390.4" font-family="Times Roman,serif" font-size="14.00">ProgramState</text>
<text text-anchor="middle" x="951" y="-372.4" font-family="Times Roman,serif" font-size="14.00">extractRZRef</text>
</g>
<!-- 7&#45;&gt;33 -->
<g id="edge60" class="edge"><title>7&#45;&gt;33</title>
<path fill="none" stroke="black" d="M124.284,-448.153C127.205,-447.335 130.122,-446.607 133,-446 451.554,-378.769 546.069,-483.419 865,-418 871.168,-416.735 877.474,-415.078 883.728,-413.18"/>
<polygon fill="black" stroke="black" points="885.051,-416.431 893.487,-410.021 882.896,-409.771 885.051,-416.431"/>
</g>
<!-- 34 -->
<g id="node21" class="node"><title>34</title>
<polygon fill="crimson" stroke="black" points="1200,-410 1046,-410 1046,-360 1200,-360 1200,-410"/>
<text text-anchor="middle" x="1123" y="-390.4" font-family="Times Roman,serif" font-size="14.00">ProgramState</text>
<text text-anchor="middle" x="1123" y="-372.4" font-family="Times Roman,serif" font-size="14.00">extractTXRef</text>
</g>
<!-- 7&#45;&gt;34 -->
<g id="edge62" class="edge"><title>7&#45;&gt;34</title>
<path fill="none" stroke="black" d="M124.279,-448.127C127.201,-447.316 130.119,-446.597 133,-446 526.605,-364.422 642.937,-497.339 1037,-418 1043.17,-416.757 1049.48,-415.116 1055.74,-413.228"/>
<polygon fill="black" stroke="black" points="1057.06,-416.481 1065.5,-410.081 1054.91,-409.819 1057.06,-416.481"/>
</g>
<!-- 35 -->
<g id="node22" class="node"><title>35</title>
<polygon fill="crimson" stroke="black" points="1372,-410 1218,-410 1218,-360 1372,-360 1372,-410"/>
<text text-anchor="middle" x="1295" y="-390.4" font-family="Times Roman,serif" font-size="14.00">ProgramState</text>
<text text-anchor="middle" x="1295" y="-372.4" font-family="Times Roman,serif" font-size="14.00">extractTYRef</text>
</g>
<!-- 7&#45;&gt;35 -->
<g id="edge64" class="edge"><title>7&#45;&gt;35</title>
<path fill="none" stroke="black" d="M124.275,-448.11C127.198,-447.303 130.118,-446.59 133,-446 367.334,-398.037 974.397,-464.63 1209,-418 1215.18,-416.772 1221.49,-415.142 1227.74,-413.261"/>
<polygon fill="black" stroke="black" points="1229.06,-416.515 1237.51,-410.122 1226.92,-409.851 1229.06,-416.515"/>
</g>
<!-- 37 -->
<g id="node23" class="node"><title>37</title>
<polygon fill="crimson" stroke="black" points="1558,-410 1390,-410 1390,-360 1558,-360 1558,-410"/>
<text text-anchor="middle" x="1474" y="-390.4" font-family="Times Roman,serif" font-size="14.00">ProgramState</text>
<text text-anchor="middle" x="1474" y="-372.4" font-family="Times Roman,serif" font-size="14.00">extractZoomRef</text>
</g>
<!-- 7&#45;&gt;37 -->
<g id="edge66" class="edge"><title>7&#45;&gt;37</title>
<path fill="none" stroke="black" d="M124.272,-448.097C127.196,-447.294 130.117,-446.585 133,-446 404.868,-390.861 1108.16,-468.129 1381,-418 1388.01,-416.712 1395.19,-414.972 1402.32,-412.96"/>
<polygon fill="black" stroke="black" points="1403.39,-416.291 1411.96,-410.065 1401.38,-409.587 1403.39,-416.291"/>
</g>
<!-- 28 -->
<g id="node33" class="node"><title>28</title>
<polygon fill="crimson" stroke="black" points="2234,-410 2074,-410 2074,-360 2234,-360 2234,-410"/>
<text text-anchor="middle" x="2154" y="-390.4" font-family="Times Roman,serif" font-size="14.00">ProgramState</text>
<text text-anchor="middle" x="2154" y="-372.4" font-family="Times Roman,serif" font-size="14.00">extractDNARef</text>
</g>
<!-- 7&#45;&gt;28 -->
<g id="edge52" class="edge"><title>7&#45;&gt;28</title>
<path fill="none" stroke="black" d="M124.267,-448.069C127.192,-447.273 130.115,-446.573 133,-446 343.246,-404.225 1851.09,-456.262 2062,-418 2069,-416.73 2076.18,-414.99 2083.29,-412.969"/>
<polygon fill="black" stroke="black" points="2084.35,-416.303 2092.91,-410.056 2082.32,-409.603 2084.35,-416.303"/>
</g>
<!-- 8 -->
<g id="node4" class="node"><title>8</title>
<polygon fill="crimson" stroke="black" points="304,-496 142,-496 142,-446 304,-446 304,-496"/>
<text text-anchor="middle" x="223" y="-476.4" font-family="Times Roman,serif" font-size="14.00">Display</text>
<text text-anchor="middle" x="223" y="-458.4" font-family="Times Roman,serif" font-size="14.00">handleReshape</text>
</g>
<!-- 16 -->
<g id="node6" class="node"><title>16</title>
<polygon fill="crimson" stroke="black" points="493,-238 355,-238 355,-188 493,-188 493,-238"/>
<text text-anchor="middle" x="424" y="-218.4" font-family="Times Roman,serif" font-size="14.00">Helix</text>
<text text-anchor="middle" x="424" y="-200.4" font-family="Times Roman,serif" font-size="14.00">renderHelix</text>
</g>
<!-- 11&#45;&gt;16 -->
<g id="edge70" class="edge"><title>11&#45;&gt;16</title>
<path fill="none" stroke="chartreuse" stroke-width="1.69315" d="M426.116,-273.662C425.838,-265.702 425.527,-256.763 425.229,-248.245"/>
<polygon fill="chartreuse" stroke="chartreuse" points="428.724,-248.028 424.878,-238.157 421.728,-248.273 428.724,-248.028"/>
</g>
<!-- 21 -->
<g id="node8" class="node"><title>21</title>
<polygon fill="crimson" stroke="black" points="506,-152 328,-152 328,-102 506,-102 506,-152"/>
<text text-anchor="middle" x="417" y="-132.4" font-family="Times Roman,serif" font-size="14.00">Math</text>
<text text-anchor="middle" x="417" y="-114.4" font-family="Times Roman,serif" font-size="14.00">distanceBetween</text>
</g>
<!-- 16&#45;&gt;21 -->
<g id="edge82" class="edge"><title>16&#45;&gt;21</title>
<path fill="none" stroke="black" stroke-width="1.69315" d="M421.938,-187.662C421.29,-179.702 420.562,-170.763 419.869,-162.245"/>
<polygon fill="black" stroke="black" points="423.347,-161.84 419.048,-152.157 416.371,-162.408 423.347,-161.84"/>
</g>
<!-- 16&#45;&gt;26 -->
<g id="edge84" class="edge"><title>16&#45;&gt;26</title>
<path fill="none" stroke="black" stroke-width="2.09861" d="M362.987,-187.894C334.084,-176.001 299.779,-161.885 271.479,-150.24"/>
<polygon fill="black" stroke="black" points="272.708,-146.961 262.129,-146.393 270.044,-153.435 272.708,-146.961"/>
</g>
<!-- 27 -->
<g id="node44" class="node"><title>27</title>
<polygon fill="crimson" stroke="black" points="628,-152 530,-152 530,-102 628,-102 628,-152"/>
<text text-anchor="middle" x="579" y="-132.4" font-family="Times Roman,serif" font-size="14.00">Misc</text>
<text text-anchor="middle" x="579" y="-114.4" font-family="Times Roman,serif" font-size="14.00">ver3d</text>
</g>
<!-- 16&#45;&gt;27 -->
<g id="edge86" class="edge"><title>16&#45;&gt;27</title>
<path fill="none" stroke="black" d="M469.249,-187.894C486.681,-178.222 506.761,-167.081 524.942,-156.993"/>
<polygon fill="black" stroke="black" points="526.649,-160.049 533.695,-152.137 523.252,-153.928 526.649,-160.049"/>
</g>
<!-- 19 -->
<g id="node7" class="node"><title>19</title>
<polygon fill="crimson" stroke="black" points="506,-582 414,-582 414,-532 506,-532 506,-582"/>
<text text-anchor="middle" x="460" y="-562.4" font-family="Times Roman,serif" font-size="14.00">Main</text>
<text text-anchor="middle" x="460" y="-544.4" font-family="Times Roman,serif" font-size="14.00">init</text>
</g>
<!-- 19&#45;&gt;7 -->
<g id="edge114" class="edge"><title>19&#45;&gt;7</title>
<path fill="none" stroke="black" d="M413.935,-554.208C349.6,-549.268 229.85,-536.267 133,-504 129.678,-502.893 126.319,-501.627 122.972,-500.249"/>
<polygon fill="black" stroke="black" points="124.172,-496.953 113.61,-496.115 121.344,-503.357 124.172,-496.953"/>
</g>
<!-- 19&#45;&gt;8 -->
<g id="edge116" class="edge"><title>19&#45;&gt;8</title>
<path fill="none" stroke="black" d="M413.961,-540.473C384.974,-530.049 346.782,-516.283 313,-504 309.041,-502.561 304.985,-501.083 300.89,-499.589"/>
<polygon fill="black" stroke="black" points="301.885,-496.227 291.291,-496.084 299.484,-502.802 301.885,-496.227"/>
</g>
<!-- 38 -->
<g id="node12" class="node"><title>38</title>
<polygon fill="crimson" stroke="black" points="506,-496 322,-496 322,-446 506,-446 506,-496"/>
<text text-anchor="middle" x="414" y="-476.4" font-family="Times Roman,serif" font-size="14.00">ProgramState</text>
<text text-anchor="middle" x="414" y="-458.4" font-family="Times Roman,serif" font-size="14.00">newProgramState</text>
</g>
<!-- 19&#45;&gt;38 -->
<g id="edge120" class="edge"><title>19&#45;&gt;38</title>
<path fill="none" stroke="black" d="M446.447,-531.662C442.002,-523.352 436.987,-513.976 432.252,-505.124"/>
<polygon fill="black" stroke="black" points="435.259,-503.324 427.456,-496.157 429.086,-506.625 435.259,-503.324"/>
</g>
<!-- 17 -->
<g id="node14" class="node"><title>17</title>
<polygon fill="crimson" stroke="black" points="1256,-496 1162,-496 1162,-446 1256,-446 1256,-496"/>
<text text-anchor="middle" x="1209" y="-476.4" font-family="Times Roman,serif" font-size="14.00">Input</text>
<text text-anchor="middle" x="1209" y="-458.4" font-family="Times Roman,serif" font-size="14.00">input</text>
</g>
<!-- 19&#45;&gt;17 -->
<g id="edge118" class="edge"><title>19&#45;&gt;17</title>
<path fill="none" stroke="black" d="M506.007,-551.718C636.265,-536.761 1007.45,-494.142 1151.17,-477.64"/>
<polygon fill="black" stroke="black" points="1151.99,-481.069 1161.53,-476.451 1151.19,-474.114 1151.99,-481.069"/>
</g>
<!-- 2 -->
<g id="node26" class="node"><title>2</title>
<polygon fill="crimson" stroke="black" points="2680,-324 2564,-324 2564,-274 2680,-274 2680,-324"/>
<text text-anchor="middle" x="2622" y="-304.4" font-family="Times Roman,serif" font-size="14.00">DNA</text>
<text text-anchor="middle" x="2622" y="-286.4" font-family="Times Roman,serif" font-size="14.00">genDNA</text>
</g>
<!-- 19&#45;&gt;2 -->
<g id="edge108" class="edge"><title>19&#45;&gt;2</title>
<path fill="none" stroke="black" d="M506.049,-555.508C657.534,-550.626 1154.18,-534.819 1565,-524 1662.44,-521.434 2347.54,-528.037 2442,-504 2522.91,-483.412 2561.72,-486.808 2609,-418 2625.76,-393.612 2627.9,-359.541 2626.49,-334.102"/>
<polygon fill="black" stroke="black" points="2629.98,-333.835 2625.74,-324.127 2623,-334.362 2629.98,-333.835"/>
</g>
<!-- 3 -->
<g id="node27" class="node"><title>3</title>
<polygon fill="crimson" stroke="black" points="2734,-238 2614,-238 2614,-188 2734,-188 2734,-238"/>
<text text-anchor="middle" x="2674" y="-218.4" font-family="Times Roman,serif" font-size="14.00">DNA</text>
<text text-anchor="middle" x="2674" y="-200.4" font-family="Times Roman,serif" font-size="14.00">newDNA</text>
</g>
<!-- 19&#45;&gt;3 -->
<g id="edge110" class="edge"><title>19&#45;&gt;3</title>
<path fill="none" stroke="black" d="M506.048,-555.475C657.531,-550.49 1154.17,-534.4 1565,-524 1618.49,-522.646 2477.84,-522.643 2528,-504 2633.75,-464.693 2669.72,-430.487 2707,-324 2714.34,-303.026 2712.45,-295.543 2707,-274 2704.68,-264.828 2700.67,-255.539 2696.24,-247.07"/>
<polygon fill="black" stroke="black" points="2699.24,-245.272 2691.31,-238.246 2693.13,-248.684 2699.24,-245.272"/>
</g>
<!-- 6 -->
<g id="node32" class="node"><title>6</title>
<polygon fill="crimson" stroke="black" points="2211,-496 2097,-496 2097,-446 2211,-446 2211,-496"/>
<text text-anchor="middle" x="2154" y="-476.4" font-family="Times Roman,serif" font-size="14.00">Display</text>
<text text-anchor="middle" x="2154" y="-458.4" font-family="Times Roman,serif" font-size="14.00">animate</text>
</g>
<!-- 19&#45;&gt;6 -->
<g id="edge112" class="edge"><title>19&#45;&gt;6</title>
<path fill="none" stroke="black" d="M506.261,-555.667C765.012,-548.186 2022.77,-511.493 2062,-504 2070.27,-502.421 2078.78,-500.216 2087.14,-497.685"/>
<polygon fill="black" stroke="black" points="2088.39,-500.959 2096.86,-494.584 2086.27,-494.29 2088.39,-500.959"/>
</g>
<!-- 18 -->
<g id="node15" class="node"><title>18</title>
<polygon fill="crimson" stroke="black" points="1866,-410 1760,-410 1760,-360 1866,-360 1866,-410"/>
<text text-anchor="middle" x="1813" y="-390.4" font-family="Times Roman,serif" font-size="14.00">Input</text>
<text text-anchor="middle" x="1813" y="-372.4" font-family="Times Roman,serif" font-size="14.00">update</text>
</g>
<!-- 17&#45;&gt;18 -->
<g id="edge88" class="edge"><title>17&#45;&gt;18</title>
<path fill="none" stroke="black" stroke-width="3.83321" d="M1256.42,-468.736C1370.74,-462.898 1658.91,-445.813 1751,-418 1754.6,-416.914 1758.23,-415.611 1761.83,-414.159"/>
<polygon fill="black" stroke="black" points="1763.51,-417.244 1771.26,-410.016 1760.69,-410.835 1763.51,-417.244"/>
</g>
<!-- 29 -->
<g id="node16" class="node"><title>29</title>
<polygon fill="crimson" stroke="black" points="2050,-410 1884,-410 1884,-360 2050,-360 2050,-410"/>
<text text-anchor="middle" x="1967" y="-390.4" font-family="Times Roman,serif" font-size="14.00">ProgramState</text>
<text text-anchor="middle" x="1967" y="-372.4" font-family="Times Roman,serif" font-size="14.00">extractLevelRef</text>
</g>
<!-- 17&#45;&gt;29 -->
<g id="edge90" class="edge"><title>17&#45;&gt;29</title>
<path fill="none" stroke="black" stroke-width="1.69315" d="M1256.12,-468.874C1387.59,-462.686 1756.5,-443.493 1875,-418 1881.26,-416.653 1887.67,-414.987 1894.06,-413.124"/>
<polygon fill="black" stroke="black" points="1895.52,-416.337 1904.04,-410.052 1893.46,-409.647 1895.52,-416.337"/>
</g>
<!-- 17&#45;&gt;30 -->
<g id="edge92" class="edge"><title>17&#45;&gt;30</title>
<path fill="none" stroke="black" stroke-width="2.09861" d="M1256.21,-467.006C1325.24,-460.493 1457.45,-445.469 1567,-418 1572.69,-416.572 1578.53,-414.928 1584.36,-413.151"/>
<polygon fill="black" stroke="black" points="1585.68,-416.406 1594.15,-410.052 1583.56,-409.733 1585.68,-416.406"/>
</g>
<!-- 17&#45;&gt;31 -->
<g id="edge94" class="edge"><title>17&#45;&gt;31</title>
<path fill="none" stroke="black" stroke-width="1.69315" d="M1161.62,-467.74C1051.59,-459.91 781.468,-439.123 693,-418 687.42,-416.668 681.715,-415.061 676.029,-413.282"/>
<polygon fill="black" stroke="black" points="677.098,-409.949 666.505,-410.145 674.908,-416.598 677.098,-409.949"/>
</g>
<!-- 17&#45;&gt;32 -->
<g id="edge96" class="edge"><title>17&#45;&gt;32</title>
<path fill="none" stroke="black" stroke-width="1.69315" d="M1161.89,-466.955C1095.01,-460.492 969.101,-445.652 865,-418 859.784,-416.614 854.448,-415.021 849.115,-413.297"/>
<polygon fill="black" stroke="black" points="850.139,-409.949 839.545,-410.073 847.904,-416.583 850.139,-409.949"/>
</g>
<!-- 17&#45;&gt;33 -->
<g id="edge98" class="edge"><title>17&#45;&gt;33</title>
<path fill="none" stroke="black" stroke-width="1.69315" d="M1161.63,-457.342C1126.93,-447.108 1078.79,-432.438 1037,-418 1033,-416.619 1028.92,-415.172 1024.8,-413.686"/>
<polygon fill="black" stroke="black" points="1025.76,-410.31 1015.16,-410.164 1023.35,-416.885 1025.76,-410.31"/>
</g>
<!-- 17&#45;&gt;34 -->
<g id="edge100" class="edge"><title>17&#45;&gt;34</title>
<path fill="none" stroke="black" stroke-width="1.69315" d="M1183.66,-445.662C1174.83,-436.827 1164.79,-426.787 1155.45,-417.454"/>
<polygon fill="black" stroke="black" points="1157.7,-414.753 1148.16,-410.157 1152.75,-419.703 1157.7,-414.753"/>
</g>
<!-- 17&#45;&gt;35 -->
<g id="edge102" class="edge"><title>17&#45;&gt;35</title>
<path fill="none" stroke="black" stroke-width="1.69315" d="M1234.34,-445.662C1243.17,-436.827 1253.21,-426.787 1262.55,-417.454"/>
<polygon fill="black" stroke="black" points="1265.25,-419.703 1269.84,-410.157 1260.3,-414.753 1265.25,-419.703"/>
</g>
<!-- 17&#45;&gt;37 -->
<g id="edge104" class="edge"><title>17&#45;&gt;37</title>
<path fill="none" stroke="black" stroke-width="1.69315" d="M1256.26,-457.022C1290.91,-446.632 1339.03,-431.906 1381,-418 1385.54,-416.496 1390.19,-414.928 1394.88,-413.328"/>
<polygon fill="black" stroke="black" points="1396.22,-416.57 1404.54,-410.008 1393.94,-409.95 1396.22,-416.57"/>
</g>
<!-- 36 -->
<g id="node34" class="node"><title>36</title>
<polygon fill="crimson" stroke="black" points="2430,-410 2252,-410 2252,-360 2430,-360 2430,-410"/>
<text text-anchor="middle" x="2341" y="-390.4" font-family="Times Roman,serif" font-size="14.00">ProgramState</text>
<text text-anchor="middle" x="2341" y="-372.4" font-family="Times Roman,serif" font-size="14.00">extractUpdateRef</text>
</g>
<!-- 18&#45;&gt;36 -->
<g id="edge106" class="edge"><title>18&#45;&gt;36</title>
<path fill="none" stroke="black" d="M1842.45,-410.096C1854.52,-418.816 1869.14,-427.526 1884,-432 1921.24,-443.209 2195.94,-439.99 2234,-432 2251.51,-428.323 2269.66,-421.602 2285.92,-414.37"/>
<polygon fill="black" stroke="black" points="2287.64,-417.432 2295.26,-410.072 2284.71,-411.073 2287.64,-417.432"/>
</g>
<!-- 1 -->
<g id="node25" class="node"><title>1</title>
<polygon fill="crimson" stroke="black" points="2756,-152 2628,-152 2624,-148 2624,-102 2752,-102 2756,-106 2756,-152"/>
<polyline fill="none" stroke="black" points="2752,-148 2624,-148 "/>
<polyline fill="none" stroke="black" points="2752,-148 2752,-102 "/>
<polyline fill="none" stroke="black" points="2752,-148 2756,-152 "/>
<text text-anchor="middle" x="2690" y="-132.4" font-family="Times Roman,serif" font-size="14.00">DNA</text>
<text text-anchor="middle" x="2690" y="-114.4" font-family="Times Roman,serif" font-size="14.00">Data: DNA</text>
</g>
<!-- 2&#45;&gt;1 -->
<g id="edge12" class="edge"><title>2&#45;&gt;1</title>
<path fill="none" stroke="black" stroke-width="1.69315" d="M2680.04,-284.353C2703.85,-275.174 2729.06,-260.637 2743,-238 2754.65,-219.077 2750.78,-208.816 2743,-188 2739.2,-177.842 2732.87,-168.257 2725.87,-159.825"/>
<polygon fill="black" stroke="black" points="2728.28,-157.267 2719.02,-152.113 2723.05,-161.915 2728.28,-157.267"/>
</g>
<!-- 2&#45;&gt;2 -->
<g id="edge14" class="edge"><title>2&#45;&gt;2</title>
<path fill="none" stroke="black" d="M2680.31,-314.179C2690.73,-312.206 2698,-307.146 2698,-299 2698,-293.781 2695.01,-289.829 2690.13,-287.144"/>
<polygon fill="black" stroke="black" points="2690.91,-283.711 2680.31,-283.821 2688.66,-290.342 2690.91,-283.711"/>
</g>
<!-- 2&#45;&gt;3 -->
<g id="edge16" class="edge"><title>2&#45;&gt;3</title>
<path fill="none" stroke="black" d="M2637.32,-273.662C2642.4,-265.264 2648.13,-255.778 2653.54,-246.845"/>
<polygon fill="black" stroke="black" points="2656.61,-248.525 2658.79,-238.157 2650.62,-244.903 2656.61,-248.525"/>
</g>
<!-- 10 -->
<g id="node29" class="node"><title>10</title>
<polygon fill="crimson" stroke="black" points="2596,-238 2454,-238 2454,-188 2596,-188 2596,-238"/>
<text text-anchor="middle" x="2525" y="-218.4" font-family="Times Roman,serif" font-size="14.00">DoubleHelix</text>
<text text-anchor="middle" x="2525" y="-200.4" font-family="Times Roman,serif" font-size="14.00">genDHelix</text>
</g>
<!-- 2&#45;&gt;10 -->
<g id="edge18" class="edge"><title>2&#45;&gt;10</title>
<path fill="none" stroke="black" d="M2593.68,-273.894C2583.51,-264.878 2571.9,-254.584 2561.16,-245.058"/>
<polygon fill="black" stroke="black" points="2563.32,-242.301 2553.52,-238.286 2558.68,-247.539 2563.32,-242.301"/>
</g>
<!-- 15 -->
<g id="node30" class="node"><title>15</title>
<polygon fill="crimson" stroke="black" points="2894,-238 2772,-238 2772,-188 2894,-188 2894,-238"/>
<text text-anchor="middle" x="2833" y="-218.4" font-family="Times Roman,serif" font-size="14.00">Helix</text>
<text text-anchor="middle" x="2833" y="-200.4" font-family="Times Roman,serif" font-size="14.00">newHelix</text>
</g>
<!-- 2&#45;&gt;15 -->
<g id="edge20" class="edge"><title>2&#45;&gt;15</title>
<path fill="none" stroke="black" d="M2680.22,-275.272C2705.64,-264.91 2735.68,-252.665 2762.37,-241.787"/>
<polygon fill="black" stroke="black" points="2763.72,-245.017 2771.66,-238.002 2761.08,-238.535 2763.72,-245.017"/>
</g>
<!-- 3&#45;&gt;1 -->
<g id="edge22" class="edge"><title>3&#45;&gt;1</title>
<path fill="none" stroke="black" d="M2678.71,-187.662C2680.2,-179.702 2681.86,-170.763 2683.44,-162.245"/>
<polygon fill="black" stroke="black" points="2686.93,-162.628 2685.32,-152.157 2680.05,-161.348 2686.93,-162.628"/>
</g>
<!-- 5 -->
<g id="node28" class="node"><title>5</title>
<polygon fill="crimson" stroke="black" points="2600,-410 2454,-410 2454,-360 2600,-360 2600,-410"/>
<text text-anchor="middle" x="2527" y="-390.4" font-family="Times Roman,serif" font-size="14.00">DNA</text>
<text text-anchor="middle" x="2527" y="-372.4" font-family="Times Roman,serif" font-size="14.00">updateModel</text>
</g>
<!-- 5&#45;&gt;2 -->
<g id="edge34" class="edge"><title>5&#45;&gt;2</title>
<path fill="none" stroke="black" d="M2554.73,-359.894C2564.69,-350.878 2576.06,-340.584 2586.59,-331.058"/>
<polygon fill="black" stroke="black" points="2589,-333.592 2594.07,-324.286 2584.31,-328.403 2589,-333.592"/>
</g>
<!-- 5&#45;&gt;3 -->
<g id="edge36" class="edge"><title>5&#45;&gt;3</title>
<path fill="none" stroke="black" d="M2527.54,-359.918C2529.29,-335.558 2535.32,-298.728 2555,-274 2562.43,-264.659 2583.09,-252.98 2605.16,-242.348"/>
<polygon fill="black" stroke="black" points="2606.78,-245.455 2614.33,-238.022 2603.79,-239.124 2606.78,-245.455"/>
</g>
<!-- 14 -->
<g id="node39" class="node"><title>14</title>
<polygon fill="crimson" stroke="black" points="1889,-152 1771,-152 1771,-102 1889,-102 1889,-152"/>
<text text-anchor="middle" x="1830" y="-132.4" font-family="Times Roman,serif" font-size="14.00">Helix</text>
<text text-anchor="middle" x="1830" y="-114.4" font-family="Times Roman,serif" font-size="14.00">genHelix</text>
</g>
<!-- 10&#45;&gt;14 -->
<g id="edge68" class="edge"><title>10&#45;&gt;14</title>
<path fill="none" stroke="chartreuse" d="M2454,-204.752C2366.48,-194.53 2213.23,-176.443 2082,-160 2020.15,-152.251 1949.82,-143.005 1899.21,-136.274"/>
<polygon fill="chartreuse" stroke="chartreuse" points="1899.41,-132.771 1889.04,-134.92 1898.49,-139.709 1899.41,-132.771"/>
</g>
<!-- 12 -->
<g id="node36" class="node"><title>12</title>
<polygon fill="crimson" stroke="black" points="2239,-66 2107,-66 2103,-62 2103,-16 2235,-16 2239,-20 2239,-66"/>
<polyline fill="none" stroke="black" points="2235,-62 2103,-62 "/>
<polyline fill="none" stroke="black" points="2235,-62 2235,-16 "/>
<polyline fill="none" stroke="black" points="2235,-62 2239,-66 "/>
<text text-anchor="middle" x="2171" y="-46.4" font-family="Times Roman,serif" font-size="14.00">Helix</text>
<text text-anchor="middle" x="2171" y="-28.4" font-family="Times Roman,serif" font-size="14.00">Data: Helix</text>
</g>
<!-- 15&#45;&gt;12 -->
<g id="edge80" class="edge"><title>15&#45;&gt;12</title>
<path fill="none" stroke="black" d="M2826.27,-187.883C2817.31,-159.822 2798.55,-115.519 2765,-94 2722.56,-66.781 2400.85,-50.3001 2249.39,-43.9738"/>
<polygon fill="black" stroke="black" points="2249.37,-40.4697 2239.23,-43.5538 2249.08,-47.4638 2249.37,-40.4697"/>
</g>
<!-- 6&#45;&gt;29 -->
<g id="edge42" class="edge"><title>6&#45;&gt;29</title>
<path fill="none" stroke="black" d="M2099.41,-445.894C2078,-436.047 2053.27,-424.675 2031.02,-414.444"/>
<polygon fill="black" stroke="black" points="2032.21,-411.136 2021.66,-410.137 2029.28,-417.495 2032.21,-411.136"/>
</g>
<!-- 6&#45;&gt;5 -->
<g id="edge38" class="edge"><title>6&#45;&gt;5</title>
<path fill="none" stroke="black" d="M2211.01,-463.741C2269.64,-455.527 2363.25,-440.318 2442,-418 2446.92,-416.606 2451.95,-415.038 2456.99,-413.363"/>
<polygon fill="black" stroke="black" points="2458.34,-416.599 2466.65,-410.027 2456.05,-409.982 2458.34,-416.599"/>
</g>
<!-- 6&#45;&gt;28 -->
<g id="edge40" class="edge"><title>6&#45;&gt;28</title>
<path fill="none" stroke="black" d="M2154,-445.662C2154,-437.702 2154,-428.763 2154,-420.245"/>
<polygon fill="black" stroke="black" points="2157.5,-420.157 2154,-410.157 2150.5,-420.157 2157.5,-420.157"/>
</g>
<!-- 6&#45;&gt;36 -->
<g id="edge44" class="edge"><title>6&#45;&gt;36</title>
<path fill="none" stroke="black" stroke-width="1.69315" d="M2208.59,-445.894C2230,-436.047 2254.73,-424.675 2276.98,-414.444"/>
<polygon fill="black" stroke="black" points="2278.72,-417.495 2286.34,-410.137 2275.79,-411.136 2278.72,-417.495"/>
</g>
<!-- 13 -->
<g id="node37" class="node"><title>13</title>
<polygon fill="crimson" stroke="black" points="2248,-152 2094,-152 2094,-102 2248,-102 2248,-152"/>
<text text-anchor="middle" x="2171" y="-132.4" font-family="Times Roman,serif" font-size="14.00">Helix</text>
<text text-anchor="middle" x="2171" y="-114.4" font-family="Times Roman,serif" font-size="14.00">extractHeight</text>
</g>
<!-- 13&#45;&gt;12 -->
<g id="edge72" class="edge"><title>13&#45;&gt;12</title>
<path fill="none" stroke="black" d="M2171,-101.662C2171,-93.7016 2171,-84.7633 2171,-76.2449"/>
<polygon fill="black" stroke="black" points="2174.5,-76.1566 2171,-66.1566 2167.5,-76.1566 2174.5,-76.1566"/>
</g>
<!-- 14&#45;&gt;12 -->
<g id="edge74" class="edge"><title>14&#45;&gt;12</title>
<path fill="none" stroke="black" d="M1889.01,-112.118C1945.46,-97.8805 2030.96,-76.319 2093.01,-60.67"/>
<polygon fill="black" stroke="black" points="2093.92,-64.0504 2102.76,-58.2112 2092.2,-57.263 2093.92,-64.0504"/>
</g>
<!-- 14&#45;&gt;23 -->
<g id="edge78" class="edge"><title>14&#45;&gt;23</title>
<path fill="none" stroke="black" d="M1828.23,-101.662C1827.68,-93.7016 1827.05,-84.7633 1826.46,-76.2449"/>
<polygon fill="black" stroke="black" points="1829.94,-75.8887 1825.76,-66.1566 1822.96,-76.376 1829.94,-75.8887"/>
</g>
<!-- 14&#45;&gt;22 -->
<g id="edge76" class="edge"><title>14&#45;&gt;22</title>
<path fill="none" stroke="black" d="M1770.79,-121.718C1599.29,-106.418 1103.29,-62.1692 928.148,-46.5443"/>
<polygon fill="black" stroke="black" points="928.34,-43.0476 918.068,-45.6451 927.718,-50.0199 928.34,-43.0476"/>
</g>
<!-- 9 -->
<g id="node42" class="node"><title>9</title>
<polygon fill="crimson" stroke="black" points="1731,-582 1577,-582 1577,-532 1731,-532 1731,-582"/>
<text text-anchor="middle" x="1654" y="-562.4" font-family="Times Roman,serif" font-size="14.00">DoubleHelix</text>
<text text-anchor="middle" x="1654" y="-544.4" font-family="Times Roman,serif" font-size="14.00">extractHeight</text>
</g>
<!-- 20 -->
<g id="node46" class="node"><title>20</title>
<polygon fill="gold" stroke="black" points="2370,-582 2278,-582 2278,-532 2370,-532 2370,-582"/>
<text text-anchor="middle" x="2324" y="-562.4" font-family="Times Roman,serif" font-size="14.00">Main</text>
<text text-anchor="middle" x="2324" y="-544.4" font-family="Times Roman,serif" font-size="14.00">main</text>
</g>
<!-- 22&#45;&gt;22 -->
<g id="edge122" class="edge"><title>22&#45;&gt;22</title>
<path fill="none" stroke="black" d="M918.202,-56.4597C928.592,-54.7196 936,-49.5664 936,-41 936,-35.5121 932.96,-31.4251 928.043,-28.7387"/>
<polygon fill="black" stroke="black" points="928.795,-25.3029 918.202,-25.5403 926.631,-31.9601 928.795,-25.3029"/>
</g>
</g>
</svg>
