<?xml version="1.0" encoding="UTF-8" standalone="no"?>
<!DOCTYPE svg PUBLIC "-//W3C//DTD SVG 1.1//EN"
 "http://www.w3.org/Graphics/SVG/1.1/DTD/svg11.dtd">
<!-- Generated by graphviz version 2.26.3 (20100126.1600)
 -->
<!-- Title: Diagram of: Display Pages: 1 -->
<svg width="426pt" height="44pt"
 viewBox="0.00 0.00 426.00 44.00" xmlns="http://www.w3.org/2000/svg" xmlns:xlink="http://www.w3.org/1999/xlink">
<g id="graph1" class="graph" transform="scale(1 1) rotate(0) translate(4 40)">
<title>Diagram of: Display</title>
<polygon fill="white" stroke="white" points="-4,5 -4,-40 423,-40 423,5 -4,5"/>
<!-- 1 -->
<g id="node1" class="node"><title>1</title>
<polygon fill="gold" stroke="black" stroke-width="2" points="114,-36 4.9738e-14,-36 0,-1.77636e-14 114,-3.55271e-15 114,-36"/>
<text text-anchor="middle" x="57" y="-14.4" font-family="Times Roman,serif" font-size="14.00">animate</text>
</g>
<!-- 2 -->
<g id="node2" class="node"><title>2</title>
<polygon fill="gold" stroke="black" stroke-width="2" points="238,-36 132,-36 132,-1.77636e-14 238,-3.55271e-15 238,-36"/>
<text text-anchor="middle" x="185" y="-14.4" font-family="Times Roman,serif" font-size="14.00">display</text>
</g>
<!-- 3 -->
<g id="node3" class="node"><title>3</title>
<polygon fill="gold" stroke="black" stroke-width="2" points="418,-36 256,-36 256,-1.77636e-14 418,-3.55271e-15 418,-36"/>
<text text-anchor="middle" x="337" y="-14.4" font-family="Times Roman,serif" font-size="14.00">handleReshape</text>
</g>
</g>
</svg>
