<?xml version="1.0" encoding="UTF-8" standalone="no"?>
<!DOCTYPE svg PUBLIC "-//W3C//DTD SVG 1.1//EN"
 "http://www.w3.org/Graphics/SVG/1.1/DTD/svg11.dtd">
<!-- Generated by graphviz version 2.26.3 (20100126.1600)
 -->
<!-- Title: Levels within Display Pages: 1 -->
<svg width="458pt" height="102pt"
 viewBox="0.00 0.00 458.00 102.00" xmlns="http://www.w3.org/2000/svg" xmlns:xlink="http://www.w3.org/1999/xlink">
<g id="graph1" class="graph" transform="scale(1 1) rotate(0) translate(4 98)">
<title>Levels within Display</title>
<polygon fill="white" stroke="white" points="-4,5 -4,-98 455,-98 455,5 -4,5"/>
<g id="graph2" class="cluster"><title>cluster_0</title>
<polygon fill="lavender" stroke="black" points="8,-8 8,-86 442,-86 442,-8 8,-8"/>
<text text-anchor="middle" x="225" y="-69.4" font-family="Times Roman,serif" font-size="14.00">Exported root entities</text>
</g>
<!-- 1 -->
<g id="node2" class="node"><title>1</title>
<polygon fill="gold" stroke="black" stroke-width="2" points="434,-52 320,-52 320,-16 434,-16 434,-52"/>
<text text-anchor="middle" x="377" y="-30.4" font-family="Times Roman,serif" font-size="14.00">animate</text>
</g>
<!-- 2 -->
<g id="node3" class="node"><title>2</title>
<polygon fill="gold" stroke="black" stroke-width="2" points="302,-52 196,-52 196,-16 302,-16 302,-52"/>
<text text-anchor="middle" x="249" y="-30.4" font-family="Times Roman,serif" font-size="14.00">display</text>
</g>
<!-- 3 -->
<g id="node4" class="node"><title>3</title>
<polygon fill="gold" stroke="black" stroke-width="2" points="178,-52 16,-52 16,-16 178,-16 178,-52"/>
<text text-anchor="middle" x="97" y="-30.4" font-family="Times Roman,serif" font-size="14.00">handleReshape</text>
</g>
</g>
</svg>
