<?xml version="1.0" encoding="UTF-8" standalone="no"?>
<!DOCTYPE svg PUBLIC "-//W3C//DTD SVG 1.1//EN"
 "http://www.w3.org/Graphics/SVG/1.1/DTD/svg11.dtd">
<!-- Generated by graphviz version 2.26.3 (20100126.1600)
 -->
<!-- Title: Diagram of: DNA Pages: 1 -->
<svg width="343pt" height="282pt"
 viewBox="0.00 0.00 343.00 282.00" xmlns="http://www.w3.org/2000/svg" xmlns:xlink="http://www.w3.org/1999/xlink">
<g id="graph1" class="graph" transform="scale(1 1) rotate(0) translate(4 278)">
<title>Diagram of: DNA</title>
<polygon fill="white" stroke="white" points="-4,5 -4,-278 340,-278 340,5 -4,5"/>
<g id="graph2" class="cluster"><title>cluster_Data_DNA</title>
<polygon fill="papayawhip" stroke="papayawhip" points="61,-8 143,-8 155,-20 155,-74 143,-86 61,-86 49,-74 49,-20 61,-8"/>
<path fill="papayawhip" stroke="papayawhip" d="M143,-8C149,-8 155,-14 155,-20"/>
<path fill="papayawhip" stroke="papayawhip" d="M155,-74C155,-80 149,-86 143,-86"/>
<path fill="papayawhip" stroke="papayawhip" d="M61,-86C55,-86 49,-80 49,-74"/>
<path fill="papayawhip" stroke="papayawhip" d="M49,-20C49,-14 55,-8 61,-8"/>
<polyline fill="none" stroke="black" points="61,-8 143,-8 "/>
<path fill="none" stroke="black" d="M143,-8C149,-8 155,-14 155,-20"/>
<polyline fill="none" stroke="black" points="155,-20 155,-74 "/>
<path fill="none" stroke="black" d="M155,-74C155,-80 149,-86 143,-86"/>
<polyline fill="none" stroke="black" points="143,-86 61,-86 "/>
<path fill="none" stroke="black" d="M61,-86C55,-86 49,-80 49,-74"/>
<polyline fill="none" stroke="black" points="49,-74 49,-20 "/>
<path fill="none" stroke="black" d="M49,-20C49,-14 55,-8 61,-8"/>
<text text-anchor="middle" x="102" y="-69.4" font-family="Times Roman,serif" font-size="14.00">Data: DNA</text>
</g>
<!-- 1 -->
<g id="node2" class="node"><title>1</title>
<polygon fill="cyan" stroke="black" stroke-width="2" points="147,-52 61,-52 57,-48 57,-16 143,-16 147,-20 147,-52"/>
<polyline fill="none" stroke="black" stroke-width="2" points="143,-48 57,-48 "/>
<polyline fill="none" stroke="black" stroke-width="2" points="143,-48 143,-16 "/>
<polyline fill="none" stroke="black" stroke-width="2" points="143,-48 147,-52 "/>
<text text-anchor="middle" x="102" y="-30.4" font-family="Times Roman,serif" font-size="14.00">DNA</text>
</g>
<!-- 2 -->
<g id="node3" class="node"><title>2</title>
<polygon fill="goldenrod" stroke="black" stroke-width="2" points="116,-202 4.9738e-14,-202 0,-166 116,-166 116,-202"/>
<text text-anchor="middle" x="58" y="-180.4" font-family="Times Roman,serif" font-size="14.00">genDNA</text>
</g>
<!-- 2&#45;&gt;1 -->
<g id="edge3" class="edge"><title>2&#45;&gt;1</title>
<path fill="none" stroke="black" stroke-width="1.69315" d="M60.8115,-165.817C63.8889,-147.456 69.4144,-118.399 77,-94 80.402,-83.0574 85.0387,-71.3552 89.3953,-61.2178"/>
<polygon fill="black" stroke="black" points="92.604,-62.6159 93.437,-52.0538 86.1992,-59.7911 92.604,-62.6159"/>
</g>
<!-- 2&#45;&gt;2 -->
<g id="edge5" class="edge"><title>2&#45;&gt;2</title>
<path fill="none" stroke="black" d="M116.312,-196.708C126.726,-195.056 134,-190.82 134,-184 134,-179.631 131.015,-176.322 126.131,-174.074"/>
<polygon fill="black" stroke="black" points="126.887,-170.65 116.312,-171.292 124.979,-177.385 126.887,-170.65"/>
</g>
<!-- 3 -->
<g id="node4" class="node"><title>3</title>
<polygon fill="goldenrod" stroke="black" stroke-width="2" points="206,-130 86,-130 86,-94 206,-94 206,-130"/>
<text text-anchor="middle" x="146" y="-108.4" font-family="Times Roman,serif" font-size="14.00">newDNA</text>
</g>
<!-- 2&#45;&gt;3 -->
<g id="edge7" class="edge"><title>2&#45;&gt;3</title>
<path fill="none" stroke="black" d="M80.2061,-165.831C91.045,-156.963 104.244,-146.164 115.968,-136.572"/>
<polygon fill="black" stroke="black" points="118.278,-139.204 123.801,-130.163 113.845,-133.786 118.278,-139.204"/>
</g>
<!-- 3&#45;&gt;1 -->
<g id="edge9" class="edge"><title>3&#45;&gt;1</title>
<path fill="none" stroke="black" d="M135.795,-93.9092C130.281,-84.1349 123.364,-71.8729 117.227,-60.9925"/>
<polygon fill="black" stroke="black" points="120.264,-59.2531 112.302,-52.2629 114.167,-62.6923 120.264,-59.2531"/>
</g>
<!-- 4 -->
<g id="node5" class="node"><title>4</title>
<polygon fill="gold" stroke="black" stroke-width="2" points="335,-274 201,-274 201,-238 335,-238 335,-274"/>
<text text-anchor="middle" x="268" y="-252.4" font-family="Times Roman,serif" font-size="14.00">renderDNA</text>
</g>
<!-- 5 -->
<g id="node6" class="node"><title>5</title>
<polygon fill="gold" stroke="black" stroke-width="2" points="183,-274 37,-274 37,-238 183,-238 183,-274"/>
<text text-anchor="middle" x="110" y="-252.4" font-family="Times Roman,serif" font-size="14.00">updateModel</text>
</g>
<!-- 5&#45;&gt;2 -->
<g id="edge11" class="edge"><title>5&#45;&gt;2</title>
<path fill="none" stroke="black" d="M96.8782,-237.831C90.9501,-229.623 83.8271,-219.761 77.3067,-210.732"/>
<polygon fill="black" stroke="black" points="79.9908,-208.471 71.2985,-202.413 74.316,-212.569 79.9908,-208.471"/>
</g>
<!-- 5&#45;&gt;3 -->
<g id="edge13" class="edge"><title>5&#45;&gt;3</title>
<path fill="none" stroke="black" d="M124.499,-237.658C131.48,-227.707 139.155,-214.841 143,-202 149.007,-181.938 149.549,-158.228 148.701,-140.182"/>
<polygon fill="black" stroke="black" points="152.182,-139.778 148.05,-130.022 145.196,-140.225 152.182,-139.778"/>
</g>
</g>
</svg>
