<?xml version="1.0" encoding="UTF-8" standalone="no"?>
<!DOCTYPE svg PUBLIC "-//W3C//DTD SVG 1.1//EN"
 "http://www.w3.org/Graphics/SVG/1.1/DTD/svg11.dtd">
<!-- Generated by graphviz version 2.26.3 (20100126.1600)
 -->
<!-- Title: Levels within DNA Pages: 1 -->
<svg width="338pt" height="332pt"
 viewBox="0.00 0.00 338.00 332.00" xmlns="http://www.w3.org/2000/svg" xmlns:xlink="http://www.w3.org/1999/xlink">
<g id="graph1" class="graph" transform="scale(1 1) rotate(0) translate(4 328)">
<title>Levels within DNA</title>
<polygon fill="white" stroke="white" points="-4,5 -4,-328 335,-328 335,5 -4,5"/>
<g id="graph2" class="cluster"><title>cluster_0</title>
<polygon fill="lavender" stroke="black" points="8,-94 8,-316 322,-316 322,-94 8,-94"/>
<text text-anchor="middle" x="165" y="-299.4" font-family="Times Roman,serif" font-size="14.00">Exported root entities</text>
</g>
<g id="graph3" class="cluster"><title>cluster_1</title>
<polygon fill="lavender" stroke="black" points="50,-8 50,-86 198,-86 198,-8 50,-8"/>
<text text-anchor="middle" x="124" y="-69.4" font-family="Times Roman,serif" font-size="14.00">Level = 1</text>
</g>
<!-- 2 -->
<g id="node2" class="node"><title>2</title>
<polygon fill="goldenrod" stroke="black" stroke-width="2" points="214,-210 98,-210 98,-174 214,-174 214,-210"/>
<text text-anchor="middle" x="156" y="-188.4" font-family="Times Roman,serif" font-size="14.00">genDNA</text>
</g>
<!-- 2&#45;&gt;2 -->
<g id="edge6" class="edge"><title>2&#45;&gt;2</title>
<path fill="none" stroke="black" d="M214.312,-204.708C224.726,-203.056 232,-198.82 232,-192 232,-187.631 229.015,-184.322 224.131,-182.074"/>
<polygon fill="black" stroke="black" points="224.887,-178.65 214.312,-179.292 222.979,-185.385 224.887,-178.65"/>
</g>
<!-- 3 -->
<g id="node3" class="node"><title>3</title>
<polygon fill="goldenrod" stroke="black" stroke-width="2" points="139,-138 19,-138 19,-102 139,-102 139,-138"/>
<text text-anchor="middle" x="79" y="-116.4" font-family="Times Roman,serif" font-size="14.00">newDNA</text>
</g>
<!-- 2&#45;&gt;3 -->
<g id="edge8" class="edge"><title>2&#45;&gt;3</title>
<path fill="none" stroke="black" d="M136.57,-173.831C127.268,-165.134 115.98,-154.578 105.871,-145.127"/>
<polygon fill="black" stroke="black" points="108.119,-142.436 98.4241,-138.163 103.338,-147.549 108.119,-142.436"/>
</g>
<!-- 1 -->
<g id="node7" class="node"><title>1</title>
<polygon fill="cyan" stroke="black" stroke-width="2" points="190,-52 62,-52 58,-48 58,-16 186,-16 190,-20 190,-52"/>
<polyline fill="none" stroke="black" stroke-width="2" points="186,-48 58,-48 "/>
<polyline fill="none" stroke="black" stroke-width="2" points="186,-48 186,-16 "/>
<polyline fill="none" stroke="black" stroke-width="2" points="186,-48 190,-52 "/>
<text text-anchor="middle" x="124" y="-30.4" font-family="Times Roman,serif" font-size="14.00">Data: DNA</text>
</g>
<!-- 2&#45;&gt;1 -->
<g id="edge4" class="edge"><title>2&#45;&gt;1</title>
<path fill="none" stroke="black" stroke-width="1.69315" d="M156.126,-173.686C155.89,-153.807 154.409,-121.252 148,-94 145.438,-83.1062 141.229,-71.5923 137.045,-61.5956"/>
<polygon fill="black" stroke="black" points="140.143,-59.9451 132.932,-52.1837 133.729,-62.7485 140.143,-59.9451"/>
</g>
<!-- 3&#45;&gt;1 -->
<g id="edge10" class="edge"><title>3&#45;&gt;1</title>
<path fill="none" stroke="black" d="M88.5433,-101.762C94.6885,-90.0176 102.79,-74.5355 109.697,-61.3349"/>
<polygon fill="black" stroke="black" points="112.935,-62.6951 114.47,-52.2121 106.733,-59.4497 112.935,-62.6951"/>
</g>
<!-- 4 -->
<g id="node4" class="node"><title>4</title>
<polygon fill="gold" stroke="black" stroke-width="2" points="314,-282 180,-282 180,-246 314,-246 314,-282"/>
<text text-anchor="middle" x="247" y="-260.4" font-family="Times Roman,serif" font-size="14.00">renderDNA</text>
</g>
<!-- 5 -->
<g id="node5" class="node"><title>5</title>
<polygon fill="gold" stroke="black" stroke-width="2" points="162,-282 16,-282 16,-246 162,-246 162,-282"/>
<text text-anchor="middle" x="89" y="-260.4" font-family="Times Roman,serif" font-size="14.00">updateModel</text>
</g>
<!-- 5&#45;&gt;2 -->
<g id="edge12" class="edge"><title>5&#45;&gt;2</title>
<path fill="none" stroke="black" d="M105.907,-245.831C113.781,-237.369 123.292,-227.149 131.901,-217.897"/>
<polygon fill="black" stroke="black" points="134.615,-220.118 138.865,-210.413 129.491,-215.35 134.615,-220.118"/>
</g>
<!-- 5&#45;&gt;3 -->
<g id="edge14" class="edge"><title>5&#45;&gt;3</title>
<path fill="none" stroke="black" d="M87.7335,-245.762C86.0279,-221.201 82.9755,-177.247 80.969,-148.354"/>
<polygon fill="black" stroke="black" points="84.4407,-147.823 80.2562,-138.09 77.4575,-148.308 84.4407,-147.823"/>
</g>
</g>
</svg>
