<?xml version="1.0" encoding="UTF-8" standalone="no"?>
<!DOCTYPE svg PUBLIC "-//W3C//DTD SVG 1.1//EN"
 "http://www.w3.org/Graphics/SVG/1.1/DTD/svg11.dtd">
<!-- Generated by graphviz version 2.26.3 (20100126.1600)
 -->
<!-- Title: Diagram of: DoubleHelix Pages: 1 -->
<svg width="478pt" height="44pt"
 viewBox="0.00 0.00 478.00 44.00" xmlns="http://www.w3.org/2000/svg" xmlns:xlink="http://www.w3.org/1999/xlink">
<g id="graph1" class="graph" transform="scale(1 1) rotate(0) translate(4 40)">
<title>Diagram of: DoubleHelix</title>
<polygon fill="white" stroke="white" points="-4,5 -4,-40 475,-40 475,5 -4,5"/>
<!-- 1 -->
<g id="node1" class="node"><title>1</title>
<polygon fill="crimson" stroke="black" stroke-width="2" points="154,-36 8.52651e-14,-36 0,-1.77636e-14 154,-3.55271e-15 154,-36"/>
<text text-anchor="middle" x="77" y="-14.4" font-family="Times Roman,serif" font-size="14.00">extractHeight</text>
</g>
<!-- 2 -->
<g id="node2" class="node"><title>2</title>
<polygon fill="gold" stroke="black" stroke-width="2" points="302,-36 172,-36 172,-1.77636e-14 302,-3.55271e-15 302,-36"/>
<text text-anchor="middle" x="237" y="-14.4" font-family="Times Roman,serif" font-size="14.00">genDHelix</text>
</g>
<!-- 3 -->
<g id="node3" class="node"><title>3</title>
<polygon fill="gold" stroke="black" stroke-width="2" points="470,-36 320,-36 320,-1.77636e-14 470,-3.55271e-15 470,-36"/>
<text text-anchor="middle" x="395" y="-14.4" font-family="Times Roman,serif" font-size="14.00">renderDHelix</text>
</g>
</g>
</svg>
