<?xml version="1.0" encoding="UTF-8" standalone="no"?>
<!DOCTYPE svg PUBLIC "-//W3C//DTD SVG 1.1//EN"
 "http://www.w3.org/Graphics/SVG/1.1/DTD/svg11.dtd">
<!-- Generated by graphviz version 2.26.3 (20100126.1600)
 -->
<!-- Title: Levels within DoubleHelix Pages: 1 -->
<svg width="516pt" height="102pt"
 viewBox="0.00 0.00 516.00 102.00" xmlns="http://www.w3.org/2000/svg" xmlns:xlink="http://www.w3.org/1999/xlink">
<g id="graph1" class="graph" transform="scale(1 1) rotate(0) translate(4 98)">
<title>Levels within DoubleHelix</title>
<polygon fill="white" stroke="white" points="-4,5 -4,-98 513,-98 513,5 -4,5"/>
<g id="graph2" class="cluster"><title>cluster_&#45;1</title>
<polygon fill="lavender" stroke="black" points="8,-8 8,-86 178,-86 178,-8 8,-8"/>
<text text-anchor="middle" x="93" y="-69.4" font-family="Times Roman,serif" font-size="14.00">Inaccessible entities</text>
</g>
<g id="graph3" class="cluster"><title>cluster_0</title>
<polygon fill="lavender" stroke="black" points="186,-8 186,-86 500,-86 500,-8 186,-8"/>
<text text-anchor="middle" x="343" y="-69.4" font-family="Times Roman,serif" font-size="14.00">Exported root entities</text>
</g>
<!-- 1 -->
<g id="node2" class="node"><title>1</title>
<polygon fill="crimson" stroke="black" stroke-width="2" points="170,-52 16,-52 16,-16 170,-16 170,-52"/>
<text text-anchor="middle" x="93" y="-30.4" font-family="Times Roman,serif" font-size="14.00">extractHeight</text>
</g>
<!-- 2 -->
<g id="node4" class="node"><title>2</title>
<polygon fill="gold" stroke="black" stroke-width="2" points="492,-52 362,-52 362,-16 492,-16 492,-52"/>
<text text-anchor="middle" x="427" y="-30.4" font-family="Times Roman,serif" font-size="14.00">genDHelix</text>
</g>
<!-- 3 -->
<g id="node5" class="node"><title>3</title>
<polygon fill="gold" stroke="black" stroke-width="2" points="344,-52 194,-52 194,-16 344,-16 344,-52"/>
<text text-anchor="middle" x="269" y="-30.4" font-family="Times Roman,serif" font-size="14.00">renderDHelix</text>
</g>
</g>
</svg>
