<?xml version="1.0" encoding="UTF-8" standalone="no"?>
<!DOCTYPE svg PUBLIC "-//W3C//DTD SVG 1.1//EN"
 "http://www.w3.org/Graphics/SVG/1.1/DTD/svg11.dtd">
<!-- Generated by graphviz version 2.26.3 (20100126.1600)
 -->
<!-- Title: Diagram of: Helix Pages: 1 -->
<svg width="594pt" height="138pt"
 viewBox="0.00 0.00 594.00 138.00" xmlns="http://www.w3.org/2000/svg" xmlns:xlink="http://www.w3.org/1999/xlink">
<g id="graph1" class="graph" transform="scale(1 1) rotate(0) translate(4 134)">
<title>Diagram of: Helix</title>
<polygon fill="white" stroke="white" points="-4,5 -4,-134 591,-134 591,5 -4,5"/>
<g id="graph2" class="cluster"><title>cluster_Data_Helix</title>
<polygon fill="papayawhip" stroke="papayawhip" points="189,-8 273,-8 285,-20 285,-74 273,-86 189,-86 177,-74 177,-20 189,-8"/>
<path fill="papayawhip" stroke="papayawhip" d="M273,-8C279,-8 285,-14 285,-20"/>
<path fill="papayawhip" stroke="papayawhip" d="M285,-74C285,-80 279,-86 273,-86"/>
<path fill="papayawhip" stroke="papayawhip" d="M189,-86C183,-86 177,-80 177,-74"/>
<path fill="papayawhip" stroke="papayawhip" d="M177,-20C177,-14 183,-8 189,-8"/>
<polyline fill="none" stroke="black" points="189,-8 273,-8 "/>
<path fill="none" stroke="black" d="M273,-8C279,-8 285,-14 285,-20"/>
<polyline fill="none" stroke="black" points="285,-20 285,-74 "/>
<path fill="none" stroke="black" d="M285,-74C285,-80 279,-86 273,-86"/>
<polyline fill="none" stroke="black" points="273,-86 189,-86 "/>
<path fill="none" stroke="black" d="M189,-86C183,-86 177,-80 177,-74"/>
<polyline fill="none" stroke="black" points="177,-74 177,-20 "/>
<path fill="none" stroke="black" d="M177,-20C177,-14 183,-8 189,-8"/>
<text text-anchor="middle" x="231" y="-69.4" font-family="Times Roman,serif" font-size="14.00">Data: Helix</text>
</g>
<!-- 1 -->
<g id="node2" class="node"><title>1</title>
<polygon fill="cyan" stroke="black" stroke-width="2" points="277,-52 189,-52 185,-48 185,-16 273,-16 277,-20 277,-52"/>
<polyline fill="none" stroke="black" stroke-width="2" points="273,-48 185,-48 "/>
<polyline fill="none" stroke="black" stroke-width="2" points="273,-48 273,-16 "/>
<polyline fill="none" stroke="black" stroke-width="2" points="273,-48 277,-52 "/>
<text text-anchor="middle" x="231" y="-30.4" font-family="Times Roman,serif" font-size="14.00">Helix</text>
</g>
<!-- 2 -->
<g id="node3" class="node"><title>2</title>
<polygon fill="gold" stroke="black" stroke-width="2" points="154,-130 8.52651e-14,-130 0,-94 154,-94 154,-130"/>
<text text-anchor="middle" x="77" y="-108.4" font-family="Times Roman,serif" font-size="14.00">extractHeight</text>
</g>
<!-- 2&#45;&gt;1 -->
<g id="edge3" class="edge"><title>2&#45;&gt;1</title>
<path fill="none" stroke="black" d="M112.718,-93.9092C134.603,-82.8245 162.805,-68.5404 186.181,-56.7003"/>
<polygon fill="black" stroke="black" points="187.87,-59.7685 195.21,-52.1277 184.707,-53.5238 187.87,-59.7685"/>
</g>
<!-- 3 -->
<g id="node4" class="node"><title>3</title>
<polygon fill="gold" stroke="black" stroke-width="2" points="290,-130 172,-130 172,-94 290,-94 290,-130"/>
<text text-anchor="middle" x="231" y="-108.4" font-family="Times Roman,serif" font-size="14.00">genHelix</text>
</g>
<!-- 3&#45;&gt;1 -->
<g id="edge5" class="edge"><title>3&#45;&gt;1</title>
<path fill="none" stroke="black" d="M231,-93.9092C231,-84.5259 231,-72.8499 231,-62.3046"/>
<polygon fill="black" stroke="black" points="234.5,-62.2629 231,-52.2629 227.5,-62.2629 234.5,-62.2629"/>
</g>
<!-- 4 -->
<g id="node5" class="node"><title>4</title>
<polygon fill="gold" stroke="black" stroke-width="2" points="430,-130 308,-130 308,-94 430,-94 430,-130"/>
<text text-anchor="middle" x="369" y="-108.4" font-family="Times Roman,serif" font-size="14.00">newHelix</text>
</g>
<!-- 4&#45;&gt;1 -->
<g id="edge7" class="edge"><title>4&#45;&gt;1</title>
<path fill="none" stroke="black" d="M336.993,-93.9092C317.712,-83.0109 292.958,-69.0197 272.222,-57.2995"/>
<polygon fill="black" stroke="black" points="273.739,-54.1366 263.311,-52.2629 270.295,-60.2305 273.739,-54.1366"/>
</g>
<!-- 5 -->
<g id="node6" class="node"><title>5</title>
<polygon fill="gold" stroke="black" stroke-width="2" points="586,-130 448,-130 448,-94 586,-94 586,-130"/>
<text text-anchor="middle" x="517" y="-108.4" font-family="Times Roman,serif" font-size="14.00">renderHelix</text>
</g>
</g>
</svg>
