<?xml version="1.0" encoding="UTF-8" standalone="no"?>
<!DOCTYPE svg PUBLIC "-//W3C//DTD SVG 1.1//EN"
 "http://www.w3.org/Graphics/SVG/1.1/DTD/svg11.dtd">
<!-- Generated by graphviz version 2.26.3 (20100126.1600)
 -->
<!-- Title: Levels within Helix Pages: 1 -->
<svg width="626pt" height="188pt"
 viewBox="0.00 0.00 626.00 188.00" xmlns="http://www.w3.org/2000/svg" xmlns:xlink="http://www.w3.org/1999/xlink">
<g id="graph1" class="graph" transform="scale(1 1) rotate(0) translate(4 184)">
<title>Levels within Helix</title>
<polygon fill="white" stroke="white" points="-4,5 -4,-184 623,-184 623,5 -4,5"/>
<g id="graph2" class="cluster"><title>cluster_0</title>
<polygon fill="lavender" stroke="black" points="8,-94 8,-172 610,-172 610,-94 8,-94"/>
<text text-anchor="middle" x="309" y="-155.4" font-family="Times Roman,serif" font-size="14.00">Exported root entities</text>
</g>
<g id="graph3" class="cluster"><title>cluster_1</title>
<polygon fill="lavender" stroke="black" points="295,-8 295,-86 447,-86 447,-8 295,-8"/>
<text text-anchor="middle" x="371" y="-69.4" font-family="Times Roman,serif" font-size="14.00">Level = 1</text>
</g>
<!-- 2 -->
<g id="node2" class="node"><title>2</title>
<polygon fill="gold" stroke="black" stroke-width="2" points="602,-138 448,-138 448,-102 602,-102 602,-138"/>
<text text-anchor="middle" x="525" y="-116.4" font-family="Times Roman,serif" font-size="14.00">extractHeight</text>
</g>
<!-- 1 -->
<g id="node7" class="node"><title>1</title>
<polygon fill="cyan" stroke="black" stroke-width="2" points="439,-52 307,-52 303,-48 303,-16 435,-16 439,-20 439,-52"/>
<polyline fill="none" stroke="black" stroke-width="2" points="435,-48 303,-48 "/>
<polyline fill="none" stroke="black" stroke-width="2" points="435,-48 435,-16 "/>
<polyline fill="none" stroke="black" stroke-width="2" points="435,-48 439,-52 "/>
<text text-anchor="middle" x="371" y="-30.4" font-family="Times Roman,serif" font-size="14.00">Data: Helix</text>
</g>
<!-- 2&#45;&gt;1 -->
<g id="edge4" class="edge"><title>2&#45;&gt;1</title>
<path fill="none" stroke="black" d="M492.717,-101.972C469.308,-88.8993 437.462,-71.115 412.216,-57.0165"/>
<polygon fill="black" stroke="black" points="413.678,-53.8246 403.241,-52.0047 410.265,-59.9362 413.678,-53.8246"/>
</g>
<!-- 3 -->
<g id="node3" class="node"><title>3</title>
<polygon fill="gold" stroke="black" stroke-width="2" points="430,-138 312,-138 312,-102 430,-102 430,-138"/>
<text text-anchor="middle" x="371" y="-116.4" font-family="Times Roman,serif" font-size="14.00">genHelix</text>
</g>
<!-- 3&#45;&gt;1 -->
<g id="edge6" class="edge"><title>3&#45;&gt;1</title>
<path fill="none" stroke="black" d="M371,-101.762C371,-90.3597 371,-75.4342 371,-62.494"/>
<polygon fill="black" stroke="black" points="374.5,-62.2121 371,-52.2121 367.5,-62.2121 374.5,-62.2121"/>
</g>
<!-- 4 -->
<g id="node4" class="node"><title>4</title>
<polygon fill="gold" stroke="black" stroke-width="2" points="294,-138 172,-138 172,-102 294,-102 294,-138"/>
<text text-anchor="middle" x="233" y="-116.4" font-family="Times Roman,serif" font-size="14.00">newHelix</text>
</g>
<!-- 4&#45;&gt;1 -->
<g id="edge8" class="edge"><title>4&#45;&gt;1</title>
<path fill="none" stroke="black" d="M261.929,-101.972C282.722,-89.014 310.943,-71.4267 333.47,-57.3884"/>
<polygon fill="black" stroke="black" points="335.473,-60.2641 342.109,-52.0047 331.771,-54.3232 335.473,-60.2641"/>
</g>
<!-- 5 -->
<g id="node5" class="node"><title>5</title>
<polygon fill="gold" stroke="black" stroke-width="2" points="154,-138 16,-138 16,-102 154,-102 154,-138"/>
<text text-anchor="middle" x="85" y="-116.4" font-family="Times Roman,serif" font-size="14.00">renderHelix</text>
</g>
</g>
</svg>
