<?xml version="1.0" encoding="UTF-8" standalone="no"?>
<!DOCTYPE svg PUBLIC "-//W3C//DTD SVG 1.1//EN"
 "http://www.w3.org/Graphics/SVG/1.1/DTD/svg11.dtd">
<!-- Generated by graphviz version 2.26.3 (20100126.1600)
 -->
<!-- Title: Import visualisation Pages: 1 -->
<svg width="300pt" height="476pt"
 viewBox="0.00 0.00 299.70 476.00" xmlns="http://www.w3.org/2000/svg" xmlns:xlink="http://www.w3.org/1999/xlink">
<g id="graph1" class="graph" transform="scale(1 1) rotate(0) translate(4 472)">
<title>Import visualisation</title>
<polygon fill="white" stroke="white" points="-4,5 -4,-472 296.697,-472 296.697,5 -4,5"/>
<!-- 1 -->
<g id="node1" class="node"><title>1</title>
<polygon fill="bisque" stroke="black" points="166.697,-252 88.6972,-252 88.6972,-256 76.6972,-256 76.6972,-216 166.697,-216 166.697,-252"/>
<polyline fill="none" stroke="black" points="76.6972,-252 88.6972,-252 "/>
<text text-anchor="middle" x="121.697" y="-230.4" font-family="Times Roman,serif" font-size="14.00">DNA</text>
</g>
<!-- 3 -->
<g id="node3" class="node"><title>3</title>
<polygon fill="bisque" stroke="black" points="160.697,-180 30.6972,-180 30.6972,-184 18.6972,-184 18.6972,-144 160.697,-144 160.697,-180"/>
<polyline fill="none" stroke="black" points="18.6972,-180 30.6972,-180 "/>
<text text-anchor="middle" x="89.6972" y="-158.4" font-family="Times Roman,serif" font-size="14.00">DoubleHelix</text>
</g>
<!-- 1&#45;&gt;3 -->
<g id="edge2" class="edge"><title>1&#45;&gt;3</title>
<path fill="none" stroke="black" d="M113.622,-215.831C110.087,-207.877 105.861,-198.369 101.952,-189.572"/>
<polygon fill="black" stroke="black" points="105.141,-188.13 97.8809,-180.413 98.744,-190.973 105.141,-188.13"/>
</g>
<!-- 4 -->
<g id="node4" class="node"><title>4</title>
<polygon fill="bisque" stroke="black" points="166.697,-108 86.6972,-108 86.6972,-112 74.6972,-112 74.6972,-72 166.697,-72 166.697,-108"/>
<polyline fill="none" stroke="black" points="74.6972,-108 86.6972,-108 "/>
<text text-anchor="middle" x="120.697" y="-86.4" font-family="Times Roman,serif" font-size="14.00">Helix</text>
</g>
<!-- 1&#45;&gt;4 -->
<g id="edge4" class="edge"><title>1&#45;&gt;4</title>
<path fill="none" stroke="black" d="M143.918,-215.903C153.828,-206.389 164.437,-193.835 169.697,-180 175.383,-165.044 175.46,-158.926 169.697,-144 165.578,-133.331 158.264,-123.467 150.522,-115.168"/>
<polygon fill="black" stroke="black" points="152.915,-112.611 143.372,-108.009 147.962,-117.558 152.915,-112.611"/>
</g>
<!-- 7 -->
<g id="node7" class="node"><title>7</title>
<polygon fill="cyan" stroke="black" points="118.697,-36 36.6972,-36 36.6972,-40 24.6972,-40 24.6972,-1.77636e-14 118.697,-3.55271e-15 118.697,-36"/>
<polyline fill="none" stroke="black" points="24.6972,-36 36.6972,-36 "/>
<text text-anchor="middle" x="71.6972" y="-14.4" font-family="Times Roman,serif" font-size="14.00">Math</text>
</g>
<!-- 1&#45;&gt;7 -->
<g id="edge6" class="edge"><title>1&#45;&gt;7</title>
<path fill="none" stroke="black" d="M76.4333,-224.459C52.1737,-216.793 24.3349,-203.308 9.69723,-180 -18.0604,-135.801 20.1825,-77.1981 47.7831,-43.9518"/>
<polygon fill="black" stroke="black" points="50.6844,-45.9444 54.5243,-36.0699 45.3647,-41.3946 50.6844,-45.9444"/>
</g>
<!-- 8 -->
<g id="node8" class="node"><title>8</title>
<polygon fill="cyan" stroke="black" points="270.697,-36 194.697,-36 194.697,-40 182.697,-40 182.697,-1.77636e-14 270.697,-3.55271e-15 270.697,-36"/>
<polyline fill="none" stroke="black" points="182.697,-36 194.697,-36 "/>
<text text-anchor="middle" x="226.697" y="-14.4" font-family="Times Roman,serif" font-size="14.00">Misc</text>
</g>
<!-- 1&#45;&gt;8 -->
<g id="edge8" class="edge"><title>1&#45;&gt;8</title>
<path fill="none" stroke="black" d="M150.487,-215.801C163.017,-206.511 176.832,-194.174 185.697,-180 211.795,-138.273 221.308,-80.7108 224.757,-46.6229"/>
<polygon fill="black" stroke="black" points="228.264,-46.7043 225.677,-36.4301 221.293,-46.0749 228.264,-46.7043"/>
</g>
<!-- 2 -->
<g id="node2" class="node"><title>2</title>
<polygon fill="bisque" stroke="black" points="291.697,-396 195.697,-396 195.697,-400 183.697,-400 183.697,-360 291.697,-360 291.697,-396"/>
<polyline fill="none" stroke="black" points="183.697,-396 195.697,-396 "/>
<text text-anchor="middle" x="237.697" y="-374.4" font-family="Times Roman,serif" font-size="14.00">Display</text>
</g>
<!-- 2&#45;&gt;1 -->
<g id="edge10" class="edge"><title>2&#45;&gt;1</title>
<path fill="none" stroke="black" d="M235.324,-359.713C232.003,-340.202 224.384,-309.24 207.697,-288 197.959,-275.604 184.532,-265.28 171.181,-257.092"/>
<polygon fill="black" stroke="black" points="172.862,-254.021 162.458,-252.02 169.343,-260.073 172.862,-254.021"/>
</g>
<!-- 2&#45;&gt;8 -->
<g id="edge12" class="edge"><title>2&#45;&gt;8</title>
<path fill="none" stroke="black" d="M243.423,-359.567C251.349,-332.376 264.697,-279.784 264.697,-234 264.697,-234 264.697,-234 264.697,-162 264.697,-120.368 249.664,-74.14 238.509,-45.567"/>
<polygon fill="black" stroke="black" points="241.734,-44.2055 234.756,-36.2332 235.239,-46.817 241.734,-44.2055"/>
</g>
<!-- 9 -->
<g id="node9" class="node"><title>9</title>
<polygon fill="bisque" stroke="black" points="198.697,-324 56.6972,-324 56.6972,-328 44.6972,-328 44.6972,-288 198.697,-288 198.697,-324"/>
<polyline fill="none" stroke="black" points="44.6972,-324 56.6972,-324 "/>
<text text-anchor="middle" x="121.697" y="-302.4" font-family="Times Roman,serif" font-size="14.00">ProgramState</text>
</g>
<!-- 2&#45;&gt;9 -->
<g id="edge14" class="edge"><title>2&#45;&gt;9</title>
<path fill="none" stroke="black" d="M208.426,-359.831C193.588,-350.622 175.396,-339.33 159.511,-329.471"/>
<polygon fill="black" stroke="black" points="161.302,-326.463 150.96,-324.163 157.61,-332.41 161.302,-326.463"/>
</g>
<!-- 3&#45;&gt;4 -->
<g id="edge16" class="edge"><title>3&#45;&gt;4</title>
<path fill="none" stroke="black" d="M97.5198,-143.831C100.908,-135.962 104.951,-126.571 108.705,-117.853"/>
<polygon fill="black" stroke="black" points="112.029,-118.982 112.769,-108.413 105.6,-116.214 112.029,-118.982"/>
</g>
<!-- 4&#45;&gt;7 -->
<g id="edge18" class="edge"><title>4&#45;&gt;7</title>
<path fill="none" stroke="black" d="M108.332,-71.8314C102.746,-63.6232 96.0343,-53.7606 89.89,-44.7323"/>
<polygon fill="black" stroke="black" points="92.7483,-42.7112 84.2285,-36.4133 86.9613,-46.6496 92.7483,-42.7112"/>
</g>
<!-- 4&#45;&gt;8 -->
<g id="edge20" class="edge"><title>4&#45;&gt;8</title>
<path fill="none" stroke="black" d="M147.446,-71.8314C160.752,-62.7927 177.013,-51.7476 191.335,-42.0198"/>
<polygon fill="black" stroke="black" points="193.652,-44.677 199.958,-36.1628 189.719,-38.8864 193.652,-44.677"/>
</g>
<!-- 5 -->
<g id="node5" class="node"><title>5</title>
<polygon fill="bisque" stroke="black" points="127.697,-396 45.6972,-396 45.6972,-400 33.6972,-400 33.6972,-360 127.697,-360 127.697,-396"/>
<polyline fill="none" stroke="black" points="33.6972,-396 45.6972,-396 "/>
<text text-anchor="middle" x="80.6972" y="-374.4" font-family="Times Roman,serif" font-size="14.00">Input</text>
</g>
<!-- 5&#45;&gt;9 -->
<g id="edge22" class="edge"><title>5&#45;&gt;9</title>
<path fill="none" stroke="black" d="M91.0433,-359.831C95.621,-351.792 101.102,-342.167 106.156,-333.292"/>
<polygon fill="black" stroke="black" points="109.305,-334.835 111.212,-324.413 103.222,-331.371 109.305,-334.835"/>
</g>
<!-- 6 -->
<g id="node6" class="node"><title>6</title>
<polygon fill="gold" stroke="black" points="163.697,-468 83.6972,-468 83.6972,-472 71.6972,-472 71.6972,-432 163.697,-432 163.697,-468"/>
<polyline fill="none" stroke="black" points="71.6972,-468 83.6972,-468 "/>
<text text-anchor="middle" x="117.697" y="-446.4" font-family="Times Roman,serif" font-size="14.00">Main</text>
</g>
<!-- 6&#45;&gt;1 -->
<g id="edge24" class="edge"><title>6&#45;&gt;1</title>
<path fill="none" stroke="black" d="M71.4517,-434.709C53.5556,-426.271 34.9439,-413.798 24.6972,-396 16.7143,-382.134 23.4855,-375.954 24.6972,-360 27.1487,-327.722 17.9338,-315.062 35.6972,-288 43.9506,-275.426 56.2539,-265.236 68.9913,-257.237"/>
<polygon fill="black" stroke="black" points="70.9817,-260.127 77.8344,-252.047 67.4385,-254.09 70.9817,-260.127"/>
</g>
<!-- 6&#45;&gt;2 -->
<g id="edge26" class="edge"><title>6&#45;&gt;2</title>
<path fill="none" stroke="black" d="M147.978,-431.831C163.327,-422.622 182.147,-411.33 198.58,-401.471"/>
<polygon fill="black" stroke="black" points="200.652,-404.309 207.426,-396.163 197.05,-398.307 200.652,-404.309"/>
</g>
<!-- 6&#45;&gt;5 -->
<g id="edge28" class="edge"><title>6&#45;&gt;5</title>
<path fill="none" stroke="black" d="M108.361,-431.831C104.273,-423.877 99.3869,-414.369 94.8663,-405.572"/>
<polygon fill="black" stroke="black" points="97.8434,-403.708 90.1596,-396.413 91.6173,-406.907 97.8434,-403.708"/>
</g>
<!-- 6&#45;&gt;9 -->
<g id="edge30" class="edge"><title>6&#45;&gt;9</title>
<path fill="none" stroke="black" d="M125.789,-431.917C129.953,-421.618 134.589,-408.344 136.697,-396 139.391,-380.228 138.858,-375.853 136.697,-360 135.52,-351.364 133.33,-342.16 130.98,-333.843"/>
<polygon fill="black" stroke="black" points="134.323,-332.804 128.092,-324.235 127.619,-334.82 134.323,-332.804"/>
</g>
<!-- 9&#45;&gt;1 -->
<g id="edge32" class="edge"><title>9&#45;&gt;1</title>
<path fill="none" stroke="black" d="M121.697,-287.831C121.697,-280.131 121.697,-270.974 121.697,-262.417"/>
<polygon fill="black" stroke="black" points="125.197,-262.413 121.697,-252.413 118.197,-262.413 125.197,-262.413"/>
</g>
</g>
</svg>
