<?xml version="1.0" encoding="UTF-8" standalone="no"?>
<!DOCTYPE svg PUBLIC "-//W3C//DTD SVG 1.1//EN"
 "http://www.w3.org/Graphics/SVG/1.1/DTD/svg11.dtd">
<!-- Generated by graphviz version 2.26.3 (20100126.1600)
 -->
<!-- Title: Diagram of: Input Pages: 1 -->
<svg width="114pt" height="116pt"
 viewBox="0.00 0.00 114.00 116.00" xmlns="http://www.w3.org/2000/svg" xmlns:xlink="http://www.w3.org/1999/xlink">
<g id="graph1" class="graph" transform="scale(1 1) rotate(0) translate(4 112)">
<title>Diagram of: Input</title>
<polygon fill="white" stroke="white" points="-4,5 -4,-112 111,-112 111,5 -4,5"/>
<!-- 1 -->
<g id="node1" class="node"><title>1</title>
<polygon fill="gold" stroke="black" stroke-width="2" points="100,-108 6,-108 6,-72 100,-72 100,-108"/>
<text text-anchor="middle" x="53" y="-86.4" font-family="Times Roman,serif" font-size="14.00">input</text>
</g>
<!-- 2 -->
<g id="node2" class="node"><title>2</title>
<polygon fill="cyan" stroke="black" stroke-width="2" points="106,-36 5.68434e-14,-36 0,-1.77636e-14 106,-3.55271e-15 106,-36"/>
<text text-anchor="middle" x="53" y="-14.4" font-family="Times Roman,serif" font-size="14.00">update</text>
</g>
<!-- 1&#45;&gt;2 -->
<g id="edge2" class="edge"><title>1&#45;&gt;2</title>
<path fill="none" stroke="chartreuse" stroke-width="3.83321" d="M53,-71.8314C53,-64.131 53,-54.9743 53,-46.4166"/>
<polygon fill="chartreuse" stroke="chartreuse" points="56.5001,-46.4132 53,-36.4133 49.5001,-46.4133 56.5001,-46.4132"/>
</g>
</g>
</svg>
