<?xml version="1.0" encoding="UTF-8" standalone="no"?>
<!DOCTYPE svg PUBLIC "-//W3C//DTD SVG 1.1//EN"
 "http://www.w3.org/Graphics/SVG/1.1/DTD/svg11.dtd">
<!-- Generated by graphviz version 2.26.3 (20100126.1600)
 -->
<!-- Title: Levels within Input Pages: 1 -->
<svg width="192pt" height="188pt"
 viewBox="0.00 0.00 192.00 188.00" xmlns="http://www.w3.org/2000/svg" xmlns:xlink="http://www.w3.org/1999/xlink">
<g id="graph1" class="graph" transform="scale(1 1) rotate(0) translate(4 184)">
<title>Levels within Input</title>
<polygon fill="white" stroke="white" points="-4,5 -4,-184 189,-184 189,5 -4,5"/>
<g id="graph2" class="cluster"><title>cluster_0</title>
<polygon fill="lavender" stroke="black" points="8,-94 8,-172 176,-172 176,-94 8,-94"/>
<text text-anchor="middle" x="92" y="-155.4" font-family="Times Roman,serif" font-size="14.00">Exported root entities</text>
</g>
<g id="graph3" class="cluster"><title>cluster_1</title>
<polygon fill="lavender" stroke="black" points="29,-8 29,-86 151,-86 151,-8 29,-8"/>
<text text-anchor="middle" x="90" y="-69.4" font-family="Times Roman,serif" font-size="14.00">Level = 1</text>
</g>
<!-- 1 -->
<g id="node2" class="node"><title>1</title>
<polygon fill="gold" stroke="black" stroke-width="2" points="137,-138 43,-138 43,-102 137,-102 137,-138"/>
<text text-anchor="middle" x="90" y="-116.4" font-family="Times Roman,serif" font-size="14.00">input</text>
</g>
<!-- 2 -->
<g id="node4" class="node"><title>2</title>
<polygon fill="cyan" stroke="black" stroke-width="2" points="143,-52 37,-52 37,-16 143,-16 143,-52"/>
<text text-anchor="middle" x="90" y="-30.4" font-family="Times Roman,serif" font-size="14.00">update</text>
</g>
<!-- 1&#45;&gt;2 -->
<g id="edge4" class="edge"><title>1&#45;&gt;2</title>
<path fill="none" stroke="chartreuse" stroke-width="3.83321" d="M90,-101.762C90,-90.3597 90,-75.4342 90,-62.494"/>
<polygon fill="chartreuse" stroke="chartreuse" points="93.5001,-62.2121 90,-52.2121 86.5001,-62.2121 93.5001,-62.2121"/>
</g>
</g>
</svg>
