<?xml version="1.0" encoding="UTF-8" standalone="no"?>
<!DOCTYPE svg PUBLIC "-//W3C//DTD SVG 1.1//EN"
 "http://www.w3.org/Graphics/SVG/1.1/DTD/svg11.dtd">
<!-- Generated by graphviz version 2.26.3 (20100126.1600)
 -->
<!-- Title: Levels within Main Pages: 1 -->
<svg width="354pt" height="102pt"
 viewBox="0.00 0.00 354.00 102.00" xmlns="http://www.w3.org/2000/svg" xmlns:xlink="http://www.w3.org/1999/xlink">
<g id="graph1" class="graph" transform="scale(1 1) rotate(0) translate(4 98)">
<title>Levels within Main</title>
<polygon fill="white" stroke="white" points="-4,5 -4,-98 351,-98 351,5 -4,5"/>
<g id="graph2" class="cluster"><title>cluster_&#45;1</title>
<polygon fill="lavender" stroke="black" points="8,-8 8,-86 162,-86 162,-8 8,-8"/>
<text text-anchor="middle" x="85" y="-69.4" font-family="Times Roman,serif" font-size="14.00">Inaccessible entities</text>
</g>
<g id="graph3" class="cluster"><title>cluster_0</title>
<polygon fill="lavender" stroke="black" points="170,-8 170,-86 338,-86 338,-8 170,-8"/>
<text text-anchor="middle" x="254" y="-69.4" font-family="Times Roman,serif" font-size="14.00">Exported root entities</text>
</g>
<!-- 1 -->
<g id="node2" class="node"><title>1</title>
<polygon fill="crimson" stroke="black" stroke-width="2" points="125,-52 45,-52 45,-16 125,-16 125,-52"/>
<text text-anchor="middle" x="85" y="-30.4" font-family="Times Roman,serif" font-size="14.00">init</text>
</g>
<!-- 2 -->
<g id="node4" class="node"><title>2</title>
<polygon fill="gold" stroke="black" stroke-width="2" points="300,-52 208,-52 208,-16 300,-16 300,-52"/>
<text text-anchor="middle" x="254" y="-30.4" font-family="Times Roman,serif" font-size="14.00">main</text>
</g>
</g>
</svg>
