<?xml version="1.0" encoding="UTF-8" standalone="no"?>
<!DOCTYPE svg PUBLIC "-//W3C//DTD SVG 1.1//EN"
 "http://www.w3.org/Graphics/SVG/1.1/DTD/svg11.dtd">
<!-- Generated by graphviz version 2.26.3 (20100126.1600)
 -->
<!-- Title: Levels within Main Pages: 1 -->
<svg width="354pt" height="174pt"
 viewBox="0.00 0.00 354.00 174.00" xmlns="http://www.w3.org/2000/svg" xmlns:xlink="http://www.w3.org/1999/xlink">
<g id="graph1" class="graph" transform="scale(1 1) rotate(0) translate(4 170)">
<title>Levels within Main</title>
<polygon fill="white" stroke="white" points="-4,5 -4,-170 351,-170 351,5 -4,5"/>
<g id="graph2" class="cluster"><title>cluster_&#45;1</title>
<polygon fill="lavender" stroke="black" points="8,-8 8,-158 162,-158 162,-8 8,-8"/>
<text text-anchor="middle" x="85" y="-141.4" font-family="Times Roman,serif" font-size="14.00">Inaccessible entities</text>
</g>
<g id="graph3" class="cluster"><title>cluster_0</title>
<polygon fill="lavender" stroke="black" points="170,-80 170,-158 338,-158 338,-80 170,-80"/>
<text text-anchor="middle" x="254" y="-141.4" font-family="Times Roman,serif" font-size="14.00">Exported root entities</text>
</g>
<!-- 1 -->
<g id="node2" class="node"><title>1</title>
<polygon fill="crimson" stroke="black" stroke-width="2" points="125,-124 45,-124 45,-88 125,-88 125,-124"/>
<text text-anchor="middle" x="85" y="-102.4" font-family="Times Roman,serif" font-size="14.00">init</text>
</g>
<!-- 3 -->
<g id="node3" class="node"><title>3</title>
<polygon fill="crimson" stroke="black" stroke-width="2" points="148,-52 22,-52 22,-16 148,-16 148,-52"/>
<text text-anchor="middle" x="85" y="-30.4" font-family="Times Roman,serif" font-size="14.00">parseArgs</text>
</g>
<!-- 1&#45;&gt;3 -->
<g id="edge4" class="edge"><title>1&#45;&gt;3</title>
<path fill="none" stroke="chartreuse" d="M85,-87.8314C85,-80.131 85,-70.9743 85,-62.4166"/>
<polygon fill="chartreuse" stroke="chartreuse" points="88.5001,-62.4132 85,-52.4133 81.5001,-62.4133 88.5001,-62.4132"/>
</g>
<!-- 2 -->
<g id="node5" class="node"><title>2</title>
<polygon fill="gold" stroke="black" stroke-width="2" points="300,-124 208,-124 208,-88 300,-88 300,-124"/>
<text text-anchor="middle" x="254" y="-102.4" font-family="Times Roman,serif" font-size="14.00">main</text>
</g>
</g>
</svg>
