<?xml version="1.0" encoding="UTF-8" standalone="no"?>
<!DOCTYPE svg PUBLIC "-//W3C//DTD SVG 1.1//EN"
 "http://www.w3.org/Graphics/SVG/1.1/DTD/svg11.dtd">
<!-- Generated by graphviz version 2.26.3 (20100126.1600)
 -->
<!-- Title: Diagram of: Main Pages: 1 -->
<svg width="221pt" height="116pt"
 viewBox="0.00 0.00 221.00 116.00" xmlns="http://www.w3.org/2000/svg" xmlns:xlink="http://www.w3.org/1999/xlink">
<g id="graph1" class="graph" transform="scale(1 1) rotate(0) translate(4 112)">
<title>Diagram of: Main</title>
<polygon fill="white" stroke="white" points="-4,5 -4,-112 218,-112 218,5 -4,5"/>
<!-- 1 -->
<g id="node1" class="node"><title>1</title>
<polygon fill="crimson" stroke="black" stroke-width="2" points="103,-108 23,-108 23,-72 103,-72 103,-108"/>
<text text-anchor="middle" x="63" y="-86.4" font-family="Times Roman,serif" font-size="14.00">init</text>
</g>
<!-- 3 -->
<g id="node3" class="node"><title>3</title>
<polygon fill="crimson" stroke="black" stroke-width="2" points="126,-36 4.26326e-14,-36 -7.10543e-15,-1.77636e-14 126,-3.55271e-15 126,-36"/>
<text text-anchor="middle" x="63" y="-14.4" font-family="Times Roman,serif" font-size="14.00">parseArgs</text>
</g>
<!-- 1&#45;&gt;3 -->
<g id="edge2" class="edge"><title>1&#45;&gt;3</title>
<path fill="none" stroke="chartreuse" d="M63,-71.8314C63,-64.131 63,-54.9743 63,-46.4166"/>
<polygon fill="chartreuse" stroke="chartreuse" points="66.5001,-46.4132 63,-36.4133 59.5001,-46.4133 66.5001,-46.4132"/>
</g>
<!-- 2 -->
<g id="node2" class="node"><title>2</title>
<polygon fill="gold" stroke="black" stroke-width="2" points="213,-108 121,-108 121,-72 213,-72 213,-108"/>
<text text-anchor="middle" x="167" y="-86.4" font-family="Times Roman,serif" font-size="14.00">main</text>
</g>
</g>
</svg>
