<?xml version="1.0" encoding="UTF-8" standalone="no"?>
<!DOCTYPE svg PUBLIC "-//W3C//DTD SVG 1.1//EN"
 "http://www.w3.org/Graphics/SVG/1.1/DTD/svg11.dtd">
<!-- Generated by graphviz version 2.26.3 (20100126.1600)
 -->
<!-- Title: Levels within Math Pages: 1 -->
<svg width="456pt" height="102pt"
 viewBox="0.00 0.00 456.00 102.00" xmlns="http://www.w3.org/2000/svg" xmlns:xlink="http://www.w3.org/1999/xlink">
<g id="graph1" class="graph" transform="scale(1 1) rotate(0) translate(4 98)">
<title>Levels within Math</title>
<polygon fill="white" stroke="white" points="-4,5 -4,-98 453,-98 453,5 -4,5"/>
<g id="graph2" class="cluster"><title>cluster_0</title>
<polygon fill="lavender" stroke="black" points="8,-8 8,-86 440,-86 440,-8 8,-8"/>
<text text-anchor="middle" x="224" y="-69.4" font-family="Times Roman,serif" font-size="14.00">Exported root entities</text>
</g>
<!-- 1 -->
<g id="node2" class="node"><title>1</title>
<polygon fill="gold" stroke="black" stroke-width="2" points="432,-52 254,-52 254,-16 432,-16 432,-52"/>
<text text-anchor="middle" x="343" y="-30.4" font-family="Times Roman,serif" font-size="14.00">distanceBetween</text>
</g>
<!-- 2 -->
<g id="node3" class="node"><title>2</title>
<polygon fill="gold" stroke="black" stroke-width="2" points="218,-52 114,-52 114,-16 218,-16 218,-52"/>
<text text-anchor="middle" x="166" y="-30.4" font-family="Times Roman,serif" font-size="14.00">fromTo</text>
</g>
<!-- 2&#45;&gt;2 -->
<g id="edge3" class="edge"><title>2&#45;&gt;2</title>
<path fill="none" stroke="black" d="M218.202,-40.4715C228.592,-39.7431 236,-37.5859 236,-34 236,-31.7588 233.106,-30.0757 228.399,-28.9507"/>
<polygon fill="black" stroke="black" points="228.59,-25.4435 218.202,-27.5285 227.623,-32.3764 228.59,-25.4435"/>
</g>
<!-- 3 -->
<g id="node4" class="node"><title>3</title>
<polygon fill="gold" stroke="black" stroke-width="2" points="96,-52 16,-52 16,-16 96,-16 96,-52"/>
<text text-anchor="middle" x="56" y="-30.4" font-family="Times Roman,serif" font-size="14.00">phi</text>
</g>
</g>
</svg>
