<?xml version="1.0" encoding="UTF-8" standalone="no"?>
<!DOCTYPE svg PUBLIC "-//W3C//DTD SVG 1.1//EN"
 "http://www.w3.org/Graphics/SVG/1.1/DTD/svg11.dtd">
<!-- Generated by graphviz version 2.26.3 (20100126.1600)
 -->
<!-- Title: Diagram of: Math Pages: 1 -->
<svg width="424pt" height="44pt"
 viewBox="0.00 0.00 424.00 44.00" xmlns="http://www.w3.org/2000/svg" xmlns:xlink="http://www.w3.org/1999/xlink">
<g id="graph1" class="graph" transform="scale(1 1) rotate(0) translate(4 40)">
<title>Diagram of: Math</title>
<polygon fill="white" stroke="white" points="-4,5 -4,-40 421,-40 421,5 -4,5"/>
<!-- 1 -->
<g id="node1" class="node"><title>1</title>
<polygon fill="gold" stroke="black" stroke-width="2" points="178,-36 8.52651e-14,-36 0,-1.77636e-14 178,-3.55271e-15 178,-36"/>
<text text-anchor="middle" x="89" y="-14.4" font-family="Times Roman,serif" font-size="14.00">distanceBetween</text>
</g>
<!-- 2 -->
<g id="node2" class="node"><title>2</title>
<polygon fill="gold" stroke="black" stroke-width="2" points="300,-36 196,-36 196,-1.77636e-14 300,-3.55271e-15 300,-36"/>
<text text-anchor="middle" x="248" y="-14.4" font-family="Times Roman,serif" font-size="14.00">fromTo</text>
</g>
<!-- 2&#45;&gt;2 -->
<g id="edge2" class="edge"><title>2&#45;&gt;2</title>
<path fill="none" stroke="black" d="M300.202,-24.4715C310.592,-23.7431 318,-21.5859 318,-18 318,-15.7588 315.106,-14.0757 310.399,-12.9507"/>
<polygon fill="black" stroke="black" points="310.59,-9.44352 300.202,-11.5285 309.623,-16.3764 310.59,-9.44352"/>
</g>
<!-- 3 -->
<g id="node3" class="node"><title>3</title>
<polygon fill="gold" stroke="black" stroke-width="2" points="416,-36 336,-36 336,-1.77636e-14 416,-3.55271e-15 416,-36"/>
<text text-anchor="middle" x="376" y="-14.4" font-family="Times Roman,serif" font-size="14.00">phi</text>
</g>
</g>
</svg>
