<?xml version="1.0" encoding="UTF-8" standalone="no"?>
<!DOCTYPE svg PUBLIC "-//W3C//DTD SVG 1.1//EN"
 "http://www.w3.org/Graphics/SVG/1.1/DTD/svg11.dtd">
<!-- Generated by graphviz version 2.26.3 (20100126.1600)
 -->
<!-- Title: Diagram of: Misc Pages: 1 -->
<svg width="482pt" height="44pt"
 viewBox="0.00 0.00 482.00 44.00" xmlns="http://www.w3.org/2000/svg" xmlns:xlink="http://www.w3.org/1999/xlink">
<g id="graph1" class="graph" transform="scale(1 1) rotate(0) translate(4 40)">
<title>Diagram of: Misc</title>
<polygon fill="white" stroke="white" points="-4,5 -4,-40 479,-40 479,5 -4,5"/>
<!-- 1 -->
<g id="node1" class="node"><title>1</title>
<polygon fill="gold" stroke="black" stroke-width="2" points="100,-36 3.55271e-14,-36 0,-1.77636e-14 100,-3.55271e-15 100,-36"/>
<text text-anchor="middle" x="50" y="-14.4" font-family="Times Roman,serif" font-size="14.00">colour</text>
</g>
<!-- 2 -->
<g id="node2" class="node"><title>2</title>
<polygon fill="gold" stroke="black" stroke-width="2" points="246,-36 118,-36 118,-1.77636e-14 246,-3.55271e-15 246,-36"/>
<text text-anchor="middle" x="182" y="-14.4" font-family="Times Roman,serif" font-size="14.00">evenScale</text>
</g>
<!-- 3 -->
<g id="node3" class="node"><title>3</title>
<polygon fill="gold" stroke="black" stroke-width="2" points="358,-36 264,-36 264,-1.77636e-14 358,-3.55271e-15 358,-36"/>
<text text-anchor="middle" x="311" y="-14.4" font-family="Times Roman,serif" font-size="14.00">vec3f</text>
</g>
<!-- 4 -->
<g id="node4" class="node"><title>4</title>
<polygon fill="gold" stroke="black" stroke-width="2" points="474,-36 376,-36 376,-1.77636e-14 474,-3.55271e-15 474,-36"/>
<text text-anchor="middle" x="425" y="-14.4" font-family="Times Roman,serif" font-size="14.00">ver3d</text>
</g>
</g>
</svg>
