<?xml version="1.0" encoding="UTF-8" standalone="no"?>
<!DOCTYPE svg PUBLIC "-//W3C//DTD SVG 1.1//EN"
 "http://www.w3.org/Graphics/SVG/1.1/DTD/svg11.dtd">
<!-- Generated by graphviz version 2.26.3 (20100126.1600)
 -->
<!-- Title: Levels within Misc Pages: 1 -->
<svg width="514pt" height="102pt"
 viewBox="0.00 0.00 514.00 102.00" xmlns="http://www.w3.org/2000/svg" xmlns:xlink="http://www.w3.org/1999/xlink">
<g id="graph1" class="graph" transform="scale(1 1) rotate(0) translate(4 98)">
<title>Levels within Misc</title>
<polygon fill="white" stroke="white" points="-4,5 -4,-98 511,-98 511,5 -4,5"/>
<g id="graph2" class="cluster"><title>cluster_0</title>
<polygon fill="lavender" stroke="black" points="8,-8 8,-86 498,-86 498,-8 8,-8"/>
<text text-anchor="middle" x="253" y="-69.4" font-family="Times Roman,serif" font-size="14.00">Exported root entities</text>
</g>
<!-- 1 -->
<g id="node2" class="node"><title>1</title>
<polygon fill="gold" stroke="black" stroke-width="2" points="490,-52 390,-52 390,-16 490,-16 490,-52"/>
<text text-anchor="middle" x="440" y="-30.4" font-family="Times Roman,serif" font-size="14.00">colour</text>
</g>
<!-- 2 -->
<g id="node3" class="node"><title>2</title>
<polygon fill="gold" stroke="black" stroke-width="2" points="372,-52 244,-52 244,-16 372,-16 372,-52"/>
<text text-anchor="middle" x="308" y="-30.4" font-family="Times Roman,serif" font-size="14.00">evenScale</text>
</g>
<!-- 3 -->
<g id="node4" class="node"><title>3</title>
<polygon fill="gold" stroke="black" stroke-width="2" points="226,-52 132,-52 132,-16 226,-16 226,-52"/>
<text text-anchor="middle" x="179" y="-30.4" font-family="Times Roman,serif" font-size="14.00">vec3f</text>
</g>
<!-- 4 -->
<g id="node5" class="node"><title>4</title>
<polygon fill="gold" stroke="black" stroke-width="2" points="114,-52 16,-52 16,-16 114,-16 114,-52"/>
<text text-anchor="middle" x="65" y="-30.4" font-family="Times Roman,serif" font-size="14.00">ver3d</text>
</g>
</g>
</svg>
