<?xml version="1.0" encoding="UTF-8" standalone="no"?>
<!DOCTYPE svg PUBLIC "-//W3C//DTD SVG 1.1//EN"
 "http://www.w3.org/Graphics/SVG/1.1/DTD/svg11.dtd">
<!-- Generated by graphviz version 2.26.3 (20100126.1600)
 -->
<!-- Title: Levels within ProgramState Pages: 1 -->
<svg width="1982pt" height="102pt"
 viewBox="0.00 0.00 1982.00 102.00" xmlns="http://www.w3.org/2000/svg" xmlns:xlink="http://www.w3.org/1999/xlink">
<g id="graph1" class="graph" transform="scale(1 1) rotate(0) translate(4 98)">
<title>Levels within ProgramState</title>
<polygon fill="white" stroke="white" points="-4,5 -4,-98 1979,-98 1979,5 -4,5"/>
<g id="graph2" class="cluster"><title>cluster_0</title>
<polygon fill="lavender" stroke="black" points="8,-8 8,-86 1966,-86 1966,-8 8,-8"/>
<text text-anchor="middle" x="987" y="-69.4" font-family="Times Roman,serif" font-size="14.00">Exported root entities</text>
</g>
<!-- 1 -->
<g id="node2" class="node"><title>1</title>
<polygon fill="gold" stroke="black" stroke-width="2" points="1958,-52 1798,-52 1798,-16 1958,-16 1958,-52"/>
<text text-anchor="middle" x="1878" y="-30.4" font-family="Times Roman,serif" font-size="14.00">extractDNARef</text>
</g>
<!-- 2 -->
<g id="node3" class="node"><title>2</title>
<polygon fill="gold" stroke="black" stroke-width="2" points="1780,-52 1614,-52 1614,-16 1780,-16 1780,-52"/>
<text text-anchor="middle" x="1697" y="-30.4" font-family="Times Roman,serif" font-size="14.00">extractLevelRef</text>
</g>
<!-- 3 -->
<g id="node4" class="node"><title>3</title>
<polygon fill="gold" stroke="black" stroke-width="2" points="1596,-52 1430,-52 1430,-16 1596,-16 1596,-52"/>
<text text-anchor="middle" x="1513" y="-30.4" font-family="Times Roman,serif" font-size="14.00">extractModeRef</text>
</g>
<!-- 4 -->
<g id="node5" class="node"><title>4</title>
<polygon fill="gold" stroke="black" stroke-width="2" points="1412,-52 1262,-52 1262,-16 1412,-16 1412,-52"/>
<text text-anchor="middle" x="1337" y="-30.4" font-family="Times Roman,serif" font-size="14.00">extractRXRef</text>
</g>
<!-- 5 -->
<g id="node6" class="node"><title>5</title>
<polygon fill="gold" stroke="black" stroke-width="2" points="1244,-52 1098,-52 1098,-16 1244,-16 1244,-52"/>
<text text-anchor="middle" x="1171" y="-30.4" font-family="Times Roman,serif" font-size="14.00">extractRYRef</text>
</g>
<!-- 6 -->
<g id="node7" class="node"><title>6</title>
<polygon fill="gold" stroke="black" stroke-width="2" points="1080,-52 932,-52 932,-16 1080,-16 1080,-52"/>
<text text-anchor="middle" x="1006" y="-30.4" font-family="Times Roman,serif" font-size="14.00">extractRZRef</text>
</g>
<!-- 7 -->
<g id="node8" class="node"><title>7</title>
<polygon fill="gold" stroke="black" stroke-width="2" points="914,-52 766,-52 766,-16 914,-16 914,-52"/>
<text text-anchor="middle" x="840" y="-30.4" font-family="Times Roman,serif" font-size="14.00">extractTXRef</text>
</g>
<!-- 8 -->
<g id="node9" class="node"><title>8</title>
<polygon fill="gold" stroke="black" stroke-width="2" points="748,-52 600,-52 600,-16 748,-16 748,-52"/>
<text text-anchor="middle" x="674" y="-30.4" font-family="Times Roman,serif" font-size="14.00">extractTYRef</text>
</g>
<!-- 9 -->
<g id="node10" class="node"><title>9</title>
<polygon fill="gold" stroke="black" stroke-width="2" points="582,-52 404,-52 404,-16 582,-16 582,-52"/>
<text text-anchor="middle" x="493" y="-30.4" font-family="Times Roman,serif" font-size="14.00">extractUpdateRef</text>
</g>
<!-- 10 -->
<g id="node11" class="node"><title>10</title>
<polygon fill="gold" stroke="black" stroke-width="2" points="386,-52 218,-52 218,-16 386,-16 386,-52"/>
<text text-anchor="middle" x="302" y="-30.4" font-family="Times Roman,serif" font-size="14.00">extractZoomRef</text>
</g>
<!-- 11 -->
<g id="node12" class="node"><title>11</title>
<polygon fill="gold" stroke="black" stroke-width="2" points="200,-52 16,-52 16,-16 200,-16 200,-52"/>
<text text-anchor="middle" x="108" y="-30.4" font-family="Times Roman,serif" font-size="14.00">newProgramState</text>
</g>
</g>
</svg>
