<?xml version="1.0" encoding="UTF-8" standalone="no"?>
<!DOCTYPE svg PUBLIC "-//W3C//DTD SVG 1.1//EN"
 "http://www.w3.org/Graphics/SVG/1.1/DTD/svg11.dtd">
<!-- Generated by graphviz version 2.26.3 (20100126.1600)
 -->
<!-- Title: Diagram of: ProgramState Pages: 1 -->
<svg width="1950pt" height="44pt"
 viewBox="0.00 0.00 1950.00 44.00" xmlns="http://www.w3.org/2000/svg" xmlns:xlink="http://www.w3.org/1999/xlink">
<g id="graph1" class="graph" transform="scale(1 1) rotate(0) translate(4 40)">
<title>Diagram of: ProgramState</title>
<polygon fill="white" stroke="white" points="-4,5 -4,-40 1947,-40 1947,5 -4,5"/>
<!-- 1 -->
<g id="node1" class="node"><title>1</title>
<polygon fill="gold" stroke="black" stroke-width="2" points="160,-36 8.52651e-14,-36 0,-1.77636e-14 160,-3.55271e-15 160,-36"/>
<text text-anchor="middle" x="80" y="-14.4" font-family="Times Roman,serif" font-size="14.00">extractDNARef</text>
</g>
<!-- 2 -->
<g id="node2" class="node"><title>2</title>
<polygon fill="gold" stroke="black" stroke-width="2" points="344,-36 178,-36 178,-1.77636e-14 344,-3.55271e-15 344,-36"/>
<text text-anchor="middle" x="261" y="-14.4" font-family="Times Roman,serif" font-size="14.00">extractLevelRef</text>
</g>
<!-- 3 -->
<g id="node3" class="node"><title>3</title>
<polygon fill="gold" stroke="black" stroke-width="2" points="528,-36 362,-36 362,-1.77636e-14 528,-3.55271e-15 528,-36"/>
<text text-anchor="middle" x="445" y="-14.4" font-family="Times Roman,serif" font-size="14.00">extractModeRef</text>
</g>
<!-- 4 -->
<g id="node4" class="node"><title>4</title>
<polygon fill="gold" stroke="black" stroke-width="2" points="696,-36 546,-36 546,-1.77636e-14 696,-3.55271e-15 696,-36"/>
<text text-anchor="middle" x="621" y="-14.4" font-family="Times Roman,serif" font-size="14.00">extractRXRef</text>
</g>
<!-- 5 -->
<g id="node5" class="node"><title>5</title>
<polygon fill="gold" stroke="black" stroke-width="2" points="860,-36 714,-36 714,-1.77636e-14 860,-3.55271e-15 860,-36"/>
<text text-anchor="middle" x="787" y="-14.4" font-family="Times Roman,serif" font-size="14.00">extractRYRef</text>
</g>
<!-- 6 -->
<g id="node6" class="node"><title>6</title>
<polygon fill="gold" stroke="black" stroke-width="2" points="1026,-36 878,-36 878,-1.77636e-14 1026,-3.55271e-15 1026,-36"/>
<text text-anchor="middle" x="952" y="-14.4" font-family="Times Roman,serif" font-size="14.00">extractRZRef</text>
</g>
<!-- 7 -->
<g id="node7" class="node"><title>7</title>
<polygon fill="gold" stroke="black" stroke-width="2" points="1192,-36 1044,-36 1044,-1.77636e-14 1192,-3.55271e-15 1192,-36"/>
<text text-anchor="middle" x="1118" y="-14.4" font-family="Times Roman,serif" font-size="14.00">extractTXRef</text>
</g>
<!-- 8 -->
<g id="node8" class="node"><title>8</title>
<polygon fill="gold" stroke="black" stroke-width="2" points="1358,-36 1210,-36 1210,-1.77636e-14 1358,-3.55271e-15 1358,-36"/>
<text text-anchor="middle" x="1284" y="-14.4" font-family="Times Roman,serif" font-size="14.00">extractTYRef</text>
</g>
<!-- 9 -->
<g id="node9" class="node"><title>9</title>
<polygon fill="gold" stroke="black" stroke-width="2" points="1554,-36 1376,-36 1376,-1.77636e-14 1554,-3.55271e-15 1554,-36"/>
<text text-anchor="middle" x="1465" y="-14.4" font-family="Times Roman,serif" font-size="14.00">extractUpdateRef</text>
</g>
<!-- 10 -->
<g id="node10" class="node"><title>10</title>
<polygon fill="gold" stroke="black" stroke-width="2" points="1740,-36 1572,-36 1572,-1.77636e-14 1740,-3.55271e-15 1740,-36"/>
<text text-anchor="middle" x="1656" y="-14.4" font-family="Times Roman,serif" font-size="14.00">extractZoomRef</text>
</g>
<!-- 11 -->
<g id="node11" class="node"><title>11</title>
<polygon fill="gold" stroke="black" stroke-width="2" points="1942,-36 1758,-36 1758,-1.77636e-14 1942,-3.55271e-15 1942,-36"/>
<text text-anchor="middle" x="1850" y="-14.4" font-family="Times Roman,serif" font-size="14.00">newProgramState</text>
</g>
</g>
</svg>
