<?xml version="1.0" encoding="UTF-8" standalone="no"?>
<!DOCTYPE svg PUBLIC "-//W3C//DTD SVG 1.1//EN"
 "http://www.w3.org/Graphics/SVG/1.1/DTD/svg11.dtd">
<!-- Generated by graphviz version 2.26.3 (20100126.1600)
 -->
<!-- Title: Diagram of: ProgramState Pages: 1 -->
<svg width="2172pt" height="44pt"
 viewBox="0.00 0.00 2172.00 44.00" xmlns="http://www.w3.org/2000/svg" xmlns:xlink="http://www.w3.org/1999/xlink">
<g id="graph1" class="graph" transform="scale(1 1) rotate(0) translate(4 40)">
<title>Diagram of: ProgramState</title>
<polygon fill="white" stroke="white" points="-4,5 -4,-40 2169,-40 2169,5 -4,5"/>
<!-- 1 -->
<g id="node1" class="node"><title>1</title>
<polygon fill="gold" stroke="black" stroke-width="2" points="160,-36 8.52651e-14,-36 0,-1.77636e-14 160,-3.55271e-15 160,-36"/>
<text text-anchor="middle" x="80" y="-14.4" font-family="Times Roman,serif" font-size="14.00">extractDNARef</text>
</g>
<!-- 2 -->
<g id="node2" class="node"><title>2</title>
<polygon fill="gold" stroke="black" stroke-width="2" points="382,-36 178,-36 178,-1.77636e-14 382,-3.55271e-15 382,-36"/>
<text text-anchor="middle" x="280" y="-14.4" font-family="Times Roman,serif" font-size="14.00">extractInteractiveRef</text>
</g>
<!-- 3 -->
<g id="node3" class="node"><title>3</title>
<polygon fill="gold" stroke="black" stroke-width="2" points="566,-36 400,-36 400,-1.77636e-14 566,-3.55271e-15 566,-36"/>
<text text-anchor="middle" x="483" y="-14.4" font-family="Times Roman,serif" font-size="14.00">extractLevelRef</text>
</g>
<!-- 4 -->
<g id="node4" class="node"><title>4</title>
<polygon fill="gold" stroke="black" stroke-width="2" points="750,-36 584,-36 584,-1.77636e-14 750,-3.55271e-15 750,-36"/>
<text text-anchor="middle" x="667" y="-14.4" font-family="Times Roman,serif" font-size="14.00">extractModeRef</text>
</g>
<!-- 5 -->
<g id="node5" class="node"><title>5</title>
<polygon fill="gold" stroke="black" stroke-width="2" points="918,-36 768,-36 768,-1.77636e-14 918,-3.55271e-15 918,-36"/>
<text text-anchor="middle" x="843" y="-14.4" font-family="Times Roman,serif" font-size="14.00">extractRXRef</text>
</g>
<!-- 6 -->
<g id="node6" class="node"><title>6</title>
<polygon fill="gold" stroke="black" stroke-width="2" points="1082,-36 936,-36 936,-1.77636e-14 1082,-3.55271e-15 1082,-36"/>
<text text-anchor="middle" x="1009" y="-14.4" font-family="Times Roman,serif" font-size="14.00">extractRYRef</text>
</g>
<!-- 7 -->
<g id="node7" class="node"><title>7</title>
<polygon fill="gold" stroke="black" stroke-width="2" points="1248,-36 1100,-36 1100,-1.77636e-14 1248,-3.55271e-15 1248,-36"/>
<text text-anchor="middle" x="1174" y="-14.4" font-family="Times Roman,serif" font-size="14.00">extractRZRef</text>
</g>
<!-- 8 -->
<g id="node8" class="node"><title>8</title>
<polygon fill="gold" stroke="black" stroke-width="2" points="1414,-36 1266,-36 1266,-1.77636e-14 1414,-3.55271e-15 1414,-36"/>
<text text-anchor="middle" x="1340" y="-14.4" font-family="Times Roman,serif" font-size="14.00">extractTXRef</text>
</g>
<!-- 9 -->
<g id="node9" class="node"><title>9</title>
<polygon fill="gold" stroke="black" stroke-width="2" points="1580,-36 1432,-36 1432,-1.77636e-14 1580,-3.55271e-15 1580,-36"/>
<text text-anchor="middle" x="1506" y="-14.4" font-family="Times Roman,serif" font-size="14.00">extractTYRef</text>
</g>
<!-- 10 -->
<g id="node10" class="node"><title>10</title>
<polygon fill="gold" stroke="black" stroke-width="2" points="1776,-36 1598,-36 1598,-1.77636e-14 1776,-3.55271e-15 1776,-36"/>
<text text-anchor="middle" x="1687" y="-14.4" font-family="Times Roman,serif" font-size="14.00">extractUpdateRef</text>
</g>
<!-- 11 -->
<g id="node11" class="node"><title>11</title>
<polygon fill="gold" stroke="black" stroke-width="2" points="1962,-36 1794,-36 1794,-1.77636e-14 1962,-3.55271e-15 1962,-36"/>
<text text-anchor="middle" x="1878" y="-14.4" font-family="Times Roman,serif" font-size="14.00">extractZoomRef</text>
</g>
<!-- 12 -->
<g id="node12" class="node"><title>12</title>
<polygon fill="gold" stroke="black" stroke-width="2" points="2164,-36 1980,-36 1980,-1.77636e-14 2164,-3.55271e-15 2164,-36"/>
<text text-anchor="middle" x="2072" y="-14.4" font-family="Times Roman,serif" font-size="14.00">newProgramState</text>
</g>
</g>
</svg>
